<svg xmlns="http://www.w3.org/2000/svg" xmlns:xlink="http://www.w3.org/1999/xlink" width="50" zoomAndPan="magnify" viewBox="0 0 37.5 37.499999" height="50" preserveAspectRatio="xMidYMid meet" version="1.0"><defs><g/><clipPath id="984777e03b"><path d="M 3.699219 2.476562 L 33.304688 2.476562 L 33.304688 35 L 3.699219 35 Z M 3.699219 2.476562 " clip-rule="nonzero"/></clipPath></defs><g clip-path="url(#984777e03b)"><path fill="#000000" d="M 7.132812 9.265625 L 20.128906 9.265625 C 20.328125 9.265625 20.480469 9.179688 20.589844 9.011719 C 20.648438 8.917969 20.675781 8.816406 20.675781 8.707031 L 20.675781 5.8125 C 20.675781 5.660156 20.621094 5.527344 20.515625 5.417969 C 20.410156 5.308594 20.28125 5.253906 20.128906 5.253906 L 7.132812 5.253906 C 6.980469 5.253906 6.851562 5.308594 6.746094 5.417969 C 6.640625 5.527344 6.585938 5.660156 6.585938 5.8125 L 6.585938 8.707031 C 6.585938 8.863281 6.640625 8.992188 6.746094 9.101562 C 6.851562 9.210938 6.980469 9.265625 7.132812 9.265625 Z M 7.679688 6.367188 L 19.582031 6.367188 L 19.582031 8.152344 L 7.679688 8.152344 Z M 8.992188 21.5625 L 7.132812 21.5625 C 6.980469 21.566406 6.851562 21.621094 6.746094 21.730469 C 6.640625 21.839844 6.585938 21.96875 6.585938 22.121094 L 6.585938 23.960938 C 6.585938 24.117188 6.640625 24.246094 6.746094 24.355469 C 6.851562 24.464844 6.980469 24.519531 7.132812 24.519531 L 8.992188 24.519531 C 9.140625 24.519531 9.273438 24.464844 9.378906 24.355469 C 9.484375 24.246094 9.539062 24.117188 9.539062 23.960938 L 9.539062 22.121094 C 9.539062 21.96875 9.484375 21.835938 9.378906 21.726562 C 9.273438 21.617188 9.140625 21.566406 8.992188 21.5625 Z M 8.441406 23.40625 L 7.679688 23.40625 L 7.679688 22.675781 L 8.441406 22.675781 Z M 22.066406 19.558594 C 22.304688 19.316406 22.589844 19.171875 22.917969 19.117188 L 22.917969 18.789062 C 22.914062 18.632812 22.964844 18.5 23.074219 18.386719 C 23.179688 18.277344 23.3125 18.21875 23.464844 18.21875 C 23.617188 18.21875 23.75 18.277344 23.855469 18.386719 C 23.960938 18.5 24.015625 18.632812 24.011719 18.789062 L 24.011719 19.117188 C 24.316406 19.167969 24.585938 19.300781 24.8125 19.519531 C 24.828125 19.53125 24.839844 19.542969 24.855469 19.558594 C 25.097656 19.804688 25.246094 20.097656 25.296875 20.441406 C 25.308594 20.519531 25.316406 20.597656 25.316406 20.675781 C 25.316406 20.832031 25.261719 20.960938 25.152344 21.070312 C 25.046875 21.179688 24.917969 21.234375 24.765625 21.234375 C 24.613281 21.234375 24.484375 21.179688 24.378906 21.070312 C 24.269531 20.960938 24.214844 20.832031 24.214844 20.675781 C 24.21875 20.625 24.207031 20.570312 24.1875 20.523438 C 24.164062 20.453125 24.128906 20.394531 24.078125 20.34375 C 23.988281 20.253906 23.878906 20.207031 23.753906 20.207031 L 23.167969 20.207031 C 23.042969 20.207031 22.933594 20.253906 22.84375 20.34375 C 22.816406 20.367188 22.796875 20.394531 22.777344 20.425781 C 22.652344 20.632812 22.667969 20.824219 22.832031 21 C 22.921875 21.097656 23.035156 21.148438 23.167969 21.148438 L 23.757812 21.148438 C 24.089844 21.148438 24.390625 21.25 24.664062 21.445312 C 24.734375 21.496094 24.796875 21.550781 24.859375 21.613281 L 24.890625 21.648438 C 25.082031 21.855469 25.210938 22.097656 25.273438 22.375 C 25.300781 22.492188 25.316406 22.609375 25.3125 22.730469 C 25.3125 23.042969 25.230469 23.332031 25.0625 23.59375 C 25 23.6875 24.933594 23.773438 24.855469 23.855469 C 24.617188 24.09375 24.335938 24.242188 24.003906 24.296875 L 24.003906 24.625 C 24.007812 24.78125 23.957031 24.914062 23.851562 25.027344 C 23.742188 25.136719 23.613281 25.195312 23.460938 25.195312 C 23.304688 25.195312 23.175781 25.136719 23.070312 25.027344 C 22.960938 24.914062 22.910156 24.78125 22.914062 24.625 L 22.914062 24.296875 C 22.746094 24.265625 22.585938 24.210938 22.433594 24.128906 C 22.296875 24.054688 22.175781 23.964844 22.066406 23.855469 C 21.761719 23.546875 21.605469 23.171875 21.605469 22.730469 C 21.605469 22.578125 21.660156 22.445312 21.769531 22.335938 C 21.875 22.226562 22.003906 22.171875 22.15625 22.171875 C 22.308594 22.171875 22.4375 22.226562 22.542969 22.335938 C 22.652344 22.445312 22.707031 22.578125 22.707031 22.730469 C 22.703125 22.863281 22.75 22.972656 22.839844 23.066406 C 22.929688 23.160156 23.039062 23.207031 23.167969 23.207031 L 23.75 23.207031 C 23.878906 23.207031 23.988281 23.160156 24.082031 23.066406 C 24.171875 22.976562 24.21875 22.863281 24.21875 22.734375 C 24.21875 22.644531 24.195312 22.5625 24.148438 22.488281 C 24.132812 22.464844 24.117188 22.441406 24.097656 22.417969 C 24.003906 22.316406 23.890625 22.265625 23.75 22.261719 L 23.171875 22.261719 C 22.910156 22.261719 22.664062 22.199219 22.433594 22.074219 C 22.300781 22 22.175781 21.90625 22.070312 21.796875 L 22.042969 21.769531 C 21.902344 21.621094 21.792969 21.449219 21.71875 21.257812 C 21.644531 21.066406 21.609375 20.867188 21.613281 20.660156 C 21.613281 20.453125 21.65625 20.253906 21.734375 20.066406 C 21.8125 19.875 21.925781 19.707031 22.066406 19.5625 Z M 20.128906 10.511719 L 18.269531 10.511719 C 18.121094 10.511719 17.992188 10.566406 17.886719 10.675781 C 17.777344 10.785156 17.726562 10.914062 17.726562 11.066406 L 17.726562 12.910156 C 17.726562 13.0625 17.777344 13.191406 17.886719 13.300781 C 17.992188 13.410156 18.121094 13.464844 18.269531 13.464844 L 20.128906 13.464844 C 20.28125 13.464844 20.410156 13.410156 20.515625 13.300781 C 20.621094 13.191406 20.675781 13.0625 20.675781 12.910156 L 20.675781 11.070312 C 20.675781 10.914062 20.621094 10.785156 20.515625 10.675781 C 20.410156 10.566406 20.28125 10.511719 20.128906 10.511719 Z M 19.582031 12.351562 L 18.820312 12.351562 L 18.820312 11.625 L 19.582031 11.625 Z M 20.128906 14.195312 L 18.269531 14.195312 C 18.121094 14.195312 17.992188 14.25 17.886719 14.359375 C 17.777344 14.46875 17.726562 14.597656 17.726562 14.75 L 17.726562 16.59375 C 17.726562 16.746094 17.777344 16.878906 17.886719 16.988281 C 17.992188 17.097656 18.121094 17.152344 18.269531 17.152344 L 20.128906 17.152344 C 20.265625 17.152344 20.382812 17.109375 20.484375 17.019531 C 20.585938 16.929688 20.648438 16.816406 20.664062 16.679688 C 20.671875 16.652344 20.675781 16.625 20.671875 16.59375 L 20.671875 14.753906 C 20.675781 14.601562 20.621094 14.46875 20.515625 14.359375 C 20.410156 14.25 20.28125 14.195312 20.128906 14.195312 Z M 19.582031 16.039062 L 18.820312 16.039062 L 18.820312 15.3125 L 19.582031 15.3125 Z M 33.242188 31.453125 C 33.246094 31.433594 33.246094 31.410156 33.25 31.390625 L 33.25 30.929688 L 33.257812 30.929688 L 33.257812 8.511719 C 33.257812 8.355469 33.203125 8.222656 33.097656 8.113281 C 32.988281 8 32.855469 7.945312 32.703125 7.945312 L 23.566406 7.945312 L 23.566406 4.636719 C 23.5625 4.355469 23.511719 4.085938 23.40625 3.828125 C 23.300781 3.570312 23.148438 3.34375 22.953125 3.144531 C 22.761719 2.949219 22.535156 2.796875 22.28125 2.6875 C 22.027344 2.582031 21.761719 2.527344 21.488281 2.523438 L 5.773438 2.523438 C 5.5 2.527344 5.234375 2.578125 4.980469 2.6875 C 4.726562 2.792969 4.5 2.945312 4.308594 3.144531 C 4.113281 3.34375 3.964844 3.570312 3.859375 3.828125 C 3.753906 4.085938 3.699219 4.355469 3.699219 4.636719 L 3.699219 25.140625 C 3.699219 25.417969 3.753906 25.6875 3.859375 25.945312 C 3.964844 26.203125 4.113281 26.433594 4.308594 26.628906 C 4.5 26.828125 4.726562 26.980469 4.980469 27.085938 C 5.234375 27.195312 5.5 27.25 5.773438 27.25 L 7.792969 27.25 L 7.792969 34.414062 C 7.792969 34.507812 7.816406 34.59375 7.859375 34.675781 C 7.90625 34.757812 7.964844 34.824219 8.042969 34.875 C 8.121094 34.925781 8.203125 34.953125 8.296875 34.960938 C 8.386719 34.96875 8.476562 34.953125 8.558594 34.917969 L 22.636719 34.917969 C 22.765625 34.921875 22.882812 34.878906 22.980469 34.792969 C 23.082031 34.707031 23.140625 34.601562 23.15625 34.46875 C 23.175781 34.414062 23.1875 34.359375 23.1875 34.300781 L 23.1875 32.214844 L 32.738281 32.214844 C 32.828125 32.214844 32.914062 32.191406 32.992188 32.148438 C 33.070312 32.105469 33.136719 32.046875 33.1875 31.972656 C 33.238281 31.894531 33.265625 31.8125 33.277344 31.722656 C 33.285156 31.628906 33.273438 31.542969 33.242188 31.457031 Z M 24.953125 17.550781 C 25.273438 17.675781 25.574219 17.832031 25.859375 18.019531 C 26.007812 18.125 26.152344 18.238281 26.289062 18.359375 C 26.371094 18.429688 26.445312 18.5 26.519531 18.574219 C 26.839844 18.90625 27.105469 19.28125 27.3125 19.695312 C 27.441406 19.953125 27.542969 20.222656 27.621094 20.503906 C 27.71875 20.855469 27.773438 21.214844 27.78125 21.582031 C 27.785156 21.625 27.785156 21.667969 27.785156 21.710938 C 27.785156 22.316406 27.667969 22.898438 27.4375 23.457031 C 27.320312 23.742188 27.171875 24.011719 26.996094 24.261719 C 26.855469 24.46875 26.695312 24.660156 26.523438 24.835938 C 26.214844 25.152344 25.863281 25.417969 25.472656 25.625 C 25.082031 25.835938 24.671875 25.980469 24.238281 26.0625 C 23.804688 26.140625 23.371094 26.152344 22.933594 26.097656 C 22.496094 26.042969 22.074219 25.921875 21.675781 25.738281 L 21.675781 25.679688 L 21.558594 25.679688 L 21.398438 25.597656 C 21.152344 25.460938 20.925781 25.300781 20.710938 25.121094 L 20.679688 25.09375 C 20.652344 25.070312 20.625 25.046875 20.59375 25.027344 C 20.578125 25.003906 20.5625 24.984375 20.542969 24.96875 C 20.503906 24.933594 20.464844 24.898438 20.429688 24.855469 L 20.398438 24.832031 C 20.265625 24.695312 20.140625 24.550781 20.027344 24.398438 L 19.996094 24.347656 C 19.957031 24.296875 19.917969 24.246094 19.886719 24.191406 L 19.832031 24.109375 C 19.816406 24.085938 19.800781 24.066406 19.789062 24.042969 L 19.765625 23.996094 C 19.699219 23.886719 19.636719 23.769531 19.582031 23.652344 L 19.542969 23.574219 C 19.527344 23.535156 19.507812 23.496094 19.492188 23.460938 L 19.441406 23.332031 C 19.433594 23.308594 19.421875 23.285156 19.410156 23.253906 L 19.34375 23.046875 C 19.324219 22.984375 19.304688 22.917969 19.285156 22.851562 C 19.28125 22.828125 19.277344 22.808594 19.269531 22.785156 L 19.234375 22.636719 C 19.226562 22.558594 19.214844 22.480469 19.195312 22.40625 L 19.191406 22.390625 L 19.167969 22.207031 C 19.164062 22.179688 19.164062 22.152344 19.160156 22.121094 C 19.15625 22.09375 19.15625 22.066406 19.152344 22.039062 L 19.148438 21.972656 C 19.148438 21.957031 19.144531 21.9375 19.148438 21.921875 C 19.144531 21.851562 19.140625 21.78125 19.140625 21.710938 C 19.140625 21.640625 19.144531 21.566406 19.148438 21.492188 L 19.164062 21.253906 C 19.164062 21.234375 19.164062 21.214844 19.167969 21.195312 L 19.289062 20.550781 C 19.296875 20.507812 19.308594 20.472656 19.328125 20.421875 L 19.390625 20.214844 C 19.398438 20.191406 19.40625 20.167969 19.417969 20.148438 C 19.433594 20.105469 19.445312 20.066406 19.46875 20.011719 C 19.476562 19.988281 19.484375 19.96875 19.496094 19.949219 C 19.511719 19.90625 19.527344 19.871094 19.546875 19.832031 L 19.578125 19.761719 C 19.597656 19.722656 19.621094 19.679688 19.640625 19.640625 L 19.660156 19.574219 L 19.675781 19.574219 C 19.6875 19.546875 19.707031 19.515625 19.742188 19.457031 C 19.753906 19.433594 19.765625 19.410156 19.78125 19.390625 C 19.796875 19.363281 19.8125 19.335938 19.828125 19.308594 C 19.839844 19.292969 19.855469 19.269531 19.867188 19.25 L 19.960938 19.121094 C 19.980469 19.085938 20.003906 19.054688 20.039062 19.011719 C 20.050781 18.992188 20.066406 18.972656 20.101562 18.925781 C 20.125 18.898438 20.148438 18.871094 20.175781 18.835938 C 20.265625 18.734375 20.394531 18.59375 20.414062 18.570312 C 20.925781 18.074219 21.519531 17.710938 22.1875 17.480469 C 23.117188 17.222656 24.039062 17.246094 24.953125 17.554688 Z M 5.921875 26.136719 L 5.773438 26.132812 C 5.503906 26.132812 5.273438 26.035156 5.082031 25.839844 C 4.890625 25.648438 4.796875 25.414062 4.796875 25.140625 L 4.796875 4.636719 C 4.796875 4.359375 4.890625 4.125 5.085938 3.933594 C 5.273438 3.738281 5.503906 3.640625 5.773438 3.640625 L 21.488281 3.640625 C 21.757812 3.640625 21.988281 3.738281 22.179688 3.933594 C 22.371094 4.125 22.464844 4.359375 22.464844 4.632812 L 22.464844 16.265625 L 22.460938 16.265625 C 22.128906 16.328125 21.804688 16.425781 21.492188 16.550781 L 21.457031 16.5625 C 21.394531 16.589844 21.328125 16.617188 21.269531 16.648438 C 20.941406 16.792969 20.632812 16.976562 20.34375 17.1875 C 20.324219 17.199219 20.304688 17.210938 20.289062 17.226562 C 20.25 17.25 20.21875 17.277344 20.183594 17.304688 L 20.058594 17.40625 C 20.03125 17.425781 20.003906 17.449219 19.980469 17.476562 C 19.957031 17.488281 19.933594 17.507812 19.914062 17.53125 C 19.875 17.5625 19.832031 17.601562 19.796875 17.640625 C 19.777344 17.65625 19.757812 17.671875 19.742188 17.6875 C 19.707031 17.722656 19.675781 17.757812 19.632812 17.796875 C 19.605469 17.824219 19.574219 17.855469 19.546875 17.886719 L 18.269531 17.886719 C 18.121094 17.886719 17.992188 17.9375 17.886719 18.046875 C 17.777344 18.15625 17.726562 18.285156 17.726562 18.4375 L 17.726562 20.28125 C 17.726562 20.558594 17.859375 20.734375 18.121094 20.8125 C 18.117188 20.835938 18.109375 20.867188 18.105469 20.902344 L 18.097656 20.964844 C 18.09375 20.992188 18.089844 21.019531 18.089844 21.046875 L 18.058594 21.34375 C 18.058594 21.367188 18.058594 21.394531 18.050781 21.4375 C 18.050781 21.492188 18.050781 21.550781 18.050781 21.617188 C 17.832031 21.714844 17.726562 21.882812 17.726562 22.125 L 17.726562 23.96875 C 17.726562 24.121094 17.78125 24.25 17.886719 24.359375 C 17.992188 24.464844 18.121094 24.519531 18.269531 24.519531 L 18.800781 24.519531 L 19.011719 24.859375 C 19.019531 24.875 19.03125 24.886719 19.058594 24.925781 L 19.144531 25.046875 L 19.171875 25.085938 C 19.316406 25.277344 19.46875 25.457031 19.632812 25.625 C 19.816406 25.808594 20.007812 25.980469 20.210938 26.136719 Z M 22.085938 33.796875 L 8.898438 33.796875 L 8.898438 27.25 L 14.640625 27.25 L 14.640625 27.898438 L 10.964844 27.898438 C 10.8125 27.898438 10.683594 27.953125 10.574219 28.0625 C 10.46875 28.171875 10.414062 28.300781 10.414062 28.457031 C 10.414062 28.613281 10.46875 28.742188 10.574219 28.851562 C 10.683594 28.960938 10.8125 29.015625 10.964844 29.015625 L 14.640625 29.015625 L 14.640625 30.5 L 10.910156 30.5 C 10.757812 30.5 10.625 30.554688 10.519531 30.664062 C 10.410156 30.773438 10.355469 30.90625 10.355469 31.058594 C 10.355469 31.214844 10.410156 31.347656 10.519531 31.457031 C 10.625 31.566406 10.757812 31.621094 10.910156 31.621094 L 14.640625 31.621094 L 14.640625 31.652344 C 14.636719 31.800781 14.6875 31.925781 14.789062 32.03125 C 14.792969 32.039062 14.800781 32.042969 14.804688 32.050781 C 14.8125 32.058594 14.8125 32.058594 14.816406 32.0625 C 14.921875 32.167969 15.046875 32.21875 15.191406 32.214844 L 22.082031 32.214844 Z M 32.144531 31.09375 L 15.742188 31.09375 L 15.742188 27.25 L 21.488281 27.25 C 21.652344 27.25 21.816406 27.226562 21.976562 27.183594 C 22.0625 27.164062 22.152344 27.136719 22.238281 27.101562 C 23.148438 27.320312 24.054688 27.296875 24.957031 27.035156 C 25.855469 26.769531 26.636719 26.300781 27.292969 25.621094 C 27.625 25.285156 27.90625 24.914062 28.136719 24.5 L 30.144531 24.5 C 30.304688 24.507812 30.4375 24.453125 30.550781 24.339844 C 30.664062 24.230469 30.71875 24.09375 30.71875 23.933594 C 30.71875 23.773438 30.664062 23.636719 30.550781 23.527344 C 30.4375 23.414062 30.304688 23.363281 30.144531 23.367188 L 28.632812 23.367188 C 28.800781 22.824219 28.882812 22.273438 28.882812 21.707031 C 28.882812 21.167969 28.808594 20.640625 28.65625 20.125 C 28.609375 19.964844 28.558594 19.804688 28.496094 19.652344 C 28.320312 19.203125 28.089844 18.789062 27.808594 18.402344 L 30.148438 18.402344 C 30.300781 18.402344 30.433594 18.34375 30.542969 18.234375 C 30.652344 18.125 30.707031 17.988281 30.707031 17.832031 C 30.707031 17.675781 30.652344 17.542969 30.542969 17.429688 C 30.433594 17.320312 30.300781 17.265625 30.148438 17.265625 L 26.699219 17.265625 C 26.242188 16.914062 25.738281 16.644531 25.195312 16.457031 L 28.117188 16.457031 C 28.273438 16.457031 28.40625 16.402344 28.515625 16.289062 C 28.621094 16.179688 28.675781 16.046875 28.675781 15.886719 C 28.675781 15.730469 28.621094 15.597656 28.515625 15.488281 C 28.40625 15.375 28.273438 15.320312 28.117188 15.320312 L 23.566406 15.320312 L 23.566406 14.511719 L 28.117188 14.511719 C 28.273438 14.511719 28.40625 14.457031 28.515625 14.34375 C 28.621094 14.234375 28.675781 14.101562 28.675781 13.941406 C 28.675781 13.785156 28.621094 13.652344 28.515625 13.542969 C 28.40625 13.429688 28.273438 13.375 28.117188 13.375 L 23.566406 13.375 L 23.566406 9.082031 L 32.140625 9.082031 L 32.140625 30.695312 L 32.148438 30.695312 Z M 8.992188 10.511719 L 7.132812 10.511719 C 6.980469 10.511719 6.851562 10.566406 6.746094 10.675781 C 6.640625 10.785156 6.585938 10.914062 6.585938 11.070312 L 6.585938 12.910156 C 6.585938 13.0625 6.640625 13.195312 6.746094 13.300781 C 6.851562 13.410156 6.980469 13.464844 7.132812 13.46875 L 8.992188 13.46875 C 9.140625 13.464844 9.273438 13.414062 9.378906 13.304688 C 9.484375 13.195312 9.539062 13.0625 9.539062 12.910156 L 9.539062 11.070312 C 9.539062 10.914062 9.484375 10.78125 9.378906 10.675781 C 9.273438 10.566406 9.140625 10.511719 8.992188 10.511719 Z M 8.441406 12.355469 L 7.679688 12.355469 L 7.679688 11.625 L 8.441406 11.625 Z M 16.417969 17.878906 L 14.558594 17.878906 C 14.40625 17.878906 14.277344 17.933594 14.171875 18.042969 C 14.066406 18.152344 14.011719 18.285156 14.011719 18.4375 L 14.011719 20.277344 C 14.011719 20.433594 14.066406 20.5625 14.171875 20.671875 C 14.277344 20.78125 14.40625 20.835938 14.558594 20.835938 L 16.417969 20.835938 C 16.566406 20.835938 16.695312 20.78125 16.800781 20.671875 C 16.910156 20.5625 16.960938 20.433594 16.960938 20.277344 L 16.960938 18.4375 C 16.960938 18.285156 16.910156 18.152344 16.800781 18.042969 C 16.695312 17.9375 16.566406 17.882812 16.417969 17.878906 Z M 15.867188 19.722656 L 15.105469 19.722656 L 15.105469 18.988281 L 15.867188 18.988281 Z M 12.703125 17.878906 L 10.84375 17.878906 C 10.695312 17.878906 10.566406 17.933594 10.457031 18.042969 C 10.351562 18.152344 10.296875 18.285156 10.296875 18.4375 L 10.296875 20.277344 C 10.296875 20.433594 10.351562 20.5625 10.457031 20.671875 C 10.5625 20.78125 10.691406 20.835938 10.84375 20.835938 L 12.703125 20.835938 C 12.851562 20.835938 12.980469 20.78125 13.089844 20.671875 C 13.195312 20.5625 13.246094 20.433594 13.246094 20.277344 L 13.246094 18.4375 C 13.246094 18.285156 13.195312 18.152344 13.089844 18.042969 C 12.984375 17.9375 12.855469 17.882812 12.703125 17.878906 Z M 12.152344 19.722656 L 11.394531 19.722656 L 11.394531 18.988281 L 12.152344 18.988281 Z M 8.992188 17.878906 L 7.132812 17.878906 C 6.980469 17.878906 6.851562 17.933594 6.746094 18.042969 C 6.640625 18.152344 6.585938 18.285156 6.585938 18.4375 L 6.585938 20.277344 C 6.585938 20.433594 6.640625 20.5625 6.746094 20.671875 C 6.851562 20.78125 6.980469 20.835938 7.132812 20.835938 L 8.992188 20.835938 C 9.140625 20.835938 9.273438 20.78125 9.378906 20.671875 C 9.484375 20.5625 9.539062 20.433594 9.539062 20.277344 L 9.539062 18.4375 C 9.539062 18.285156 9.484375 18.152344 9.378906 18.042969 C 9.273438 17.933594 9.140625 17.878906 8.992188 17.878906 Z M 8.441406 19.722656 L 7.679688 19.722656 L 7.679688 18.988281 L 8.441406 18.988281 Z M 12.703125 14.191406 L 10.84375 14.191406 C 10.691406 14.195312 10.5625 14.25 10.457031 14.359375 C 10.351562 14.46875 10.296875 14.597656 10.296875 14.753906 L 10.296875 16.59375 C 10.296875 16.746094 10.351562 16.878906 10.457031 16.988281 C 10.5625 17.097656 10.691406 17.152344 10.84375 17.152344 L 12.703125 17.152344 C 12.851562 17.152344 12.980469 17.097656 13.089844 16.988281 C 13.195312 16.878906 13.246094 16.746094 13.246094 16.59375 L 13.246094 14.753906 C 13.246094 14.601562 13.195312 14.46875 13.089844 14.359375 C 12.984375 14.25 12.855469 14.195312 12.703125 14.195312 Z M 12.152344 16.035156 L 11.394531 16.035156 L 11.394531 15.3125 L 12.152344 15.3125 Z M 16.417969 21.5625 L 14.558594 21.5625 C 14.40625 21.566406 14.277344 21.621094 14.171875 21.730469 C 14.066406 21.835938 14.011719 21.96875 14.011719 22.121094 L 14.011719 23.960938 C 14.011719 24.117188 14.066406 24.246094 14.171875 24.355469 C 14.277344 24.464844 14.40625 24.519531 14.558594 24.519531 L 16.417969 24.519531 C 16.566406 24.519531 16.695312 24.464844 16.800781 24.355469 C 16.910156 24.246094 16.960938 24.117188 16.960938 23.960938 L 16.960938 22.121094 C 16.960938 21.96875 16.910156 21.839844 16.800781 21.730469 C 16.695312 21.621094 16.566406 21.566406 16.417969 21.5625 Z M 15.867188 23.40625 L 15.105469 23.40625 L 15.105469 22.675781 L 15.867188 22.675781 Z M 12.703125 21.5625 L 10.84375 21.5625 C 10.695312 21.566406 10.566406 21.621094 10.457031 21.726562 C 10.351562 21.835938 10.296875 21.96875 10.296875 22.121094 L 10.296875 23.960938 C 10.296875 24.117188 10.351562 24.246094 10.457031 24.355469 C 10.566406 24.464844 10.695312 24.519531 10.84375 24.519531 L 12.703125 24.519531 C 12.855469 24.519531 12.984375 24.464844 13.089844 24.355469 C 13.195312 24.246094 13.25 24.117188 13.25 23.960938 L 13.25 22.121094 C 13.25 21.96875 13.195312 21.835938 13.089844 21.730469 C 12.984375 21.621094 12.855469 21.566406 12.703125 21.5625 Z M 12.152344 23.40625 L 11.394531 23.40625 L 11.394531 22.675781 L 12.152344 22.675781 Z M 16.417969 14.195312 L 14.558594 14.195312 C 14.40625 14.195312 14.277344 14.25 14.171875 14.359375 C 14.066406 14.46875 14.011719 14.601562 14.011719 14.753906 L 14.011719 16.59375 C 14.011719 16.746094 14.066406 16.878906 14.171875 16.988281 C 14.277344 17.097656 14.40625 17.152344 14.558594 17.152344 L 16.417969 17.152344 C 16.566406 17.148438 16.695312 17.09375 16.800781 16.988281 C 16.910156 16.878906 16.960938 16.746094 16.960938 16.59375 L 16.960938 14.753906 C 16.960938 14.601562 16.910156 14.46875 16.800781 14.359375 C 16.695312 14.25 16.566406 14.195312 16.417969 14.195312 Z M 15.867188 16.039062 L 15.105469 16.039062 L 15.105469 15.3125 L 15.867188 15.3125 Z M 8.992188 14.195312 L 7.132812 14.195312 C 6.980469 14.195312 6.851562 14.25 6.746094 14.359375 C 6.640625 14.46875 6.585938 14.601562 6.585938 14.753906 L 6.585938 16.59375 C 6.585938 16.746094 6.640625 16.878906 6.746094 16.988281 C 6.851562 17.097656 6.980469 17.152344 7.132812 17.152344 L 8.992188 17.152344 C 9.140625 17.152344 9.273438 17.097656 9.378906 16.988281 C 9.484375 16.878906 9.539062 16.746094 9.539062 16.59375 L 9.539062 14.753906 C 9.539062 14.597656 9.484375 14.46875 9.378906 14.359375 C 9.273438 14.25 9.140625 14.195312 8.992188 14.195312 Z M 8.441406 16.039062 L 7.679688 16.039062 L 7.679688 15.3125 L 8.441406 15.3125 Z M 16.417969 10.507812 L 14.558594 10.507812 C 14.40625 10.507812 14.277344 10.5625 14.171875 10.671875 C 14.066406 10.78125 14.011719 10.914062 14.011719 11.066406 L 14.011719 12.917969 C 14.015625 13.070312 14.066406 13.199219 14.175781 13.308594 C 14.28125 13.414062 14.410156 13.46875 14.558594 13.46875 L 16.417969 13.46875 C 16.566406 13.464844 16.695312 13.410156 16.800781 13.300781 C 16.910156 13.195312 16.960938 13.0625 16.960938 12.910156 L 16.960938 11.070312 C 16.964844 10.929688 16.917969 10.808594 16.824219 10.707031 C 16.71875 10.574219 16.582031 10.507812 16.417969 10.511719 Z M 15.867188 12.351562 L 15.105469 12.351562 L 15.105469 11.625 L 15.867188 11.625 Z M 12.703125 10.507812 L 10.84375 10.507812 C 10.691406 10.507812 10.5625 10.5625 10.457031 10.671875 C 10.351562 10.78125 10.296875 10.914062 10.296875 11.070312 L 10.296875 12.910156 C 10.296875 13.0625 10.351562 13.195312 10.457031 13.300781 C 10.5625 13.410156 10.691406 13.464844 10.84375 13.46875 L 12.703125 13.46875 C 12.855469 13.46875 12.984375 13.414062 13.089844 13.304688 C 13.195312 13.195312 13.25 13.0625 13.246094 12.910156 L 13.246094 11.070312 C 13.246094 10.914062 13.195312 10.785156 13.089844 10.675781 C 12.984375 10.566406 12.855469 10.511719 12.703125 10.511719 Z M 12.152344 12.351562 L 11.394531 12.351562 L 11.394531 11.625 L 12.152344 11.625 Z M 30.390625 29.21875 L 17.882812 29.21875 C 17.734375 29.210938 17.609375 29.15625 17.503906 29.046875 C 17.402344 28.9375 17.351562 28.808594 17.351562 28.65625 C 17.351562 28.507812 17.402344 28.378906 17.503906 28.269531 C 17.609375 28.160156 17.734375 28.101562 17.882812 28.097656 L 30.390625 28.097656 C 30.542969 28.097656 30.675781 28.152344 30.78125 28.261719 C 30.890625 28.371094 30.945312 28.503906 30.945312 28.660156 C 30.945312 28.8125 30.890625 28.945312 30.78125 29.054688 C 30.675781 29.164062 30.542969 29.21875 30.390625 29.21875 Z M 30.390625 29.21875 " fill-opacity="1" fill-rule="nonzero"/></g><g fill="#ffffff" fill-opacity="1"><g transform="translate(0.0000005, 36.494446)"><g><path d="M 0.59375 -0.96875 C 0.6875 -0.96875 0.769531 -0.945312 0.84375 -0.90625 C 0.914062 -0.863281 0.972656 -0.800781 1.015625 -0.71875 C 1.054688 -0.644531 1.078125 -0.566406 1.078125 -0.484375 L 1.078125 -0.0625 C 1.078125 -0.0390625 1.070312 -0.0234375 1.0625 -0.015625 C 1.050781 -0.00390625 1.035156 0 1.015625 0 C 0.992188 0 0.972656 -0.00390625 0.953125 -0.015625 C 0.941406 -0.0234375 0.9375 -0.0390625 0.9375 -0.0625 L 0.9375 -0.171875 C 0.894531 -0.117188 0.84375 -0.0703125 0.78125 -0.03125 C 0.71875 0 0.648438 0.015625 0.578125 0.015625 C 0.492188 0.015625 0.414062 -0.00390625 0.34375 -0.046875 C 0.269531 -0.0976562 0.210938 -0.160156 0.171875 -0.234375 C 0.128906 -0.304688 0.109375 -0.390625 0.109375 -0.484375 C 0.109375 -0.566406 0.128906 -0.644531 0.171875 -0.71875 C 0.210938 -0.800781 0.269531 -0.863281 0.34375 -0.90625 C 0.414062 -0.945312 0.5 -0.96875 0.59375 -0.96875 Z M 0.59375 -0.109375 C 0.65625 -0.109375 0.710938 -0.125 0.765625 -0.15625 C 0.828125 -0.1875 0.875 -0.226562 0.90625 -0.28125 C 0.9375 -0.34375 0.953125 -0.410156 0.953125 -0.484375 C 0.953125 -0.546875 0.9375 -0.601562 0.90625 -0.65625 C 0.875 -0.71875 0.828125 -0.765625 0.765625 -0.796875 C 0.710938 -0.828125 0.65625 -0.84375 0.59375 -0.84375 C 0.53125 -0.84375 0.46875 -0.828125 0.40625 -0.796875 C 0.351562 -0.765625 0.3125 -0.71875 0.28125 -0.65625 C 0.25 -0.601562 0.234375 -0.546875 0.234375 -0.484375 C 0.234375 -0.410156 0.25 -0.34375 0.28125 -0.28125 C 0.3125 -0.226562 0.351562 -0.1875 0.40625 -0.15625 C 0.46875 -0.125 0.53125 -0.109375 0.59375 -0.109375 Z M 0.59375 -0.109375 "/></g></g></g></svg>