<svg xmlns="http://www.w3.org/2000/svg" xmlns:xlink="http://www.w3.org/1999/xlink" width="50" zoomAndPan="magnify" viewBox="0 0 37.5 37.499999" height="50" preserveAspectRatio="xMidYMid meet" version="1.0"><defs><g/><clipPath id="7ed4a884a1"><path d="M 3.699219 3.699219 L 34.046875 3.699219 L 34.046875 34.046875 L 3.699219 34.046875 Z M 3.699219 3.699219 " clip-rule="nonzero"/></clipPath></defs><g clip-path="url(#7ed4a884a1)"><path fill="#000000" d="M 6.652344 7.621094 C 7.300781 7.621094 7.824219 7.097656 7.824219 6.453125 C 7.824219 5.808594 7.300781 5.28125 6.652344 5.28125 C 6.007812 5.28125 5.484375 5.808594 5.484375 6.453125 C 5.484375 7.097656 6.007812 7.621094 6.652344 7.621094 Z M 6.652344 6.234375 C 6.773438 6.234375 6.871094 6.332031 6.871094 6.453125 C 6.871094 6.574219 6.773438 6.671875 6.652344 6.671875 C 6.535156 6.671875 6.4375 6.574219 6.4375 6.453125 C 6.4375 6.332031 6.535156 6.234375 6.652344 6.234375 Z M 9.53125 7.621094 C 10.175781 7.621094 10.699219 7.097656 10.699219 6.453125 C 10.699219 5.808594 10.175781 5.28125 9.53125 5.28125 C 8.886719 5.28125 8.359375 5.808594 8.359375 6.453125 C 8.359375 7.097656 8.886719 7.621094 9.53125 7.621094 Z M 9.53125 6.234375 C 9.652344 6.234375 9.75 6.332031 9.75 6.453125 C 9.75 6.574219 9.652344 6.671875 9.53125 6.671875 C 9.410156 6.671875 9.3125 6.574219 9.3125 6.453125 C 9.3125 6.332031 9.410156 6.234375 9.53125 6.234375 Z M 19.738281 6.453125 C 19.738281 6.191406 19.949219 5.976562 20.210938 5.976562 L 27.941406 5.976562 C 28.203125 5.976562 28.417969 6.191406 28.417969 6.453125 C 28.417969 6.714844 28.203125 6.929688 27.941406 6.929688 L 20.210938 6.929688 C 19.949219 6.929688 19.738281 6.714844 19.738281 6.453125 Z M 12.40625 7.621094 C 13.054688 7.621094 13.578125 7.097656 13.578125 6.453125 C 13.578125 5.808594 13.054688 5.28125 12.40625 5.28125 C 11.761719 5.28125 11.238281 5.808594 11.238281 6.453125 C 11.238281 7.097656 11.761719 7.621094 12.40625 7.621094 Z M 12.40625 6.234375 C 12.527344 6.234375 12.625 6.332031 12.625 6.453125 C 12.625 6.574219 12.527344 6.671875 12.40625 6.671875 C 12.289062 6.671875 12.191406 6.574219 12.191406 6.453125 C 12.191406 6.332031 12.289062 6.234375 12.40625 6.234375 Z M 13.4375 17.421875 C 14.074219 16.960938 14.488281 16.214844 14.488281 15.371094 C 14.488281 13.976562 13.351562 12.839844 11.953125 12.839844 C 10.554688 12.839844 9.421875 13.976562 9.421875 15.371094 C 9.421875 16.214844 9.832031 16.960938 10.46875 17.421875 C 8.941406 17.992188 7.8125 19.410156 7.683594 21.113281 C 7.667969 21.320312 7.738281 21.523438 7.878906 21.675781 C 8.019531 21.824219 8.214844 21.910156 8.421875 21.910156 L 15.484375 21.910156 C 15.691406 21.910156 15.890625 21.824219 16.027344 21.675781 C 16.167969 21.523438 16.238281 21.320312 16.222656 21.113281 C 16.097656 19.410156 14.964844 17.992188 13.4375 17.421875 Z M 11.953125 13.792969 C 12.824219 13.792969 13.535156 14.5 13.535156 15.371094 C 13.535156 16.246094 12.824219 16.953125 11.953125 16.953125 C 11.082031 16.953125 10.371094 16.246094 10.371094 15.371094 C 10.371094 14.5 11.082031 13.792969 11.953125 13.792969 Z M 8.65625 20.957031 C 8.890625 19.339844 10.296875 18.105469 11.953125 18.105469 C 13.609375 18.105469 15.015625 19.339844 15.25 20.957031 Z M 15.488281 23.183594 L 8.417969 23.183594 C 8.027344 23.183594 7.710938 23.5 7.710938 23.890625 L 7.710938 25.726562 C 7.710938 26.117188 8.027344 26.433594 8.417969 26.433594 L 15.488281 26.433594 C 15.878906 26.433594 16.195312 26.117188 16.195312 25.726562 L 16.195312 23.890625 C 16.195312 23.5 15.878906 23.183594 15.488281 23.183594 Z M 15.242188 25.484375 L 8.664062 25.484375 L 8.664062 24.136719 L 15.242188 24.136719 Z M 27.039062 18.453125 C 27.039062 18.714844 26.828125 18.929688 26.566406 18.929688 L 18.042969 18.929688 C 17.78125 18.929688 17.566406 18.714844 17.566406 18.453125 C 17.566406 18.191406 17.78125 17.976562 18.042969 17.976562 L 26.566406 17.976562 C 26.828125 17.976562 27.039062 18.191406 27.039062 18.453125 Z M 27.039062 20.820312 C 27.039062 21.082031 26.828125 21.296875 26.566406 21.296875 L 18.042969 21.296875 C 17.78125 21.296875 17.566406 21.082031 17.566406 20.820312 C 17.566406 20.558594 17.78125 20.34375 18.042969 20.34375 L 26.566406 20.34375 C 26.828125 20.34375 27.039062 20.558594 27.039062 20.820312 Z M 17.566406 13.71875 C 17.566406 13.457031 17.78125 13.242188 18.042969 13.242188 L 26.566406 13.242188 C 26.828125 13.242188 27.039062 13.457031 27.039062 13.71875 C 27.039062 13.980469 26.828125 14.195312 26.566406 14.195312 L 18.042969 14.195312 C 17.78125 14.195312 17.566406 13.980469 17.566406 13.71875 Z M 27.039062 16.085938 C 27.039062 16.347656 26.828125 16.5625 26.566406 16.5625 L 18.042969 16.5625 C 17.78125 16.5625 17.566406 16.347656 17.566406 16.085938 C 17.566406 15.824219 17.78125 15.609375 18.042969 15.609375 L 26.566406 15.609375 C 26.828125 15.609375 27.039062 15.824219 27.039062 16.085938 Z M 33.570312 26.273438 L 32.96875 26.273438 C 32.847656 25.84375 32.679688 25.433594 32.457031 25.042969 L 32.882812 24.617188 C 33.070312 24.429688 33.070312 24.128906 32.882812 23.945312 L 31.503906 22.5625 C 31.414062 22.476562 31.292969 22.425781 31.167969 22.425781 C 31.117188 22.425781 31.066406 22.433594 31.019531 22.449219 L 31.019531 5.953125 C 31.019531 4.710938 30.011719 3.699219 28.769531 3.699219 L 5.953125 3.699219 C 4.710938 3.699219 3.699219 4.710938 3.699219 5.953125 L 3.699219 28.769531 C 3.699219 30.011719 4.710938 31.019531 5.953125 31.019531 L 22.449219 31.019531 C 22.433594 31.066406 22.425781 31.117188 22.425781 31.167969 C 22.425781 31.292969 22.476562 31.414062 22.5625 31.503906 L 23.945312 32.882812 C 24.035156 32.972656 24.15625 33.023438 24.28125 33.023438 C 24.40625 33.023438 24.527344 32.972656 24.617188 32.882812 L 25.042969 32.457031 C 25.433594 32.679688 25.84375 32.847656 26.273438 32.96875 L 26.273438 33.570312 C 26.273438 33.832031 26.484375 34.046875 26.75 34.046875 L 28.699219 34.046875 C 28.960938 34.046875 29.175781 33.832031 29.175781 33.570312 L 29.175781 32.96875 C 29.605469 32.847656 30.015625 32.679688 30.40625 32.457031 L 30.832031 32.882812 C 31.015625 33.070312 31.320312 33.070312 31.503906 32.882812 L 32.882812 31.503906 C 32.972656 31.414062 33.023438 31.292969 33.023438 31.167969 C 33.023438 31.042969 32.972656 30.921875 32.882812 30.832031 L 32.457031 30.40625 C 32.679688 30.015625 32.847656 29.605469 32.96875 29.175781 L 33.570312 29.175781 C 33.832031 29.175781 34.046875 28.960938 34.046875 28.699219 L 34.046875 26.75 C 34.046875 26.484375 33.832031 26.273438 33.570312 26.273438 Z M 5.953125 4.652344 L 28.769531 4.652344 C 29.484375 4.652344 30.070312 5.234375 30.070312 5.953125 L 30.070312 8.253906 L 4.652344 8.253906 L 4.652344 5.953125 C 4.652344 5.234375 5.234375 4.652344 5.953125 4.652344 Z M 4.652344 28.769531 L 4.652344 9.207031 L 30.070312 9.207031 L 30.070312 22.816406 C 29.78125 22.679688 29.484375 22.566406 29.175781 22.480469 L 29.175781 10.574219 C 29.175781 10.3125 28.960938 10.097656 28.699219 10.097656 L 6.023438 10.097656 C 5.757812 10.097656 5.546875 10.3125 5.546875 10.574219 L 5.546875 28.699219 C 5.546875 28.960938 5.757812 29.175781 6.023438 29.175781 L 22.480469 29.175781 C 22.566406 29.484375 22.679688 29.78125 22.816406 30.070312 L 5.953125 30.070312 C 5.234375 30.070312 4.652344 29.484375 4.652344 28.769531 Z M 26.75 21.402344 C 26.484375 21.402344 26.273438 21.617188 26.273438 21.878906 L 26.273438 22.480469 C 25.84375 22.601562 25.433594 22.769531 25.042969 22.992188 L 24.617188 22.5625 C 24.429688 22.378906 24.128906 22.378906 23.945312 22.5625 L 23.796875 22.710938 L 18.042969 22.710938 C 17.78125 22.710938 17.566406 22.925781 17.566406 23.1875 C 17.566406 23.453125 17.78125 23.664062 18.042969 23.664062 L 22.84375 23.664062 L 22.5625 23.945312 C 22.476562 24.03125 22.425781 24.152344 22.425781 24.28125 C 22.425781 24.40625 22.476562 24.527344 22.5625 24.617188 L 22.992188 25.042969 C 22.984375 25.054688 22.976562 25.066406 22.972656 25.078125 L 18.042969 25.078125 C 17.78125 25.078125 17.566406 25.292969 17.566406 25.554688 C 17.566406 25.820312 17.78125 26.03125 18.042969 26.03125 L 22.554688 26.03125 C 22.527344 26.113281 22.503906 26.191406 22.480469 26.273438 L 21.878906 26.273438 C 21.617188 26.273438 21.402344 26.484375 21.402344 26.75 L 21.402344 28.222656 L 6.496094 28.222656 L 6.496094 11.050781 L 28.222656 11.050781 L 28.222656 21.402344 Z M 33.09375 28.222656 L 32.589844 28.222656 C 32.363281 28.222656 32.167969 28.382812 32.125 28.605469 C 32.007812 29.183594 31.785156 29.722656 31.460938 30.210938 C 31.332031 30.398438 31.359375 30.652344 31.519531 30.8125 L 31.875 31.167969 L 31.167969 31.875 L 30.8125 31.519531 C 30.652344 31.359375 30.398438 31.332031 30.210938 31.460938 C 29.722656 31.785156 29.183594 32.007812 28.605469 32.125 C 28.382812 32.167969 28.222656 32.363281 28.222656 32.589844 L 28.222656 33.09375 L 27.226562 33.09375 L 27.226562 32.589844 C 27.226562 32.363281 27.066406 32.167969 26.84375 32.125 C 26.265625 32.007812 25.726562 31.785156 25.238281 31.460938 C 25.046875 31.332031 24.796875 31.359375 24.636719 31.519531 L 24.28125 31.875 L 23.574219 31.167969 L 23.929688 30.8125 C 24.089844 30.652344 24.117188 30.398438 23.988281 30.210938 C 23.664062 29.722656 23.4375 29.183594 23.324219 28.605469 C 23.324219 28.597656 23.320312 28.59375 23.320312 28.585938 C 23.316406 28.578125 23.316406 28.570312 23.3125 28.5625 C 23.3125 28.554688 23.308594 28.550781 23.304688 28.542969 C 23.304688 28.535156 23.300781 28.527344 23.296875 28.519531 C 23.296875 28.515625 23.292969 28.507812 23.289062 28.503906 C 23.285156 28.496094 23.285156 28.488281 23.28125 28.480469 C 23.277344 28.476562 23.273438 28.46875 23.269531 28.464844 C 23.265625 28.457031 23.261719 28.449219 23.257812 28.441406 C 23.253906 28.4375 23.25 28.433594 23.246094 28.425781 C 23.242188 28.421875 23.238281 28.414062 23.230469 28.40625 C 23.226562 28.402344 23.226562 28.398438 23.222656 28.394531 C 23.214844 28.386719 23.207031 28.378906 23.203125 28.371094 C 23.199219 28.367188 23.195312 28.363281 23.191406 28.359375 C 23.183594 28.351562 23.175781 28.34375 23.167969 28.339844 C 23.164062 28.335938 23.160156 28.332031 23.160156 28.332031 C 23.148438 28.324219 23.136719 28.316406 23.125 28.308594 C 23.121094 28.304688 23.117188 28.300781 23.109375 28.296875 C 23.105469 28.292969 23.097656 28.289062 23.089844 28.285156 C 23.082031 28.28125 23.078125 28.277344 23.070312 28.273438 C 23.066406 28.273438 23.058594 28.269531 23.050781 28.265625 C 23.042969 28.261719 23.039062 28.257812 23.03125 28.257812 C 23.023438 28.253906 23.015625 28.25 23.007812 28.25 C 23.003906 28.246094 22.996094 28.246094 22.988281 28.242188 C 22.980469 28.242188 22.972656 28.238281 22.964844 28.238281 C 22.960938 28.234375 22.953125 28.234375 22.945312 28.234375 C 22.9375 28.230469 22.929688 28.230469 22.917969 28.226562 C 22.914062 28.226562 22.910156 28.226562 22.902344 28.226562 C 22.886719 28.226562 22.871094 28.222656 22.859375 28.222656 L 22.355469 28.222656 L 22.355469 27.226562 L 22.859375 27.226562 C 23.085938 27.226562 23.28125 27.066406 23.324219 26.84375 C 23.4375 26.265625 23.664062 25.726562 23.988281 25.238281 C 24.117188 25.046875 24.089844 24.796875 23.929688 24.636719 L 23.574219 24.28125 L 24.28125 23.574219 L 24.636719 23.929688 C 24.796875 24.089844 25.046875 24.117188 25.238281 23.988281 C 25.726562 23.664062 26.265625 23.4375 26.84375 23.324219 C 27.066406 23.28125 27.226562 23.085938 27.226562 22.859375 L 27.226562 22.355469 L 28.222656 22.355469 L 28.222656 22.859375 C 28.222656 22.871094 28.226562 22.886719 28.226562 22.902344 C 28.226562 22.910156 28.226562 22.914062 28.226562 22.917969 C 28.230469 22.929688 28.230469 22.9375 28.234375 22.945312 C 28.234375 22.953125 28.234375 22.960938 28.238281 22.964844 C 28.238281 22.972656 28.242188 22.980469 28.242188 22.988281 C 28.246094 22.996094 28.246094 23.003906 28.25 23.007812 C 28.25 23.015625 28.253906 23.023438 28.257812 23.03125 C 28.257812 23.039062 28.261719 23.042969 28.265625 23.050781 C 28.269531 23.058594 28.273438 23.066406 28.273438 23.070312 C 28.277344 23.078125 28.28125 23.082031 28.285156 23.089844 C 28.289062 23.097656 28.292969 23.105469 28.296875 23.113281 C 28.300781 23.117188 28.304688 23.121094 28.304688 23.125 C 28.316406 23.136719 28.324219 23.148438 28.332031 23.160156 C 28.332031 23.160156 28.335938 23.164062 28.335938 23.164062 C 28.34375 23.175781 28.351562 23.183594 28.359375 23.191406 C 28.363281 23.195312 28.367188 23.199219 28.371094 23.203125 C 28.378906 23.207031 28.386719 23.214844 28.394531 23.222656 C 28.398438 23.226562 28.402344 23.226562 28.40625 23.230469 C 28.414062 23.238281 28.421875 23.242188 28.425781 23.246094 C 28.433594 23.25 28.4375 23.253906 28.441406 23.257812 C 28.449219 23.261719 28.457031 23.265625 28.464844 23.269531 C 28.46875 23.273438 28.476562 23.277344 28.480469 23.28125 C 28.488281 23.285156 28.496094 23.285156 28.503906 23.289062 C 28.507812 23.292969 28.515625 23.296875 28.519531 23.296875 C 28.527344 23.300781 28.535156 23.304688 28.542969 23.304688 C 28.550781 23.308594 28.554688 23.3125 28.5625 23.3125 C 28.570312 23.316406 28.578125 23.316406 28.585938 23.320312 C 28.59375 23.320312 28.597656 23.324219 28.605469 23.324219 C 29.183594 23.4375 29.722656 23.664062 30.210938 23.988281 C 30.398438 24.117188 30.652344 24.089844 30.8125 23.929688 L 31.167969 23.574219 L 31.875 24.28125 L 31.519531 24.636719 C 31.359375 24.796875 31.332031 25.046875 31.460938 25.238281 C 31.785156 25.726562 32.007812 26.265625 32.125 26.839844 C 32.167969 27.0625 32.363281 27.226562 32.589844 27.226562 L 33.09375 27.226562 Z M 27.722656 23.960938 C 25.648438 23.960938 23.960938 25.648438 23.960938 27.722656 C 23.960938 29.800781 25.648438 31.488281 27.722656 31.488281 C 29.800781 31.488281 31.488281 29.800781 31.488281 27.722656 C 31.488281 25.648438 29.800781 23.960938 27.722656 23.960938 Z M 27.722656 30.535156 C 26.175781 30.535156 24.914062 29.273438 24.914062 27.722656 C 24.914062 26.175781 26.175781 24.914062 27.722656 24.914062 C 29.273438 24.914062 30.535156 26.175781 30.535156 27.722656 C 30.535156 29.273438 29.273438 30.535156 27.722656 30.535156 Z M 27.722656 30.535156 " fill-opacity="1" fill-rule="nonzero"/></g><g fill="#ffffff" fill-opacity="1"><g transform="translate(0.0000005, 36.494446)"><g><path d="M 0.59375 -0.96875 C 0.6875 -0.96875 0.769531 -0.945312 0.84375 -0.90625 C 0.914062 -0.863281 0.972656 -0.800781 1.015625 -0.71875 C 1.054688 -0.644531 1.078125 -0.566406 1.078125 -0.484375 L 1.078125 -0.0625 C 1.078125 -0.0390625 1.070312 -0.0234375 1.0625 -0.015625 C 1.050781 -0.00390625 1.035156 0 1.015625 0 C 0.992188 0 0.972656 -0.00390625 0.953125 -0.015625 C 0.941406 -0.0234375 0.9375 -0.0390625 0.9375 -0.0625 L 0.9375 -0.171875 C 0.894531 -0.117188 0.84375 -0.0703125 0.78125 -0.03125 C 0.71875 0 0.648438 0.015625 0.578125 0.015625 C 0.492188 0.015625 0.414062 -0.00390625 0.34375 -0.046875 C 0.269531 -0.0976562 0.210938 -0.160156 0.171875 -0.234375 C 0.128906 -0.304688 0.109375 -0.390625 0.109375 -0.484375 C 0.109375 -0.566406 0.128906 -0.644531 0.171875 -0.71875 C 0.210938 -0.800781 0.269531 -0.863281 0.34375 -0.90625 C 0.414062 -0.945312 0.5 -0.96875 0.59375 -0.96875 Z M 0.59375 -0.109375 C 0.65625 -0.109375 0.710938 -0.125 0.765625 -0.15625 C 0.828125 -0.1875 0.875 -0.226562 0.90625 -0.28125 C 0.9375 -0.34375 0.953125 -0.410156 0.953125 -0.484375 C 0.953125 -0.546875 0.9375 -0.601562 0.90625 -0.65625 C 0.875 -0.71875 0.828125 -0.765625 0.765625 -0.796875 C 0.710938 -0.828125 0.65625 -0.84375 0.59375 -0.84375 C 0.53125 -0.84375 0.46875 -0.828125 0.40625 -0.796875 C 0.351562 -0.765625 0.3125 -0.71875 0.28125 -0.65625 C 0.25 -0.601562 0.234375 -0.546875 0.234375 -0.484375 C 0.234375 -0.410156 0.25 -0.34375 0.28125 -0.28125 C 0.3125 -0.226562 0.351562 -0.1875 0.40625 -0.15625 C 0.46875 -0.125 0.53125 -0.109375 0.59375 -0.109375 Z M 0.59375 -0.109375 "/></g></g></g></svg>