<svg xmlns="http://www.w3.org/2000/svg" xmlns:xlink="http://www.w3.org/1999/xlink" width="50" zoomAndPan="magnify" viewBox="0 0 37.5 37.499999" height="50" preserveAspectRatio="xMidYMid meet" version="1.0"><defs><g/><clipPath id="d5b7963a85"><path d="M 2.628906 3.699219 L 34.453125 3.699219 L 34.453125 33.304688 L 2.628906 33.304688 Z M 2.628906 3.699219 " clip-rule="nonzero"/></clipPath></defs><g clip-path="url(#d5b7963a85)"><path fill="#000000" d="M 29.898438 23.429688 L 18.542969 28.914062 L 7.191406 23.429688 L 4.285156 22.027344 L 7.1875 20.625 L 7.191406 20.625 L 18.542969 26.109375 L 29.898438 20.625 L 32.800781 22.027344 Z M 32.800781 25.625 L 18.542969 32.511719 L 4.285156 25.625 L 7.1875 24.222656 L 7.191406 24.222656 L 18.542969 29.707031 L 29.898438 24.222656 Z M 4.285156 18.429688 L 13.601562 13.929688 C 13.519531 14.289062 13.472656 14.613281 13.472656 14.886719 C 13.472656 17.769531 15.824219 20.113281 18.710938 20.113281 C 21.601562 20.113281 23.953125 17.769531 23.953125 14.886719 C 23.953125 14.660156 23.921875 14.398438 23.863281 14.113281 L 32.800781 18.429688 L 29.898438 19.832031 L 18.542969 25.316406 L 7.191406 19.832031 Z M 16.585938 8.792969 C 17.425781 7.214844 18.273438 5.785156 18.710938 5.058594 C 19.148438 5.785156 20 7.214844 20.839844 8.792969 C 21.765625 10.527344 22.347656 11.8125 22.707031 12.761719 C 22.84375 13.125 22.949219 13.4375 23.027344 13.710938 C 23.183594 14.253906 23.238281 14.628906 23.238281 14.886719 C 23.238281 17.375 21.207031 19.402344 18.710938 19.402344 C 16.214844 19.402344 14.1875 17.375 14.1875 14.886719 C 14.1875 14.601562 14.25 14.167969 14.453125 13.519531 C 14.539062 13.242188 14.652344 12.925781 14.792969 12.5625 C 15.160156 11.632812 15.722656 10.410156 16.585938 8.792969 Z M 30.71875 20.230469 L 34.441406 18.429688 L 23.613281 13.199219 C 22.527344 9.835938 19.183594 4.457031 19.015625 4.1875 L 18.710938 3.699219 L 18.410156 4.1875 C 18.242188 4.453125 15.023438 9.632812 13.875 13.007812 L 2.644531 18.429688 L 6.367188 20.230469 L 2.644531 22.027344 L 6.367188 23.828125 L 2.644531 25.625 L 18.542969 33.304688 L 34.441406 25.625 L 30.71875 23.828125 L 34.441406 22.027344 L 30.71875 20.230469 " fill-opacity="1" fill-rule="nonzero"/></g><path fill="#000000" d="M 18.976562 18.65625 C 19.175781 18.65625 19.335938 18.496094 19.335938 18.296875 C 19.335938 18.101562 19.175781 17.941406 18.976562 17.941406 C 17 17.941406 15.390625 16.335938 15.390625 14.363281 C 15.390625 14.167969 15.230469 14.007812 15.035156 14.007812 C 14.835938 14.007812 14.675781 14.167969 14.675781 14.363281 C 14.675781 16.730469 16.605469 18.65625 18.976562 18.65625 " fill-opacity="1" fill-rule="nonzero"/><g fill="#ffffff" fill-opacity="1"><g transform="translate(0.0000005, 36.494446)"><g><path d="M 0.59375 -0.96875 C 0.6875 -0.96875 0.769531 -0.945312 0.84375 -0.90625 C 0.914062 -0.863281 0.972656 -0.800781 1.015625 -0.71875 C 1.054688 -0.644531 1.078125 -0.566406 1.078125 -0.484375 L 1.078125 -0.0625 C 1.078125 -0.0390625 1.070312 -0.0234375 1.0625 -0.015625 C 1.050781 -0.00390625 1.035156 0 1.015625 0 C 0.992188 0 0.972656 -0.00390625 0.953125 -0.015625 C 0.941406 -0.0234375 0.9375 -0.0390625 0.9375 -0.0625 L 0.9375 -0.171875 C 0.894531 -0.117188 0.84375 -0.0703125 0.78125 -0.03125 C 0.71875 0 0.648438 0.015625 0.578125 0.015625 C 0.492188 0.015625 0.414062 -0.00390625 0.34375 -0.046875 C 0.269531 -0.0976562 0.210938 -0.160156 0.171875 -0.234375 C 0.128906 -0.304688 0.109375 -0.390625 0.109375 -0.484375 C 0.109375 -0.566406 0.128906 -0.644531 0.171875 -0.71875 C 0.210938 -0.800781 0.269531 -0.863281 0.34375 -0.90625 C 0.414062 -0.945312 0.5 -0.96875 0.59375 -0.96875 Z M 0.59375 -0.109375 C 0.65625 -0.109375 0.710938 -0.125 0.765625 -0.15625 C 0.828125 -0.1875 0.875 -0.226562 0.90625 -0.28125 C 0.9375 -0.34375 0.953125 -0.410156 0.953125 -0.484375 C 0.953125 -0.546875 0.9375 -0.601562 0.90625 -0.65625 C 0.875 -0.71875 0.828125 -0.765625 0.765625 -0.796875 C 0.710938 -0.828125 0.65625 -0.84375 0.59375 -0.84375 C 0.53125 -0.84375 0.46875 -0.828125 0.40625 -0.796875 C 0.351562 -0.765625 0.3125 -0.71875 0.28125 -0.65625 C 0.25 -0.601562 0.234375 -0.546875 0.234375 -0.484375 C 0.234375 -0.410156 0.25 -0.34375 0.28125 -0.28125 C 0.3125 -0.226562 0.351562 -0.1875 0.40625 -0.15625 C 0.46875 -0.125 0.53125 -0.109375 0.59375 -0.109375 Z M 0.59375 -0.109375 "/></g></g></g></svg>