<svg xmlns="http://www.w3.org/2000/svg" xmlns:xlink="http://www.w3.org/1999/xlink" width="50" zoomAndPan="magnify" viewBox="0 0 37.5 37.499999" height="50" preserveAspectRatio="xMidYMid meet" version="1.0"><defs><g/><clipPath id="382e72d017"><path d="M 29 20 L 35.464844 20 L 35.464844 33.980469 L 29 33.980469 Z M 29 20 " clip-rule="nonzero"/></clipPath><clipPath id="4cd4e3ae0b"><path d="M 20 12 L 28 12 L 28 33.980469 L 20 33.980469 Z M 20 12 " clip-rule="nonzero"/></clipPath><clipPath id="dc759a49ec"><path d="M 10 32 L 30 32 L 30 33.980469 L 10 33.980469 Z M 10 32 " clip-rule="nonzero"/></clipPath><clipPath id="7b0e428fc6"><path d="M 7 32 L 10 32 L 10 33.980469 L 7 33.980469 Z M 7 32 " clip-rule="nonzero"/></clipPath><clipPath id="353fe08601"><path d="M 13 17 L 22 17 L 22 33.980469 L 13 33.980469 Z M 13 17 " clip-rule="nonzero"/></clipPath><clipPath id="ab7803be83"><path d="M 1.417969 2.894531 L 22 2.894531 L 22 31 L 1.417969 31 Z M 1.417969 2.894531 " clip-rule="nonzero"/></clipPath><clipPath id="85671d86a2"><path d="M 2.753906 19.539062 L 12.375 19.539062 L 12.375 24 L 2.753906 24 Z M 2.753906 19.539062 " clip-rule="nonzero"/></clipPath><clipPath id="8af6a8bd1b"><path d="M 3 21 L 12 21 L 12 29.160156 L 3 29.160156 Z M 3 21 " clip-rule="nonzero"/></clipPath></defs><path fill="#000000" d="M 11.988281 16.382812 C 10.367188 16.382812 9.050781 15.066406 9.050781 13.449219 C 9.050781 11.832031 10.367188 10.515625 11.988281 10.515625 C 13.605469 10.515625 14.921875 11.832031 14.921875 13.449219 C 14.921875 15.066406 13.605469 16.382812 11.988281 16.382812 Z M 11.988281 11.691406 C 11.015625 11.691406 10.226562 12.480469 10.226562 13.449219 C 10.226562 14.417969 11.015625 15.210938 11.988281 15.210938 C 12.957031 15.210938 13.75 14.417969 13.75 13.449219 C 13.75 12.480469 12.957031 11.691406 11.988281 11.691406 Z M 11.988281 11.691406 " fill-opacity="1" fill-rule="nonzero"/><g clip-path="url(#382e72d017)"><path fill="#000000" d="M 35.464844 33.976562 L 29.007812 33.976562 L 29.007812 20.171875 L 35.464844 23.039062 Z M 30.183594 32.804688 L 34.292969 32.804688 L 34.292969 23.800781 L 30.183594 21.976562 Z M 30.183594 32.804688 " fill-opacity="1" fill-rule="nonzero"/></g><path fill="#000000" d="M 33.117188 22.378906 L 31.945312 22.378906 L 31.945312 13.449219 L 29.007812 13.449219 L 29.007812 12.277344 L 33.117188 12.277344 Z M 33.117188 22.378906 " fill-opacity="1" fill-rule="nonzero"/><g clip-path="url(#4cd4e3ae0b)"><path fill="#000000" d="M 21.378906 33.390625 L 20.203125 33.390625 L 20.203125 12.277344 L 27.835938 12.277344 L 27.835938 13.449219 L 21.378906 13.449219 Z M 21.378906 33.390625 " fill-opacity="1" fill-rule="nonzero"/></g><g clip-path="url(#dc759a49ec)"><path fill="#000000" d="M 10.226562 32.804688 L 29.597656 32.804688 L 29.597656 33.976562 L 10.226562 33.976562 Z M 10.226562 32.804688 " fill-opacity="1" fill-rule="nonzero"/></g><g clip-path="url(#7b0e428fc6)"><path fill="#000000" d="M 7.878906 32.804688 L 9.050781 32.804688 L 9.050781 33.976562 L 7.878906 33.976562 Z M 7.878906 32.804688 " fill-opacity="1" fill-rule="nonzero"/></g><g clip-path="url(#353fe08601)"><path fill="#000000" d="M 14.921875 33.390625 L 13.75 33.390625 L 13.75 20.683594 L 20.5625 17.792969 L 21.019531 18.875 L 14.921875 21.460938 Z M 14.921875 33.390625 " fill-opacity="1" fill-rule="nonzero"/></g><path fill="#000000" d="M 31.355469 12.863281 L 30.183594 12.863281 L 30.183594 11.101562 L 23.140625 11.101562 L 23.140625 12.863281 L 21.964844 12.863281 L 21.964844 9.929688 L 31.355469 9.929688 Z M 31.355469 12.863281 " fill-opacity="1" fill-rule="nonzero"/><path fill="#000000" d="M 16.097656 22.832031 L 19.03125 22.832031 L 19.03125 24.007812 L 16.097656 24.007812 Z M 16.097656 22.832031 " fill-opacity="1" fill-rule="nonzero"/><path fill="#000000" d="M 16.097656 26.351562 L 19.03125 26.351562 L 19.03125 27.527344 L 16.097656 27.527344 Z M 16.097656 26.351562 " fill-opacity="1" fill-rule="nonzero"/><path fill="#000000" d="M 16.097656 29.871094 L 19.03125 29.871094 L 19.03125 31.042969 L 16.097656 31.042969 Z M 16.097656 29.871094 " fill-opacity="1" fill-rule="nonzero"/><path fill="#000000" d="M 23.140625 16.382812 L 30.183594 16.382812 L 30.183594 17.554688 L 23.140625 17.554688 Z M 23.140625 16.382812 " fill-opacity="1" fill-rule="nonzero"/><path fill="#000000" d="M 23.140625 19.902344 L 27.835938 19.902344 L 27.835938 21.074219 L 23.140625 21.074219 Z M 23.140625 19.902344 " fill-opacity="1" fill-rule="nonzero"/><path fill="#000000" d="M 23.140625 23.417969 L 27.835938 23.417969 L 27.835938 24.59375 L 23.140625 24.59375 Z M 23.140625 23.417969 " fill-opacity="1" fill-rule="nonzero"/><path fill="#000000" d="M 23.140625 26.9375 L 27.835938 26.9375 L 27.835938 28.113281 L 23.140625 28.113281 Z M 23.140625 26.9375 " fill-opacity="1" fill-rule="nonzero"/><g clip-path="url(#ab7803be83)"><path fill="#000000" d="M 11.988281 30.652344 L 11.597656 30.3125 C 11.183594 29.945312 1.421875 21.25 1.421875 13.449219 C 1.421875 7.628906 6.160156 2.890625 11.988281 2.890625 C 16.058594 2.890625 19.8125 5.269531 21.550781 8.957031 L 20.488281 9.457031 C 18.945312 6.179688 15.609375 4.0625 11.988281 4.0625 C 6.808594 4.0625 2.597656 8.273438 2.597656 13.449219 C 2.597656 19.886719 10.171875 27.371094 11.988281 29.078125 C 12.390625 28.699219 13.078125 28.039062 13.90625 27.15625 L 14.761719 27.964844 C 13.382812 29.421875 12.414062 30.277344 12.375 30.3125 Z M 11.988281 30.652344 " fill-opacity="1" fill-rule="nonzero"/></g><g clip-path="url(#85671d86a2)"><path fill="#000000" d="M 12.0625 22.742188 L 10.546875 21.625 L 10.546875 20.296875 C 10.546875 20.085938 10.375 19.917969 10.167969 19.917969 L 9.554688 19.917969 C 9.34375 19.917969 9.175781 20.085938 9.175781 20.296875 L 9.175781 20.617188 L 8.019531 19.765625 C 7.769531 19.582031 7.359375 19.582031 7.105469 19.765625 L 3.0625 22.742188 C 2.8125 22.925781 2.757812 23.285156 2.945312 23.535156 L 3.054688 23.6875 C 3.242188 23.9375 3.597656 23.992188 3.847656 23.808594 L 7.105469 21.410156 C 7.359375 21.222656 7.769531 21.222656 8.019531 21.410156 L 11.277344 23.808594 C 11.53125 23.992188 11.886719 23.9375 12.070312 23.6875 L 12.183594 23.535156 C 12.367188 23.285156 12.3125 22.925781 12.0625 22.742188 Z M 12.0625 22.742188 " fill-opacity="1" fill-rule="nonzero"/></g><g clip-path="url(#8af6a8bd1b)"><path fill="#000000" d="M 11.027344 24.074219 L 8.191406 21.976562 C 8.019531 21.851562 7.796875 21.78125 7.5625 21.78125 C 7.328125 21.78125 7.105469 21.851562 6.933594 21.976562 L 4.101562 24.074219 C 3.886719 24.230469 3.527344 24.585938 3.527344 24.910156 L 3.527344 27.949219 C 3.527344 28.601562 4.082031 29.132812 4.761719 29.132812 L 10.363281 29.132812 C 11.042969 29.132812 11.597656 28.601562 11.597656 27.949219 L 11.597656 24.910156 C 11.597656 24.585938 11.238281 24.230469 11.027344 24.074219 Z M 11.015625 27.949219 C 11.015625 28.277344 10.722656 28.550781 10.363281 28.550781 L 4.761719 28.550781 C 4.402344 28.550781 4.109375 28.277344 4.109375 27.949219 L 4.109375 24.921875 C 4.128906 24.859375 4.257812 24.679688 4.445312 24.542969 L 7.28125 22.445312 C 7.351562 22.394531 7.453125 22.363281 7.5625 22.363281 C 7.671875 22.363281 7.773438 22.394531 7.84375 22.445312 L 10.679688 24.542969 C 10.871094 24.683594 10.996094 24.859375 11.015625 24.921875 Z M 11.015625 27.949219 " fill-opacity="1" fill-rule="nonzero"/></g><g fill="#ffffff" fill-opacity="1"><g transform="translate(0.0000005, 36.494446)"><g><path d="M 0.59375 -0.96875 C 0.6875 -0.96875 0.769531 -0.945312 0.84375 -0.90625 C 0.914062 -0.863281 0.972656 -0.800781 1.015625 -0.71875 C 1.054688 -0.644531 1.078125 -0.566406 1.078125 -0.484375 L 1.078125 -0.0625 C 1.078125 -0.0390625 1.070312 -0.0234375 1.0625 -0.015625 C 1.050781 -0.00390625 1.035156 0 1.015625 0 C 0.992188 0 0.972656 -0.00390625 0.953125 -0.015625 C 0.941406 -0.0234375 0.9375 -0.0390625 0.9375 -0.0625 L 0.9375 -0.171875 C 0.894531 -0.117188 0.84375 -0.0703125 0.78125 -0.03125 C 0.71875 0 0.648438 0.015625 0.578125 0.015625 C 0.492188 0.015625 0.414062 -0.00390625 0.34375 -0.046875 C 0.269531 -0.0976562 0.210938 -0.160156 0.171875 -0.234375 C 0.128906 -0.304688 0.109375 -0.390625 0.109375 -0.484375 C 0.109375 -0.566406 0.128906 -0.644531 0.171875 -0.71875 C 0.210938 -0.800781 0.269531 -0.863281 0.34375 -0.90625 C 0.414062 -0.945312 0.5 -0.96875 0.59375 -0.96875 Z M 0.59375 -0.109375 C 0.65625 -0.109375 0.710938 -0.125 0.765625 -0.15625 C 0.828125 -0.1875 0.875 -0.226562 0.90625 -0.28125 C 0.9375 -0.34375 0.953125 -0.410156 0.953125 -0.484375 C 0.953125 -0.546875 0.9375 -0.601562 0.90625 -0.65625 C 0.875 -0.71875 0.828125 -0.765625 0.765625 -0.796875 C 0.710938 -0.828125 0.65625 -0.84375 0.59375 -0.84375 C 0.53125 -0.84375 0.46875 -0.828125 0.40625 -0.796875 C 0.351562 -0.765625 0.3125 -0.71875 0.28125 -0.65625 C 0.25 -0.601562 0.234375 -0.546875 0.234375 -0.484375 C 0.234375 -0.410156 0.25 -0.34375 0.28125 -0.28125 C 0.3125 -0.226562 0.351562 -0.1875 0.40625 -0.15625 C 0.46875 -0.125 0.53125 -0.109375 0.59375 -0.109375 Z M 0.59375 -0.109375 "/></g></g></g></svg>