<svg xmlns="http://www.w3.org/2000/svg" xmlns:xlink="http://www.w3.org/1999/xlink" width="50" zoomAndPan="magnify" viewBox="0 0 37.5 37.499999" height="50" preserveAspectRatio="xMidYMid meet" version="1.0"><defs><g/><clipPath id="bf9a691247"><path d="M 3.210938 3.699219 L 33.554688 3.699219 L 33.554688 33.304688 L 3.210938 33.304688 Z M 3.210938 3.699219 " clip-rule="nonzero"/></clipPath></defs><g clip-path="url(#bf9a691247)"><path fill="#000000" d="M 15.859375 22.722656 L 14.882812 22.722656 C 14.753906 22.707031 14.644531 22.652344 14.554688 22.558594 C 14.460938 22.46875 14.40625 22.355469 14.390625 22.230469 C 14.40625 22.097656 14.457031 21.988281 14.550781 21.894531 C 14.640625 21.800781 14.753906 21.75 14.882812 21.734375 L 16.351562 21.734375 C 16.484375 21.734375 16.601562 21.6875 16.695312 21.589844 C 16.792969 21.496094 16.839844 21.378906 16.839844 21.242188 C 16.839844 21.105469 16.792969 20.988281 16.695312 20.894531 C 16.601562 20.796875 16.484375 20.75 16.351562 20.75 L 15.859375 20.75 L 15.859375 20.253906 C 15.859375 20.117188 15.8125 20.003906 15.71875 19.90625 C 15.621094 19.808594 15.507812 19.761719 15.371094 19.761719 C 15.234375 19.761719 15.121094 19.808594 15.023438 19.90625 C 14.929688 20.003906 14.882812 20.117188 14.882812 20.253906 L 14.882812 20.75 C 14.6875 20.75 14.5 20.785156 14.320312 20.859375 C 14.140625 20.9375 13.980469 21.042969 13.84375 21.183594 C 13.703125 21.320312 13.597656 21.480469 13.523438 21.664062 C 13.449219 21.84375 13.414062 22.03125 13.414062 22.230469 C 13.414062 22.425781 13.449219 22.613281 13.523438 22.796875 C 13.597656 22.976562 13.703125 23.136719 13.84375 23.273438 C 13.980469 23.414062 14.140625 23.519531 14.320312 23.597656 C 14.5 23.671875 14.6875 23.707031 14.882812 23.707031 L 15.859375 23.707031 C 15.988281 23.722656 16.101562 23.777344 16.191406 23.867188 C 16.285156 23.960938 16.335938 24.074219 16.351562 24.203125 C 16.335938 24.332031 16.28125 24.441406 16.1875 24.535156 C 16.097656 24.625 15.988281 24.679688 15.859375 24.695312 L 14.390625 24.695312 C 14.257812 24.695312 14.140625 24.742188 14.046875 24.839844 C 13.949219 24.9375 13.902344 25.054688 13.902344 25.1875 C 13.902344 25.324219 13.949219 25.441406 14.046875 25.539062 C 14.140625 25.632812 14.257812 25.683594 14.390625 25.683594 L 14.882812 25.683594 L 14.882812 26.175781 C 14.882812 26.3125 14.929688 26.429688 15.023438 26.523438 C 15.121094 26.621094 15.234375 26.667969 15.371094 26.667969 C 15.507812 26.667969 15.621094 26.621094 15.71875 26.523438 C 15.8125 26.429688 15.859375 26.3125 15.859375 26.175781 L 15.859375 25.683594 C 16.054688 25.683594 16.242188 25.644531 16.421875 25.570312 C 16.601562 25.496094 16.761719 25.386719 16.898438 25.25 C 17.039062 25.109375 17.144531 24.949219 17.21875 24.769531 C 17.292969 24.585938 17.328125 24.398438 17.328125 24.203125 C 17.328125 24.007812 17.292969 23.816406 17.21875 23.636719 C 17.144531 23.453125 17.039062 23.292969 16.898438 23.15625 C 16.761719 23.015625 16.601562 22.910156 16.421875 22.835938 C 16.242188 22.757812 16.054688 22.722656 15.859375 22.722656 Z M 15.859375 22.722656 L 14.882812 22.722656 C 14.753906 22.707031 14.644531 22.652344 14.554688 22.558594 C 14.460938 22.46875 14.40625 22.355469 14.390625 22.230469 C 14.40625 22.097656 14.457031 21.988281 14.550781 21.894531 C 14.640625 21.800781 14.753906 21.75 14.882812 21.734375 L 16.351562 21.734375 C 16.484375 21.734375 16.601562 21.6875 16.695312 21.589844 C 16.792969 21.496094 16.839844 21.378906 16.839844 21.242188 C 16.839844 21.105469 16.792969 20.988281 16.695312 20.894531 C 16.601562 20.796875 16.484375 20.75 16.351562 20.75 L 15.859375 20.75 L 15.859375 20.253906 C 15.859375 20.117188 15.8125 20.003906 15.71875 19.90625 C 15.621094 19.808594 15.507812 19.761719 15.371094 19.761719 C 15.234375 19.761719 15.121094 19.808594 15.023438 19.90625 C 14.929688 20.003906 14.882812 20.117188 14.882812 20.253906 L 14.882812 20.75 C 14.6875 20.75 14.5 20.785156 14.320312 20.859375 C 14.140625 20.9375 13.980469 21.042969 13.84375 21.183594 C 13.703125 21.320312 13.597656 21.480469 13.523438 21.664062 C 13.449219 21.84375 13.414062 22.03125 13.414062 22.230469 C 13.414062 22.425781 13.449219 22.613281 13.523438 22.796875 C 13.597656 22.976562 13.703125 23.136719 13.84375 23.273438 C 13.980469 23.414062 14.140625 23.519531 14.320312 23.597656 C 14.5 23.671875 14.6875 23.707031 14.882812 23.707031 L 15.859375 23.707031 C 15.988281 23.722656 16.101562 23.777344 16.191406 23.867188 C 16.285156 23.960938 16.335938 24.074219 16.351562 24.203125 C 16.335938 24.332031 16.28125 24.441406 16.1875 24.535156 C 16.097656 24.625 15.988281 24.679688 15.859375 24.695312 L 14.390625 24.695312 C 14.257812 24.695312 14.140625 24.742188 14.046875 24.839844 C 13.949219 24.9375 13.902344 25.054688 13.902344 25.1875 C 13.902344 25.324219 13.949219 25.441406 14.046875 25.539062 C 14.140625 25.632812 14.257812 25.683594 14.390625 25.683594 L 14.882812 25.683594 L 14.882812 26.175781 C 14.882812 26.3125 14.929688 26.429688 15.023438 26.523438 C 15.121094 26.621094 15.234375 26.667969 15.371094 26.667969 C 15.507812 26.667969 15.621094 26.621094 15.71875 26.523438 C 15.8125 26.429688 15.859375 26.3125 15.859375 26.175781 L 15.859375 25.683594 C 16.054688 25.683594 16.242188 25.644531 16.421875 25.570312 C 16.601562 25.496094 16.761719 25.386719 16.898438 25.25 C 17.039062 25.109375 17.144531 24.949219 17.21875 24.769531 C 17.292969 24.585938 17.328125 24.398438 17.328125 24.203125 C 17.328125 24.007812 17.292969 23.816406 17.21875 23.636719 C 17.144531 23.453125 17.039062 23.292969 16.898438 23.15625 C 16.761719 23.015625 16.601562 22.910156 16.421875 22.835938 C 16.242188 22.757812 16.054688 22.722656 15.859375 22.722656 Z M 15.859375 22.722656 L 14.882812 22.722656 C 14.753906 22.707031 14.644531 22.652344 14.554688 22.558594 C 14.460938 22.46875 14.40625 22.355469 14.390625 22.230469 C 14.40625 22.097656 14.457031 21.988281 14.550781 21.894531 C 14.640625 21.800781 14.753906 21.75 14.882812 21.734375 L 16.351562 21.734375 C 16.484375 21.734375 16.601562 21.6875 16.695312 21.589844 C 16.792969 21.496094 16.839844 21.378906 16.839844 21.242188 C 16.839844 21.105469 16.792969 20.988281 16.695312 20.894531 C 16.601562 20.796875 16.484375 20.75 16.351562 20.75 L 15.859375 20.75 L 15.859375 20.253906 C 15.859375 20.117188 15.8125 20.003906 15.71875 19.90625 C 15.621094 19.808594 15.507812 19.761719 15.371094 19.761719 C 15.234375 19.761719 15.121094 19.808594 15.023438 19.90625 C 14.929688 20.003906 14.882812 20.117188 14.882812 20.253906 L 14.882812 20.75 C 14.6875 20.75 14.5 20.785156 14.320312 20.859375 C 14.140625 20.9375 13.980469 21.042969 13.84375 21.183594 C 13.703125 21.320312 13.597656 21.480469 13.523438 21.664062 C 13.449219 21.84375 13.414062 22.03125 13.414062 22.230469 C 13.414062 22.425781 13.449219 22.613281 13.523438 22.796875 C 13.597656 22.976562 13.703125 23.136719 13.84375 23.273438 C 13.980469 23.414062 14.140625 23.519531 14.320312 23.597656 C 14.5 23.671875 14.6875 23.707031 14.882812 23.707031 L 15.859375 23.707031 C 15.988281 23.722656 16.101562 23.777344 16.191406 23.867188 C 16.285156 23.960938 16.335938 24.074219 16.351562 24.203125 C 16.335938 24.332031 16.28125 24.441406 16.1875 24.535156 C 16.097656 24.625 15.988281 24.679688 15.859375 24.695312 L 14.390625 24.695312 C 14.257812 24.695312 14.140625 24.742188 14.046875 24.839844 C 13.949219 24.9375 13.902344 25.054688 13.902344 25.1875 C 13.902344 25.324219 13.949219 25.441406 14.046875 25.539062 C 14.140625 25.632812 14.257812 25.683594 14.390625 25.683594 L 14.882812 25.683594 L 14.882812 26.175781 C 14.882812 26.3125 14.929688 26.429688 15.023438 26.523438 C 15.121094 26.621094 15.234375 26.667969 15.371094 26.667969 C 15.507812 26.667969 15.621094 26.621094 15.71875 26.523438 C 15.8125 26.429688 15.859375 26.3125 15.859375 26.175781 L 15.859375 25.683594 C 16.054688 25.683594 16.242188 25.644531 16.421875 25.570312 C 16.601562 25.496094 16.761719 25.386719 16.898438 25.25 C 17.039062 25.109375 17.144531 24.949219 17.21875 24.769531 C 17.292969 24.585938 17.328125 24.398438 17.328125 24.203125 C 17.328125 24.007812 17.292969 23.816406 17.21875 23.636719 C 17.144531 23.453125 17.039062 23.292969 16.898438 23.15625 C 16.761719 23.015625 16.601562 22.910156 16.421875 22.835938 C 16.242188 22.757812 16.054688 22.722656 15.859375 22.722656 Z M 33 32.320312 L 32.019531 32.320312 L 32.019531 16.035156 C 32.019531 15.898438 31.972656 15.785156 31.875 15.6875 C 31.78125 15.589844 31.664062 15.542969 31.53125 15.542969 L 29.570312 15.542969 C 29.4375 15.542969 29.320312 15.589844 29.226562 15.6875 C 29.128906 15.785156 29.082031 15.898438 29.082031 16.035156 L 29.082031 32.320312 L 28.101562 32.320312 L 28.101562 19.984375 C 28.101562 19.847656 28.054688 19.730469 27.960938 19.636719 C 27.863281 19.539062 27.75 19.492188 27.613281 19.488281 L 25.65625 19.488281 C 25.519531 19.492188 25.402344 19.539062 25.308594 19.636719 C 25.214844 19.730469 25.164062 19.847656 25.164062 19.984375 L 25.164062 21.730469 C 24.578125 20.675781 23.953125 19.605469 23.289062 18.523438 C 24.839844 18.003906 26.234375 17.214844 27.480469 16.148438 C 28.722656 15.085938 29.722656 13.824219 30.484375 12.371094 L 31.003906 12.546875 C 31.082031 12.574219 31.164062 12.582031 31.246094 12.566406 C 31.328125 12.550781 31.402344 12.519531 31.464844 12.464844 C 31.53125 12.410156 31.578125 12.347656 31.609375 12.269531 C 31.644531 12.191406 31.652344 12.109375 31.644531 12.023438 L 31.167969 7.6875 C 31.148438 7.484375 31.042969 7.347656 30.851562 7.277344 C 30.660156 7.207031 30.492188 7.242188 30.347656 7.382812 L 27.261719 10.3125 C 27.136719 10.433594 27.085938 10.582031 27.117188 10.757812 C 27.144531 10.933594 27.242188 11.058594 27.40625 11.125 L 27.886719 11.332031 C 27.160156 12.453125 26.269531 13.417969 25.207031 14.222656 C 24.148438 15.03125 22.980469 15.632812 21.710938 16.027344 C 21.207031 15.261719 20.796875 14.660156 20.527344 14.273438 C 20.886719 14.0625 21.152344 13.765625 21.324219 13.378906 C 21.492188 12.996094 21.535156 12.597656 21.453125 12.183594 C 21.367188 11.773438 21.171875 11.425781 20.867188 11.136719 C 20.558594 10.851562 20.199219 10.683594 19.78125 10.632812 C 20.410156 9.832031 21.355469 8.605469 21.84375 7.945312 C 22.015625 7.71875 22.117188 7.460938 22.15625 7.179688 C 22.191406 6.894531 22.152344 6.625 22.046875 6.359375 C 21.941406 6.121094 21.785156 5.929688 21.578125 5.777344 C 21.367188 5.625 21.136719 5.535156 20.878906 5.511719 C 20.023438 5.402344 19.183594 5.230469 18.351562 4.988281 C 18.332031 4.8125 18.277344 4.640625 18.191406 4.484375 C 18.109375 4.324219 18 4.1875 17.867188 4.070312 C 17.734375 3.949219 17.582031 3.859375 17.414062 3.796875 C 17.25 3.734375 17.078125 3.699219 16.898438 3.699219 L 13.847656 3.699219 C 13.335938 3.699219 12.933594 3.914062 12.636719 4.335938 C 12.5 4.542969 12.417969 4.769531 12.390625 5.019531 C 11.558594 5.242188 10.714844 5.40625 9.863281 5.515625 C 9.609375 5.539062 9.375 5.628906 9.167969 5.777344 C 8.960938 5.925781 8.804688 6.121094 8.703125 6.355469 C 8.589844 6.617188 8.550781 6.890625 8.585938 7.171875 C 8.621094 7.457031 8.722656 7.710938 8.890625 7.9375 C 9.386719 8.613281 10.332031 9.832031 10.953125 10.632812 C 10.507812 10.691406 10.128906 10.878906 9.8125 11.203125 C 9.496094 11.527344 9.3125 11.910156 9.261719 12.363281 C 9.210938 12.8125 9.304688 13.230469 9.539062 13.613281 C 9.777344 14 10.105469 14.269531 10.527344 14.425781 C 8.386719 17.144531 6.492188 20.023438 4.847656 23.074219 C 3.277344 26.039062 3.882812 28.230469 4.667969 29.546875 C 5.453125 30.796875 6.519531 31.722656 7.863281 32.320312 L 4.109375 32.320312 C 3.972656 32.320312 3.859375 32.367188 3.761719 32.464844 C 3.667969 32.558594 3.617188 32.675781 3.617188 32.8125 C 3.617188 32.949219 3.667969 33.066406 3.761719 33.160156 C 3.859375 33.257812 3.972656 33.304688 4.109375 33.304688 L 33 33.304688 C 33.136719 33.304688 33.25 33.257812 33.347656 33.160156 C 33.441406 33.066406 33.488281 32.949219 33.488281 32.8125 C 33.488281 32.675781 33.441406 32.558594 33.347656 32.464844 C 33.25 32.367188 33.136719 32.320312 33 32.320312 Z M 19.535156 23.214844 C 19.535156 23.492188 19.507812 23.761719 19.453125 24.035156 C 19.398438 24.304688 19.320312 24.566406 19.214844 24.820312 C 19.113281 25.074219 18.984375 25.316406 18.832031 25.546875 C 18.679688 25.773438 18.507812 25.988281 18.3125 26.179688 C 18.121094 26.375 17.910156 26.550781 17.683594 26.703125 C 17.457031 26.855469 17.214844 26.984375 16.964844 27.089844 C 16.710938 27.195312 16.453125 27.273438 16.183594 27.328125 C 15.914062 27.382812 15.644531 27.410156 15.371094 27.410156 C 15.097656 27.410156 14.828125 27.382812 14.558594 27.328125 C 14.292969 27.273438 14.03125 27.195312 13.777344 27.089844 C 13.527344 26.984375 13.285156 26.855469 13.058594 26.703125 C 12.832031 26.550781 12.621094 26.375 12.429688 26.179688 C 12.234375 25.988281 12.0625 25.773438 11.910156 25.546875 C 11.757812 25.316406 11.628906 25.074219 11.527344 24.820312 C 11.421875 24.566406 11.34375 24.304688 11.289062 24.035156 C 11.234375 23.761719 11.207031 23.492188 11.207031 23.214844 C 11.207031 22.941406 11.234375 22.667969 11.289062 22.398438 C 11.34375 22.128906 11.421875 21.863281 11.527344 21.609375 C 11.628906 21.355469 11.757812 21.113281 11.910156 20.886719 C 12.0625 20.65625 12.234375 20.445312 12.429688 20.25 C 12.621094 20.054688 12.832031 19.882812 13.058594 19.726562 C 13.285156 19.574219 13.527344 19.445312 13.777344 19.339844 C 14.03125 19.234375 14.292969 19.15625 14.558594 19.101562 C 14.828125 19.046875 15.097656 19.019531 15.371094 19.019531 C 15.644531 19.023438 15.914062 19.050781 16.183594 19.101562 C 16.449219 19.15625 16.710938 19.238281 16.964844 19.34375 C 17.214844 19.449219 17.457031 19.578125 17.683594 19.730469 C 17.910156 19.882812 18.121094 20.058594 18.3125 20.25 C 18.503906 20.445312 18.679688 20.65625 18.832031 20.886719 C 18.980469 21.117188 19.109375 21.355469 19.214844 21.613281 C 19.320312 21.867188 19.398438 22.128906 19.453125 22.398438 C 19.507812 22.667969 19.53125 22.941406 19.535156 23.214844 Z M 18.203125 5.96875 C 19.046875 6.210938 19.90625 6.382812 20.777344 6.492188 C 20.953125 6.503906 21.078125 6.59375 21.148438 6.753906 C 21.230469 6.972656 21.203125 7.171875 21.054688 7.351562 C 20.429688 8.210938 19.015625 10.027344 18.558594 10.609375 L 16.988281 10.609375 Z M 13.445312 4.898438 C 13.542969 4.757812 13.675781 4.6875 13.847656 4.6875 L 16.898438 4.6875 C 17.070312 4.6875 17.203125 4.757812 17.300781 4.898438 C 17.398438 5.042969 17.417969 5.191406 17.355469 5.355469 C 17.347656 5.367188 17.34375 5.382812 17.339844 5.402344 L 15.972656 10.609375 L 14.769531 10.609375 L 13.402344 5.402344 C 13.398438 5.382812 13.394531 5.367188 13.386719 5.355469 C 13.328125 5.191406 13.347656 5.039062 13.445312 4.898438 Z M 9.679688 7.355469 C 9.539062 7.171875 9.511719 6.972656 9.597656 6.753906 C 9.667969 6.589844 9.789062 6.503906 9.964844 6.492188 C 10.839844 6.386719 11.699219 6.222656 12.550781 6 L 13.753906 10.609375 L 12.179688 10.609375 C 11.726562 10.027344 10.3125 8.214844 9.679688 7.355469 Z M 10.230469 12.582031 C 10.230469 12.308594 10.324219 12.078125 10.515625 11.886719 C 10.707031 11.691406 10.9375 11.597656 11.207031 11.59375 L 19.535156 11.59375 C 19.664062 11.59375 19.789062 11.621094 19.910156 11.671875 C 20.027344 11.71875 20.132812 11.792969 20.226562 11.882812 C 20.316406 11.976562 20.386719 12.082031 20.4375 12.203125 C 20.488281 12.324219 20.511719 12.453125 20.511719 12.582031 C 20.511719 12.714844 20.488281 12.839844 20.4375 12.960938 C 20.386719 13.082031 20.316406 13.1875 20.226562 13.28125 C 20.132812 13.371094 20.027344 13.445312 19.910156 13.492188 C 19.789062 13.542969 19.664062 13.570312 19.535156 13.570312 L 11.207031 13.570312 C 10.9375 13.566406 10.707031 13.472656 10.515625 13.277344 C 10.324219 13.085938 10.230469 12.855469 10.230469 12.582031 Z M 25.164062 32.320312 L 24.183594 32.320312 L 24.183594 31.53125 C 24.535156 31.285156 24.863281 31.011719 25.164062 30.710938 Z M 25.164062 29.125 C 24.890625 29.558594 24.566406 29.941406 24.183594 30.277344 L 24.183594 25.410156 C 24.183594 25.273438 24.136719 25.160156 24.042969 25.0625 C 23.945312 24.964844 23.832031 24.917969 23.695312 24.917969 L 21.738281 24.917969 C 21.601562 24.917969 21.488281 24.964844 21.390625 25.0625 C 21.296875 25.160156 21.246094 25.273438 21.246094 25.410156 L 21.246094 31.863281 C 20.929688 31.957031 20.601562 32.042969 20.269531 32.105469 L 20.269531 29.851562 C 20.269531 29.714844 20.21875 29.601562 20.125 29.503906 C 20.027344 29.40625 19.914062 29.359375 19.777344 29.359375 L 17.820312 29.359375 C 17.683594 29.359375 17.570312 29.40625 17.472656 29.503906 C 17.378906 29.601562 17.332031 29.714844 17.328125 29.851562 L 17.328125 32.320312 L 12.515625 32.320312 C 9.445312 32.320312 6.695312 31.03125 5.507812 29.039062 C 4.570312 27.464844 4.636719 25.558594 5.710938 23.535156 C 7.425781 20.359375 9.417969 17.363281 11.683594 14.554688 L 19.527344 14.554688 C 19.734375 14.847656 20.144531 15.445312 20.695312 16.261719 C 19.351562 16.503906 18.011719 16.476562 16.679688 16.183594 C 16.539062 16.152344 16.40625 16.179688 16.289062 16.265625 C 16.171875 16.347656 16.105469 16.464844 16.089844 16.609375 L 15.910156 18.0625 C 15.730469 18.042969 15.550781 18.035156 15.371094 18.035156 C 14.96875 18.035156 14.574219 18.082031 14.183594 18.175781 C 13.796875 18.269531 13.421875 18.40625 13.0625 18.585938 C 12.703125 18.765625 12.371094 18.988281 12.066406 19.246094 C 11.757812 19.507812 11.484375 19.800781 11.246094 20.125 C 11.007812 20.449219 10.808594 20.796875 10.648438 21.164062 C 10.492188 21.535156 10.378906 21.921875 10.308594 22.320312 C 10.238281 22.714844 10.214844 23.117188 10.238281 23.519531 C 10.261719 23.921875 10.332031 24.316406 10.449219 24.707031 C 10.5625 25.09375 10.71875 25.460938 10.921875 25.808594 C 11.121094 26.160156 11.359375 26.480469 11.636719 26.773438 C 11.910156 27.066406 12.214844 27.324219 12.550781 27.546875 C 12.886719 27.769531 13.242188 27.949219 13.617188 28.085938 C 13.996094 28.222656 14.382812 28.316406 14.78125 28.363281 C 15.179688 28.40625 15.578125 28.40625 15.976562 28.359375 C 16.375 28.3125 16.761719 28.21875 17.136719 28.082031 C 17.515625 27.941406 17.871094 27.761719 18.203125 27.539062 C 18.539062 27.316406 18.84375 27.058594 19.117188 26.761719 C 19.390625 26.46875 19.628906 26.148438 19.828125 25.796875 C 20.027344 25.445312 20.183594 25.078125 20.300781 24.691406 C 20.414062 24.304688 20.480469 23.910156 20.503906 23.503906 C 20.527344 23.101562 20.503906 22.703125 20.433594 22.304688 C 20.363281 21.90625 20.246094 21.523438 20.085938 21.152344 C 19.929688 20.78125 19.726562 20.433594 19.488281 20.113281 C 19.25 19.789062 18.972656 19.496094 18.667969 19.238281 C 18.746094 19.242188 18.828125 19.242188 18.910156 19.242188 C 20.0625 19.242188 21.199219 19.097656 22.316406 18.808594 C 23.300781 20.40625 25.121094 23.714844 25.164062 23.800781 Z M 25.164062 29.125 " fill-opacity="1" fill-rule="nonzero"/></g><g fill="#ffffff" fill-opacity="1"><g transform="translate(0.0000005, 36.494446)"><g><path d="M 0.59375 -0.96875 C 0.6875 -0.96875 0.769531 -0.945312 0.84375 -0.90625 C 0.914062 -0.863281 0.972656 -0.800781 1.015625 -0.71875 C 1.054688 -0.644531 1.078125 -0.566406 1.078125 -0.484375 L 1.078125 -0.0625 C 1.078125 -0.0390625 1.070312 -0.0234375 1.0625 -0.015625 C 1.050781 -0.00390625 1.035156 0 1.015625 0 C 0.992188 0 0.972656 -0.00390625 0.953125 -0.015625 C 0.941406 -0.0234375 0.9375 -0.0390625 0.9375 -0.0625 L 0.9375 -0.171875 C 0.894531 -0.117188 0.84375 -0.0703125 0.78125 -0.03125 C 0.71875 0 0.648438 0.015625 0.578125 0.015625 C 0.492188 0.015625 0.414062 -0.00390625 0.34375 -0.046875 C 0.269531 -0.0976562 0.210938 -0.160156 0.171875 -0.234375 C 0.128906 -0.304688 0.109375 -0.390625 0.109375 -0.484375 C 0.109375 -0.566406 0.128906 -0.644531 0.171875 -0.71875 C 0.210938 -0.800781 0.269531 -0.863281 0.34375 -0.90625 C 0.414062 -0.945312 0.5 -0.96875 0.59375 -0.96875 Z M 0.59375 -0.109375 C 0.65625 -0.109375 0.710938 -0.125 0.765625 -0.15625 C 0.828125 -0.1875 0.875 -0.226562 0.90625 -0.28125 C 0.9375 -0.34375 0.953125 -0.410156 0.953125 -0.484375 C 0.953125 -0.546875 0.9375 -0.601562 0.90625 -0.65625 C 0.875 -0.71875 0.828125 -0.765625 0.765625 -0.796875 C 0.710938 -0.828125 0.65625 -0.84375 0.59375 -0.84375 C 0.53125 -0.84375 0.46875 -0.828125 0.40625 -0.796875 C 0.351562 -0.765625 0.3125 -0.71875 0.28125 -0.65625 C 0.25 -0.601562 0.234375 -0.546875 0.234375 -0.484375 C 0.234375 -0.410156 0.25 -0.34375 0.28125 -0.28125 C 0.3125 -0.226562 0.351562 -0.1875 0.40625 -0.15625 C 0.46875 -0.125 0.53125 -0.109375 0.59375 -0.109375 Z M 0.59375 -0.109375 "/></g></g></g></svg>