<svg xmlns="http://www.w3.org/2000/svg" xmlns:xlink="http://www.w3.org/1999/xlink" width="50" zoomAndPan="magnify" viewBox="0 0 37.5 37.499999" height="50" preserveAspectRatio="xMidYMid meet" version="1.0"><defs><g/><clipPath id="85baad82da"><path d="M 3.699219 2.292969 L 34.785156 2.292969 L 34.785156 33.378906 L 3.699219 33.378906 Z M 3.699219 2.292969 " clip-rule="nonzero"/></clipPath></defs><path fill="#000000" d="M 5.644531 29.980469 C 5.644531 30.113281 5.691406 30.230469 5.785156 30.324219 C 5.878906 30.417969 5.996094 30.464844 6.128906 30.464844 C 6.261719 30.464844 6.378906 30.417969 6.472656 30.324219 C 6.566406 30.230469 6.613281 30.113281 6.613281 29.980469 L 6.613281 28.523438 L 8.070312 28.523438 C 8.207031 28.523438 8.320312 28.476562 8.414062 28.378906 C 8.511719 28.285156 8.558594 28.171875 8.558594 28.035156 C 8.558594 27.902344 8.511719 27.789062 8.414062 27.695312 C 8.320312 27.597656 8.207031 27.550781 8.070312 27.550781 L 6.535156 27.550781 C 6.289062 27.550781 6.078125 27.640625 5.90625 27.8125 C 5.730469 27.984375 5.644531 28.195312 5.644531 28.441406 Z M 5.644531 29.980469 " fill-opacity="1" fill-rule="nonzero"/><path fill="#000000" d="M 17.300781 29.980469 C 17.300781 30.113281 17.347656 30.230469 17.441406 30.324219 C 17.539062 30.417969 17.652344 30.464844 17.785156 30.464844 C 17.921875 30.464844 18.035156 30.417969 18.128906 30.324219 C 18.222656 30.230469 18.273438 30.113281 18.273438 29.980469 L 18.273438 28.523438 L 19.730469 28.523438 C 19.863281 28.523438 19.976562 28.476562 20.074219 28.378906 C 20.167969 28.285156 20.214844 28.171875 20.214844 28.035156 C 20.214844 27.902344 20.167969 27.789062 20.074219 27.695312 C 19.976562 27.597656 19.863281 27.550781 19.730469 27.550781 L 18.191406 27.550781 C 17.945312 27.550781 17.734375 27.640625 17.5625 27.8125 C 17.386719 27.984375 17.300781 28.195312 17.300781 28.441406 Z M 17.300781 29.980469 " fill-opacity="1" fill-rule="nonzero"/><path fill="#000000" d="M 23.128906 18.324219 C 23.128906 18.457031 23.175781 18.570312 23.269531 18.667969 C 23.367188 18.761719 23.480469 18.808594 23.613281 18.808594 C 23.75 18.808594 23.863281 18.761719 23.957031 18.667969 C 24.054688 18.570312 24.101562 18.457031 24.101562 18.324219 L 24.101562 16.867188 L 25.558594 16.867188 C 25.691406 16.867188 25.804688 16.816406 25.902344 16.722656 C 25.996094 16.628906 26.042969 16.515625 26.042969 16.378906 C 26.042969 16.246094 25.996094 16.132812 25.902344 16.035156 C 25.804688 15.941406 25.691406 15.894531 25.558594 15.894531 L 24.019531 15.894531 C 23.773438 15.894531 23.5625 15.980469 23.390625 16.15625 C 23.214844 16.328125 23.128906 16.539062 23.128906 16.785156 Z M 23.128906 18.324219 " fill-opacity="1" fill-rule="nonzero"/><path fill="#000000" d="M 13.414062 15.894531 L 11.875 15.894531 C 11.632812 15.894531 11.421875 15.980469 11.246094 16.15625 C 11.074219 16.328125 10.988281 16.539062 10.984375 16.785156 L 10.984375 18.324219 C 10.984375 18.457031 11.035156 18.570312 11.128906 18.667969 C 11.222656 18.761719 11.339844 18.808594 11.472656 18.808594 C 11.605469 18.808594 11.71875 18.761719 11.816406 18.667969 C 11.910156 18.570312 11.957031 18.457031 11.957031 18.324219 L 11.957031 16.867188 L 13.414062 16.867188 C 13.550781 16.867188 13.664062 16.816406 13.757812 16.722656 C 13.851562 16.628906 13.902344 16.515625 13.902344 16.378906 C 13.902344 16.246094 13.851562 16.132812 13.757812 16.035156 C 13.664062 15.941406 13.550781 15.894531 13.414062 15.894531 Z M 13.414062 15.894531 " fill-opacity="1" fill-rule="nonzero"/><path fill="#000000" d="M 19.730469 4.238281 L 18.191406 4.238281 C 17.945312 4.238281 17.734375 4.324219 17.5625 4.5 C 17.386719 4.671875 17.300781 4.882812 17.300781 5.128906 L 17.300781 6.664062 C 17.300781 6.800781 17.347656 6.914062 17.441406 7.007812 C 17.539062 7.105469 17.652344 7.152344 17.785156 7.152344 C 17.921875 7.152344 18.035156 7.105469 18.128906 7.007812 C 18.222656 6.914062 18.273438 6.800781 18.273438 6.664062 L 18.273438 5.207031 L 19.730469 5.207031 C 19.863281 5.207031 19.976562 5.160156 20.074219 5.066406 C 20.167969 4.972656 20.214844 4.855469 20.214844 4.722656 C 20.214844 4.589844 20.167969 4.472656 20.074219 4.378906 C 19.976562 4.285156 19.863281 4.238281 19.730469 4.238281 Z M 19.730469 4.238281 " fill-opacity="1" fill-rule="nonzero"/><g clip-path="url(#85baad82da)"><path fill="#000000" d="M 32.84375 25.609375 L 32.359375 25.609375 L 32.359375 24.636719 C 32.355469 24.367188 32.261719 24.140625 32.074219 23.949219 C 31.882812 23.761719 31.65625 23.664062 31.386719 23.664062 L 25.558594 23.664062 L 25.558594 21.722656 L 27.015625 21.722656 C 27.273438 21.722656 27.519531 21.671875 27.757812 21.574219 C 27.996094 21.476562 28.207031 21.335938 28.386719 21.152344 C 28.570312 20.972656 28.710938 20.761719 28.808594 20.523438 C 28.90625 20.285156 28.957031 20.039062 28.957031 19.78125 L 28.957031 15.894531 C 28.957031 15.636719 28.90625 15.390625 28.808594 15.152344 C 28.710938 14.914062 28.570312 14.703125 28.386719 14.519531 C 28.207031 14.339844 27.996094 14.199219 27.757812 14.101562 C 27.519531 14 27.273438 13.953125 27.015625 13.953125 L 26.042969 13.953125 L 26.042969 12.738281 C 26.042969 12.46875 25.949219 12.238281 25.757812 12.050781 C 25.570312 11.859375 25.339844 11.765625 25.070312 11.765625 L 19.730469 11.765625 L 19.730469 10.066406 L 21.1875 10.066406 C 21.445312 10.066406 21.691406 10.015625 21.929688 9.917969 C 22.167969 9.820312 22.378906 9.679688 22.558594 9.496094 C 22.742188 9.3125 22.882812 9.105469 22.980469 8.867188 C 23.078125 8.628906 23.128906 8.378906 23.128906 8.121094 L 23.128906 4.238281 C 23.128906 3.980469 23.078125 3.730469 22.980469 3.492188 C 22.882812 3.257812 22.742188 3.046875 22.558594 2.863281 C 22.378906 2.683594 22.167969 2.542969 21.929688 2.441406 C 21.691406 2.34375 21.445312 2.292969 21.1875 2.292969 L 17.300781 2.292969 C 17.042969 2.292969 16.796875 2.34375 16.558594 2.441406 C 16.320312 2.542969 16.109375 2.683594 15.925781 2.863281 C 15.746094 3.046875 15.605469 3.257812 15.507812 3.492188 C 15.40625 3.730469 15.359375 3.980469 15.359375 4.238281 L 15.359375 8.121094 C 15.359375 8.378906 15.40625 8.628906 15.507812 8.867188 C 15.605469 9.105469 15.746094 9.3125 15.925781 9.496094 C 16.109375 9.679688 16.320312 9.820312 16.558594 9.917969 C 16.796875 10.015625 17.042969 10.066406 17.300781 10.066406 L 18.757812 10.066406 L 18.757812 11.765625 L 13.414062 11.765625 C 13.148438 11.765625 12.917969 11.859375 12.726562 12.050781 C 12.539062 12.238281 12.445312 12.46875 12.445312 12.738281 L 12.445312 13.953125 L 10.984375 13.953125 C 10.730469 13.953125 10.480469 14 10.242188 14.101562 C 10.003906 14.199219 9.796875 14.339844 9.613281 14.519531 C 9.429688 14.703125 9.289062 14.914062 9.191406 15.152344 C 9.09375 15.390625 9.042969 15.636719 9.042969 15.894531 L 9.042969 19.78125 C 9.042969 20.039062 9.09375 20.285156 9.191406 20.523438 C 9.289062 20.761719 9.429688 20.972656 9.613281 21.152344 C 9.796875 21.335938 10.003906 21.476562 10.242188 21.574219 C 10.480469 21.671875 10.730469 21.722656 10.984375 21.722656 L 12.445312 21.722656 L 12.445312 23.664062 L 7.101562 23.664062 C 6.832031 23.664062 6.605469 23.761719 6.414062 23.949219 C 6.222656 24.140625 6.128906 24.367188 6.128906 24.636719 L 6.128906 25.609375 L 5.644531 25.609375 C 5.386719 25.609375 5.136719 25.660156 4.898438 25.757812 C 4.664062 25.855469 4.453125 25.996094 4.269531 26.179688 C 4.089844 26.359375 3.949219 26.570312 3.847656 26.808594 C 3.75 27.046875 3.699219 27.292969 3.699219 27.550781 L 3.699219 31.4375 C 3.699219 31.695312 3.75 31.941406 3.847656 32.179688 C 3.949219 32.417969 4.089844 32.628906 4.269531 32.808594 C 4.453125 32.992188 4.664062 33.132812 4.898438 33.230469 C 5.136719 33.332031 5.386719 33.378906 5.644531 33.378906 L 9.527344 33.378906 C 9.785156 33.378906 10.035156 33.332031 10.273438 33.230469 C 10.511719 33.132812 10.71875 32.992188 10.902344 32.808594 C 11.085938 32.628906 11.226562 32.417969 11.324219 32.179688 C 11.421875 31.941406 11.472656 31.695312 11.472656 31.4375 L 11.472656 27.550781 C 11.472656 27.292969 11.421875 27.046875 11.324219 26.808594 C 11.226562 26.570312 11.085938 26.359375 10.902344 26.179688 C 10.71875 25.996094 10.511719 25.855469 10.273438 25.757812 C 10.035156 25.660156 9.785156 25.609375 9.527344 25.609375 L 7.101562 25.609375 L 7.101562 24.636719 L 18.757812 24.636719 L 18.757812 25.609375 L 17.300781 25.609375 C 17.042969 25.609375 16.796875 25.660156 16.558594 25.757812 C 16.320312 25.855469 16.109375 25.996094 15.925781 26.179688 C 15.746094 26.359375 15.605469 26.570312 15.507812 26.808594 C 15.40625 27.046875 15.359375 27.292969 15.359375 27.550781 L 15.359375 31.4375 C 15.359375 31.695312 15.40625 31.941406 15.507812 32.179688 C 15.605469 32.417969 15.746094 32.628906 15.925781 32.808594 C 16.109375 32.992188 16.320312 33.132812 16.558594 33.230469 C 16.796875 33.332031 17.042969 33.378906 17.300781 33.378906 L 21.1875 33.378906 C 21.445312 33.378906 21.691406 33.332031 21.929688 33.230469 C 22.167969 33.132812 22.378906 32.992188 22.558594 32.808594 C 22.742188 32.628906 22.882812 32.417969 22.980469 32.179688 C 23.078125 31.941406 23.128906 31.695312 23.128906 31.4375 L 23.128906 27.550781 C 23.128906 27.292969 23.078125 27.046875 22.980469 26.808594 C 22.882812 26.570312 22.742188 26.359375 22.558594 26.179688 C 22.378906 25.996094 22.167969 25.855469 21.929688 25.757812 C 21.691406 25.660156 21.445312 25.609375 21.1875 25.609375 L 19.730469 25.609375 L 19.730469 24.636719 L 31.386719 24.636719 L 31.386719 25.609375 L 28.957031 25.609375 C 28.699219 25.609375 28.453125 25.660156 28.214844 25.757812 C 27.976562 25.855469 27.765625 25.996094 27.585938 26.179688 C 27.402344 26.359375 27.261719 26.570312 27.164062 26.808594 C 27.066406 27.046875 27.015625 27.292969 27.015625 27.550781 L 27.015625 31.4375 C 27.015625 31.695312 27.066406 31.941406 27.164062 32.179688 C 27.261719 32.417969 27.402344 32.628906 27.585938 32.808594 C 27.765625 32.992188 27.976562 33.132812 28.214844 33.230469 C 28.453125 33.332031 28.699219 33.378906 28.957031 33.378906 L 32.84375 33.378906 C 33.101562 33.378906 33.347656 33.332031 33.585938 33.230469 C 33.824219 33.132812 34.035156 32.992188 34.214844 32.808594 C 34.398438 32.628906 34.539062 32.417969 34.636719 32.179688 C 34.738281 31.941406 34.785156 31.695312 34.785156 31.4375 L 34.785156 27.550781 C 34.785156 27.292969 34.738281 27.046875 34.636719 26.808594 C 34.539062 26.570312 34.398438 26.359375 34.214844 26.179688 C 34.035156 25.996094 33.824219 25.855469 33.585938 25.757812 C 33.347656 25.660156 33.101562 25.609375 32.84375 25.609375 Z M 9.527344 26.578125 C 9.796875 26.578125 10.027344 26.675781 10.214844 26.863281 C 10.40625 27.054688 10.5 27.28125 10.5 27.550781 L 10.5 31.4375 C 10.5 31.707031 10.40625 31.933594 10.214844 32.125 C 10.027344 32.3125 9.796875 32.410156 9.527344 32.410156 L 5.644531 32.410156 C 5.375 32.410156 5.144531 32.3125 4.957031 32.125 C 4.765625 31.933594 4.671875 31.707031 4.671875 31.4375 L 4.671875 27.550781 C 4.671875 27.28125 4.765625 27.054688 4.957031 26.863281 C 5.144531 26.675781 5.375 26.578125 5.644531 26.578125 Z M 27.015625 14.921875 C 27.28125 14.921875 27.511719 15.019531 27.703125 15.207031 C 27.890625 15.398438 27.984375 15.625 27.984375 15.894531 L 27.984375 19.78125 C 27.984375 20.046875 27.890625 20.277344 27.703125 20.46875 C 27.511719 20.65625 27.28125 20.75 27.015625 20.75 L 23.128906 20.75 C 22.859375 20.75 22.632812 20.65625 22.441406 20.46875 C 22.253906 20.277344 22.15625 20.046875 22.15625 19.78125 L 22.15625 15.894531 C 22.15625 15.625 22.253906 15.398438 22.441406 15.207031 C 22.632812 15.019531 22.859375 14.921875 23.128906 14.921875 Z M 17.300781 9.09375 C 17.03125 9.09375 16.804688 9 16.613281 8.808594 C 16.425781 8.621094 16.328125 8.390625 16.328125 8.121094 L 16.328125 4.238281 C 16.328125 3.96875 16.425781 3.738281 16.613281 3.550781 C 16.804688 3.359375 17.03125 3.265625 17.300781 3.265625 L 21.1875 3.265625 C 21.453125 3.265625 21.683594 3.359375 21.875 3.550781 C 22.0625 3.738281 22.15625 3.96875 22.15625 4.238281 L 22.15625 8.121094 C 22.15625 8.390625 22.0625 8.621094 21.875 8.808594 C 21.683594 9 21.453125 9.09375 21.1875 9.09375 Z M 10.984375 20.75 C 10.71875 20.75 10.488281 20.65625 10.300781 20.46875 C 10.109375 20.277344 10.015625 20.046875 10.015625 19.78125 L 10.015625 15.894531 C 10.015625 15.625 10.109375 15.398438 10.300781 15.207031 C 10.488281 15.019531 10.71875 14.921875 10.984375 14.921875 L 14.871094 14.921875 C 15.140625 14.921875 15.371094 15.019531 15.558594 15.207031 C 15.75 15.398438 15.84375 15.625 15.84375 15.894531 L 15.84375 19.78125 C 15.84375 20.046875 15.75 20.277344 15.558594 20.46875 C 15.371094 20.65625 15.140625 20.75 14.871094 20.75 Z M 21.1875 26.578125 C 21.453125 26.578125 21.683594 26.675781 21.875 26.863281 C 22.0625 27.054688 22.15625 27.28125 22.15625 27.550781 L 22.15625 31.4375 C 22.15625 31.707031 22.0625 31.933594 21.875 32.125 C 21.683594 32.3125 21.453125 32.410156 21.1875 32.410156 L 17.300781 32.410156 C 17.03125 32.410156 16.804688 32.3125 16.613281 32.125 C 16.425781 31.933594 16.328125 31.707031 16.328125 31.4375 L 16.328125 27.550781 C 16.328125 27.28125 16.425781 27.054688 16.613281 26.863281 C 16.804688 26.675781 17.03125 26.578125 17.300781 26.578125 Z M 24.585938 23.664062 L 13.414062 23.664062 L 13.414062 21.722656 L 14.871094 21.722656 C 15.128906 21.722656 15.378906 21.671875 15.613281 21.574219 C 15.851562 21.476562 16.0625 21.335938 16.246094 21.152344 C 16.425781 20.972656 16.566406 20.761719 16.667969 20.523438 C 16.765625 20.285156 16.816406 20.039062 16.816406 19.78125 L 16.816406 15.894531 C 16.816406 15.636719 16.765625 15.390625 16.667969 15.152344 C 16.566406 14.914062 16.425781 14.703125 16.246094 14.519531 C 16.0625 14.339844 15.851562 14.199219 15.613281 14.101562 C 15.378906 14 15.128906 13.953125 14.871094 13.953125 L 13.414062 13.953125 L 13.414062 12.738281 L 25.070312 12.738281 L 25.070312 13.953125 L 23.128906 13.953125 C 22.871094 13.953125 22.625 14 22.386719 14.101562 C 22.148438 14.199219 21.9375 14.339844 21.757812 14.519531 C 21.574219 14.703125 21.433594 14.914062 21.335938 15.152344 C 21.234375 15.390625 21.1875 15.636719 21.1875 15.894531 L 21.1875 19.78125 C 21.1875 20.039062 21.234375 20.285156 21.335938 20.523438 C 21.433594 20.761719 21.574219 20.972656 21.757812 21.152344 C 21.9375 21.335938 22.148438 21.476562 22.386719 21.574219 C 22.625 21.671875 22.871094 21.722656 23.128906 21.722656 L 24.585938 21.722656 Z M 33.816406 31.4375 C 33.816406 31.707031 33.71875 31.933594 33.53125 32.125 C 33.339844 32.3125 33.113281 32.410156 32.84375 32.410156 L 28.957031 32.410156 C 28.6875 32.410156 28.460938 32.3125 28.269531 32.125 C 28.082031 31.933594 27.984375 31.707031 27.984375 31.4375 L 27.984375 27.550781 C 27.984375 27.28125 28.082031 27.054688 28.269531 26.863281 C 28.460938 26.675781 28.6875 26.578125 28.957031 26.578125 L 32.84375 26.578125 C 33.113281 26.578125 33.339844 26.675781 33.53125 26.863281 C 33.71875 27.054688 33.816406 27.28125 33.816406 27.550781 Z M 33.816406 31.4375 " fill-opacity="1" fill-rule="nonzero"/></g><path fill="#000000" d="M 31.386719 27.550781 L 29.847656 27.550781 C 29.601562 27.550781 29.390625 27.640625 29.21875 27.8125 C 29.046875 27.984375 28.957031 28.195312 28.957031 28.441406 L 28.957031 29.980469 C 28.957031 30.113281 29.003906 30.230469 29.101562 30.324219 C 29.195312 30.417969 29.308594 30.464844 29.441406 30.464844 C 29.578125 30.464844 29.691406 30.417969 29.785156 30.324219 C 29.882812 30.230469 29.929688 30.113281 29.929688 29.980469 L 29.929688 28.523438 L 31.386719 28.523438 C 31.519531 28.523438 31.636719 28.476562 31.730469 28.378906 C 31.824219 28.285156 31.871094 28.171875 31.871094 28.035156 C 31.871094 27.902344 31.824219 27.789062 31.730469 27.695312 C 31.636719 27.597656 31.519531 27.550781 31.386719 27.550781 Z M 31.386719 27.550781 " fill-opacity="1" fill-rule="nonzero"/><g fill="#ffffff" fill-opacity="1"><g transform="translate(0.0000005, 36.494446)"><g><path d="M 0.59375 -0.96875 C 0.6875 -0.96875 0.769531 -0.945312 0.84375 -0.90625 C 0.914062 -0.863281 0.972656 -0.800781 1.015625 -0.71875 C 1.054688 -0.644531 1.078125 -0.566406 1.078125 -0.484375 L 1.078125 -0.0625 C 1.078125 -0.0390625 1.070312 -0.0234375 1.0625 -0.015625 C 1.050781 -0.00390625 1.035156 0 1.015625 0 C 0.992188 0 0.972656 -0.00390625 0.953125 -0.015625 C 0.941406 -0.0234375 0.9375 -0.0390625 0.9375 -0.0625 L 0.9375 -0.171875 C 0.894531 -0.117188 0.84375 -0.0703125 0.78125 -0.03125 C 0.71875 0 0.648438 0.015625 0.578125 0.015625 C 0.492188 0.015625 0.414062 -0.00390625 0.34375 -0.046875 C 0.269531 -0.0976562 0.210938 -0.160156 0.171875 -0.234375 C 0.128906 -0.304688 0.109375 -0.390625 0.109375 -0.484375 C 0.109375 -0.566406 0.128906 -0.644531 0.171875 -0.71875 C 0.210938 -0.800781 0.269531 -0.863281 0.34375 -0.90625 C 0.414062 -0.945312 0.5 -0.96875 0.59375 -0.96875 Z M 0.59375 -0.109375 C 0.65625 -0.109375 0.710938 -0.125 0.765625 -0.15625 C 0.828125 -0.1875 0.875 -0.226562 0.90625 -0.28125 C 0.9375 -0.34375 0.953125 -0.410156 0.953125 -0.484375 C 0.953125 -0.546875 0.9375 -0.601562 0.90625 -0.65625 C 0.875 -0.71875 0.828125 -0.765625 0.765625 -0.796875 C 0.710938 -0.828125 0.65625 -0.84375 0.59375 -0.84375 C 0.53125 -0.84375 0.46875 -0.828125 0.40625 -0.796875 C 0.351562 -0.765625 0.3125 -0.71875 0.28125 -0.65625 C 0.25 -0.601562 0.234375 -0.546875 0.234375 -0.484375 C 0.234375 -0.410156 0.25 -0.34375 0.28125 -0.28125 C 0.3125 -0.226562 0.351562 -0.1875 0.40625 -0.15625 C 0.46875 -0.125 0.53125 -0.109375 0.59375 -0.109375 Z M 0.59375 -0.109375 "/></g></g></g></svg>