<svg xmlns="http://www.w3.org/2000/svg" xmlns:xlink="http://www.w3.org/1999/xlink" width="50" zoomAndPan="magnify" viewBox="0 0 37.5 37.499999" height="50" preserveAspectRatio="xMidYMid meet" version="1.0"><defs><g/><clipPath id="cf25ed0ece"><path d="M 6 24 L 35.699219 24 L 35.699219 34.046875 L 6 34.046875 Z M 6 24 " clip-rule="nonzero"/></clipPath><clipPath id="fee476c468"><path d="M 2.390625 19 L 8 19 L 8 33 L 2.390625 33 Z M 2.390625 19 " clip-rule="nonzero"/></clipPath></defs><path fill="#000000" d="M 28.898438 26.90625 C 28.785156 26.90625 28.671875 26.863281 28.589844 26.777344 C 28.421875 26.609375 28.425781 26.335938 28.597656 26.171875 C 31.214844 23.640625 29.851562 19.683594 29.117188 18.050781 C 28.5 18.296875 27.847656 18.421875 27.171875 18.421875 C 25.804688 18.421875 24.515625 17.902344 23.539062 16.953125 C 22.664062 16.105469 22.128906 15 22.003906 13.808594 L 16.46875 13.808594 C 16.402344 13.808594 16.335938 13.804688 16.269531 13.792969 C 14.988281 14.484375 12.765625 17.425781 12.121094 20.613281 C 12.074219 20.847656 11.84375 20.996094 11.613281 20.949219 C 11.378906 20.902344 11.226562 20.675781 11.273438 20.445312 C 11.957031 17.0625 14.355469 13.699219 16.039062 12.953125 C 16.136719 12.910156 16.242188 12.90625 16.339844 12.933594 C 16.382812 12.949219 16.425781 12.953125 16.46875 12.953125 L 22.410156 12.953125 C 22.644531 12.953125 22.835938 13.140625 22.839844 13.371094 C 22.894531 15.683594 24.839844 17.566406 27.171875 17.566406 C 27.863281 17.566406 28.519531 17.410156 29.128906 17.105469 C 29.234375 17.050781 29.351562 17.042969 29.460938 17.078125 C 29.570312 17.117188 29.664062 17.195312 29.714844 17.296875 C 30.289062 18.457031 30.976562 20.246094 31.007812 22.160156 C 31.035156 24.042969 30.425781 25.597656 29.199219 26.785156 C 29.117188 26.867188 29.007812 26.90625 28.898438 26.90625 Z M 28.898438 26.90625 " fill-opacity="1" fill-rule="nonzero"/><path fill="#000000" d="M 23.21875 29.628906 C 23.039062 29.628906 22.859375 29.601562 22.679688 29.546875 L 16.300781 27.605469 C 16.074219 27.539062 15.945312 27.296875 16.015625 27.070312 C 16.085938 26.847656 16.328125 26.71875 16.554688 26.789062 L 22.933594 28.730469 C 23.421875 28.878906 23.941406 28.621094 24.113281 28.140625 C 24.152344 28.039062 24.171875 27.929688 24.171875 27.820312 C 24.171875 27.785156 24.167969 27.75 24.164062 27.71875 C 24.136719 27.484375 24.304688 27.269531 24.542969 27.242188 C 24.78125 27.214844 24.992188 27.382812 25.023438 27.617188 C 25.03125 27.683594 25.035156 27.753906 25.035156 27.820312 C 25.035156 28.03125 24.996094 28.234375 24.925781 28.425781 C 24.664062 29.164062 23.96875 29.628906 23.21875 29.628906 Z M 23.21875 29.628906 " fill-opacity="1" fill-rule="nonzero"/><path fill="#000000" d="M 24.59375 28.097656 C 24.375 28.097656 24.1875 27.933594 24.164062 27.714844 C 24.128906 27.414062 23.953125 27.148438 23.6875 26.996094 L 14.171875 21.605469 C 13.183594 21.042969 12.015625 20.839844 10.894531 21.023438 L 6.957031 21.667969 C 6.722656 21.703125 6.5 21.546875 6.460938 21.3125 C 6.421875 21.082031 6.582031 20.859375 6.816406 20.820312 L 10.75 20.179688 C 12.070312 19.960938 13.4375 20.203125 14.601562 20.863281 L 24.117188 26.253906 C 24.617188 26.539062 24.957031 27.050781 25.023438 27.621094 C 25.050781 27.855469 24.878906 28.066406 24.640625 28.09375 C 24.625 28.097656 24.609375 28.097656 24.59375 28.097656 Z M 24.59375 28.097656 " fill-opacity="1" fill-rule="nonzero"/><g clip-path="url(#cf25ed0ece)"><path fill="#000000" d="M 21.773438 34.046875 C 21.050781 34.046875 20.324219 33.910156 19.640625 33.636719 L 11.628906 30.40625 C 10.679688 30.023438 9.65625 29.941406 8.65625 30.164062 L 6.988281 30.542969 C 6.753906 30.59375 6.523438 30.449219 6.472656 30.21875 C 6.417969 29.988281 6.5625 29.757812 6.796875 29.707031 L 8.464844 29.332031 C 9.636719 29.070312 10.84375 29.164062 11.953125 29.613281 L 19.964844 32.84375 C 21.222656 33.347656 22.640625 33.304688 23.859375 32.71875 L 34.121094 27.796875 C 34.398438 27.664062 34.601562 27.433594 34.703125 27.148438 C 34.800781 26.859375 34.78125 26.554688 34.644531 26.28125 C 34.449219 25.898438 34.058594 25.660156 33.628906 25.660156 C 33.527344 25.660156 33.421875 25.671875 33.324219 25.699219 L 24.710938 28.082031 C 24.480469 28.144531 24.242188 28.011719 24.179688 27.785156 C 24.113281 27.554688 24.25 27.320312 24.476562 27.257812 L 33.09375 24.878906 C 33.269531 24.828125 33.449219 24.804688 33.628906 24.804688 C 34.390625 24.804688 35.074219 25.222656 35.414062 25.898438 C 35.65625 26.378906 35.695312 26.921875 35.519531 27.425781 C 35.347656 27.929688 34.984375 28.335938 34.5 28.570312 L 24.238281 33.488281 C 23.460938 33.859375 22.617188 34.046875 21.773438 34.046875 Z M 21.773438 34.046875 " fill-opacity="1" fill-rule="nonzero"/></g><g clip-path="url(#fee476c468)"><path fill="#000000" d="M 6.902344 32.125 L 2.828125 32.125 C 2.589844 32.125 2.394531 31.929688 2.394531 31.695312 L 2.394531 19.867188 C 2.394531 19.632812 2.589844 19.441406 2.828125 19.441406 L 6.902344 19.441406 C 7.140625 19.441406 7.332031 19.632812 7.332031 19.867188 L 7.332031 31.695312 C 7.332031 31.933594 7.140625 32.125 6.902344 32.125 Z M 3.257812 31.265625 L 6.46875 31.265625 L 6.46875 20.296875 L 3.257812 20.296875 Z M 3.257812 31.265625 " fill-opacity="1" fill-rule="nonzero"/></g><path fill="#000000" d="M 22.410156 13.808594 L 16.46875 13.808594 C 15.746094 13.808594 15.160156 13.226562 15.160156 12.511719 L 15.160156 11.597656 C 15.160156 10.882812 15.746094 10.300781 16.46875 10.300781 L 23.15625 10.300781 C 23.3125 10.300781 23.457031 10.386719 23.535156 10.523438 C 23.609375 10.660156 23.601562 10.828125 23.519531 10.957031 C 23.074219 11.648438 22.839844 12.445312 22.839844 13.269531 C 22.839844 13.304688 22.839844 13.335938 22.839844 13.371094 C 22.84375 13.488281 22.800781 13.597656 22.71875 13.679688 C 22.636719 13.761719 22.523438 13.808594 22.410156 13.808594 Z M 16.46875 11.15625 C 16.222656 11.15625 16.023438 11.351562 16.023438 11.597656 L 16.023438 12.511719 C 16.023438 12.753906 16.222656 12.953125 16.46875 12.953125 L 21.984375 12.953125 C 22.023438 12.328125 22.175781 11.71875 22.433594 11.152344 L 16.46875 11.152344 Z M 16.46875 11.15625 " fill-opacity="1" fill-rule="nonzero"/><path fill="#000000" d="M 17.230469 11.15625 C 17.070312 11.15625 16.914062 11.0625 16.839844 10.90625 L 15.019531 7.023438 C 14.929688 6.835938 14.988281 6.613281 15.160156 6.492188 C 15.332031 6.375 15.5625 6.394531 15.714844 6.539062 C 16.027344 6.847656 17.023438 7.644531 17.820312 7.617188 C 18.082031 7.609375 18.304688 7.511719 18.496094 7.316406 C 18.746094 6.8125 20.417969 3.703125 22.894531 4.5 C 22.898438 4.5 22.898438 4.5 22.902344 4.503906 C 23.015625 4.542969 25.703125 5.472656 26.996094 6.859375 C 27.117188 6.992188 27.148438 7.183594 27.066406 7.34375 L 26.269531 8.910156 C 26.164062 9.121094 25.90625 9.207031 25.691406 9.101562 C 25.480469 8.996094 25.394531 8.738281 25.5 8.527344 L 26.15625 7.234375 C 24.953125 6.136719 22.730469 5.347656 22.625 5.3125 C 20.707031 4.703125 19.261719 7.714844 19.246094 7.742188 C 19.226562 7.78125 19.203125 7.816406 19.175781 7.847656 C 18.816406 8.246094 18.371094 8.457031 17.847656 8.472656 C 17.375 8.488281 16.902344 8.335938 16.488281 8.125 L 17.621094 10.546875 C 17.722656 10.761719 17.628906 11.015625 17.414062 11.117188 C 17.351562 11.140625 17.292969 11.15625 17.230469 11.15625 Z M 17.230469 11.15625 " fill-opacity="1" fill-rule="nonzero"/><path fill="#000000" d="M 21.042969 25.371094 C 20.996094 25.371094 20.945312 25.367188 20.898438 25.367188 C 20.660156 25.351562 20.480469 25.148438 20.492188 24.914062 C 20.507812 24.675781 20.714844 24.496094 20.949219 24.511719 C 20.980469 24.511719 21.011719 24.515625 21.042969 24.515625 C 21.871094 24.515625 22.542969 23.847656 22.542969 23.027344 C 22.542969 22.207031 21.871094 21.542969 21.042969 21.542969 C 19.742188 21.542969 18.683594 20.492188 18.683594 19.199219 C 18.683594 17.910156 19.742188 16.859375 21.042969 16.859375 C 22.347656 16.859375 23.40625 17.910156 23.40625 19.199219 C 23.40625 19.4375 23.210938 19.628906 22.976562 19.628906 C 22.738281 19.628906 22.542969 19.4375 22.542969 19.199219 C 22.542969 18.378906 21.871094 17.714844 21.042969 17.714844 C 20.21875 17.714844 19.546875 18.378906 19.546875 19.199219 C 19.546875 20.019531 20.21875 20.6875 21.042969 20.6875 C 22.347656 20.6875 23.40625 21.738281 23.40625 23.027344 C 23.40625 24.320312 22.347656 25.371094 21.042969 25.371094 Z M 19.445312 24.527344 C 19.308594 24.527344 19.171875 24.460938 19.089844 24.339844 C 18.824219 23.953125 18.683594 23.5 18.683594 23.027344 C 18.683594 22.792969 18.875 22.601562 19.113281 22.601562 C 19.351562 22.601562 19.546875 22.792969 19.546875 23.027344 C 19.546875 23.328125 19.632812 23.613281 19.800781 23.859375 C 19.933594 24.054688 19.882812 24.320312 19.6875 24.453125 C 19.613281 24.503906 19.53125 24.527344 19.445312 24.527344 Z M 19.445312 24.527344 " fill-opacity="1" fill-rule="nonzero"/><path fill="#000000" d="M 21.042969 17.714844 C 20.804688 17.714844 20.613281 17.523438 20.613281 17.285156 L 20.613281 16.316406 C 20.613281 16.082031 20.804688 15.890625 21.042969 15.890625 C 21.28125 15.890625 21.476562 16.082031 21.476562 16.316406 L 21.476562 17.285156 C 21.476562 17.523438 21.28125 17.714844 21.042969 17.714844 Z M 21.042969 17.714844 " fill-opacity="1" fill-rule="nonzero"/><path fill="#000000" d="M 27.171875 18.421875 C 24.308594 18.421875 21.976562 16.113281 21.976562 13.269531 C 21.976562 10.425781 24.308594 8.117188 27.171875 8.117188 C 30.039062 8.117188 32.371094 10.425781 32.371094 13.269531 C 32.371094 16.113281 30.039062 18.421875 27.171875 18.421875 Z M 27.171875 8.972656 C 24.785156 8.972656 22.839844 10.898438 22.839844 13.269531 C 22.839844 15.640625 24.785156 17.566406 27.171875 17.566406 C 29.5625 17.566406 31.507812 15.640625 31.507812 13.269531 C 31.507812 10.898438 29.5625 8.972656 27.171875 8.972656 Z M 27.171875 8.972656 " fill-opacity="1" fill-rule="nonzero"/><path fill="#000000" d="M 25.535156 15.320312 C 25.425781 15.320312 25.316406 15.28125 25.230469 15.195312 C 25.0625 15.027344 25.0625 14.757812 25.230469 14.589844 L 28.503906 11.34375 C 28.671875 11.175781 28.949219 11.175781 29.117188 11.34375 C 29.285156 11.511719 29.285156 11.78125 29.117188 11.949219 L 25.839844 15.195312 C 25.757812 15.28125 25.648438 15.320312 25.535156 15.320312 Z M 25.535156 15.320312 " fill-opacity="1" fill-rule="nonzero"/><path fill="#000000" d="M 25.558594 13.046875 C 25.191406 13.046875 24.839844 12.902344 24.578125 12.640625 C 24.316406 12.382812 24.171875 12.039062 24.171875 11.667969 C 24.171875 11.300781 24.316406 10.957031 24.578125 10.695312 C 24.839844 10.4375 25.1875 10.292969 25.558594 10.292969 C 25.929688 10.292969 26.277344 10.4375 26.539062 10.695312 C 26.804688 10.957031 26.945312 11.300781 26.945312 11.667969 C 26.945312 12.039062 26.804688 12.382812 26.539062 12.640625 C 26.277344 12.902344 25.929688 13.046875 25.558594 13.046875 Z M 25.558594 11.148438 C 25.417969 11.148438 25.289062 11.203125 25.191406 11.300781 C 25.089844 11.402344 25.035156 11.53125 25.035156 11.667969 C 25.035156 11.808594 25.089844 11.9375 25.191406 12.035156 C 25.289062 12.136719 25.421875 12.1875 25.558594 12.1875 C 25.699219 12.1875 25.832031 12.136719 25.929688 12.035156 C 26.027344 11.9375 26.082031 11.808594 26.082031 11.667969 C 26.082031 11.53125 26.027344 11.402344 25.929688 11.300781 C 25.832031 11.203125 25.699219 11.148438 25.558594 11.148438 Z M 25.558594 11.148438 " fill-opacity="1" fill-rule="nonzero"/><path fill="#000000" d="M 28.785156 16.246094 C 28.414062 16.246094 28.066406 16.101562 27.804688 15.839844 C 27.542969 15.582031 27.398438 15.238281 27.398438 14.871094 C 27.398438 14.5 27.542969 14.15625 27.804688 13.898438 C 28.066406 13.636719 28.414062 13.492188 28.785156 13.492188 C 29.15625 13.492188 29.503906 13.636719 29.765625 13.898438 C 30.308594 14.433594 30.308594 15.304688 29.765625 15.839844 C 29.503906 16.101562 29.15625 16.246094 28.785156 16.246094 Z M 28.785156 14.351562 C 28.644531 14.351562 28.515625 14.402344 28.414062 14.503906 C 28.316406 14.601562 28.261719 14.730469 28.261719 14.871094 C 28.261719 15.007812 28.316406 15.136719 28.414062 15.234375 C 28.515625 15.335938 28.648438 15.386719 28.785156 15.386719 C 28.925781 15.386719 29.058594 15.335938 29.15625 15.234375 C 29.359375 15.035156 29.359375 14.703125 29.15625 14.5 C 29.058594 14.402344 28.925781 14.351562 28.785156 14.351562 Z M 28.785156 14.351562 " fill-opacity="1" fill-rule="nonzero"/><g fill="#ffffff" fill-opacity="1"><g transform="translate(0.0000005, 36.494446)"><g><path d="M 0.59375 -0.96875 C 0.6875 -0.96875 0.769531 -0.945312 0.84375 -0.90625 C 0.914062 -0.863281 0.972656 -0.800781 1.015625 -0.71875 C 1.054688 -0.644531 1.078125 -0.566406 1.078125 -0.484375 L 1.078125 -0.0625 C 1.078125 -0.0390625 1.070312 -0.0234375 1.0625 -0.015625 C 1.050781 -0.00390625 1.035156 0 1.015625 0 C 0.992188 0 0.972656 -0.00390625 0.953125 -0.015625 C 0.941406 -0.0234375 0.9375 -0.0390625 0.9375 -0.0625 L 0.9375 -0.171875 C 0.894531 -0.117188 0.84375 -0.0703125 0.78125 -0.03125 C 0.71875 0 0.648438 0.015625 0.578125 0.015625 C 0.492188 0.015625 0.414062 -0.00390625 0.34375 -0.046875 C 0.269531 -0.0976562 0.210938 -0.160156 0.171875 -0.234375 C 0.128906 -0.304688 0.109375 -0.390625 0.109375 -0.484375 C 0.109375 -0.566406 0.128906 -0.644531 0.171875 -0.71875 C 0.210938 -0.800781 0.269531 -0.863281 0.34375 -0.90625 C 0.414062 -0.945312 0.5 -0.96875 0.59375 -0.96875 Z M 0.59375 -0.109375 C 0.65625 -0.109375 0.710938 -0.125 0.765625 -0.15625 C 0.828125 -0.1875 0.875 -0.226562 0.90625 -0.28125 C 0.9375 -0.34375 0.953125 -0.410156 0.953125 -0.484375 C 0.953125 -0.546875 0.9375 -0.601562 0.90625 -0.65625 C 0.875 -0.71875 0.828125 -0.765625 0.765625 -0.796875 C 0.710938 -0.828125 0.65625 -0.84375 0.59375 -0.84375 C 0.53125 -0.84375 0.46875 -0.828125 0.40625 -0.796875 C 0.351562 -0.765625 0.3125 -0.71875 0.28125 -0.65625 C 0.25 -0.601562 0.234375 -0.546875 0.234375 -0.484375 C 0.234375 -0.410156 0.25 -0.34375 0.28125 -0.28125 C 0.3125 -0.226562 0.351562 -0.1875 0.40625 -0.15625 C 0.46875 -0.125 0.53125 -0.109375 0.59375 -0.109375 Z M 0.59375 -0.109375 "/></g></g></g></svg>