<svg xmlns="http://www.w3.org/2000/svg" xmlns:xlink="http://www.w3.org/1999/xlink" width="50" zoomAndPan="magnify" viewBox="0 0 37.5 37.499999" height="50" preserveAspectRatio="xMidYMid meet" version="1.0"><defs><g/><clipPath id="88d1011d94"><path d="M 13 2.394531 L 24 2.394531 L 24 13 L 13 13 Z M 13 2.394531 " clip-rule="nonzero"/></clipPath><clipPath id="fc3611ee30"><path d="M 23 6 L 33.304688 6 L 33.304688 16 L 23 16 Z M 23 6 " clip-rule="nonzero"/></clipPath><clipPath id="082e398b5b"><path d="M 3.699219 6 L 14 6 L 14 16 L 3.699219 16 Z M 3.699219 6 " clip-rule="nonzero"/></clipPath><clipPath id="e8f93d81cd"><path d="M 8 13 L 29 13 L 29 34.960938 L 8 34.960938 Z M 8 13 " clip-rule="nonzero"/></clipPath></defs><g clip-path="url(#88d1011d94)"><path fill="#000000" d="M 13.710938 6.71875 L 16.125 8.492188 L 15.203125 11.363281 C 15.128906 11.601562 15.210938 11.863281 15.414062 12.011719 C 15.613281 12.160156 15.886719 12.160156 16.085938 12.011719 L 18.503906 10.238281 L 20.917969 12.011719 C 21.019531 12.085938 21.136719 12.125 21.257812 12.125 C 21.375 12.125 21.492188 12.085938 21.59375 12.011719 C 21.796875 11.863281 21.878906 11.601562 21.800781 11.363281 L 20.878906 8.492188 L 23.296875 6.71875 C 23.496094 6.570312 23.582031 6.308594 23.503906 6.070312 C 23.425781 5.828125 23.207031 5.667969 22.957031 5.667969 L 19.972656 5.667969 L 19.050781 2.796875 C 18.972656 2.554688 18.75 2.394531 18.503906 2.394531 C 18.253906 2.394531 18.035156 2.554688 17.957031 2.796875 L 17.035156 5.667969 L 14.046875 5.667969 C 13.800781 5.667969 13.578125 5.828125 13.503906 6.070312 C 13.425781 6.308594 13.507812 6.570312 13.710938 6.71875 Z M 17.453125 6.828125 C 17.699219 6.828125 17.921875 6.667969 17.996094 6.425781 L 18.503906 4.851562 L 19.007812 6.425781 C 19.085938 6.667969 19.304688 6.828125 19.554688 6.828125 L 21.191406 6.828125 L 19.867188 7.800781 C 19.667969 7.949219 19.582031 8.210938 19.660156 8.449219 L 20.164062 10.023438 L 18.839844 9.050781 C 18.738281 8.976562 18.621094 8.941406 18.503906 8.941406 C 18.382812 8.941406 18.265625 8.976562 18.164062 9.050781 L 16.839844 10.023438 L 17.347656 8.449219 C 17.425781 8.210938 17.339844 7.949219 17.140625 7.800781 L 15.816406 6.828125 Z M 17.453125 6.828125 " fill-opacity="1" fill-rule="nonzero"/></g><g clip-path="url(#fc3611ee30)"><path fill="#000000" d="M 23.21875 9.753906 C 23.144531 9.992188 23.226562 10.253906 23.429688 10.402344 L 25.84375 12.175781 L 24.921875 15.050781 C 24.84375 15.289062 24.929688 15.550781 25.128906 15.699219 C 25.332031 15.84375 25.601562 15.84375 25.804688 15.699219 L 28.21875 13.921875 L 30.636719 15.699219 C 30.738281 15.773438 30.855469 15.808594 30.972656 15.808594 C 31.09375 15.808594 31.210938 15.773438 31.3125 15.699219 C 31.511719 15.550781 31.597656 15.289062 31.519531 15.050781 L 30.597656 12.175781 L 33.011719 10.402344 C 33.214844 10.253906 33.296875 9.992188 33.222656 9.753906 C 33.144531 9.515625 32.925781 9.351562 32.675781 9.351562 L 29.6875 9.351562 L 28.765625 6.480469 C 28.691406 6.242188 28.46875 6.078125 28.21875 6.078125 C 27.972656 6.078125 27.75 6.242188 27.675781 6.480469 L 26.75 9.351562 L 23.765625 9.351562 C 23.515625 9.351562 23.296875 9.515625 23.21875 9.753906 Z M 27.167969 10.511719 C 27.417969 10.511719 27.636719 10.351562 27.714844 10.113281 L 28.21875 8.539062 L 28.726562 10.113281 C 28.804688 10.351562 29.023438 10.511719 29.273438 10.511719 L 30.910156 10.511719 L 29.585938 11.484375 C 29.382812 11.632812 29.300781 11.894531 29.375 12.136719 L 29.882812 13.707031 L 28.558594 12.734375 C 28.457031 12.664062 28.339844 12.625 28.21875 12.625 C 28.101562 12.625 27.984375 12.664062 27.882812 12.734375 L 26.558594 13.707031 L 27.066406 12.136719 C 27.140625 11.894531 27.058594 11.632812 26.855469 11.484375 L 25.53125 10.511719 Z M 27.167969 10.511719 " fill-opacity="1" fill-rule="nonzero"/></g><g clip-path="url(#082e398b5b)"><path fill="#000000" d="M 11.203125 15.699219 C 11.300781 15.773438 11.421875 15.808594 11.539062 15.808594 C 11.65625 15.808594 11.777344 15.773438 11.875 15.699219 C 12.078125 15.550781 12.160156 15.289062 12.085938 15.050781 L 11.164062 12.175781 L 13.578125 10.402344 C 13.777344 10.253906 13.863281 9.992188 13.785156 9.753906 C 13.710938 9.515625 13.488281 9.351562 13.242188 9.351562 L 10.253906 9.351562 L 9.332031 6.480469 C 9.253906 6.242188 9.035156 6.078125 8.785156 6.078125 C 8.535156 6.078125 8.316406 6.242188 8.238281 6.480469 L 7.316406 9.351562 L 4.332031 9.351562 C 4.082031 9.351562 3.863281 9.515625 3.785156 9.753906 C 3.707031 9.992188 3.792969 10.253906 3.992188 10.402344 L 6.410156 12.175781 L 5.488281 15.050781 C 5.410156 15.289062 5.492188 15.550781 5.695312 15.699219 C 5.894531 15.847656 6.167969 15.847656 6.371094 15.699219 L 8.785156 13.921875 Z M 7.125 13.707031 L 7.628906 12.136719 C 7.707031 11.894531 7.621094 11.632812 7.421875 11.484375 L 6.097656 10.511719 L 7.734375 10.511719 C 7.984375 10.511719 8.203125 10.351562 8.28125 10.113281 L 8.785156 8.539062 L 9.292969 10.113281 C 9.367188 10.351562 9.589844 10.511719 9.835938 10.511719 L 11.472656 10.511719 L 10.148438 11.484375 C 9.949219 11.632812 9.863281 11.894531 9.941406 12.136719 L 10.445312 13.707031 L 9.125 12.734375 C 9.023438 12.664062 8.902344 12.625 8.785156 12.625 C 8.667969 12.625 8.550781 12.664062 8.449219 12.734375 Z M 7.125 13.707031 " fill-opacity="1" fill-rule="nonzero"/></g><g clip-path="url(#e8f93d81cd)"><path fill="#000000" d="M 27.011719 26.902344 C 26.871094 26.699219 26.726562 26.5 26.570312 26.308594 L 25.496094 25.148438 C 25.316406 24.980469 25.132812 24.820312 24.9375 24.664062 C 24.332031 24.179688 23.675781 23.761719 22.984375 23.425781 C 23.402344 22.9375 23.742188 22.390625 23.992188 21.792969 C 24.304688 21.042969 24.464844 20.246094 24.464844 19.425781 C 24.464844 18.601562 24.304688 17.804688 23.992188 17.054688 C 23.6875 16.328125 23.253906 15.679688 22.703125 15.121094 C 22.148438 14.5625 21.507812 14.121094 20.789062 13.816406 C 20.046875 13.5 19.257812 13.335938 18.445312 13.335938 C 17.632812 13.335938 16.84375 13.5 16.101562 13.816406 C 15.386719 14.121094 14.742188 14.5625 14.191406 15.121094 C 13.636719 15.679688 13.203125 16.328125 12.898438 17.054688 C 12.585938 17.804688 12.425781 18.601562 12.425781 19.425781 C 12.425781 20.246094 12.585938 21.042969 12.898438 21.792969 C 13.15625 22.40625 13.507812 22.96875 13.945312 23.464844 C 13.277344 23.792969 12.648438 24.195312 12.066406 24.667969 C 11.269531 25.308594 10.570312 26.058594 9.992188 26.90625 C 8.789062 28.660156 8.15625 30.71875 8.15625 32.859375 L 8.15625 32.875 C 8.15625 34.023438 9.078125 34.960938 10.21875 34.960938 L 26.789062 34.960938 C 27.925781 34.960938 28.851562 34.023438 28.851562 32.875 L 28.851562 32.859375 C 28.851562 32.285156 28.804688 31.714844 28.714844 31.15625 L 28.472656 30.046875 C 28.351562 29.597656 28.199219 29.160156 28.015625 28.730469 L 27.4375 27.578125 C 27.304688 27.347656 27.164062 27.125 27.011719 26.902344 Z M 13.691406 19.425781 C 13.691406 18.140625 14.183594 16.929688 15.082031 16.023438 C 15.980469 15.113281 17.175781 14.613281 18.445312 14.613281 C 19.714844 14.613281 20.910156 15.113281 21.808594 16.023438 C 22.707031 16.929688 23.203125 18.140625 23.203125 19.425781 C 23.203125 20.707031 22.707031 21.917969 21.808594 22.824219 C 20.910156 23.734375 19.714844 24.234375 18.445312 24.234375 C 17.175781 24.234375 15.980469 23.734375 15.082031 22.824219 C 14.183594 21.917969 13.691406 20.707031 13.691406 19.425781 Z M 27.589844 32.875 C 27.589844 33.320312 27.230469 33.683594 26.789062 33.683594 L 10.21875 33.683594 C 9.777344 33.683594 9.417969 33.320312 9.417969 32.875 L 9.417969 32.859375 C 9.417969 30.980469 9.976562 29.171875 11.03125 27.632812 C 11.539062 26.890625 12.152344 26.230469 12.851562 25.664062 C 13.5 25.144531 14.210938 24.71875 14.96875 24.394531 C 15.324219 24.648438 15.699219 24.859375 16.101562 25.03125 C 16.84375 25.347656 17.632812 25.511719 18.445312 25.511719 C 19.257812 25.511719 20.046875 25.347656 20.789062 25.03125 C 21.207031 24.851562 21.601562 24.628906 21.964844 24.363281 C 22.75 24.691406 23.484375 25.128906 24.152344 25.664062 C 24.851562 26.226562 25.464844 26.890625 25.976562 27.632812 C 27.03125 29.171875 27.589844 30.980469 27.589844 32.859375 Z M 27.589844 32.875 " fill-opacity="1" fill-rule="nonzero"/></g><path fill="#231f20" d="M 21.332031 27.042969 C 20.953125 26.660156 20.449219 26.449219 19.914062 26.449219 C 19.382812 26.449219 18.878906 26.65625 18.503906 27.035156 C 18.125 26.65625 17.625 26.449219 17.089844 26.449219 C 16.554688 26.449219 16.050781 26.660156 15.671875 27.042969 C 15.296875 27.425781 15.085938 27.933594 15.085938 28.476562 C 15.085938 29.015625 15.296875 29.527344 15.671875 29.910156 L 18.105469 32.367188 C 18.210938 32.472656 18.355469 32.535156 18.503906 32.535156 C 18.652344 32.535156 18.796875 32.472656 18.898438 32.367188 L 21.332031 29.910156 C 21.710938 29.527344 21.917969 29.015625 21.917969 28.476562 C 21.917969 27.933594 21.710938 27.425781 21.332031 27.042969 Z M 20.800781 28.476562 C 20.800781 28.714844 20.707031 28.9375 20.542969 29.105469 L 18.503906 31.167969 L 16.464844 29.105469 C 16.296875 28.9375 16.207031 28.714844 16.207031 28.476562 C 16.207031 28.234375 16.296875 28.011719 16.464844 27.84375 C 16.632812 27.671875 16.855469 27.582031 17.089844 27.582031 C 17.328125 27.582031 17.550781 27.671875 17.71875 27.84375 L 18.109375 28.238281 C 18.210938 28.34375 18.355469 28.402344 18.503906 28.402344 C 18.652344 28.402344 18.796875 28.339844 18.898438 28.238281 L 19.289062 27.84375 C 19.457031 27.671875 19.679688 27.582031 19.914062 27.582031 C 20.152344 27.582031 20.375 27.671875 20.542969 27.84375 C 20.707031 28.011719 20.800781 28.234375 20.800781 28.476562 Z M 20.800781 28.476562 " fill-opacity="1" fill-rule="nonzero"/><g fill="#ffffff" fill-opacity="1"><g transform="translate(1.332237, 36.494446)"><g><path d="M 0.59375 -0.96875 C 0.6875 -0.96875 0.769531 -0.945312 0.84375 -0.90625 C 0.914062 -0.863281 0.972656 -0.800781 1.015625 -0.71875 C 1.054688 -0.644531 1.078125 -0.566406 1.078125 -0.484375 L 1.078125 -0.0625 C 1.078125 -0.0390625 1.070312 -0.0234375 1.0625 -0.015625 C 1.050781 -0.00390625 1.035156 0 1.015625 0 C 0.992188 0 0.972656 -0.00390625 0.953125 -0.015625 C 0.941406 -0.0234375 0.9375 -0.0390625 0.9375 -0.0625 L 0.9375 -0.171875 C 0.894531 -0.117188 0.84375 -0.0703125 0.78125 -0.03125 C 0.71875 0 0.648438 0.015625 0.578125 0.015625 C 0.492188 0.015625 0.414062 -0.00390625 0.34375 -0.046875 C 0.269531 -0.0976562 0.210938 -0.160156 0.171875 -0.234375 C 0.128906 -0.304688 0.109375 -0.390625 0.109375 -0.484375 C 0.109375 -0.566406 0.128906 -0.644531 0.171875 -0.71875 C 0.210938 -0.800781 0.269531 -0.863281 0.34375 -0.90625 C 0.414062 -0.945312 0.5 -0.96875 0.59375 -0.96875 Z M 0.59375 -0.109375 C 0.65625 -0.109375 0.710938 -0.125 0.765625 -0.15625 C 0.828125 -0.1875 0.875 -0.226562 0.90625 -0.28125 C 0.9375 -0.34375 0.953125 -0.410156 0.953125 -0.484375 C 0.953125 -0.546875 0.9375 -0.601562 0.90625 -0.65625 C 0.875 -0.71875 0.828125 -0.765625 0.765625 -0.796875 C 0.710938 -0.828125 0.65625 -0.84375 0.59375 -0.84375 C 0.53125 -0.84375 0.46875 -0.828125 0.40625 -0.796875 C 0.351562 -0.765625 0.3125 -0.71875 0.28125 -0.65625 C 0.25 -0.601562 0.234375 -0.546875 0.234375 -0.484375 C 0.234375 -0.410156 0.25 -0.34375 0.28125 -0.28125 C 0.3125 -0.226562 0.351562 -0.1875 0.40625 -0.15625 C 0.46875 -0.125 0.53125 -0.109375 0.59375 -0.109375 Z M 0.59375 -0.109375 "/></g></g></g></svg>