<svg xmlns="http://www.w3.org/2000/svg" xmlns:xlink="http://www.w3.org/1999/xlink" width="50" zoomAndPan="magnify" viewBox="0 0 37.5 37.499999" height="50" preserveAspectRatio="xMidYMid meet" version="1.0"><defs><g/><clipPath id="b1d58e2a05"><path d="M 10 3.941406 L 35 3.941406 L 35 20 L 10 20 Z M 10 3.941406 " clip-rule="nonzero"/></clipPath><clipPath id="d5402658c5"><path d="M 1.851562 19 L 35 19 L 35 32.804688 L 1.851562 32.804688 Z M 1.851562 19 " clip-rule="nonzero"/></clipPath></defs><g clip-path="url(#b1d58e2a05)"><path fill="#000000" d="M 10.789062 13.386719 L 10.789062 15.527344 C 10.789062 15.828125 11.039062 16.078125 11.347656 16.078125 L 15.855469 16.078125 C 15.828125 16.328125 15.8125 16.585938 15.8125 16.839844 L 15.8125 19.054688 C 15.8125 19.359375 16.0625 19.605469 16.371094 19.605469 L 28.652344 19.605469 C 28.960938 19.605469 29.210938 19.359375 29.210938 19.054688 L 29.210938 16.839844 C 29.210938 16.585938 29.195312 16.328125 29.167969 16.078125 L 33.675781 16.078125 C 33.984375 16.078125 34.234375 15.828125 34.234375 15.527344 L 34.234375 13.386719 C 34.234375 11.304688 32.867188 9.542969 30.976562 8.917969 C 31.507812 8.394531 31.828125 7.667969 31.828125 6.867188 C 31.828125 5.253906 30.503906 3.941406 28.875 3.941406 C 27.285156 3.941406 25.988281 5.191406 25.925781 6.746094 C 25.535156 5.136719 24.066406 3.941406 22.324219 3.941406 C 20.671875 3.941406 19.265625 5.011719 18.785156 6.5 C 18.605469 5.058594 17.363281 3.941406 15.863281 3.941406 C 14.234375 3.941406 12.910156 5.253906 12.910156 6.867188 C 12.910156 7.703125 13.265625 8.464844 13.84375 8.996094 C 12.058594 9.671875 10.789062 11.390625 10.789062 13.386719 Z M 33.117188 13.386719 L 33.117188 14.972656 L 28.9375 14.972656 C 28.445312 13.296875 27.300781 11.894531 25.792969 11.050781 C 26.476562 10.253906 27.480469 9.785156 28.554688 9.785156 L 29.492188 9.785156 C 31.492188 9.792969 33.117188 11.402344 33.117188 13.386719 Z M 28.875 5.046875 C 29.886719 5.046875 30.710938 5.863281 30.710938 6.867188 C 30.710938 7.867188 29.886719 8.683594 28.875 8.683594 C 27.863281 8.683594 27.039062 7.867188 27.039062 6.867188 C 27.039062 5.863281 27.863281 5.046875 28.875 5.046875 Z M 26.035156 7.652344 C 26.183594 8.171875 26.46875 8.636719 26.859375 8.996094 C 26.027344 9.3125 25.296875 9.855469 24.753906 10.578125 C 24.703125 10.558594 24.65625 10.546875 24.605469 10.53125 C 25.464844 9.859375 26.027344 8.824219 26.035156 7.652344 Z M 22.324219 5.046875 C 23.753906 5.046875 24.925781 6.203125 24.925781 7.625 C 24.925781 9.050781 23.761719 10.207031 22.324219 10.207031 C 20.886719 10.207031 19.722656 9.042969 19.722656 7.625 C 19.722656 6.207031 20.886719 5.046875 22.324219 5.046875 Z M 22.511719 11.304688 C 25.589844 11.304688 28.09375 13.789062 28.09375 16.839844 L 28.09375 18.5 L 16.929688 18.5 L 16.929688 16.839844 C 16.929688 13.789062 19.433594 11.304688 22.511719 11.304688 Z M 18.617188 7.894531 C 18.660156 8.46875 18.835938 9.007812 19.113281 9.480469 C 18.757812 9.238281 18.367188 9.050781 17.957031 8.917969 C 18.242188 8.628906 18.472656 8.285156 18.617188 7.894531 Z M 15.855469 5.046875 C 16.867188 5.046875 17.691406 5.863281 17.691406 6.867188 C 17.691406 7.867188 16.867188 8.683594 15.855469 8.683594 C 14.84375 8.683594 14.019531 7.867188 14.019531 6.867188 C 14.019531 5.863281 14.84375 5.046875 15.855469 5.046875 Z M 15.535156 9.792969 L 16.46875 9.792969 C 17.542969 9.792969 18.542969 10.253906 19.234375 11.058594 C 17.726562 11.902344 16.582031 13.304688 16.085938 14.980469 L 11.90625 14.980469 L 11.90625 13.394531 C 11.90625 11.402344 13.53125 9.792969 15.535156 9.792969 Z M 15.535156 9.792969 " fill-opacity="1" fill-rule="nonzero"/></g><g clip-path="url(#d5402658c5)"><path fill="#000000" d="M 7.046875 19.988281 L 2.414062 19.988281 C 2.109375 19.988281 1.855469 20.234375 1.855469 20.539062 L 1.855469 30.777344 C 1.855469 31.082031 2.109375 31.332031 2.414062 31.332031 L 7.046875 31.332031 C 7.355469 31.332031 7.605469 31.082031 7.605469 30.777344 L 7.605469 29.898438 L 9.839844 29.898438 L 16.460938 31.980469 C 17.960938 32.535156 19.226562 32.804688 20.480469 32.804688 C 21.746094 32.804688 23.007812 32.527344 24.515625 31.972656 C 24.570312 31.953125 24.625 31.925781 24.675781 31.882812 L 34.375 24.039062 C 34.402344 24.011719 34.429688 23.984375 34.457031 23.957031 C 35.148438 23.105469 35.113281 21.804688 34.375 20.996094 C 33.640625 20.1875 32.464844 20.105469 31.640625 20.808594 L 26.796875 24.691406 C 26.796875 24.640625 26.796875 24.59375 26.796875 24.546875 C 26.777344 23.390625 25.863281 22.441406 24.753906 22.441406 L 19.371094 22.441406 C 19.066406 22.441406 18.773438 22.261719 18.589844 21.964844 C 18.546875 21.902344 18.5 21.847656 18.4375 21.800781 C 16.15625 20.160156 13.273438 19.847656 10.738281 20.96875 L 9.804688 21.382812 L 7.605469 21.382812 L 7.605469 20.539062 C 7.605469 20.234375 7.363281 19.988281 7.046875 19.988281 Z M 4.648438 29.394531 C 4.339844 29.394531 4.089844 29.144531 4.089844 28.839844 C 4.089844 28.535156 4.339844 28.289062 4.648438 28.289062 C 4.957031 28.289062 5.207031 28.535156 5.207031 28.839844 C 5.207031 29.144531 4.957031 29.394531 4.648438 29.394531 Z M 6.492188 21.945312 L 6.492188 30.222656 L 5.578125 30.222656 C 6.023438 29.925781 6.324219 29.421875 6.324219 28.839844 C 6.324219 27.929688 5.570312 27.179688 4.648438 27.179688 C 3.726562 27.179688 2.972656 27.929688 2.972656 28.839844 C 2.972656 29.414062 3.273438 29.925781 3.71875 30.222656 L 2.972656 30.222656 L 2.972656 21.09375 L 6.492188 21.09375 Z M 9.929688 22.5 C 10.007812 22.5 10.085938 22.484375 10.152344 22.449219 L 11.199219 21.984375 C 13.335938 21.046875 15.757812 21.292969 17.703125 22.644531 C 18.09375 23.21875 18.710938 23.550781 19.378906 23.550781 L 24.757812 23.550781 C 25.261719 23.550781 25.679688 24.007812 25.6875 24.558594 C 25.695312 24.871094 25.582031 25.160156 25.378906 25.363281 C 25.28125 25.457031 25.164062 25.535156 25.046875 25.578125 C 24.882812 25.605469 24.722656 25.617188 24.5625 25.617188 L 18.578125 25.617188 C 18.269531 25.617188 18.019531 25.867188 18.019531 26.171875 C 18.019531 26.476562 18.269531 26.722656 18.578125 26.722656 L 24.816406 26.722656 C 24.984375 26.722656 25.148438 26.703125 25.308594 26.664062 C 26.007812 26.539062 26.664062 26.234375 27.242188 25.777344 L 32.367188 21.667969 C 32.371094 21.660156 32.371094 21.660156 32.378906 21.652344 C 32.742188 21.34375 33.238281 21.382812 33.566406 21.738281 C 33.929688 22.132812 33.957031 22.789062 33.636719 23.222656 L 24.0625 30.972656 C 21.355469 31.953125 19.589844 31.941406 16.859375 30.9375 C 16.851562 30.9375 16.847656 30.929688 16.832031 30.929688 L 10.117188 28.8125 C 10.0625 28.800781 10.007812 28.785156 9.953125 28.785156 L 7.605469 28.785156 L 7.605469 22.492188 L 9.929688 22.492188 Z M 9.929688 22.5 " fill-opacity="1" fill-rule="nonzero"/></g><g fill="#ffffff" fill-opacity="1"><g transform="translate(0.0000005, 36.494446)"><g><path d="M 0.59375 -0.96875 C 0.6875 -0.96875 0.769531 -0.945312 0.84375 -0.90625 C 0.914062 -0.863281 0.972656 -0.800781 1.015625 -0.71875 C 1.054688 -0.644531 1.078125 -0.566406 1.078125 -0.484375 L 1.078125 -0.0625 C 1.078125 -0.0390625 1.070312 -0.0234375 1.0625 -0.015625 C 1.050781 -0.00390625 1.035156 0 1.015625 0 C 0.992188 0 0.972656 -0.00390625 0.953125 -0.015625 C 0.941406 -0.0234375 0.9375 -0.0390625 0.9375 -0.0625 L 0.9375 -0.171875 C 0.894531 -0.117188 0.84375 -0.0703125 0.78125 -0.03125 C 0.71875 0 0.648438 0.015625 0.578125 0.015625 C 0.492188 0.015625 0.414062 -0.00390625 0.34375 -0.046875 C 0.269531 -0.0976562 0.210938 -0.160156 0.171875 -0.234375 C 0.128906 -0.304688 0.109375 -0.390625 0.109375 -0.484375 C 0.109375 -0.566406 0.128906 -0.644531 0.171875 -0.71875 C 0.210938 -0.800781 0.269531 -0.863281 0.34375 -0.90625 C 0.414062 -0.945312 0.5 -0.96875 0.59375 -0.96875 Z M 0.59375 -0.109375 C 0.65625 -0.109375 0.710938 -0.125 0.765625 -0.15625 C 0.828125 -0.1875 0.875 -0.226562 0.90625 -0.28125 C 0.9375 -0.34375 0.953125 -0.410156 0.953125 -0.484375 C 0.953125 -0.546875 0.9375 -0.601562 0.90625 -0.65625 C 0.875 -0.71875 0.828125 -0.765625 0.765625 -0.796875 C 0.710938 -0.828125 0.65625 -0.84375 0.59375 -0.84375 C 0.53125 -0.84375 0.46875 -0.828125 0.40625 -0.796875 C 0.351562 -0.765625 0.3125 -0.71875 0.28125 -0.65625 C 0.25 -0.601562 0.234375 -0.546875 0.234375 -0.484375 C 0.234375 -0.410156 0.25 -0.34375 0.28125 -0.28125 C 0.3125 -0.226562 0.351562 -0.1875 0.40625 -0.15625 C 0.46875 -0.125 0.53125 -0.109375 0.59375 -0.109375 Z M 0.59375 -0.109375 "/></g></g></g></svg>