<svg xmlns="http://www.w3.org/2000/svg" xmlns:xlink="http://www.w3.org/1999/xlink" width="50" zoomAndPan="magnify" viewBox="0 0 37.5 37.499999" height="50" preserveAspectRatio="xMidYMid meet" version="1.0"><defs><g/><clipPath id="dc0fe45566"><path d="M 5.699219 7.070312 L 31.605469 7.070312 L 31.605469 35.195312 L 5.699219 35.195312 Z M 5.699219 7.070312 " clip-rule="nonzero"/></clipPath><clipPath id="9b17ac11f1"><path d="M 24.53125 3.132812 L 31.191406 3.132812 L 31.191406 10.53125 L 24.53125 10.53125 Z M 24.53125 3.132812 " clip-rule="nonzero"/></clipPath><clipPath id="261b25e501"><path d="M 5.699219 3.132812 L 12.359375 3.132812 L 12.359375 9.792969 L 5.699219 9.792969 Z M 5.699219 3.132812 " clip-rule="nonzero"/></clipPath></defs><g clip-path="url(#dc0fe45566)"><path fill="#000000" d="M 31.601562 32.65625 L 31.601562 32.371094 C 31.601562 30.625 31.261719 28.933594 30.585938 27.339844 C 29.933594 25.796875 29 24.417969 27.808594 23.230469 C 26.621094 22.042969 25.234375 21.109375 23.695312 20.460938 C 23.59375 20.417969 23.492188 20.375 23.386719 20.335938 C 23.582031 20.175781 23.769531 20.007812 23.949219 19.828125 C 24.636719 19.144531 25.175781 18.34375 25.550781 17.453125 C 25.941406 16.53125 26.140625 15.550781 26.140625 14.542969 C 26.140625 13.535156 25.941406 12.558594 25.550781 11.632812 C 25.175781 10.742188 24.636719 9.945312 23.949219 9.257812 C 23.261719 8.574219 22.460938 8.035156 21.566406 7.65625 C 20.644531 7.265625 19.664062 7.070312 18.652344 7.070312 C 17.644531 7.070312 16.660156 7.265625 15.738281 7.65625 C 14.847656 8.035156 14.046875 8.574219 13.359375 9.257812 C 12.671875 9.945312 12.132812 10.742188 11.753906 11.632812 C 11.363281 12.558594 11.164062 13.535156 11.164062 14.542969 C 11.164062 15.550781 11.363281 16.53125 11.753906 17.453125 C 12.132812 18.34375 12.671875 19.144531 13.359375 19.828125 C 13.535156 20.007812 13.722656 20.175781 13.917969 20.335938 C 13.816406 20.375 13.714844 20.417969 13.613281 20.460938 C 12.070312 21.109375 10.683594 22.042969 9.496094 23.230469 C 8.308594 24.417969 7.375 25.796875 6.722656 27.339844 C 6.046875 28.933594 5.703125 30.625 5.703125 32.371094 L 5.703125 32.65625 C 5.703125 33.980469 6.722656 35.074219 8.023438 35.195312 L 29.460938 35.171875 L 29.46875 35.171875 C 29.691406 35.148438 29.90625 35.082031 30.105469 34.976562 C 30.988281 34.574219 31.601562 33.683594 31.601562 32.65625 Z M 13.132812 16.871094 C 12.820312 16.132812 12.664062 15.351562 12.664062 14.542969 C 12.664062 13.738281 12.820312 12.953125 13.132812 12.214844 C 13.433594 11.503906 13.867188 10.867188 14.417969 10.316406 C 14.96875 9.765625 15.609375 9.335938 16.320312 9.035156 C 17.058594 8.722656 17.84375 8.566406 18.652344 8.566406 C 19.460938 8.566406 20.246094 8.722656 20.984375 9.035156 C 21.699219 9.335938 22.339844 9.765625 22.886719 10.316406 C 23.4375 10.867188 23.871094 11.503906 24.171875 12.21875 C 24.484375 12.953125 24.644531 13.738281 24.644531 14.542969 C 24.644531 15.351562 24.484375 16.132812 24.171875 16.871094 C 23.871094 17.582031 23.4375 18.222656 22.886719 18.773438 C 22.339844 19.320312 21.699219 19.753906 20.984375 20.054688 C 20.246094 20.367188 19.460938 20.523438 18.652344 20.523438 C 17.84375 20.523438 17.058594 20.367188 16.320312 20.054688 C 15.609375 19.753906 14.96875 19.320312 14.417969 18.773438 C 13.867188 18.222656 13.433594 17.582031 13.132812 16.871094 Z M 30.105469 32.65625 C 30.105469 33.238281 29.628906 33.710938 29.046875 33.710938 L 8.257812 33.710938 C 7.675781 33.710938 7.203125 33.238281 7.203125 32.65625 L 7.203125 32.371094 C 7.203125 30.828125 7.503906 29.332031 8.101562 27.921875 C 8.679688 26.558594 9.503906 25.335938 10.554688 24.289062 C 11.605469 23.238281 12.832031 22.414062 14.195312 21.835938 C 14.496094 21.710938 14.804688 21.59375 15.113281 21.496094 C 15.222656 21.460938 15.332031 21.425781 15.4375 21.394531 C 15.480469 21.382812 15.515625 21.367188 15.554688 21.351562 C 15.613281 21.378906 15.675781 21.40625 15.738281 21.429688 C 16.660156 21.820312 17.640625 22.019531 18.652344 22.019531 C 19.664062 22.019531 20.644531 21.820312 21.566406 21.429688 C 21.628906 21.40625 21.691406 21.378906 21.75 21.351562 C 21.789062 21.367188 21.828125 21.382812 21.867188 21.394531 C 22.285156 21.515625 22.703125 21.667969 23.109375 21.835938 C 24.472656 22.414062 25.699219 23.238281 26.75 24.289062 C 27.800781 25.335938 28.628906 26.558594 29.203125 27.921875 C 29.800781 29.332031 30.105469 30.828125 30.105469 32.371094 Z M 30.105469 32.65625 " fill-opacity="1" fill-rule="nonzero"/></g><g clip-path="url(#9b17ac11f1)"><path fill="#000000" d="M 31.046875 10.222656 L 30.453125 10.222656 L 30.453125 9.761719 L 30.898438 9.761719 C 30.980469 9.761719 31.046875 9.695312 31.046875 9.609375 L 31.046875 5.460938 C 31.046875 5.40625 31.019531 5.355469 30.972656 5.328125 C 30.1875 4.839844 30.222656 4.859375 30.195312 4.851562 C 30.191406 4.847656 30.183594 4.847656 30.179688 4.847656 C 30.175781 4.847656 30.175781 4.847656 30.171875 4.84375 C 30.160156 4.84375 30.148438 4.84375 30.136719 4.847656 C 30.121094 4.847656 29.648438 4.929688 29.269531 4.996094 L 29.269531 3.921875 C 29.269531 3.875 29.25 3.832031 29.214844 3.800781 C 28.40625 3.132812 28.46875 3.183594 28.449219 3.171875 C 28.425781 3.160156 28.398438 3.152344 28.375 3.152344 C 28.371094 3.152344 28.367188 3.15625 28.363281 3.15625 C 28.359375 3.15625 28.351562 3.15625 28.335938 3.160156 C 28.324219 3.164062 27.679688 3.46875 26.542969 4.007812 C 26.488281 4.03125 26.457031 4.085938 26.457031 4.148438 L 26.457031 5.238281 C 25.421875 4.835938 25.46875 4.851562 25.449219 4.847656 C 25.433594 4.84375 25.410156 4.84375 25.390625 4.847656 C 25.390625 4.847656 25.386719 4.847656 25.386719 4.847656 C 25.375 4.851562 25.363281 4.855469 25.351562 4.863281 C 25.347656 4.863281 25.347656 4.863281 25.34375 4.867188 C 25.339844 4.867188 25.339844 4.871094 25.335938 4.871094 C 25.335938 4.871094 25.335938 4.871094 25.332031 4.875 C 25.324219 4.882812 24.886719 5.222656 24.738281 5.335938 C 24.703125 5.363281 24.679688 5.410156 24.679688 5.460938 L 24.679688 9.609375 C 24.679688 9.695312 24.746094 9.761719 24.828125 9.761719 L 24.976562 9.761719 L 24.976562 10.222656 L 24.679688 10.222656 C 24.597656 10.222656 24.53125 10.292969 24.53125 10.378906 C 24.53125 10.460938 24.597656 10.53125 24.679688 10.53125 C 24.765625 10.53125 30.957031 10.53125 31.046875 10.53125 C 31.125 10.53125 31.191406 10.460938 31.191406 10.378906 C 31.191406 10.292969 31.125 10.222656 31.046875 10.222656 Z M 30.15625 10.222656 L 29.710938 10.222656 L 29.710938 9.761719 L 30.15625 9.761719 Z M 30.75 9.457031 L 30.304688 9.457031 L 30.304688 5.269531 L 30.75 5.546875 Z M 30.007812 9.457031 L 29.710938 9.457031 L 29.710938 8.839844 C 29.710938 8.753906 29.648438 8.6875 29.566406 8.6875 L 28.527344 8.6875 L 28.527344 5.4375 L 30.007812 5.179688 Z M 28.972656 5.046875 L 28.527344 5.125 L 28.527344 3.628906 L 28.972656 3.996094 Z M 26.753906 4.246094 L 28.234375 3.546875 C 28.234375 3.75 28.234375 8.445312 28.234375 8.6875 L 27.195312 8.6875 C 27.113281 8.6875 27.046875 8.753906 27.046875 8.839844 L 27.046875 9.457031 L 26.753906 9.457031 C 26.753906 9.207031 26.753906 4.492188 26.753906 4.246094 Z M 26.457031 9.457031 L 25.566406 9.457031 L 25.566406 5.21875 L 26.457031 5.566406 Z M 24.976562 5.535156 L 25.273438 5.304688 L 25.273438 9.457031 C 25.167969 9.457031 25.078125 9.457031 24.976562 9.457031 Z M 25.273438 9.761719 C 25.632812 9.761719 26.6875 9.761719 27.046875 9.761719 L 27.046875 10.222656 L 25.273438 10.222656 Z M 27.34375 10.222656 C 27.34375 10.074219 27.34375 9.144531 27.34375 8.996094 C 27.59375 8.996094 29.164062 8.996094 29.417969 8.996094 C 29.417969 9.144531 29.417969 10.074219 29.417969 10.222656 Z M 27.34375 10.222656 " fill-opacity="1" fill-rule="nonzero"/></g><path fill="#000000" d="M 27.046875 4.382812 L 27.34375 4.382812 L 27.34375 4.996094 L 27.046875 4.996094 Z M 27.046875 4.382812 " fill-opacity="1" fill-rule="nonzero"/><path fill="#000000" d="M 27.492188 4.382812 L 27.789062 4.382812 L 27.789062 4.996094 L 27.492188 4.996094 Z M 27.492188 4.382812 " fill-opacity="1" fill-rule="nonzero"/><path fill="#000000" d="M 27.046875 5.152344 L 27.34375 5.152344 L 27.34375 5.765625 L 27.046875 5.765625 Z M 27.046875 5.152344 " fill-opacity="1" fill-rule="nonzero"/><path fill="#000000" d="M 27.492188 5.152344 L 27.789062 5.152344 L 27.789062 5.765625 L 27.492188 5.765625 Z M 27.492188 5.152344 " fill-opacity="1" fill-rule="nonzero"/><path fill="#000000" d="M 27.046875 5.921875 L 27.34375 5.921875 L 27.34375 6.535156 L 27.046875 6.535156 Z M 27.046875 5.921875 " fill-opacity="1" fill-rule="nonzero"/><path fill="#000000" d="M 27.492188 5.921875 L 27.789062 5.921875 L 27.789062 6.535156 L 27.492188 6.535156 Z M 27.492188 5.921875 " fill-opacity="1" fill-rule="nonzero"/><path fill="#000000" d="M 27.046875 6.6875 L 27.34375 6.6875 L 27.34375 7.304688 L 27.046875 7.304688 Z M 27.046875 6.6875 " fill-opacity="1" fill-rule="nonzero"/><path fill="#000000" d="M 25.863281 5.921875 L 26.160156 5.921875 L 26.160156 6.535156 L 25.863281 6.535156 Z M 25.863281 5.921875 " fill-opacity="1" fill-rule="nonzero"/><path fill="#000000" d="M 25.863281 6.6875 L 26.160156 6.6875 L 26.160156 7.304688 L 25.863281 7.304688 Z M 25.863281 6.6875 " fill-opacity="1" fill-rule="nonzero"/><path fill="#000000" d="M 25.863281 7.457031 L 26.160156 7.457031 L 26.160156 8.070312 L 25.863281 8.070312 Z M 25.863281 7.457031 " fill-opacity="1" fill-rule="nonzero"/><path fill="#000000" d="M 25.863281 8.226562 L 26.160156 8.226562 L 26.160156 8.839844 L 25.863281 8.839844 Z M 25.863281 8.226562 " fill-opacity="1" fill-rule="nonzero"/><path fill="#000000" d="M 27.492188 6.6875 L 27.789062 6.6875 L 27.789062 7.304688 L 27.492188 7.304688 Z M 27.492188 6.6875 " fill-opacity="1" fill-rule="nonzero"/><path fill="#000000" d="M 28.675781 5.613281 L 28.972656 5.613281 L 28.972656 6.074219 L 28.675781 6.074219 Z M 28.675781 5.613281 " fill-opacity="1" fill-rule="nonzero"/><path fill="#000000" d="M 29.121094 5.613281 L 29.417969 5.613281 L 29.417969 6.074219 L 29.121094 6.074219 Z M 29.121094 5.613281 " fill-opacity="1" fill-rule="nonzero"/><path fill="#000000" d="M 29.566406 5.613281 L 29.859375 5.613281 L 29.859375 6.074219 L 29.566406 6.074219 Z M 29.566406 5.613281 " fill-opacity="1" fill-rule="nonzero"/><path fill="#000000" d="M 28.675781 6.226562 L 28.972656 6.226562 L 28.972656 6.6875 L 28.675781 6.6875 Z M 28.675781 6.226562 " fill-opacity="1" fill-rule="nonzero"/><path fill="#000000" d="M 29.121094 6.226562 L 29.417969 6.226562 L 29.417969 6.6875 L 29.121094 6.6875 Z M 29.121094 6.226562 " fill-opacity="1" fill-rule="nonzero"/><path fill="#000000" d="M 29.566406 6.226562 L 29.859375 6.226562 L 29.859375 6.6875 L 29.566406 6.6875 Z M 29.566406 6.226562 " fill-opacity="1" fill-rule="nonzero"/><path fill="#000000" d="M 28.675781 6.84375 L 28.972656 6.84375 L 28.972656 7.304688 L 28.675781 7.304688 Z M 28.675781 6.84375 " fill-opacity="1" fill-rule="nonzero"/><path fill="#000000" d="M 29.121094 6.84375 L 29.417969 6.84375 L 29.417969 7.304688 L 29.121094 7.304688 Z M 29.121094 6.84375 " fill-opacity="1" fill-rule="nonzero"/><path fill="#000000" d="M 29.566406 6.84375 L 29.859375 6.84375 L 29.859375 7.304688 L 29.566406 7.304688 Z M 29.566406 6.84375 " fill-opacity="1" fill-rule="nonzero"/><path fill="#000000" d="M 28.675781 7.457031 L 28.972656 7.457031 L 28.972656 7.917969 L 28.675781 7.917969 Z M 28.675781 7.457031 " fill-opacity="1" fill-rule="nonzero"/><path fill="#000000" d="M 29.121094 7.457031 L 29.417969 7.457031 L 29.417969 7.917969 L 29.121094 7.917969 Z M 29.121094 7.457031 " fill-opacity="1" fill-rule="nonzero"/><path fill="#000000" d="M 28.675781 8.070312 L 28.972656 8.070312 L 28.972656 8.53125 L 28.675781 8.53125 Z M 28.675781 8.070312 " fill-opacity="1" fill-rule="nonzero"/><path fill="#000000" d="M 27.046875 7.457031 L 27.34375 7.457031 L 27.34375 8.070312 L 27.046875 8.070312 Z M 27.046875 7.457031 " fill-opacity="1" fill-rule="nonzero"/><path fill="#000000" d="M 27.640625 9.148438 L 29.121094 9.148438 L 29.121094 9.457031 L 27.640625 9.457031 Z M 27.640625 9.148438 " fill-opacity="1" fill-rule="nonzero"/><path fill="#000000" d="M 27.640625 9.609375 L 29.121094 9.609375 L 29.121094 9.917969 L 27.640625 9.917969 Z M 27.640625 9.609375 " fill-opacity="1" fill-rule="nonzero"/><g clip-path="url(#261b25e501)"><path fill="#100f0d" d="M 11.914062 9.5625 L 11.582031 9.5625 L 11.582031 8.644531 C 11.707031 8.644531 11.804688 8.746094 11.804688 8.875 C 11.804688 8.898438 11.800781 8.921875 11.789062 8.953125 C 11.777344 8.988281 11.785156 9.027344 11.804688 9.058594 C 11.828125 9.089844 11.863281 9.109375 11.902344 9.105469 C 11.90625 9.105469 11.914062 9.105469 11.917969 9.101562 C 12.039062 9.105469 12.136719 9.207031 12.136719 9.332031 C 12.136719 9.460938 12.039062 9.5625 11.914062 9.5625 Z M 10.917969 9.5625 L 10.917969 6.921875 C 10.917969 6.859375 10.867188 6.804688 10.804688 6.804688 L 9.253906 6.804688 C 9.191406 6.804688 9.140625 6.859375 9.140625 6.921875 L 9.140625 9.5625 L 6.699219 9.5625 L 6.699219 6.289062 L 9.03125 4.535156 L 11.359375 6.289062 L 11.359375 9.5625 Z M 10.695312 9.5625 L 9.363281 9.5625 L 9.363281 7.035156 L 10.695312 7.035156 Z M 5.921875 9.332031 C 5.921875 9.207031 6.023438 9.105469 6.140625 9.101562 L 6.144531 9.101562 C 6.148438 9.105469 6.152344 9.105469 6.160156 9.105469 C 6.195312 9.109375 6.234375 9.089844 6.253906 9.058594 C 6.277344 9.027344 6.285156 8.988281 6.269531 8.953125 C 6.261719 8.921875 6.257812 8.898438 6.257812 8.875 C 6.257812 8.746094 6.355469 8.644531 6.480469 8.644531 L 6.480469 9.5625 L 6.144531 9.5625 C 6.023438 9.5625 5.921875 9.460938 5.921875 9.332031 Z M 9.03125 3.847656 L 11.730469 5.890625 L 11.472656 6.089844 L 9.097656 4.300781 C 9.078125 4.285156 9.054688 4.28125 9.03125 4.28125 C 9.007812 4.28125 8.984375 4.285156 8.964844 4.300781 L 6.589844 6.089844 L 6.332031 5.890625 Z M 10.140625 4.394531 L 10.140625 3.820312 L 10.804688 3.820312 L 10.804688 4.90625 L 10.128906 4.394531 Z M 10.03125 3.359375 L 10.917969 3.359375 L 10.917969 3.589844 L 10.03125 3.589844 Z M 12.027344 8.886719 C 12.027344 8.882812 12.027344 8.878906 12.027344 8.875 C 12.027344 8.621094 11.828125 8.414062 11.582031 8.414062 L 11.582031 6.289062 L 11.980469 5.980469 C 12.011719 5.957031 12.027344 5.921875 12.027344 5.886719 C 12.027344 5.851562 12.007812 5.816406 11.980469 5.792969 L 11.027344 5.074219 L 11.027344 3.820312 C 11.089844 3.820312 11.140625 3.769531 11.140625 3.707031 L 11.140625 3.246094 C 11.140625 3.183594 11.089844 3.132812 11.027344 3.132812 L 9.917969 3.132812 C 9.855469 3.132812 9.808594 3.183594 9.808594 3.246094 L 9.808594 3.707031 C 9.808594 3.769531 9.855469 3.820312 9.917969 3.820312 L 9.917969 4.234375 L 9.097656 3.613281 C 9.058594 3.582031 9.003906 3.582031 8.964844 3.613281 L 6.082031 5.792969 C 6.050781 5.816406 6.035156 5.851562 6.035156 5.886719 C 6.035156 5.921875 6.050781 5.957031 6.078125 5.980469 L 6.480469 6.289062 L 6.480469 8.414062 C 6.234375 8.414062 6.035156 8.621094 6.035156 8.875 C 6.035156 8.878906 6.035156 8.882812 6.035156 8.886719 C 5.84375 8.9375 5.703125 9.117188 5.703125 9.332031 C 5.703125 9.585938 5.902344 9.792969 6.144531 9.792969 L 11.914062 9.792969 C 12.160156 9.792969 12.359375 9.585938 12.359375 9.332031 C 12.359375 9.117188 12.21875 8.9375 12.027344 8.886719 " fill-opacity="1" fill-rule="nonzero"/></g><path fill="#100f0d" d="M 8.03125 8.414062 L 8.03125 7.839844 L 8.476562 7.839844 L 8.476562 8.414062 Z M 7.367188 7.839844 L 7.808594 7.839844 L 7.808594 8.414062 L 7.367188 8.414062 Z M 7.808594 7.035156 L 7.808594 7.609375 L 7.367188 7.609375 L 7.367188 7.035156 Z M 8.476562 7.609375 L 8.03125 7.609375 L 8.03125 7.035156 L 8.476562 7.035156 Z M 8.585938 6.804688 L 7.253906 6.804688 C 7.195312 6.804688 7.144531 6.859375 7.144531 6.921875 L 7.144531 8.527344 C 7.144531 8.59375 7.195312 8.644531 7.253906 8.644531 L 8.585938 8.644531 C 8.648438 8.644531 8.699219 8.59375 8.699219 8.527344 L 8.699219 6.921875 C 8.699219 6.859375 8.648438 6.804688 8.585938 6.804688 " fill-opacity="1" fill-rule="nonzero"/><path fill="#100f0d" d="M 9.695312 8.300781 C 9.757812 8.300781 9.808594 8.246094 9.808594 8.183594 C 9.808594 8.121094 9.757812 8.070312 9.695312 8.070312 C 9.636719 8.070312 9.585938 8.121094 9.585938 8.183594 C 9.585938 8.246094 9.636719 8.300781 9.695312 8.300781 " fill-opacity="1" fill-rule="nonzero"/><g fill="#ffffff" fill-opacity="1"><g transform="translate(0.0000005, 36.494446)"><g><path d="M 0.59375 -0.96875 C 0.6875 -0.96875 0.769531 -0.945312 0.84375 -0.90625 C 0.914062 -0.863281 0.972656 -0.800781 1.015625 -0.71875 C 1.054688 -0.644531 1.078125 -0.566406 1.078125 -0.484375 L 1.078125 -0.0625 C 1.078125 -0.0390625 1.070312 -0.0234375 1.0625 -0.015625 C 1.050781 -0.00390625 1.035156 0 1.015625 0 C 0.992188 0 0.972656 -0.00390625 0.953125 -0.015625 C 0.941406 -0.0234375 0.9375 -0.0390625 0.9375 -0.0625 L 0.9375 -0.171875 C 0.894531 -0.117188 0.84375 -0.0703125 0.78125 -0.03125 C 0.71875 0 0.648438 0.015625 0.578125 0.015625 C 0.492188 0.015625 0.414062 -0.00390625 0.34375 -0.046875 C 0.269531 -0.0976562 0.210938 -0.160156 0.171875 -0.234375 C 0.128906 -0.304688 0.109375 -0.390625 0.109375 -0.484375 C 0.109375 -0.566406 0.128906 -0.644531 0.171875 -0.71875 C 0.210938 -0.800781 0.269531 -0.863281 0.34375 -0.90625 C 0.414062 -0.945312 0.5 -0.96875 0.59375 -0.96875 Z M 0.59375 -0.109375 C 0.65625 -0.109375 0.710938 -0.125 0.765625 -0.15625 C 0.828125 -0.1875 0.875 -0.226562 0.90625 -0.28125 C 0.9375 -0.34375 0.953125 -0.410156 0.953125 -0.484375 C 0.953125 -0.546875 0.9375 -0.601562 0.90625 -0.65625 C 0.875 -0.71875 0.828125 -0.765625 0.765625 -0.796875 C 0.710938 -0.828125 0.65625 -0.84375 0.59375 -0.84375 C 0.53125 -0.84375 0.46875 -0.828125 0.40625 -0.796875 C 0.351562 -0.765625 0.3125 -0.71875 0.28125 -0.65625 C 0.25 -0.601562 0.234375 -0.546875 0.234375 -0.484375 C 0.234375 -0.410156 0.25 -0.34375 0.28125 -0.28125 C 0.3125 -0.226562 0.351562 -0.1875 0.40625 -0.15625 C 0.46875 -0.125 0.53125 -0.109375 0.59375 -0.109375 Z M 0.59375 -0.109375 "/></g></g></g></svg>