<svg xmlns="http://www.w3.org/2000/svg" xmlns:xlink="http://www.w3.org/1999/xlink" width="50" zoomAndPan="magnify" viewBox="0 0 37.5 37.499999" height="50" preserveAspectRatio="xMidYMid meet" version="1.0"><defs><g/><clipPath id="3770072fbb"><path d="M 5.234375 1.515625 L 31.878906 1.515625 L 31.878906 35.5625 L 5.234375 35.5625 Z M 5.234375 1.515625 " clip-rule="nonzero"/></clipPath></defs><g clip-path="url(#3770072fbb)"><path fill="#000000" d="M 17.171875 8.214844 C 19.019531 8.214844 20.523438 6.714844 20.523438 4.867188 C 20.523438 3.023438 19.019531 1.519531 17.171875 1.519531 C 15.324219 1.519531 13.820312 3.023438 13.820312 4.867188 C 13.820312 6.714844 15.324219 8.214844 17.171875 8.214844 Z M 17.171875 2.484375 C 18.488281 2.484375 19.558594 3.554688 19.558594 4.867188 C 19.558594 6.179688 18.488281 7.25 17.171875 7.25 C 15.855469 7.25 14.785156 6.179688 14.785156 4.867188 C 14.785156 3.554688 15.855469 2.484375 17.171875 2.484375 Z M 31.640625 31.636719 L 29.503906 21.972656 C 29.292969 21.023438 28.4375 20.363281 27.464844 20.40625 L 22.863281 20.613281 C 22.375 19.882812 21.785156 19.222656 21.117188 18.648438 L 20.238281 10.121094 C 20.21875 9.914062 20.066406 9.746094 19.863281 9.699219 L 15.011719 8.605469 C 14.730469 8.542969 13.875 8.351562 13.261719 8.960938 L 9.03125 13.183594 C 8.644531 13.574219 8.476562 14.125 8.589844 14.664062 L 9.207031 18.167969 C 6.714844 19.976562 5.234375 22.863281 5.234375 25.949219 C 5.234375 31.246094 9.550781 35.558594 14.859375 35.558594 C 20.167969 35.558594 24.488281 31.246094 24.488281 25.949219 C 24.488281 25.472656 24.453125 25.003906 24.382812 24.546875 L 25.960938 24.476562 L 27.734375 32.496094 C 27.851562 33.019531 28.160156 33.460938 28.613281 33.75 C 28.9375 33.957031 29.308594 34.0625 29.683594 34.0625 C 29.828125 34.0625 29.976562 34.046875 30.121094 34.015625 C 31.199219 33.777344 31.878906 32.710938 31.640625 31.636719 Z M 9.714844 13.867188 L 13.945312 9.640625 C 14.046875 9.542969 14.246094 9.421875 14.796875 9.546875 L 19.3125 10.5625 L 20.066406 17.867188 C 18.5625 16.898438 16.777344 16.335938 14.859375 16.335938 C 14.746094 16.335938 14.628906 16.339844 14.515625 16.34375 L 14.121094 12.445312 C 14.101562 12.257812 13.976562 12.101562 13.800781 12.039062 C 13.628906 11.976562 13.429688 12.019531 13.300781 12.152344 L 11.066406 14.378906 C 10.957031 14.492188 10.90625 14.648438 10.933594 14.804688 L 11.882812 20.203125 C 11.945312 20.558594 11.703125 20.902344 11.347656 20.964844 C 11.171875 20.996094 11 20.957031 10.855469 20.855469 C 10.710938 20.753906 10.613281 20.601562 10.585938 20.429688 L 9.539062 14.488281 C 9.539062 14.480469 9.539062 14.476562 9.535156 14.472656 C 9.488281 14.25 9.554688 14.023438 9.714844 13.867188 Z M 13.867188 19.539062 L 14.0625 21.484375 C 14.148438 22.292969 14.410156 24.75 17.644531 24.847656 C 17.648438 24.851562 17.652344 24.851562 17.660156 24.851562 C 17.664062 24.851562 17.671875 24.847656 17.679688 24.847656 L 21.230469 24.691406 C 21.3125 25.097656 21.355469 25.515625 21.355469 25.949219 C 21.355469 29.523438 18.441406 32.429688 14.859375 32.429688 C 11.28125 32.429688 8.367188 29.523438 8.367188 25.949219 C 8.367188 24.292969 9.003906 22.703125 10.128906 21.503906 C 10.183594 21.554688 10.238281 21.601562 10.300781 21.644531 C 10.574219 21.835938 10.898438 21.9375 11.230469 21.9375 C 11.324219 21.9375 11.417969 21.929688 11.511719 21.914062 C 12.394531 21.761719 12.988281 20.917969 12.835938 20.035156 L 12.792969 19.800781 C 13.140625 19.683594 13.5 19.597656 13.867188 19.539062 Z M 14.828125 19.464844 C 14.839844 19.464844 14.851562 19.464844 14.859375 19.464844 C 17.664062 19.464844 20.058594 21.246094 20.964844 23.734375 L 17.65625 23.882812 C 15.5625 23.816406 15.148438 22.582031 15.023438 21.386719 Z M 11.929688 14.882812 L 13.261719 13.550781 L 13.550781 16.425781 C 13.109375 16.484375 12.675781 16.574219 12.246094 16.695312 Z M 14.859375 34.59375 C 10.085938 34.59375 6.199219 30.714844 6.199219 25.949219 C 6.199219 23.332031 7.382812 20.875 9.394531 19.242188 L 9.632812 20.59375 C 9.632812 20.605469 9.636719 20.617188 9.640625 20.628906 C 8.214844 22.023438 7.402344 23.945312 7.402344 25.949219 C 7.402344 30.054688 10.746094 33.394531 14.859375 33.394531 C 18.972656 33.394531 22.320312 30.054688 22.320312 25.949219 C 22.320312 21.839844 18.972656 18.5 14.859375 18.5 C 14.09375 18.5 13.34375 18.613281 12.625 18.839844 L 12.414062 17.652344 C 13.207031 17.417969 14.027344 17.300781 14.859375 17.300781 C 19.636719 17.300781 23.519531 21.179688 23.519531 25.949219 C 23.519531 30.714844 19.636719 34.59375 14.859375 34.59375 Z M 29.910156 33.074219 C 29.640625 33.132812 29.363281 33.085938 29.132812 32.9375 C 28.898438 32.789062 28.738281 32.558594 28.679688 32.289062 L 26.816406 23.871094 C 26.765625 23.644531 26.558594 23.484375 26.324219 23.496094 L 24.195312 23.589844 C 24.011719 22.878906 23.753906 22.195312 23.421875 21.554688 L 27.507812 21.371094 C 28.007812 21.347656 28.453125 21.691406 28.5625 22.179688 L 30.699219 31.84375 C 30.820312 32.398438 30.46875 32.953125 29.910156 33.074219 Z M 29.910156 33.074219 " fill-opacity="1" fill-rule="nonzero"/></g><g fill="#ffffff" fill-opacity="1"><g transform="translate(0.0000005, 36.494446)"><g><path d="M 0.59375 -0.96875 C 0.6875 -0.96875 0.769531 -0.945312 0.84375 -0.90625 C 0.914062 -0.863281 0.972656 -0.800781 1.015625 -0.71875 C 1.054688 -0.644531 1.078125 -0.566406 1.078125 -0.484375 L 1.078125 -0.0625 C 1.078125 -0.0390625 1.070312 -0.0234375 1.0625 -0.015625 C 1.050781 -0.00390625 1.035156 0 1.015625 0 C 0.992188 0 0.972656 -0.00390625 0.953125 -0.015625 C 0.941406 -0.0234375 0.9375 -0.0390625 0.9375 -0.0625 L 0.9375 -0.171875 C 0.894531 -0.117188 0.84375 -0.0703125 0.78125 -0.03125 C 0.71875 0 0.648438 0.015625 0.578125 0.015625 C 0.492188 0.015625 0.414062 -0.00390625 0.34375 -0.046875 C 0.269531 -0.0976562 0.210938 -0.160156 0.171875 -0.234375 C 0.128906 -0.304688 0.109375 -0.390625 0.109375 -0.484375 C 0.109375 -0.566406 0.128906 -0.644531 0.171875 -0.71875 C 0.210938 -0.800781 0.269531 -0.863281 0.34375 -0.90625 C 0.414062 -0.945312 0.5 -0.96875 0.59375 -0.96875 Z M 0.59375 -0.109375 C 0.65625 -0.109375 0.710938 -0.125 0.765625 -0.15625 C 0.828125 -0.1875 0.875 -0.226562 0.90625 -0.28125 C 0.9375 -0.34375 0.953125 -0.410156 0.953125 -0.484375 C 0.953125 -0.546875 0.9375 -0.601562 0.90625 -0.65625 C 0.875 -0.71875 0.828125 -0.765625 0.765625 -0.796875 C 0.710938 -0.828125 0.65625 -0.84375 0.59375 -0.84375 C 0.53125 -0.84375 0.46875 -0.828125 0.40625 -0.796875 C 0.351562 -0.765625 0.3125 -0.71875 0.28125 -0.65625 C 0.25 -0.601562 0.234375 -0.546875 0.234375 -0.484375 C 0.234375 -0.410156 0.25 -0.34375 0.28125 -0.28125 C 0.3125 -0.226562 0.351562 -0.1875 0.40625 -0.15625 C 0.46875 -0.125 0.53125 -0.109375 0.59375 -0.109375 Z M 0.59375 -0.109375 "/></g></g></g></svg>