<svg xmlns="http://www.w3.org/2000/svg" xmlns:xlink="http://www.w3.org/1999/xlink" width="112" zoomAndPan="magnify" viewBox="0 0 84 37.5" height="50" preserveAspectRatio="xMidYMid meet" version="1.0"><defs><g/><clipPath id="75c6f0aeaf"><path d="M 70 16 L 83.445312 16 L 83.445312 29 L 70 29 Z M 70 16 " clip-rule="nonzero"/></clipPath></defs><g fill="#ff914d" fill-opacity="0.4"><g transform="translate(0.483248, 28.76933)"><g><path d="M 14.34375 -5.75 L 5.125 -5.75 C 5.125 -4.851562 5.410156 -4.191406 5.984375 -3.765625 C 6.566406 -3.335938 7.195312 -3.125 7.875 -3.125 C 8.582031 -3.125 9.140625 -3.21875 9.546875 -3.40625 C 9.960938 -3.59375 10.4375 -3.96875 10.96875 -4.53125 L 14.140625 -2.953125 C 12.816406 -0.734375 10.617188 0.375 7.546875 0.375 C 5.640625 0.375 4 -0.28125 2.625 -1.59375 C 1.25 -2.90625 0.5625 -4.484375 0.5625 -6.328125 C 0.5625 -8.179688 1.25 -9.769531 2.625 -11.09375 C 4 -12.414062 5.640625 -13.078125 7.546875 -13.078125 C 9.566406 -13.078125 11.207031 -12.492188 12.46875 -11.328125 C 13.726562 -10.160156 14.359375 -8.5 14.359375 -6.34375 C 14.359375 -6.039062 14.351562 -5.84375 14.34375 -5.75 Z M 5.25 -8.171875 L 10.078125 -8.171875 C 9.984375 -8.828125 9.722656 -9.332031 9.296875 -9.6875 C 8.878906 -10.050781 8.335938 -10.234375 7.671875 -10.234375 C 6.953125 -10.234375 6.375 -10.039062 5.9375 -9.65625 C 5.507812 -9.28125 5.28125 -8.785156 5.25 -8.171875 Z M 5.25 -8.171875 "/></g></g></g><g fill="#ff914d" fill-opacity="1"><g transform="translate(1.185248, 28.114705)"><g><path d="M 14.34375 -5.75 L 5.125 -5.75 C 5.125 -4.851562 5.410156 -4.191406 5.984375 -3.765625 C 6.566406 -3.335938 7.195312 -3.125 7.875 -3.125 C 8.582031 -3.125 9.140625 -3.21875 9.546875 -3.40625 C 9.960938 -3.59375 10.4375 -3.96875 10.96875 -4.53125 L 14.140625 -2.953125 C 12.816406 -0.734375 10.617188 0.375 7.546875 0.375 C 5.640625 0.375 4 -0.28125 2.625 -1.59375 C 1.25 -2.90625 0.5625 -4.484375 0.5625 -6.328125 C 0.5625 -8.179688 1.25 -9.769531 2.625 -11.09375 C 4 -12.414062 5.640625 -13.078125 7.546875 -13.078125 C 9.566406 -13.078125 11.207031 -12.492188 12.46875 -11.328125 C 13.726562 -10.160156 14.359375 -8.5 14.359375 -6.34375 C 14.359375 -6.039062 14.351562 -5.84375 14.34375 -5.75 Z M 5.25 -8.171875 L 10.078125 -8.171875 C 9.984375 -8.828125 9.722656 -9.332031 9.296875 -9.6875 C 8.878906 -10.050781 8.335938 -10.234375 7.671875 -10.234375 C 6.953125 -10.234375 6.375 -10.039062 5.9375 -9.65625 C 5.507812 -9.28125 5.28125 -8.785156 5.25 -8.171875 Z M 5.25 -8.171875 "/></g></g></g><g fill="#004aad" fill-opacity="0.4"><g transform="translate(15.908854, 28.44968)"><g><path d="M 1.328125 -18.171875 L 7.953125 -18.171875 C 9.804688 -18.171875 11.304688 -17.691406 12.453125 -16.734375 C 13.597656 -15.785156 14.171875 -14.398438 14.171875 -12.578125 C 14.171875 -10.753906 13.585938 -9.320312 12.421875 -8.28125 C 11.265625 -7.25 9.773438 -6.734375 7.953125 -6.734375 L 5.46875 -6.734375 L 5.46875 0 L 1.328125 0 Z M 5.46875 -10.046875 L 6.625 -10.046875 C 7.550781 -10.046875 8.3125 -10.234375 8.90625 -10.609375 C 9.5 -10.984375 9.796875 -11.597656 9.796875 -12.453125 C 9.796875 -13.316406 9.5 -13.9375 8.90625 -14.3125 C 8.3125 -14.6875 7.550781 -14.875 6.625 -14.875 L 5.46875 -14.875 Z M 5.46875 -10.046875 "/></g></g></g><g fill="#004aad" fill-opacity="0.4"><g transform="translate(31.453397, 28.44968)"><g><path d="M 5 -11.296875 L 5 -5.921875 C 5 -4.804688 5.164062 -4.015625 5.5 -3.546875 C 5.84375 -3.078125 6.414062 -2.84375 7.21875 -2.84375 C 8.03125 -2.84375 8.601562 -3.078125 8.9375 -3.546875 C 9.28125 -4.015625 9.453125 -4.804688 9.453125 -5.921875 L 9.453125 -11.296875 L 13.34375 -11.296875 L 13.34375 -4.984375 C 13.34375 -3.097656 12.851562 -1.738281 11.875 -0.90625 C 10.90625 -0.0820312 9.351562 0.328125 7.21875 0.328125 C 5.09375 0.328125 3.539062 -0.0820312 2.5625 -0.90625 C 1.59375 -1.738281 1.109375 -3.097656 1.109375 -4.984375 L 1.109375 -11.296875 Z M 5 -11.296875 "/></g></g></g><g fill="#004aad" fill-opacity="0.4"><g transform="translate(46.777766, 28.44968)"><g><path d="M 1.328125 0 L 1.328125 -11.296875 L 5.21875 -11.296875 L 5.21875 -9.671875 L 5.265625 -9.671875 C 5.296875 -9.734375 5.34375 -9.804688 5.40625 -9.890625 C 5.476562 -9.984375 5.625 -10.140625 5.84375 -10.359375 C 6.0625 -10.578125 6.296875 -10.773438 6.546875 -10.953125 C 6.796875 -11.128906 7.117188 -11.285156 7.515625 -11.421875 C 7.910156 -11.554688 8.3125 -11.625 8.71875 -11.625 C 9.144531 -11.625 9.5625 -11.566406 9.96875 -11.453125 C 10.382812 -11.335938 10.691406 -11.222656 10.890625 -11.109375 L 11.1875 -10.921875 L 9.5625 -7.625 C 9.070312 -8.03125 8.394531 -8.234375 7.53125 -8.234375 C 7.0625 -8.234375 6.65625 -8.128906 6.3125 -7.921875 C 5.976562 -7.722656 5.738281 -7.472656 5.59375 -7.171875 C 5.457031 -6.878906 5.359375 -6.628906 5.296875 -6.421875 C 5.242188 -6.222656 5.21875 -6.066406 5.21875 -5.953125 L 5.21875 0 Z M 1.328125 0 "/></g></g></g><g fill="#004aad" fill-opacity="0.4"><g transform="translate(58.623397, 28.44968)"><g><path d="M 6.234375 -11.625 C 6.878906 -11.625 7.515625 -11.550781 8.140625 -11.40625 C 8.773438 -11.257812 9.25 -11.113281 9.5625 -10.96875 L 10.03125 -10.75 L 8.75 -8.203125 C 7.863281 -8.671875 7.023438 -8.90625 6.234375 -8.90625 C 5.796875 -8.90625 5.484375 -8.851562 5.296875 -8.75 C 5.109375 -8.65625 5.015625 -8.476562 5.015625 -8.21875 C 5.015625 -8.15625 5.019531 -8.09375 5.03125 -8.03125 C 5.050781 -7.976562 5.082031 -7.925781 5.125 -7.875 C 5.175781 -7.820312 5.21875 -7.773438 5.25 -7.734375 C 5.289062 -7.703125 5.351562 -7.664062 5.4375 -7.625 C 5.53125 -7.582031 5.601562 -7.546875 5.65625 -7.515625 C 5.707031 -7.492188 5.789062 -7.460938 5.90625 -7.421875 C 6.019531 -7.378906 6.101562 -7.347656 6.15625 -7.328125 C 6.21875 -7.304688 6.316406 -7.269531 6.453125 -7.21875 C 6.597656 -7.175781 6.707031 -7.148438 6.78125 -7.140625 C 7.238281 -7.003906 7.632812 -6.851562 7.96875 -6.6875 C 8.3125 -6.53125 8.671875 -6.3125 9.046875 -6.03125 C 9.421875 -5.757812 9.707031 -5.410156 9.90625 -4.984375 C 10.113281 -4.554688 10.21875 -4.070312 10.21875 -3.53125 C 10.21875 -0.957031 8.4375 0.328125 4.875 0.328125 C 4.0625 0.328125 3.289062 0.203125 2.5625 -0.046875 C 1.832031 -0.296875 1.304688 -0.546875 0.984375 -0.796875 L 0.5 -1.1875 L 2.09375 -3.859375 C 2.207031 -3.753906 2.359375 -3.628906 2.546875 -3.484375 C 2.742188 -3.347656 3.09375 -3.160156 3.59375 -2.921875 C 4.09375 -2.679688 4.523438 -2.5625 4.890625 -2.5625 C 5.703125 -2.5625 6.109375 -2.832031 6.109375 -3.375 C 6.109375 -3.625 6.003906 -3.816406 5.796875 -3.953125 C 5.585938 -4.085938 5.238281 -4.242188 4.75 -4.421875 C 4.257812 -4.597656 3.875 -4.757812 3.59375 -4.90625 C 2.882812 -5.28125 2.320312 -5.695312 1.90625 -6.15625 C 1.5 -6.625 1.296875 -7.238281 1.296875 -8 C 1.296875 -9.144531 1.738281 -10.035156 2.625 -10.671875 C 3.519531 -11.304688 4.722656 -11.625 6.234375 -11.625 Z M 6.234375 -11.625 "/></g></g></g><g clip-path="url(#75c6f0aeaf)"><g fill="#004aad" fill-opacity="0.4"><g transform="translate(70.336926, 28.44968)"><g><path d="M 12.75 -5.109375 L 4.5625 -5.109375 C 4.5625 -4.316406 4.816406 -3.726562 5.328125 -3.34375 C 5.847656 -2.96875 6.40625 -2.78125 7 -2.78125 C 7.632812 -2.78125 8.132812 -2.863281 8.5 -3.03125 C 8.875 -3.195312 9.296875 -3.53125 9.765625 -4.03125 L 12.578125 -2.625 C 11.398438 -0.65625 9.445312 0.328125 6.71875 0.328125 C 5.007812 0.328125 3.546875 -0.253906 2.328125 -1.421875 C 1.109375 -2.585938 0.5 -3.992188 0.5 -5.640625 C 0.5 -7.285156 1.109375 -8.691406 2.328125 -9.859375 C 3.546875 -11.035156 5.007812 -11.625 6.71875 -11.625 C 8.507812 -11.625 9.96875 -11.109375 11.09375 -10.078125 C 12.21875 -9.046875 12.78125 -7.566406 12.78125 -5.640625 C 12.78125 -5.378906 12.769531 -5.203125 12.75 -5.109375 Z M 4.671875 -7.265625 L 8.96875 -7.265625 C 8.875 -7.859375 8.640625 -8.3125 8.265625 -8.625 C 7.898438 -8.9375 7.421875 -9.09375 6.828125 -9.09375 C 6.179688 -9.09375 5.664062 -8.921875 5.28125 -8.578125 C 4.90625 -8.242188 4.703125 -7.804688 4.671875 -7.265625 Z M 4.671875 -7.265625 "/></g></g></g></g><g fill="#004aad" fill-opacity="1"><g transform="translate(15.284661, 27.86761)"><g><path d="M 1.328125 -18.171875 L 7.953125 -18.171875 C 9.804688 -18.171875 11.304688 -17.691406 12.453125 -16.734375 C 13.597656 -15.785156 14.171875 -14.398438 14.171875 -12.578125 C 14.171875 -10.753906 13.585938 -9.320312 12.421875 -8.28125 C 11.265625 -7.25 9.773438 -6.734375 7.953125 -6.734375 L 5.46875 -6.734375 L 5.46875 0 L 1.328125 0 Z M 5.46875 -10.046875 L 6.625 -10.046875 C 7.550781 -10.046875 8.3125 -10.234375 8.90625 -10.609375 C 9.5 -10.984375 9.796875 -11.597656 9.796875 -12.453125 C 9.796875 -13.316406 9.5 -13.9375 8.90625 -14.3125 C 8.3125 -14.6875 7.550781 -14.875 6.625 -14.875 L 5.46875 -14.875 Z M 5.46875 -10.046875 "/></g></g></g><g fill="#004aad" fill-opacity="1"><g transform="translate(30.829204, 27.86761)"><g><path d="M 5 -11.296875 L 5 -5.921875 C 5 -4.804688 5.164062 -4.015625 5.5 -3.546875 C 5.84375 -3.078125 6.414062 -2.84375 7.21875 -2.84375 C 8.03125 -2.84375 8.601562 -3.078125 8.9375 -3.546875 C 9.28125 -4.015625 9.453125 -4.804688 9.453125 -5.921875 L 9.453125 -11.296875 L 13.34375 -11.296875 L 13.34375 -4.984375 C 13.34375 -3.097656 12.851562 -1.738281 11.875 -0.90625 C 10.90625 -0.0820312 9.351562 0.328125 7.21875 0.328125 C 5.09375 0.328125 3.539062 -0.0820312 2.5625 -0.90625 C 1.59375 -1.738281 1.109375 -3.097656 1.109375 -4.984375 L 1.109375 -11.296875 Z M 5 -11.296875 "/></g></g></g><g fill="#004aad" fill-opacity="1"><g transform="translate(46.153573, 27.86761)"><g><path d="M 1.328125 0 L 1.328125 -11.296875 L 5.21875 -11.296875 L 5.21875 -9.671875 L 5.265625 -9.671875 C 5.296875 -9.734375 5.34375 -9.804688 5.40625 -9.890625 C 5.476562 -9.984375 5.625 -10.140625 5.84375 -10.359375 C 6.0625 -10.578125 6.296875 -10.773438 6.546875 -10.953125 C 6.796875 -11.128906 7.117188 -11.285156 7.515625 -11.421875 C 7.910156 -11.554688 8.3125 -11.625 8.71875 -11.625 C 9.144531 -11.625 9.5625 -11.566406 9.96875 -11.453125 C 10.382812 -11.335938 10.691406 -11.222656 10.890625 -11.109375 L 11.1875 -10.921875 L 9.5625 -7.625 C 9.070312 -8.03125 8.394531 -8.234375 7.53125 -8.234375 C 7.0625 -8.234375 6.65625 -8.128906 6.3125 -7.921875 C 5.976562 -7.722656 5.738281 -7.472656 5.59375 -7.171875 C 5.457031 -6.878906 5.359375 -6.628906 5.296875 -6.421875 C 5.242188 -6.222656 5.21875 -6.066406 5.21875 -5.953125 L 5.21875 0 Z M 1.328125 0 "/></g></g></g><g fill="#004aad" fill-opacity="1"><g transform="translate(57.999204, 27.86761)"><g><path d="M 6.234375 -11.625 C 6.878906 -11.625 7.515625 -11.550781 8.140625 -11.40625 C 8.773438 -11.257812 9.25 -11.113281 9.5625 -10.96875 L 10.03125 -10.75 L 8.75 -8.203125 C 7.863281 -8.671875 7.023438 -8.90625 6.234375 -8.90625 C 5.796875 -8.90625 5.484375 -8.851562 5.296875 -8.75 C 5.109375 -8.65625 5.015625 -8.476562 5.015625 -8.21875 C 5.015625 -8.15625 5.019531 -8.09375 5.03125 -8.03125 C 5.050781 -7.976562 5.082031 -7.925781 5.125 -7.875 C 5.175781 -7.820312 5.21875 -7.773438 5.25 -7.734375 C 5.289062 -7.703125 5.351562 -7.664062 5.4375 -7.625 C 5.53125 -7.582031 5.601562 -7.546875 5.65625 -7.515625 C 5.707031 -7.492188 5.789062 -7.460938 5.90625 -7.421875 C 6.019531 -7.378906 6.101562 -7.347656 6.15625 -7.328125 C 6.21875 -7.304688 6.316406 -7.269531 6.453125 -7.21875 C 6.597656 -7.175781 6.707031 -7.148438 6.78125 -7.140625 C 7.238281 -7.003906 7.632812 -6.851562 7.96875 -6.6875 C 8.3125 -6.53125 8.671875 -6.3125 9.046875 -6.03125 C 9.421875 -5.757812 9.707031 -5.410156 9.90625 -4.984375 C 10.113281 -4.554688 10.21875 -4.070312 10.21875 -3.53125 C 10.21875 -0.957031 8.4375 0.328125 4.875 0.328125 C 4.0625 0.328125 3.289062 0.203125 2.5625 -0.046875 C 1.832031 -0.296875 1.304688 -0.546875 0.984375 -0.796875 L 0.5 -1.1875 L 2.09375 -3.859375 C 2.207031 -3.753906 2.359375 -3.628906 2.546875 -3.484375 C 2.742188 -3.347656 3.09375 -3.160156 3.59375 -2.921875 C 4.09375 -2.679688 4.523438 -2.5625 4.890625 -2.5625 C 5.703125 -2.5625 6.109375 -2.832031 6.109375 -3.375 C 6.109375 -3.625 6.003906 -3.816406 5.796875 -3.953125 C 5.585938 -4.085938 5.238281 -4.242188 4.75 -4.421875 C 4.257812 -4.597656 3.875 -4.757812 3.59375 -4.90625 C 2.882812 -5.28125 2.320312 -5.695312 1.90625 -6.15625 C 1.5 -6.625 1.296875 -7.238281 1.296875 -8 C 1.296875 -9.144531 1.738281 -10.035156 2.625 -10.671875 C 3.519531 -11.304688 4.722656 -11.625 6.234375 -11.625 Z M 6.234375 -11.625 "/></g></g></g><g fill="#004aad" fill-opacity="1"><g transform="translate(69.712733, 27.86761)"><g><path d="M 12.75 -5.109375 L 4.5625 -5.109375 C 4.5625 -4.316406 4.816406 -3.726562 5.328125 -3.34375 C 5.847656 -2.96875 6.40625 -2.78125 7 -2.78125 C 7.632812 -2.78125 8.132812 -2.863281 8.5 -3.03125 C 8.875 -3.195312 9.296875 -3.53125 9.765625 -4.03125 L 12.578125 -2.625 C 11.398438 -0.65625 9.445312 0.328125 6.71875 0.328125 C 5.007812 0.328125 3.546875 -0.253906 2.328125 -1.421875 C 1.109375 -2.585938 0.5 -3.992188 0.5 -5.640625 C 0.5 -7.285156 1.109375 -8.691406 2.328125 -9.859375 C 3.546875 -11.035156 5.007812 -11.625 6.71875 -11.625 C 8.507812 -11.625 9.96875 -11.109375 11.09375 -10.078125 C 12.21875 -9.046875 12.78125 -7.566406 12.78125 -5.640625 C 12.78125 -5.378906 12.769531 -5.203125 12.75 -5.109375 Z M 4.671875 -7.265625 L 8.96875 -7.265625 C 8.875 -7.859375 8.640625 -8.3125 8.265625 -8.625 C 7.898438 -8.9375 7.421875 -9.09375 6.828125 -9.09375 C 6.179688 -9.09375 5.664062 -8.921875 5.28125 -8.578125 C 4.90625 -8.242188 4.703125 -7.804688 4.671875 -7.265625 Z M 4.671875 -7.265625 "/></g></g></g></svg>