<svg xmlns="http://www.w3.org/2000/svg" xmlns:xlink="http://www.w3.org/1999/xlink" width="112" zoomAndPan="magnify" viewBox="0 0 84 37.5" height="50" preserveAspectRatio="xMidYMid meet" version="1.0"><defs><g/></defs><g fill="#ff914d" fill-opacity="0.4"><g transform="translate(4.140535, 21.451043)"><g><path d="M 7.828125 -3.140625 L 2.796875 -3.140625 C 2.796875 -2.648438 2.953125 -2.285156 3.265625 -2.046875 C 3.585938 -1.816406 3.929688 -1.703125 4.296875 -1.703125 C 4.679688 -1.703125 4.988281 -1.753906 5.21875 -1.859375 C 5.445312 -1.960938 5.703125 -2.164062 5.984375 -2.46875 L 7.71875 -1.609375 C 7 -0.398438 5.800781 0.203125 4.125 0.203125 C 3.070312 0.203125 2.171875 -0.15625 1.421875 -0.875 C 0.679688 -1.59375 0.3125 -2.453125 0.3125 -3.453125 C 0.3125 -4.460938 0.679688 -5.328125 1.421875 -6.046875 C 2.171875 -6.773438 3.070312 -7.140625 4.125 -7.140625 C 5.21875 -7.140625 6.109375 -6.820312 6.796875 -6.1875 C 7.492188 -5.550781 7.84375 -4.640625 7.84375 -3.453125 C 7.84375 -3.296875 7.835938 -3.191406 7.828125 -3.140625 Z M 2.859375 -4.453125 L 5.5 -4.453125 C 5.445312 -4.816406 5.304688 -5.09375 5.078125 -5.28125 C 4.847656 -5.476562 4.550781 -5.578125 4.1875 -5.578125 C 3.789062 -5.578125 3.472656 -5.472656 3.234375 -5.265625 C 3.003906 -5.054688 2.878906 -4.785156 2.859375 -4.453125 Z M 2.859375 -4.453125 "/></g></g></g><g fill="#ff914d" fill-opacity="1"><g transform="translate(4.523684, 21.09375)"><g><path d="M 7.828125 -3.140625 L 2.796875 -3.140625 C 2.796875 -2.648438 2.953125 -2.285156 3.265625 -2.046875 C 3.585938 -1.816406 3.929688 -1.703125 4.296875 -1.703125 C 4.679688 -1.703125 4.988281 -1.753906 5.21875 -1.859375 C 5.445312 -1.960938 5.703125 -2.164062 5.984375 -2.46875 L 7.71875 -1.609375 C 7 -0.398438 5.800781 0.203125 4.125 0.203125 C 3.070312 0.203125 2.171875 -0.15625 1.421875 -0.875 C 0.679688 -1.59375 0.3125 -2.453125 0.3125 -3.453125 C 0.3125 -4.460938 0.679688 -5.328125 1.421875 -6.046875 C 2.171875 -6.773438 3.070312 -7.140625 4.125 -7.140625 C 5.21875 -7.140625 6.109375 -6.820312 6.796875 -6.1875 C 7.492188 -5.550781 7.84375 -4.640625 7.84375 -3.453125 C 7.84375 -3.296875 7.835938 -3.191406 7.828125 -3.140625 Z M 2.859375 -4.453125 L 5.5 -4.453125 C 5.445312 -4.816406 5.304688 -5.09375 5.078125 -5.28125 C 4.847656 -5.476562 4.550781 -5.578125 4.1875 -5.578125 C 3.789062 -5.578125 3.472656 -5.472656 3.234375 -5.265625 C 3.003906 -5.054688 2.878906 -4.785156 2.859375 -4.453125 Z M 2.859375 -4.453125 "/></g></g></g><g fill="#004aad" fill-opacity="0.4"><g transform="translate(13.344549, 21.451043)"><g><path d="M 0.8125 -11.15625 L 4.875 -11.15625 C 6.007812 -11.15625 6.925781 -10.859375 7.625 -10.265625 C 8.332031 -9.679688 8.6875 -8.832031 8.6875 -7.71875 C 8.6875 -6.601562 8.332031 -5.726562 7.625 -5.09375 C 6.914062 -4.457031 6 -4.140625 4.875 -4.140625 L 3.359375 -4.140625 L 3.359375 0 L 0.8125 0 Z M 3.359375 -6.15625 L 4.0625 -6.15625 C 4.632812 -6.15625 5.101562 -6.269531 5.46875 -6.5 C 5.832031 -6.738281 6.015625 -7.117188 6.015625 -7.640625 C 6.015625 -8.171875 5.832031 -8.550781 5.46875 -8.78125 C 5.101562 -9.007812 4.632812 -9.125 4.0625 -9.125 L 3.359375 -9.125 Z M 3.359375 -6.15625 "/></g></g></g><g fill="#004aad" fill-opacity="0.4"><g transform="translate(22.340474, 21.451043)"><g><path d="M 3.0625 -6.9375 L 3.0625 -3.640625 C 3.0625 -2.953125 3.164062 -2.460938 3.375 -2.171875 C 3.582031 -1.890625 3.929688 -1.75 4.421875 -1.75 C 4.921875 -1.75 5.273438 -1.890625 5.484375 -2.171875 C 5.691406 -2.460938 5.796875 -2.953125 5.796875 -3.640625 L 5.796875 -6.9375 L 8.1875 -6.9375 L 8.1875 -3.046875 C 8.1875 -1.898438 7.882812 -1.070312 7.28125 -0.5625 C 6.6875 -0.0507812 5.734375 0.203125 4.421875 0.203125 C 3.117188 0.203125 2.164062 -0.0507812 1.5625 -0.5625 C 0.96875 -1.070312 0.671875 -1.898438 0.671875 -3.046875 L 0.671875 -6.9375 Z M 3.0625 -6.9375 "/></g></g></g><g fill="#004aad" fill-opacity="0.4"><g transform="translate(31.201329, 21.451043)"><g><path d="M 0.8125 0 L 0.8125 -6.9375 L 3.203125 -6.9375 L 3.203125 -5.9375 L 3.234375 -5.9375 C 3.242188 -5.96875 3.269531 -6.007812 3.3125 -6.0625 C 3.351562 -6.125 3.441406 -6.222656 3.578125 -6.359375 C 3.710938 -6.492188 3.859375 -6.613281 4.015625 -6.71875 C 4.171875 -6.820312 4.367188 -6.914062 4.609375 -7 C 4.847656 -7.09375 5.097656 -7.140625 5.359375 -7.140625 C 5.617188 -7.140625 5.875 -7.101562 6.125 -7.03125 C 6.375 -6.957031 6.554688 -6.882812 6.671875 -6.8125 L 6.859375 -6.703125 L 5.859375 -4.671875 C 5.566406 -4.929688 5.15625 -5.0625 4.625 -5.0625 C 4.332031 -5.0625 4.082031 -4.992188 3.875 -4.859375 C 3.664062 -4.734375 3.519531 -4.582031 3.4375 -4.40625 C 3.351562 -4.226562 3.289062 -4.070312 3.25 -3.9375 C 3.21875 -3.8125 3.203125 -3.71875 3.203125 -3.65625 L 3.203125 0 Z M 0.8125 0 "/></g></g></g><g fill="#004aad" fill-opacity="0.4"><g transform="translate(37.928015, 21.451043)"><g><path d="M 3.828125 -7.140625 C 4.222656 -7.140625 4.613281 -7.09375 5 -7 C 5.382812 -6.90625 5.671875 -6.816406 5.859375 -6.734375 L 6.15625 -6.59375 L 5.359375 -5.03125 C 4.828125 -5.3125 4.316406 -5.453125 3.828125 -5.453125 C 3.554688 -5.453125 3.363281 -5.421875 3.25 -5.359375 C 3.132812 -5.304688 3.078125 -5.203125 3.078125 -5.046875 C 3.078125 -5.003906 3.082031 -4.960938 3.09375 -4.921875 C 3.101562 -4.890625 3.117188 -4.859375 3.140625 -4.828125 C 3.171875 -4.796875 3.195312 -4.769531 3.21875 -4.75 C 3.238281 -4.726562 3.273438 -4.703125 3.328125 -4.671875 C 3.390625 -4.648438 3.4375 -4.628906 3.46875 -4.609375 C 3.5 -4.597656 3.550781 -4.578125 3.625 -4.546875 C 3.695312 -4.523438 3.75 -4.503906 3.78125 -4.484375 C 3.820312 -4.472656 3.882812 -4.453125 3.96875 -4.421875 C 4.050781 -4.398438 4.113281 -4.382812 4.15625 -4.375 C 4.4375 -4.289062 4.679688 -4.195312 4.890625 -4.09375 C 5.097656 -4 5.316406 -3.867188 5.546875 -3.703125 C 5.773438 -3.535156 5.953125 -3.316406 6.078125 -3.046875 C 6.203125 -2.785156 6.265625 -2.488281 6.265625 -2.15625 C 6.265625 -0.582031 5.171875 0.203125 2.984375 0.203125 C 2.492188 0.203125 2.023438 0.128906 1.578125 -0.015625 C 1.128906 -0.171875 0.804688 -0.328125 0.609375 -0.484375 L 0.3125 -0.734375 L 1.28125 -2.359375 C 1.351562 -2.296875 1.445312 -2.222656 1.5625 -2.140625 C 1.6875 -2.054688 1.898438 -1.9375 2.203125 -1.78125 C 2.503906 -1.632812 2.769531 -1.5625 3 -1.5625 C 3.5 -1.5625 3.75 -1.726562 3.75 -2.0625 C 3.75 -2.21875 3.679688 -2.335938 3.546875 -2.421875 C 3.421875 -2.503906 3.207031 -2.597656 2.90625 -2.703125 C 2.601562 -2.816406 2.367188 -2.921875 2.203125 -3.015625 C 1.765625 -3.242188 1.421875 -3.5 1.171875 -3.78125 C 0.921875 -4.0625 0.796875 -4.4375 0.796875 -4.90625 C 0.796875 -5.601562 1.066406 -6.148438 1.609375 -6.546875 C 2.160156 -6.941406 2.898438 -7.140625 3.828125 -7.140625 Z M 3.828125 -7.140625 "/></g></g></g><g fill="#004aad" fill-opacity="0.4"><g transform="translate(44.573648, 21.451043)"><g><path d="M 7.828125 -3.140625 L 2.796875 -3.140625 C 2.796875 -2.648438 2.953125 -2.285156 3.265625 -2.046875 C 3.585938 -1.816406 3.929688 -1.703125 4.296875 -1.703125 C 4.679688 -1.703125 4.988281 -1.753906 5.21875 -1.859375 C 5.445312 -1.960938 5.703125 -2.164062 5.984375 -2.46875 L 7.71875 -1.609375 C 7 -0.398438 5.800781 0.203125 4.125 0.203125 C 3.070312 0.203125 2.171875 -0.15625 1.421875 -0.875 C 0.679688 -1.59375 0.3125 -2.453125 0.3125 -3.453125 C 0.3125 -4.460938 0.679688 -5.328125 1.421875 -6.046875 C 2.171875 -6.773438 3.070312 -7.140625 4.125 -7.140625 C 5.21875 -7.140625 6.109375 -6.820312 6.796875 -6.1875 C 7.492188 -5.550781 7.84375 -4.640625 7.84375 -3.453125 C 7.84375 -3.296875 7.835938 -3.191406 7.828125 -3.140625 Z M 2.859375 -4.453125 L 5.5 -4.453125 C 5.445312 -4.816406 5.304688 -5.09375 5.078125 -5.28125 C 4.847656 -5.476562 4.550781 -5.578125 4.1875 -5.578125 C 3.789062 -5.578125 3.472656 -5.472656 3.234375 -5.265625 C 3.003906 -5.054688 2.878906 -4.785156 2.859375 -4.453125 Z M 2.859375 -4.453125 "/></g></g></g><g fill="#004aad" fill-opacity="1"><g transform="translate(12.9614, 21.09375)"><g><path d="M 0.8125 -11.15625 L 4.875 -11.15625 C 6.007812 -11.15625 6.925781 -10.859375 7.625 -10.265625 C 8.332031 -9.679688 8.6875 -8.832031 8.6875 -7.71875 C 8.6875 -6.601562 8.332031 -5.726562 7.625 -5.09375 C 6.914062 -4.457031 6 -4.140625 4.875 -4.140625 L 3.359375 -4.140625 L 3.359375 0 L 0.8125 0 Z M 3.359375 -6.15625 L 4.0625 -6.15625 C 4.632812 -6.15625 5.101562 -6.269531 5.46875 -6.5 C 5.832031 -6.738281 6.015625 -7.117188 6.015625 -7.640625 C 6.015625 -8.171875 5.832031 -8.550781 5.46875 -8.78125 C 5.101562 -9.007812 4.632812 -9.125 4.0625 -9.125 L 3.359375 -9.125 Z M 3.359375 -6.15625 "/></g></g></g><g fill="#004aad" fill-opacity="1"><g transform="translate(21.957325, 21.09375)"><g><path d="M 3.0625 -6.9375 L 3.0625 -3.640625 C 3.0625 -2.953125 3.164062 -2.460938 3.375 -2.171875 C 3.582031 -1.890625 3.929688 -1.75 4.421875 -1.75 C 4.921875 -1.75 5.273438 -1.890625 5.484375 -2.171875 C 5.691406 -2.460938 5.796875 -2.953125 5.796875 -3.640625 L 5.796875 -6.9375 L 8.1875 -6.9375 L 8.1875 -3.046875 C 8.1875 -1.898438 7.882812 -1.070312 7.28125 -0.5625 C 6.6875 -0.0507812 5.734375 0.203125 4.421875 0.203125 C 3.117188 0.203125 2.164062 -0.0507812 1.5625 -0.5625 C 0.96875 -1.070312 0.671875 -1.898438 0.671875 -3.046875 L 0.671875 -6.9375 Z M 3.0625 -6.9375 "/></g></g></g><g fill="#004aad" fill-opacity="1"><g transform="translate(30.81818, 21.09375)"><g><path d="M 0.8125 0 L 0.8125 -6.9375 L 3.203125 -6.9375 L 3.203125 -5.9375 L 3.234375 -5.9375 C 3.242188 -5.96875 3.269531 -6.007812 3.3125 -6.0625 C 3.351562 -6.125 3.441406 -6.222656 3.578125 -6.359375 C 3.710938 -6.492188 3.859375 -6.613281 4.015625 -6.71875 C 4.171875 -6.820312 4.367188 -6.914062 4.609375 -7 C 4.847656 -7.09375 5.097656 -7.140625 5.359375 -7.140625 C 5.617188 -7.140625 5.875 -7.101562 6.125 -7.03125 C 6.375 -6.957031 6.554688 -6.882812 6.671875 -6.8125 L 6.859375 -6.703125 L 5.859375 -4.671875 C 5.566406 -4.929688 5.15625 -5.0625 4.625 -5.0625 C 4.332031 -5.0625 4.082031 -4.992188 3.875 -4.859375 C 3.664062 -4.734375 3.519531 -4.582031 3.4375 -4.40625 C 3.351562 -4.226562 3.289062 -4.070312 3.25 -3.9375 C 3.21875 -3.8125 3.203125 -3.71875 3.203125 -3.65625 L 3.203125 0 Z M 0.8125 0 "/></g></g></g><g fill="#004aad" fill-opacity="1"><g transform="translate(37.544866, 21.09375)"><g><path d="M 3.828125 -7.140625 C 4.222656 -7.140625 4.613281 -7.09375 5 -7 C 5.382812 -6.90625 5.671875 -6.816406 5.859375 -6.734375 L 6.15625 -6.59375 L 5.359375 -5.03125 C 4.828125 -5.3125 4.316406 -5.453125 3.828125 -5.453125 C 3.554688 -5.453125 3.363281 -5.421875 3.25 -5.359375 C 3.132812 -5.304688 3.078125 -5.203125 3.078125 -5.046875 C 3.078125 -5.003906 3.082031 -4.960938 3.09375 -4.921875 C 3.101562 -4.890625 3.117188 -4.859375 3.140625 -4.828125 C 3.171875 -4.796875 3.195312 -4.769531 3.21875 -4.75 C 3.238281 -4.726562 3.273438 -4.703125 3.328125 -4.671875 C 3.390625 -4.648438 3.4375 -4.628906 3.46875 -4.609375 C 3.5 -4.597656 3.550781 -4.578125 3.625 -4.546875 C 3.695312 -4.523438 3.75 -4.503906 3.78125 -4.484375 C 3.820312 -4.472656 3.882812 -4.453125 3.96875 -4.421875 C 4.050781 -4.398438 4.113281 -4.382812 4.15625 -4.375 C 4.4375 -4.289062 4.679688 -4.195312 4.890625 -4.09375 C 5.097656 -4 5.316406 -3.867188 5.546875 -3.703125 C 5.773438 -3.535156 5.953125 -3.316406 6.078125 -3.046875 C 6.203125 -2.785156 6.265625 -2.488281 6.265625 -2.15625 C 6.265625 -0.582031 5.171875 0.203125 2.984375 0.203125 C 2.492188 0.203125 2.023438 0.128906 1.578125 -0.015625 C 1.128906 -0.171875 0.804688 -0.328125 0.609375 -0.484375 L 0.3125 -0.734375 L 1.28125 -2.359375 C 1.351562 -2.296875 1.445312 -2.222656 1.5625 -2.140625 C 1.6875 -2.054688 1.898438 -1.9375 2.203125 -1.78125 C 2.503906 -1.632812 2.769531 -1.5625 3 -1.5625 C 3.5 -1.5625 3.75 -1.726562 3.75 -2.0625 C 3.75 -2.21875 3.679688 -2.335938 3.546875 -2.421875 C 3.421875 -2.503906 3.207031 -2.597656 2.90625 -2.703125 C 2.601562 -2.816406 2.367188 -2.921875 2.203125 -3.015625 C 1.765625 -3.242188 1.421875 -3.5 1.171875 -3.78125 C 0.921875 -4.0625 0.796875 -4.4375 0.796875 -4.90625 C 0.796875 -5.601562 1.066406 -6.148438 1.609375 -6.546875 C 2.160156 -6.941406 2.898438 -7.140625 3.828125 -7.140625 Z M 3.828125 -7.140625 "/></g></g></g><g fill="#004aad" fill-opacity="1"><g transform="translate(44.190499, 21.09375)"><g><path d="M 7.828125 -3.140625 L 2.796875 -3.140625 C 2.796875 -2.648438 2.953125 -2.285156 3.265625 -2.046875 C 3.585938 -1.816406 3.929688 -1.703125 4.296875 -1.703125 C 4.679688 -1.703125 4.988281 -1.753906 5.21875 -1.859375 C 5.445312 -1.960938 5.703125 -2.164062 5.984375 -2.46875 L 7.71875 -1.609375 C 7 -0.398438 5.800781 0.203125 4.125 0.203125 C 3.070312 0.203125 2.171875 -0.15625 1.421875 -0.875 C 0.679688 -1.59375 0.3125 -2.453125 0.3125 -3.453125 C 0.3125 -4.460938 0.679688 -5.328125 1.421875 -6.046875 C 2.171875 -6.773438 3.070312 -7.140625 4.125 -7.140625 C 5.21875 -7.140625 6.109375 -6.820312 6.796875 -6.1875 C 7.492188 -5.550781 7.84375 -4.640625 7.84375 -3.453125 C 7.84375 -3.296875 7.835938 -3.191406 7.828125 -3.140625 Z M 2.859375 -4.453125 L 5.5 -4.453125 C 5.445312 -4.816406 5.304688 -5.09375 5.078125 -5.28125 C 4.847656 -5.476562 4.550781 -5.578125 4.1875 -5.578125 C 3.789062 -5.578125 3.472656 -5.472656 3.234375 -5.265625 C 3.003906 -5.054688 2.878906 -4.785156 2.859375 -4.453125 Z M 2.859375 -4.453125 "/></g></g></g></svg>