<svg xmlns="http://www.w3.org/2000/svg" xmlns:xlink="http://www.w3.org/1999/xlink" width="50" zoomAndPan="magnify" viewBox="0 0 37.5 37.499999" height="50" preserveAspectRatio="xMidYMid meet" version="1.0"><defs><g/><clipPath id="e1ab6eb2dd"><path d="M 5.910156 2.359375 L 35.515625 2.359375 L 35.515625 37.007812 L 5.910156 37.007812 Z M 5.910156 2.359375 " clip-rule="nonzero"/></clipPath></defs><g clip-path="url(#e1ab6eb2dd)"><path fill="#000000" d="M 18.785156 34.289062 C 18.785156 34.402344 18.746094 34.5 18.667969 34.578125 C 18.585938 34.660156 18.492188 34.699219 18.378906 34.699219 L 14.878906 34.699219 C 14.769531 34.699219 14.671875 34.660156 14.59375 34.578125 C 14.511719 34.5 14.472656 34.402344 14.472656 34.289062 C 14.472656 34.175781 14.511719 34.078125 14.59375 33.996094 C 14.671875 33.917969 14.769531 33.878906 14.878906 33.878906 L 18.378906 33.878906 C 18.492188 33.878906 18.585938 33.917969 18.667969 33.996094 C 18.746094 34.078125 18.785156 34.175781 18.785156 34.289062 Z M 35.511719 19.816406 L 35.511719 25.25 C 35.511719 25.363281 35.472656 25.460938 35.394531 25.539062 C 35.3125 25.621094 35.21875 25.660156 35.105469 25.660156 L 34.5625 25.660156 L 34.5625 29.070312 C 34.5625 29.261719 34.527344 29.445312 34.453125 29.621094 C 34.378906 29.800781 34.277344 29.957031 34.140625 30.089844 C 34.007812 30.226562 33.851562 30.332031 33.675781 30.40625 C 33.5 30.480469 33.316406 30.515625 33.128906 30.515625 L 27.351562 30.515625 L 27.351562 34.425781 C 27.347656 34.785156 27.28125 35.132812 27.144531 35.464844 C 27.007812 35.792969 26.8125 36.085938 26.5625 36.339844 C 26.308594 36.59375 26.019531 36.792969 25.691406 36.929688 C 25.363281 37.066406 25.019531 37.136719 24.664062 37.136719 L 8.597656 37.136719 C 8.238281 37.136719 7.898438 37.066406 7.566406 36.929688 C 7.238281 36.792969 6.949219 36.59375 6.695312 36.339844 C 6.445312 36.085938 6.25 35.792969 6.113281 35.464844 C 5.976562 35.132812 5.910156 34.785156 5.910156 34.425781 L 5.910156 5.074219 C 5.910156 4.714844 5.976562 4.371094 6.113281 4.039062 C 6.25 3.707031 6.445312 3.414062 6.695312 3.160156 C 6.949219 2.90625 7.238281 2.710938 7.566406 2.574219 C 7.898438 2.433594 8.238281 2.367188 8.597656 2.367188 L 24.664062 2.367188 C 25.019531 2.367188 25.363281 2.433594 25.691406 2.574219 C 26.019531 2.710938 26.308594 2.90625 26.5625 3.160156 C 26.8125 3.414062 27.007812 3.707031 27.144531 4.039062 C 27.28125 4.371094 27.347656 4.714844 27.347656 5.074219 L 27.347656 10.820312 L 28.011719 10.515625 C 28.152344 10.453125 28.296875 10.421875 28.449219 10.414062 C 28.601562 10.410156 28.746094 10.433594 28.890625 10.488281 C 29.03125 10.542969 29.15625 10.625 29.269531 10.726562 C 29.378906 10.832031 29.464844 10.957031 29.527344 11.09375 L 31.074219 14.550781 L 33.128906 14.550781 C 33.316406 14.550781 33.5 14.585938 33.675781 14.660156 C 33.851562 14.734375 34.007812 14.839844 34.140625 14.972656 C 34.277344 15.109375 34.378906 15.265625 34.453125 15.445312 C 34.523438 15.621094 34.5625 15.804688 34.5625 15.996094 L 34.5625 19.40625 L 35.105469 19.40625 C 35.21875 19.40625 35.3125 19.445312 35.394531 19.527344 C 35.472656 19.605469 35.511719 19.703125 35.511719 19.816406 Z M 21.136719 14.550781 L 30.183594 14.550781 L 28.785156 11.433594 C 28.75 11.347656 28.6875 11.289062 28.601562 11.257812 C 28.515625 11.226562 28.429688 11.226562 28.347656 11.265625 Z M 19.15625 14.550781 L 25.257812 11.769531 L 23.761719 9.890625 C 23.671875 9.777344 23.566406 9.765625 23.453125 9.855469 L 17.644531 14.550781 Z M 6.722656 5.074219 L 6.722656 6.339844 L 26.535156 6.339844 L 26.535156 5.074219 C 26.535156 4.824219 26.488281 4.582031 26.390625 4.351562 C 26.296875 4.121094 26.160156 3.917969 25.984375 3.742188 C 25.8125 3.5625 25.609375 3.425781 25.378906 3.332031 C 25.148438 3.234375 24.910156 3.1875 24.664062 3.1875 L 8.597656 3.1875 C 8.347656 3.1875 8.109375 3.234375 7.878906 3.332031 C 7.652344 3.425781 7.449219 3.5625 7.273438 3.742188 C 7.097656 3.917969 6.960938 4.121094 6.867188 4.351562 C 6.773438 4.582031 6.722656 4.824219 6.722656 5.074219 Z M 26.535156 34.425781 L 26.535156 32.507812 L 6.722656 32.507812 L 6.722656 34.425781 C 6.722656 34.675781 6.773438 34.917969 6.867188 35.148438 C 6.960938 35.378906 7.097656 35.585938 7.273438 35.761719 C 7.449219 35.9375 7.652344 36.074219 7.878906 36.171875 C 8.109375 36.265625 8.347656 36.316406 8.597656 36.316406 L 24.664062 36.316406 C 24.910156 36.316406 25.148438 36.265625 25.378906 36.171875 C 25.609375 36.074219 25.8125 35.9375 25.984375 35.761719 C 26.160156 35.585938 26.296875 35.378906 26.390625 35.148438 C 26.488281 34.917969 26.535156 34.675781 26.535156 34.425781 Z M 26.535156 30.515625 L 14.207031 30.515625 C 14.015625 30.515625 13.832031 30.480469 13.65625 30.40625 C 13.480469 30.332031 13.324219 30.226562 13.191406 30.089844 C 13.058594 29.957031 12.953125 29.800781 12.878906 29.621094 C 12.808594 29.445312 12.769531 29.261719 12.769531 29.070312 L 12.769531 15.996094 C 12.769531 15.804688 12.808594 15.621094 12.878906 15.445312 C 12.953125 15.265625 13.058594 15.109375 13.191406 14.972656 C 13.324219 14.839844 13.480469 14.734375 13.65625 14.660156 C 13.832031 14.585938 14.015625 14.550781 14.207031 14.550781 L 16.34375 14.550781 L 22.945312 9.214844 C 23.050781 9.128906 23.171875 9.066406 23.300781 9.027344 C 23.433594 8.988281 23.566406 8.976562 23.703125 8.992188 C 23.839844 9.007812 23.96875 9.046875 24.089844 9.113281 C 24.207031 9.179688 24.3125 9.269531 24.398438 9.375 L 26.023438 11.421875 L 26.535156 11.191406 L 26.535156 7.160156 L 6.722656 7.160156 L 6.722656 31.6875 L 26.535156 31.6875 Z M 33.746094 25.660156 L 29.214844 25.660156 C 28.800781 25.660156 28.40625 25.582031 28.023438 25.425781 C 27.640625 25.269531 27.304688 25.042969 27.011719 24.75 C 26.71875 24.457031 26.496094 24.117188 26.335938 23.734375 C 26.179688 23.347656 26.097656 22.949219 26.097656 22.53125 C 26.097656 22.117188 26.179688 21.71875 26.335938 21.332031 C 26.496094 20.949219 26.71875 20.609375 27.011719 20.316406 C 27.304688 20.023438 27.640625 19.796875 28.023438 19.640625 C 28.40625 19.480469 28.800781 19.40625 29.214844 19.40625 L 33.746094 19.40625 L 33.746094 15.996094 C 33.746094 15.824219 33.6875 15.675781 33.566406 15.554688 C 33.445312 15.433594 33.296875 15.371094 33.128906 15.371094 L 14.207031 15.371094 C 14.035156 15.371094 13.886719 15.433594 13.765625 15.554688 C 13.644531 15.675781 13.585938 15.824219 13.585938 15.996094 L 13.585938 29.070312 C 13.585938 29.242188 13.644531 29.390625 13.765625 29.511719 C 13.886719 29.632812 14.035156 29.695312 14.207031 29.695312 L 33.128906 29.695312 C 33.296875 29.695312 33.445312 29.632812 33.566406 29.511719 C 33.6875 29.390625 33.746094 29.242188 33.746094 29.070312 Z M 34.699219 20.226562 L 29.214844 20.226562 C 28.910156 20.226562 28.617188 20.285156 28.335938 20.398438 C 28.054688 20.515625 27.804688 20.683594 27.589844 20.898438 C 27.375 21.113281 27.207031 21.363281 27.089844 21.648438 C 26.972656 21.929688 26.914062 22.226562 26.914062 22.53125 C 26.914062 22.839844 26.972656 23.136719 27.089844 23.417969 C 27.207031 23.703125 27.375 23.949219 27.589844 24.167969 C 27.804688 24.382812 28.054688 24.550781 28.335938 24.667969 C 28.617188 24.78125 28.910156 24.839844 29.214844 24.839844 L 34.699219 24.839844 Z M 30.78125 22.53125 C 30.78125 22.746094 30.742188 22.949219 30.660156 23.144531 C 30.582031 23.339844 30.46875 23.511719 30.320312 23.660156 C 30.171875 23.8125 30 23.925781 29.804688 24.007812 C 29.613281 24.089844 29.410156 24.128906 29.199219 24.128906 C 28.992188 24.128906 28.789062 24.089844 28.59375 24.007812 C 28.402344 23.925781 28.230469 23.8125 28.082031 23.660156 C 27.933594 23.511719 27.820312 23.339844 27.738281 23.144531 C 27.660156 22.949219 27.617188 22.746094 27.617188 22.53125 C 27.617188 22.320312 27.660156 22.117188 27.738281 21.921875 C 27.820312 21.726562 27.933594 21.554688 28.082031 21.40625 C 28.230469 21.253906 28.402344 21.140625 28.59375 21.058594 C 28.789062 20.976562 28.992188 20.9375 29.199219 20.9375 C 29.410156 20.9375 29.613281 20.976562 29.804688 21.058594 C 30 21.140625 30.171875 21.253906 30.320312 21.40625 C 30.46875 21.554688 30.582031 21.726562 30.660156 21.921875 C 30.742188 22.117188 30.78125 22.320312 30.78125 22.53125 Z M 29.96875 22.53125 C 29.96875 22.320312 29.894531 22.136719 29.742188 21.984375 C 29.59375 21.835938 29.414062 21.757812 29.199219 21.757812 C 28.988281 21.757812 28.808594 21.835938 28.65625 21.984375 C 28.507812 22.136719 28.433594 22.320312 28.433594 22.53125 C 28.433594 22.746094 28.507812 22.929688 28.65625 23.082031 C 28.808594 23.230469 28.988281 23.308594 29.199219 23.308594 C 29.414062 23.308594 29.59375 23.230469 29.742188 23.082031 C 29.894531 22.929688 29.96875 22.746094 29.96875 22.53125 Z M 29.96875 22.53125 " fill-opacity="1" fill-rule="nonzero"/></g><g fill="#000000" fill-opacity="1"><g transform="translate(18.503289, 32.793789)"><g><path d="M 0.59375 -0.96875 C 0.6875 -0.96875 0.769531 -0.945312 0.84375 -0.90625 C 0.914062 -0.863281 0.972656 -0.800781 1.015625 -0.71875 C 1.054688 -0.644531 1.078125 -0.566406 1.078125 -0.484375 L 1.078125 -0.0625 C 1.078125 -0.0390625 1.070312 -0.0234375 1.0625 -0.015625 C 1.050781 -0.00390625 1.035156 0 1.015625 0 C 0.992188 0 0.972656 -0.00390625 0.953125 -0.015625 C 0.941406 -0.0234375 0.9375 -0.0390625 0.9375 -0.0625 L 0.9375 -0.171875 C 0.894531 -0.117188 0.84375 -0.0703125 0.78125 -0.03125 C 0.71875 0 0.648438 0.015625 0.578125 0.015625 C 0.492188 0.015625 0.414062 -0.00390625 0.34375 -0.046875 C 0.269531 -0.0976562 0.210938 -0.160156 0.171875 -0.234375 C 0.128906 -0.304688 0.109375 -0.390625 0.109375 -0.484375 C 0.109375 -0.566406 0.128906 -0.644531 0.171875 -0.71875 C 0.210938 -0.800781 0.269531 -0.863281 0.34375 -0.90625 C 0.414062 -0.945312 0.5 -0.96875 0.59375 -0.96875 Z M 0.59375 -0.109375 C 0.65625 -0.109375 0.710938 -0.125 0.765625 -0.15625 C 0.828125 -0.1875 0.875 -0.226562 0.90625 -0.28125 C 0.9375 -0.34375 0.953125 -0.410156 0.953125 -0.484375 C 0.953125 -0.546875 0.9375 -0.601562 0.90625 -0.65625 C 0.875 -0.71875 0.828125 -0.765625 0.765625 -0.796875 C 0.710938 -0.828125 0.65625 -0.84375 0.59375 -0.84375 C 0.53125 -0.84375 0.46875 -0.828125 0.40625 -0.796875 C 0.351562 -0.765625 0.3125 -0.71875 0.28125 -0.65625 C 0.25 -0.601562 0.234375 -0.546875 0.234375 -0.484375 C 0.234375 -0.410156 0.25 -0.34375 0.28125 -0.28125 C 0.3125 -0.226562 0.351562 -0.1875 0.40625 -0.15625 C 0.46875 -0.125 0.53125 -0.109375 0.59375 -0.109375 Z M 0.59375 -0.109375 "/></g></g></g></svg>