<svg xmlns="http://www.w3.org/2000/svg" xmlns:xlink="http://www.w3.org/1999/xlink" width="50" zoomAndPan="magnify" viewBox="0 0 37.5 37.499999" height="50" preserveAspectRatio="xMidYMid meet" version="1.0"><defs><g/><clipPath id="9039d2f455"><path d="M 4.207031 1.484375 L 33.070312 1.484375 L 33.070312 35.53125 L 4.207031 35.53125 Z M 4.207031 1.484375 " clip-rule="nonzero"/></clipPath></defs><g clip-path="url(#9039d2f455)"><path fill="#000000" d="M 18.640625 6.976562 C 20.789062 6.976562 22.761719 7.738281 24.292969 9 L 30.265625 3.082031 L 24.316406 3.082031 C 23.871094 3.082031 23.511719 2.726562 23.511719 2.285156 C 23.511719 1.84375 23.871094 1.488281 24.316406 1.488281 L 32.210938 1.488281 C 32.65625 1.488281 33.015625 1.84375 33.015625 2.285156 L 33.015625 10.105469 C 33.015625 10.546875 32.65625 10.902344 32.210938 10.902344 C 31.765625 10.902344 31.402344 10.546875 31.402344 10.105469 L 31.402344 4.210938 L 25.429688 10.128906 C 26.707031 11.644531 27.472656 13.597656 27.472656 15.726562 C 27.472656 18.144531 26.484375 20.328125 24.886719 21.914062 C 23.464844 23.320312 21.5625 24.25 19.441406 24.441406 L 19.441406 28.191406 L 22.75 28.191406 C 23.195312 28.191406 23.554688 28.550781 23.554688 28.988281 C 23.554688 29.429688 23.195312 29.789062 22.75 29.789062 L 19.441406 29.789062 L 19.441406 34.734375 C 19.441406 35.175781 19.082031 35.53125 18.640625 35.53125 C 18.199219 35.53125 17.839844 35.175781 17.839844 34.734375 L 17.839844 29.789062 L 14.53125 29.789062 C 14.085938 29.789062 13.726562 29.429688 13.726562 28.988281 C 13.726562 28.550781 14.085938 28.191406 14.53125 28.191406 L 17.839844 28.191406 L 17.839844 24.441406 C 15.71875 24.25 13.816406 23.320312 12.394531 21.914062 C 10.796875 20.328125 9.808594 18.144531 9.808594 15.726562 C 9.808594 13.597656 10.574219 11.644531 11.851562 10.128906 L 10.316406 8.609375 L 8.375 10.535156 C 8.0625 10.84375 7.550781 10.84375 7.238281 10.535156 C 6.921875 10.222656 6.921875 9.714844 7.238281 9.40625 L 9.175781 7.484375 L 5.875 4.210938 L 5.875 10.105469 C 5.875 10.546875 5.515625 10.902344 5.070312 10.902344 C 4.625 10.902344 4.265625 10.546875 4.265625 10.105469 L 4.265625 2.285156 C 4.265625 1.847656 4.625 1.488281 5.070312 1.488281 L 12.964844 1.488281 C 13.40625 1.488281 13.769531 1.847656 13.769531 2.285156 C 13.769531 2.726562 13.40625 3.085938 12.964844 3.085938 L 7.011719 3.085938 L 10.316406 6.355469 L 12.257812 4.433594 C 12.570312 4.121094 13.082031 4.121094 13.394531 4.433594 C 13.710938 4.746094 13.710938 5.25 13.394531 5.5625 L 11.453125 7.484375 L 12.988281 9.003906 C 14.519531 7.742188 16.488281 6.980469 18.636719 6.980469 Z M 23.75 10.667969 C 22.441406 9.375 20.636719 8.574219 18.640625 8.574219 C 16.648438 8.574219 14.84375 9.375 13.535156 10.667969 C 12.230469 11.964844 11.421875 13.75 11.421875 15.726562 C 11.421875 17.703125 12.230469 19.492188 13.535156 20.785156 C 14.84375 22.082031 16.648438 22.882812 18.640625 22.882812 C 20.636719 22.882812 22.441406 22.082031 23.75 20.785156 C 25.054688 19.492188 25.863281 17.703125 25.863281 15.726562 C 25.863281 13.753906 25.054688 11.964844 23.75 10.667969 Z M 23.75 10.667969 " fill-opacity="1" fill-rule="nonzero"/></g><g fill="#ffffff" fill-opacity="1"><g transform="translate(0.0000005, 36.494446)"><g><path d="M 0.59375 -0.96875 C 0.6875 -0.96875 0.769531 -0.945312 0.84375 -0.90625 C 0.914062 -0.863281 0.972656 -0.800781 1.015625 -0.71875 C 1.054688 -0.644531 1.078125 -0.566406 1.078125 -0.484375 L 1.078125 -0.0625 C 1.078125 -0.0390625 1.070312 -0.0234375 1.0625 -0.015625 C 1.050781 -0.00390625 1.035156 0 1.015625 0 C 0.992188 0 0.972656 -0.00390625 0.953125 -0.015625 C 0.941406 -0.0234375 0.9375 -0.0390625 0.9375 -0.0625 L 0.9375 -0.171875 C 0.894531 -0.117188 0.84375 -0.0703125 0.78125 -0.03125 C 0.71875 0 0.648438 0.015625 0.578125 0.015625 C 0.492188 0.015625 0.414062 -0.00390625 0.34375 -0.046875 C 0.269531 -0.0976562 0.210938 -0.160156 0.171875 -0.234375 C 0.128906 -0.304688 0.109375 -0.390625 0.109375 -0.484375 C 0.109375 -0.566406 0.128906 -0.644531 0.171875 -0.71875 C 0.210938 -0.800781 0.269531 -0.863281 0.34375 -0.90625 C 0.414062 -0.945312 0.5 -0.96875 0.59375 -0.96875 Z M 0.59375 -0.109375 C 0.65625 -0.109375 0.710938 -0.125 0.765625 -0.15625 C 0.828125 -0.1875 0.875 -0.226562 0.90625 -0.28125 C 0.9375 -0.34375 0.953125 -0.410156 0.953125 -0.484375 C 0.953125 -0.546875 0.9375 -0.601562 0.90625 -0.65625 C 0.875 -0.71875 0.828125 -0.765625 0.765625 -0.796875 C 0.710938 -0.828125 0.65625 -0.84375 0.59375 -0.84375 C 0.53125 -0.84375 0.46875 -0.828125 0.40625 -0.796875 C 0.351562 -0.765625 0.3125 -0.71875 0.28125 -0.65625 C 0.25 -0.601562 0.234375 -0.546875 0.234375 -0.484375 C 0.234375 -0.410156 0.25 -0.34375 0.28125 -0.28125 C 0.3125 -0.226562 0.351562 -0.1875 0.40625 -0.15625 C 0.46875 -0.125 0.53125 -0.109375 0.59375 -0.109375 Z M 0.59375 -0.109375 "/></g></g></g></svg>