<svg xmlns="http://www.w3.org/2000/svg" xmlns:xlink="http://www.w3.org/1999/xlink" width="50" zoomAndPan="magnify" viewBox="0 0 37.5 37.499999" height="50" preserveAspectRatio="xMidYMid meet" version="1.0"><defs><g/><clipPath id="0eaa6c9f66"><path d="M 3 7 L 21 7 L 21 33.59375 L 3 33.59375 Z M 3 7 " clip-rule="nonzero"/></clipPath><clipPath id="99981199c7"><path d="M 12 3.25 L 34.082031 3.25 L 34.082031 25 L 12 25 Z M 12 3.25 " clip-rule="nonzero"/></clipPath></defs><g clip-path="url(#0eaa6c9f66)"><path fill="#212223" d="M 20.757812 16.398438 C 20.757812 14.824219 20.351562 13.359375 19.539062 12.007812 C 18.492188 12.289062 17.65625 12.871094 17.03125 13.75 C 17.476562 14.578125 17.699219 15.460938 17.699219 16.398438 C 17.699219 16.761719 17.664062 17.125 17.589844 17.484375 C 17.519531 17.84375 17.414062 18.191406 17.269531 18.527344 C 17.128906 18.863281 16.957031 19.183594 16.753906 19.488281 C 16.546875 19.792969 16.316406 20.074219 16.054688 20.332031 C 15.796875 20.589844 15.511719 20.820312 15.207031 21.023438 C 14.898438 21.226562 14.578125 21.398438 14.238281 21.539062 C 13.894531 21.679688 13.546875 21.785156 13.183594 21.855469 C 12.824219 21.925781 12.457031 21.960938 12.089844 21.960938 C 11.722656 21.960938 11.359375 21.925781 10.996094 21.855469 C 10.636719 21.785156 10.285156 21.679688 9.945312 21.539062 C 9.605469 21.398438 9.28125 21.226562 8.976562 21.023438 C 8.667969 20.820312 8.386719 20.589844 8.125 20.332031 C 7.863281 20.074219 7.632812 19.792969 7.429688 19.488281 C 7.222656 19.183594 7.050781 18.863281 6.910156 18.527344 C 6.769531 18.191406 6.664062 17.84375 6.589844 17.484375 C 6.519531 17.125 6.484375 16.761719 6.484375 16.398438 C 6.484375 16.03125 6.519531 15.671875 6.589844 15.3125 C 6.664062 14.953125 6.769531 14.605469 6.910156 14.269531 C 7.050781 13.933594 7.222656 13.609375 7.429688 13.308594 C 7.632812 13.003906 7.863281 12.722656 8.125 12.464844 C 8.386719 12.207031 8.667969 11.976562 8.976562 11.773438 C 9.28125 11.570312 9.605469 11.398438 9.945312 11.257812 C 10.285156 11.117188 10.636719 11.011719 10.996094 10.941406 C 11.359375 10.871094 11.722656 10.835938 12.089844 10.835938 C 12.335938 10.835938 12.582031 10.851562 12.824219 10.878906 C 13.511719 9.910156 14.351562 9.09375 15.34375 8.433594 C 14.300781 8.007812 13.21875 7.796875 12.089844 7.800781 C 11.554688 7.800781 11.023438 7.847656 10.496094 7.945312 C 9.96875 8.042969 9.453125 8.191406 8.953125 8.382812 C 8.453125 8.574219 7.972656 8.8125 7.519531 9.09375 C 7.0625 9.375 6.636719 9.695312 6.242188 10.054688 C 5.84375 10.410156 5.484375 10.804688 5.164062 11.230469 C 4.839844 11.65625 4.558594 12.105469 4.320312 12.585938 C 4.085938 13.0625 3.894531 13.554688 3.746094 14.070312 C 3.601562 14.582031 3.507812 15.101562 3.457031 15.632812 C 3.410156 16.164062 3.414062 16.695312 3.464844 17.222656 C 3.515625 17.753906 3.617188 18.273438 3.765625 18.785156 C 3.914062 19.296875 4.109375 19.789062 4.351562 20.265625 C 4.59375 20.742188 4.878906 21.191406 5.203125 21.613281 C 5.53125 22.035156 5.890625 22.425781 6.289062 22.78125 C 6.691406 23.136719 7.117188 23.453125 7.578125 23.730469 C 8.035156 24.007812 8.515625 24.242188 9.015625 24.429688 C 9.519531 24.621094 10.03125 24.761719 10.5625 24.855469 L 10.5625 28.03125 L 9.542969 28.03125 C 9.402344 28.03125 9.28125 28.082031 9.183594 28.179688 C 9.082031 28.277344 9.03125 28.398438 9.03125 28.535156 L 9.03125 30.558594 C 9.03125 30.699219 9.082031 30.816406 9.183594 30.917969 C 9.28125 31.015625 9.402344 31.066406 9.542969 31.066406 L 10.5625 31.066406 L 10.5625 33.089844 C 10.5625 33.226562 10.613281 33.347656 10.710938 33.445312 C 10.808594 33.542969 10.929688 33.59375 11.070312 33.59375 L 13.109375 33.59375 C 13.25 33.59375 13.371094 33.542969 13.46875 33.445312 C 13.570312 33.347656 13.621094 33.226562 13.621094 33.089844 L 13.621094 31.066406 L 14.640625 31.066406 C 14.78125 31.066406 14.898438 31.015625 15 30.917969 C 15.097656 30.816406 15.148438 30.699219 15.148438 30.558594 L 15.148438 28.535156 C 15.148438 28.398438 15.097656 28.277344 15 28.179688 C 14.898438 28.082031 14.78125 28.03125 14.640625 28.03125 L 13.621094 28.03125 L 13.621094 24.855469 C 14.117188 24.765625 14.601562 24.636719 15.074219 24.464844 C 15.546875 24.292969 16.003906 24.078125 16.4375 23.828125 C 16.875 23.578125 17.285156 23.292969 17.671875 22.96875 C 18.058594 22.648438 18.410156 22.292969 18.734375 21.910156 C 19.058594 21.527344 19.347656 21.121094 19.597656 20.6875 C 19.851562 20.253906 20.0625 19.800781 20.234375 19.332031 C 20.40625 18.859375 20.535156 18.378906 20.625 17.886719 C 20.710938 17.394531 20.757812 16.898438 20.757812 16.398438 Z M 20.757812 16.398438 " fill-opacity="1" fill-rule="nonzero"/></g><g clip-path="url(#99981199c7)"><path fill="#212223" d="M 33.5 3.25 L 27.382812 3.25 C 27.242188 3.25 27.125 3.296875 27.023438 3.398438 C 26.925781 3.496094 26.875 3.613281 26.875 3.753906 L 26.875 5.777344 C 26.875 5.917969 26.925781 6.035156 27.023438 6.132812 C 27.125 6.234375 27.242188 6.28125 27.382812 6.28125 L 28.703125 6.28125 L 25.652344 9.3125 C 24.179688 8.300781 22.546875 7.796875 20.757812 7.800781 C 19.992188 7.800781 19.238281 7.898438 18.5 8.097656 C 17.761719 8.292969 17.0625 8.582031 16.398438 8.964844 C 15.738281 9.34375 15.136719 9.804688 14.597656 10.34375 C 14.0625 10.882812 13.601562 11.484375 13.222656 12.144531 C 12.84375 12.804688 12.558594 13.5 12.367188 14.238281 C 12.175781 14.972656 12.082031 15.71875 12.089844 16.476562 C 12.097656 17.238281 12.207031 17.980469 12.414062 18.714844 C 12.617188 19.445312 12.917969 20.136719 13.308594 20.789062 C 14.351562 20.503906 15.191406 19.925781 15.820312 19.054688 C 15.628906 18.699219 15.472656 18.328125 15.359375 17.9375 C 15.246094 17.550781 15.179688 17.152344 15.152344 16.75 C 15.125 16.347656 15.144531 15.945312 15.207031 15.542969 C 15.269531 15.144531 15.375 14.757812 15.519531 14.378906 C 15.667969 14.003906 15.855469 13.644531 16.082031 13.308594 C 16.308594 12.972656 16.566406 12.664062 16.859375 12.382812 C 17.152344 12.101562 17.476562 11.855469 17.824219 11.644531 C 18.171875 11.433594 18.535156 11.261719 18.921875 11.128906 C 19.308594 11 19.703125 10.910156 20.109375 10.863281 C 20.511719 10.816406 20.917969 10.8125 21.324219 10.855469 C 21.730469 10.894531 22.125 10.980469 22.511719 11.105469 C 22.898438 11.234375 23.269531 11.402344 23.617188 11.605469 C 23.96875 11.8125 24.292969 12.054688 24.589844 12.332031 C 24.886719 12.609375 25.152344 12.914062 25.382812 13.246094 C 25.613281 13.582031 25.804688 13.933594 25.957031 14.308594 C 26.109375 14.683594 26.21875 15.070312 26.285156 15.472656 C 26.355469 15.871094 26.378906 16.269531 26.355469 16.675781 C 26.335938 17.078125 26.273438 17.476562 26.164062 17.867188 C 26.058594 18.257812 25.90625 18.628906 25.71875 18.988281 C 25.527344 19.347656 25.300781 19.679688 25.039062 19.988281 C 24.773438 20.296875 24.480469 20.574219 24.15625 20.820312 C 23.832031 21.066406 23.488281 21.273438 23.117188 21.441406 C 22.746094 21.613281 22.363281 21.742188 21.964844 21.828125 C 21.566406 21.917969 21.164062 21.960938 20.757812 21.960938 C 20.507812 21.960938 20.261719 21.945312 20.019531 21.910156 C 19.332031 22.882812 18.488281 23.699219 17.496094 24.359375 C 18.539062 24.785156 19.628906 24.996094 20.757812 24.996094 C 21.324219 24.996094 21.890625 24.941406 22.445312 24.828125 C 23.003906 24.71875 23.546875 24.554688 24.070312 24.339844 C 24.597656 24.121094 25.097656 23.855469 25.570312 23.542969 C 26.042969 23.230469 26.480469 22.875 26.882812 22.472656 C 27.285156 22.074219 27.644531 21.640625 27.957031 21.171875 C 28.273438 20.703125 28.542969 20.207031 28.761719 19.6875 C 28.976562 19.164062 29.144531 18.628906 29.253906 18.074219 C 29.367188 17.519531 29.421875 16.960938 29.421875 16.398438 C 29.425781 14.621094 28.917969 13.003906 27.898438 11.542969 L 30.953125 8.511719 L 30.953125 9.824219 C 30.953125 9.964844 31.003906 10.082031 31.101562 10.179688 C 31.203125 10.277344 31.320312 10.328125 31.460938 10.328125 L 33.5 10.328125 C 33.640625 10.328125 33.761719 10.277344 33.863281 10.179688 C 33.960938 10.082031 34.011719 9.964844 34.011719 9.824219 L 34.011719 3.753906 C 34.011719 3.613281 33.960938 3.496094 33.863281 3.398438 C 33.761719 3.296875 33.640625 3.25 33.5 3.25 Z M 33.5 3.25 " fill-opacity="1" fill-rule="nonzero"/></g><g fill="#ffffff" fill-opacity="1"><g transform="translate(0.0000005, 36.494446)"><g><path d="M 0.59375 -0.96875 C 0.6875 -0.96875 0.769531 -0.945312 0.84375 -0.90625 C 0.914062 -0.863281 0.972656 -0.800781 1.015625 -0.71875 C 1.054688 -0.644531 1.078125 -0.566406 1.078125 -0.484375 L 1.078125 -0.0625 C 1.078125 -0.0390625 1.070312 -0.0234375 1.0625 -0.015625 C 1.050781 -0.00390625 1.035156 0 1.015625 0 C 0.992188 0 0.972656 -0.00390625 0.953125 -0.015625 C 0.941406 -0.0234375 0.9375 -0.0390625 0.9375 -0.0625 L 0.9375 -0.171875 C 0.894531 -0.117188 0.84375 -0.0703125 0.78125 -0.03125 C 0.71875 0 0.648438 0.015625 0.578125 0.015625 C 0.492188 0.015625 0.414062 -0.00390625 0.34375 -0.046875 C 0.269531 -0.0976562 0.210938 -0.160156 0.171875 -0.234375 C 0.128906 -0.304688 0.109375 -0.390625 0.109375 -0.484375 C 0.109375 -0.566406 0.128906 -0.644531 0.171875 -0.71875 C 0.210938 -0.800781 0.269531 -0.863281 0.34375 -0.90625 C 0.414062 -0.945312 0.5 -0.96875 0.59375 -0.96875 Z M 0.59375 -0.109375 C 0.65625 -0.109375 0.710938 -0.125 0.765625 -0.15625 C 0.828125 -0.1875 0.875 -0.226562 0.90625 -0.28125 C 0.9375 -0.34375 0.953125 -0.410156 0.953125 -0.484375 C 0.953125 -0.546875 0.9375 -0.601562 0.90625 -0.65625 C 0.875 -0.71875 0.828125 -0.765625 0.765625 -0.796875 C 0.710938 -0.828125 0.65625 -0.84375 0.59375 -0.84375 C 0.53125 -0.84375 0.46875 -0.828125 0.40625 -0.796875 C 0.351562 -0.765625 0.3125 -0.71875 0.28125 -0.65625 C 0.25 -0.601562 0.234375 -0.546875 0.234375 -0.484375 C 0.234375 -0.410156 0.25 -0.34375 0.28125 -0.28125 C 0.3125 -0.226562 0.351562 -0.1875 0.40625 -0.15625 C 0.46875 -0.125 0.53125 -0.109375 0.59375 -0.109375 Z M 0.59375 -0.109375 "/></g></g></g></svg>