<svg xmlns="http://www.w3.org/2000/svg" xmlns:xlink="http://www.w3.org/1999/xlink" width="280" zoomAndPan="magnify" viewBox="0 0 210 89.999999" height="120" preserveAspectRatio="xMidYMid meet" version="1.0"><defs><g/></defs><g fill="#ff914d" fill-opacity="0.4"><g transform="translate(12.452471, 55.278868)"><g><path d="M 8.453125 -28.140625 L 8.453125 0 L 2.046875 0 L 2.046875 -28.140625 Z M 8.453125 -28.140625 "/></g></g></g><g fill="#ff914d" fill-opacity="0.4"><g transform="translate(24.321254, 55.278868)"><g><path d="M 2.046875 0 L 2.046875 -17.5 L 8.078125 -17.5 L 8.078125 -15.65625 L 8.15625 -15.65625 C 9.71875 -17.226562 11.390625 -18.015625 13.171875 -18.015625 C 14.035156 -18.015625 14.890625 -17.898438 15.734375 -17.671875 C 16.585938 -17.441406 17.40625 -17.085938 18.1875 -16.609375 C 18.976562 -16.128906 19.617188 -15.453125 20.109375 -14.578125 C 20.597656 -13.703125 20.84375 -12.6875 20.84375 -11.53125 L 20.84375 0 L 14.796875 0 L 14.796875 -9.890625 C 14.796875 -10.796875 14.503906 -11.585938 13.921875 -12.265625 C 13.347656 -12.953125 12.597656 -13.296875 11.671875 -13.296875 C 10.753906 -13.296875 9.925781 -12.941406 9.1875 -12.234375 C 8.445312 -11.535156 8.078125 -10.753906 8.078125 -9.890625 L 8.078125 0 Z M 2.046875 0 "/></g></g></g><g fill="#ff914d" fill-opacity="0.4"><g transform="translate(48.229257, 55.278868)"><g><path d="M 9.65625 -18.015625 C 10.65625 -18.015625 11.644531 -17.898438 12.625 -17.671875 C 13.601562 -17.441406 14.328125 -17.210938 14.796875 -16.984375 L 15.515625 -16.640625 L 13.546875 -12.6875 C 12.179688 -13.414062 10.882812 -13.78125 9.65625 -13.78125 C 8.96875 -13.78125 8.484375 -13.707031 8.203125 -13.5625 C 7.921875 -13.414062 7.78125 -13.132812 7.78125 -12.71875 C 7.78125 -12.632812 7.789062 -12.546875 7.8125 -12.453125 C 7.832031 -12.359375 7.875 -12.269531 7.9375 -12.1875 C 8.007812 -12.113281 8.070312 -12.046875 8.125 -11.984375 C 8.1875 -11.929688 8.285156 -11.867188 8.421875 -11.796875 C 8.554688 -11.734375 8.664062 -11.679688 8.75 -11.640625 C 8.832031 -11.609375 8.960938 -11.554688 9.140625 -11.484375 C 9.328125 -11.421875 9.460938 -11.375 9.546875 -11.34375 C 9.640625 -11.3125 9.789062 -11.257812 10 -11.1875 C 10.21875 -11.113281 10.382812 -11.066406 10.5 -11.046875 C 11.207031 -10.847656 11.820312 -10.625 12.34375 -10.375 C 12.863281 -10.125 13.414062 -9.78125 14 -9.34375 C 14.582031 -8.914062 15.03125 -8.367188 15.34375 -7.703125 C 15.664062 -7.046875 15.828125 -6.296875 15.828125 -5.453125 C 15.828125 -1.472656 13.0625 0.515625 7.53125 0.515625 C 6.28125 0.515625 5.09375 0.320312 3.96875 -0.0625 C 2.84375 -0.445312 2.03125 -0.835938 1.53125 -1.234375 L 0.78125 -1.84375 L 3.234375 -5.96875 C 3.421875 -5.8125 3.660156 -5.625 3.953125 -5.40625 C 4.253906 -5.1875 4.789062 -4.890625 5.5625 -4.515625 C 6.332031 -4.140625 7.003906 -3.953125 7.578125 -3.953125 C 8.828125 -3.953125 9.453125 -4.375 9.453125 -5.21875 C 9.453125 -5.601562 9.289062 -5.90625 8.96875 -6.125 C 8.65625 -6.34375 8.113281 -6.585938 7.34375 -6.859375 C 6.582031 -7.128906 5.988281 -7.378906 5.5625 -7.609375 C 4.46875 -8.171875 3.601562 -8.8125 2.96875 -9.53125 C 2.332031 -10.25 2.015625 -11.195312 2.015625 -12.375 C 2.015625 -14.15625 2.703125 -15.539062 4.078125 -16.53125 C 5.453125 -17.519531 7.3125 -18.015625 9.65625 -18.015625 Z M 9.65625 -18.015625 "/></g></g></g><g fill="#ff914d" fill-opacity="0.4"><g transform="translate(66.373447, 55.278868)"><g><path d="M 3.0625 -17.5 L 3.0625 -24.015625 L 9.109375 -24.015625 L 9.109375 -17.5 L 12.796875 -17.5 L 12.796875 -12.890625 L 9.109375 -12.890625 L 9.109375 -7.328125 C 9.109375 -5.710938 9.5625 -4.90625 10.46875 -4.90625 C 10.695312 -4.90625 10.9375 -4.953125 11.1875 -5.046875 C 11.4375 -5.140625 11.628906 -5.234375 11.765625 -5.328125 L 11.96875 -5.453125 L 13.46875 -0.578125 C 12.175781 0.148438 10.695312 0.515625 9.03125 0.515625 C 7.894531 0.515625 6.914062 0.316406 6.09375 -0.078125 C 5.28125 -0.484375 4.660156 -1.019531 4.234375 -1.6875 C 3.816406 -2.351562 3.515625 -3.054688 3.328125 -3.796875 C 3.148438 -4.535156 3.0625 -5.328125 3.0625 -6.171875 L 3.0625 -12.890625 L 0.546875 -12.890625 L 0.546875 -17.5 Z M 3.0625 -17.5 "/></g></g></g><g fill="#ff914d" fill-opacity="0.4"><g transform="translate(81.209409, 55.278868)"><g><path d="M 3.234375 -2.15625 C 1.597656 -3.945312 0.78125 -6.140625 0.78125 -8.734375 C 0.78125 -11.328125 1.597656 -13.519531 3.234375 -15.3125 C 4.878906 -17.113281 6.960938 -18.015625 9.484375 -18.015625 C 11.804688 -18.015625 13.71875 -17.285156 15.21875 -15.828125 L 15.21875 -17.5 L 21.25 -17.5 L 21.25 0 L 15.28125 0 L 15.28125 -1.984375 L 15.21875 -1.984375 C 13.71875 -0.316406 11.804688 0.515625 9.484375 0.515625 C 6.960938 0.515625 4.878906 -0.375 3.234375 -2.15625 Z M 8.375 -11.703125 C 7.59375 -10.929688 7.203125 -9.941406 7.203125 -8.734375 C 7.203125 -7.523438 7.578125 -6.539062 8.328125 -5.78125 C 9.078125 -5.019531 10.066406 -4.640625 11.296875 -4.640625 C 12.472656 -4.640625 13.441406 -5.023438 14.203125 -5.796875 C 14.960938 -6.566406 15.34375 -7.546875 15.34375 -8.734375 C 15.34375 -9.941406 14.953125 -10.929688 14.171875 -11.703125 C 13.390625 -12.472656 12.429688 -12.859375 11.296875 -12.859375 C 10.128906 -12.859375 9.15625 -12.472656 8.375 -11.703125 Z M 8.375 -11.703125 "/></g></g></g><g fill="#ff914d" fill-opacity="1"><g transform="translate(13.419083, 54.377488)"><g><path d="M 8.453125 -28.140625 L 8.453125 0 L 2.046875 0 L 2.046875 -28.140625 Z M 8.453125 -28.140625 "/></g></g></g><g fill="#ff914d" fill-opacity="1"><g transform="translate(25.287867, 54.377488)"><g><path d="M 2.046875 0 L 2.046875 -17.5 L 8.078125 -17.5 L 8.078125 -15.65625 L 8.15625 -15.65625 C 9.71875 -17.226562 11.390625 -18.015625 13.171875 -18.015625 C 14.035156 -18.015625 14.890625 -17.898438 15.734375 -17.671875 C 16.585938 -17.441406 17.40625 -17.085938 18.1875 -16.609375 C 18.976562 -16.128906 19.617188 -15.453125 20.109375 -14.578125 C 20.597656 -13.703125 20.84375 -12.6875 20.84375 -11.53125 L 20.84375 0 L 14.796875 0 L 14.796875 -9.890625 C 14.796875 -10.796875 14.503906 -11.585938 13.921875 -12.265625 C 13.347656 -12.953125 12.597656 -13.296875 11.671875 -13.296875 C 10.753906 -13.296875 9.925781 -12.941406 9.1875 -12.234375 C 8.445312 -11.535156 8.078125 -10.753906 8.078125 -9.890625 L 8.078125 0 Z M 2.046875 0 "/></g></g></g><g fill="#ff914d" fill-opacity="1"><g transform="translate(49.195869, 54.377488)"><g><path d="M 9.65625 -18.015625 C 10.65625 -18.015625 11.644531 -17.898438 12.625 -17.671875 C 13.601562 -17.441406 14.328125 -17.210938 14.796875 -16.984375 L 15.515625 -16.640625 L 13.546875 -12.6875 C 12.179688 -13.414062 10.882812 -13.78125 9.65625 -13.78125 C 8.96875 -13.78125 8.484375 -13.707031 8.203125 -13.5625 C 7.921875 -13.414062 7.78125 -13.132812 7.78125 -12.71875 C 7.78125 -12.632812 7.789062 -12.546875 7.8125 -12.453125 C 7.832031 -12.359375 7.875 -12.269531 7.9375 -12.1875 C 8.007812 -12.113281 8.070312 -12.046875 8.125 -11.984375 C 8.1875 -11.929688 8.285156 -11.867188 8.421875 -11.796875 C 8.554688 -11.734375 8.664062 -11.679688 8.75 -11.640625 C 8.832031 -11.609375 8.960938 -11.554688 9.140625 -11.484375 C 9.328125 -11.421875 9.460938 -11.375 9.546875 -11.34375 C 9.640625 -11.3125 9.789062 -11.257812 10 -11.1875 C 10.21875 -11.113281 10.382812 -11.066406 10.5 -11.046875 C 11.207031 -10.847656 11.820312 -10.625 12.34375 -10.375 C 12.863281 -10.125 13.414062 -9.78125 14 -9.34375 C 14.582031 -8.914062 15.03125 -8.367188 15.34375 -7.703125 C 15.664062 -7.046875 15.828125 -6.296875 15.828125 -5.453125 C 15.828125 -1.472656 13.0625 0.515625 7.53125 0.515625 C 6.28125 0.515625 5.09375 0.320312 3.96875 -0.0625 C 2.84375 -0.445312 2.03125 -0.835938 1.53125 -1.234375 L 0.78125 -1.84375 L 3.234375 -5.96875 C 3.421875 -5.8125 3.660156 -5.625 3.953125 -5.40625 C 4.253906 -5.1875 4.789062 -4.890625 5.5625 -4.515625 C 6.332031 -4.140625 7.003906 -3.953125 7.578125 -3.953125 C 8.828125 -3.953125 9.453125 -4.375 9.453125 -5.21875 C 9.453125 -5.601562 9.289062 -5.90625 8.96875 -6.125 C 8.65625 -6.34375 8.113281 -6.585938 7.34375 -6.859375 C 6.582031 -7.128906 5.988281 -7.378906 5.5625 -7.609375 C 4.46875 -8.171875 3.601562 -8.8125 2.96875 -9.53125 C 2.332031 -10.25 2.015625 -11.195312 2.015625 -12.375 C 2.015625 -14.15625 2.703125 -15.539062 4.078125 -16.53125 C 5.453125 -17.519531 7.3125 -18.015625 9.65625 -18.015625 Z M 9.65625 -18.015625 "/></g></g></g><g fill="#ff914d" fill-opacity="1"><g transform="translate(67.34006, 54.377488)"><g><path d="M 3.0625 -17.5 L 3.0625 -24.015625 L 9.109375 -24.015625 L 9.109375 -17.5 L 12.796875 -17.5 L 12.796875 -12.890625 L 9.109375 -12.890625 L 9.109375 -7.328125 C 9.109375 -5.710938 9.5625 -4.90625 10.46875 -4.90625 C 10.695312 -4.90625 10.9375 -4.953125 11.1875 -5.046875 C 11.4375 -5.140625 11.628906 -5.234375 11.765625 -5.328125 L 11.96875 -5.453125 L 13.46875 -0.578125 C 12.175781 0.148438 10.695312 0.515625 9.03125 0.515625 C 7.894531 0.515625 6.914062 0.316406 6.09375 -0.078125 C 5.28125 -0.484375 4.660156 -1.019531 4.234375 -1.6875 C 3.816406 -2.351562 3.515625 -3.054688 3.328125 -3.796875 C 3.148438 -4.535156 3.0625 -5.328125 3.0625 -6.171875 L 3.0625 -12.890625 L 0.546875 -12.890625 L 0.546875 -17.5 Z M 3.0625 -17.5 "/></g></g></g><g fill="#ff914d" fill-opacity="1"><g transform="translate(82.176022, 54.377488)"><g><path d="M 3.234375 -2.15625 C 1.597656 -3.945312 0.78125 -6.140625 0.78125 -8.734375 C 0.78125 -11.328125 1.597656 -13.519531 3.234375 -15.3125 C 4.878906 -17.113281 6.960938 -18.015625 9.484375 -18.015625 C 11.804688 -18.015625 13.71875 -17.285156 15.21875 -15.828125 L 15.21875 -17.5 L 21.25 -17.5 L 21.25 0 L 15.28125 0 L 15.28125 -1.984375 L 15.21875 -1.984375 C 13.71875 -0.316406 11.804688 0.515625 9.484375 0.515625 C 6.960938 0.515625 4.878906 -0.375 3.234375 -2.15625 Z M 8.375 -11.703125 C 7.59375 -10.929688 7.203125 -9.941406 7.203125 -8.734375 C 7.203125 -7.523438 7.578125 -6.539062 8.328125 -5.78125 C 9.078125 -5.019531 10.066406 -4.640625 11.296875 -4.640625 C 12.472656 -4.640625 13.441406 -5.023438 14.203125 -5.796875 C 14.960938 -6.566406 15.34375 -7.546875 15.34375 -8.734375 C 15.34375 -9.941406 14.953125 -10.929688 14.171875 -11.703125 C 13.390625 -12.472656 12.429688 -12.859375 11.296875 -12.859375 C 10.128906 -12.859375 9.15625 -12.472656 8.375 -11.703125 Z M 8.375 -11.703125 "/></g></g></g><g fill="#004aad" fill-opacity="0.4"><g transform="translate(110.778137, 55.278868)"><g><path d="M 23.671875 -28.140625 L 23.671875 -10 C 23.671875 -6.539062 22.738281 -3.921875 20.875 -2.140625 C 19.007812 -0.367188 16.28125 0.515625 12.6875 0.515625 C 9.09375 0.515625 6.363281 -0.367188 4.5 -2.140625 C 2.632812 -3.921875 1.703125 -6.539062 1.703125 -10 L 1.703125 -28.140625 L 8.125 -28.140625 L 8.125 -11.875 C 8.125 -9.59375 8.476562 -8.007812 9.1875 -7.125 C 9.90625 -6.238281 11.070312 -5.796875 12.6875 -5.796875 C 14.300781 -5.796875 15.46875 -6.238281 16.1875 -7.125 C 16.90625 -8.007812 17.265625 -9.59375 17.265625 -11.875 L 17.265625 -28.140625 Z M 23.671875 -28.140625 "/></g></g></g><g fill="#004aad" fill-opacity="0.4"><g transform="translate(137.516896, 55.278868)"><g><path d="M 9.65625 -18.015625 C 10.65625 -18.015625 11.644531 -17.898438 12.625 -17.671875 C 13.601562 -17.441406 14.328125 -17.210938 14.796875 -16.984375 L 15.515625 -16.640625 L 13.546875 -12.6875 C 12.179688 -13.414062 10.882812 -13.78125 9.65625 -13.78125 C 8.96875 -13.78125 8.484375 -13.707031 8.203125 -13.5625 C 7.921875 -13.414062 7.78125 -13.132812 7.78125 -12.71875 C 7.78125 -12.632812 7.789062 -12.546875 7.8125 -12.453125 C 7.832031 -12.359375 7.875 -12.269531 7.9375 -12.1875 C 8.007812 -12.113281 8.070312 -12.046875 8.125 -11.984375 C 8.1875 -11.929688 8.285156 -11.867188 8.421875 -11.796875 C 8.554688 -11.734375 8.664062 -11.679688 8.75 -11.640625 C 8.832031 -11.609375 8.960938 -11.554688 9.140625 -11.484375 C 9.328125 -11.421875 9.460938 -11.375 9.546875 -11.34375 C 9.640625 -11.3125 9.789062 -11.257812 10 -11.1875 C 10.21875 -11.113281 10.382812 -11.066406 10.5 -11.046875 C 11.207031 -10.847656 11.820312 -10.625 12.34375 -10.375 C 12.863281 -10.125 13.414062 -9.78125 14 -9.34375 C 14.582031 -8.914062 15.03125 -8.367188 15.34375 -7.703125 C 15.664062 -7.046875 15.828125 -6.296875 15.828125 -5.453125 C 15.828125 -1.472656 13.0625 0.515625 7.53125 0.515625 C 6.28125 0.515625 5.09375 0.320312 3.96875 -0.0625 C 2.84375 -0.445312 2.03125 -0.835938 1.53125 -1.234375 L 0.78125 -1.84375 L 3.234375 -5.96875 C 3.421875 -5.8125 3.660156 -5.625 3.953125 -5.40625 C 4.253906 -5.1875 4.789062 -4.890625 5.5625 -4.515625 C 6.332031 -4.140625 7.003906 -3.953125 7.578125 -3.953125 C 8.828125 -3.953125 9.453125 -4.375 9.453125 -5.21875 C 9.453125 -5.601562 9.289062 -5.90625 8.96875 -6.125 C 8.65625 -6.34375 8.113281 -6.585938 7.34375 -6.859375 C 6.582031 -7.128906 5.988281 -7.378906 5.5625 -7.609375 C 4.46875 -8.171875 3.601562 -8.8125 2.96875 -9.53125 C 2.332031 -10.25 2.015625 -11.195312 2.015625 -12.375 C 2.015625 -14.15625 2.703125 -15.539062 4.078125 -16.53125 C 5.453125 -17.519531 7.3125 -18.015625 9.65625 -18.015625 Z M 9.65625 -18.015625 "/></g></g></g><g fill="#004aad" fill-opacity="0.4"><g transform="translate(155.661086, 55.278868)"><g><path d="M 19.75 -7.90625 L 7.0625 -7.90625 C 7.0625 -6.6875 7.457031 -5.78125 8.25 -5.1875 C 9.050781 -4.59375 9.914062 -4.296875 10.84375 -4.296875 C 11.820312 -4.296875 12.59375 -4.425781 13.15625 -4.6875 C 13.726562 -4.945312 14.378906 -5.460938 15.109375 -6.234375 L 19.46875 -4.0625 C 17.65625 -1.007812 14.632812 0.515625 10.40625 0.515625 C 7.769531 0.515625 5.503906 -0.382812 3.609375 -2.1875 C 1.722656 -4 0.78125 -6.175781 0.78125 -8.71875 C 0.78125 -11.269531 1.722656 -13.457031 3.609375 -15.28125 C 5.503906 -17.101562 7.769531 -18.015625 10.40625 -18.015625 C 13.175781 -18.015625 15.429688 -17.210938 17.171875 -15.609375 C 18.910156 -14.003906 19.78125 -11.710938 19.78125 -8.734375 C 19.78125 -8.328125 19.769531 -8.050781 19.75 -7.90625 Z M 7.234375 -11.25 L 13.875 -11.25 C 13.738281 -12.164062 13.378906 -12.867188 12.796875 -13.359375 C 12.222656 -13.847656 11.484375 -14.09375 10.578125 -14.09375 C 9.578125 -14.09375 8.78125 -13.828125 8.1875 -13.296875 C 7.59375 -12.773438 7.273438 -12.09375 7.234375 -11.25 Z M 7.234375 -11.25 "/></g></g></g><g fill="#004aad" fill-opacity="0.4"><g transform="translate(177.590975, 55.278868)"><g><path d="M 2.046875 0 L 2.046875 -17.5 L 8.078125 -17.5 L 8.078125 -14.96875 L 8.15625 -14.96875 C 8.195312 -15.0625 8.269531 -15.175781 8.375 -15.3125 C 8.476562 -15.445312 8.695312 -15.6875 9.03125 -16.03125 C 9.375 -16.375 9.738281 -16.679688 10.125 -16.953125 C 10.507812 -17.222656 11.007812 -17.46875 11.625 -17.6875 C 12.238281 -17.90625 12.863281 -18.015625 13.5 -18.015625 C 14.164062 -18.015625 14.816406 -17.921875 15.453125 -17.734375 C 16.085938 -17.554688 16.550781 -17.375 16.84375 -17.1875 L 17.328125 -16.921875 L 14.796875 -11.796875 C 14.046875 -12.429688 13.003906 -12.75 11.671875 -12.75 C 10.941406 -12.75 10.3125 -12.585938 9.78125 -12.265625 C 9.257812 -11.953125 8.890625 -11.566406 8.671875 -11.109375 C 8.460938 -10.660156 8.3125 -10.273438 8.21875 -9.953125 C 8.125 -9.640625 8.078125 -9.390625 8.078125 -9.203125 L 8.078125 0 Z M 2.046875 0 "/></g></g></g><g fill="#004aad" fill-opacity="1"><g transform="translate(109.811523, 54.377488)"><g><path d="M 23.671875 -28.140625 L 23.671875 -10 C 23.671875 -6.539062 22.738281 -3.921875 20.875 -2.140625 C 19.007812 -0.367188 16.28125 0.515625 12.6875 0.515625 C 9.09375 0.515625 6.363281 -0.367188 4.5 -2.140625 C 2.632812 -3.921875 1.703125 -6.539062 1.703125 -10 L 1.703125 -28.140625 L 8.125 -28.140625 L 8.125 -11.875 C 8.125 -9.59375 8.476562 -8.007812 9.1875 -7.125 C 9.90625 -6.238281 11.070312 -5.796875 12.6875 -5.796875 C 14.300781 -5.796875 15.46875 -6.238281 16.1875 -7.125 C 16.90625 -8.007812 17.265625 -9.59375 17.265625 -11.875 L 17.265625 -28.140625 Z M 23.671875 -28.140625 "/></g></g></g><g fill="#004aad" fill-opacity="1"><g transform="translate(136.550281, 54.377488)"><g><path d="M 9.65625 -18.015625 C 10.65625 -18.015625 11.644531 -17.898438 12.625 -17.671875 C 13.601562 -17.441406 14.328125 -17.210938 14.796875 -16.984375 L 15.515625 -16.640625 L 13.546875 -12.6875 C 12.179688 -13.414062 10.882812 -13.78125 9.65625 -13.78125 C 8.96875 -13.78125 8.484375 -13.707031 8.203125 -13.5625 C 7.921875 -13.414062 7.78125 -13.132812 7.78125 -12.71875 C 7.78125 -12.632812 7.789062 -12.546875 7.8125 -12.453125 C 7.832031 -12.359375 7.875 -12.269531 7.9375 -12.1875 C 8.007812 -12.113281 8.070312 -12.046875 8.125 -11.984375 C 8.1875 -11.929688 8.285156 -11.867188 8.421875 -11.796875 C 8.554688 -11.734375 8.664062 -11.679688 8.75 -11.640625 C 8.832031 -11.609375 8.960938 -11.554688 9.140625 -11.484375 C 9.328125 -11.421875 9.460938 -11.375 9.546875 -11.34375 C 9.640625 -11.3125 9.789062 -11.257812 10 -11.1875 C 10.21875 -11.113281 10.382812 -11.066406 10.5 -11.046875 C 11.207031 -10.847656 11.820312 -10.625 12.34375 -10.375 C 12.863281 -10.125 13.414062 -9.78125 14 -9.34375 C 14.582031 -8.914062 15.03125 -8.367188 15.34375 -7.703125 C 15.664062 -7.046875 15.828125 -6.296875 15.828125 -5.453125 C 15.828125 -1.472656 13.0625 0.515625 7.53125 0.515625 C 6.28125 0.515625 5.09375 0.320312 3.96875 -0.0625 C 2.84375 -0.445312 2.03125 -0.835938 1.53125 -1.234375 L 0.78125 -1.84375 L 3.234375 -5.96875 C 3.421875 -5.8125 3.660156 -5.625 3.953125 -5.40625 C 4.253906 -5.1875 4.789062 -4.890625 5.5625 -4.515625 C 6.332031 -4.140625 7.003906 -3.953125 7.578125 -3.953125 C 8.828125 -3.953125 9.453125 -4.375 9.453125 -5.21875 C 9.453125 -5.601562 9.289062 -5.90625 8.96875 -6.125 C 8.65625 -6.34375 8.113281 -6.585938 7.34375 -6.859375 C 6.582031 -7.128906 5.988281 -7.378906 5.5625 -7.609375 C 4.46875 -8.171875 3.601562 -8.8125 2.96875 -9.53125 C 2.332031 -10.25 2.015625 -11.195312 2.015625 -12.375 C 2.015625 -14.15625 2.703125 -15.539062 4.078125 -16.53125 C 5.453125 -17.519531 7.3125 -18.015625 9.65625 -18.015625 Z M 9.65625 -18.015625 "/></g></g></g><g fill="#004aad" fill-opacity="1"><g transform="translate(154.694471, 54.377488)"><g><path d="M 19.75 -7.90625 L 7.0625 -7.90625 C 7.0625 -6.6875 7.457031 -5.78125 8.25 -5.1875 C 9.050781 -4.59375 9.914062 -4.296875 10.84375 -4.296875 C 11.820312 -4.296875 12.59375 -4.425781 13.15625 -4.6875 C 13.726562 -4.945312 14.378906 -5.460938 15.109375 -6.234375 L 19.46875 -4.0625 C 17.65625 -1.007812 14.632812 0.515625 10.40625 0.515625 C 7.769531 0.515625 5.503906 -0.382812 3.609375 -2.1875 C 1.722656 -4 0.78125 -6.175781 0.78125 -8.71875 C 0.78125 -11.269531 1.722656 -13.457031 3.609375 -15.28125 C 5.503906 -17.101562 7.769531 -18.015625 10.40625 -18.015625 C 13.175781 -18.015625 15.429688 -17.210938 17.171875 -15.609375 C 18.910156 -14.003906 19.78125 -11.710938 19.78125 -8.734375 C 19.78125 -8.328125 19.769531 -8.050781 19.75 -7.90625 Z M 7.234375 -11.25 L 13.875 -11.25 C 13.738281 -12.164062 13.378906 -12.867188 12.796875 -13.359375 C 12.222656 -13.847656 11.484375 -14.09375 10.578125 -14.09375 C 9.578125 -14.09375 8.78125 -13.828125 8.1875 -13.296875 C 7.59375 -12.773438 7.273438 -12.09375 7.234375 -11.25 Z M 7.234375 -11.25 "/></g></g></g><g fill="#004aad" fill-opacity="1"><g transform="translate(176.62436, 54.377488)"><g><path d="M 2.046875 0 L 2.046875 -17.5 L 8.078125 -17.5 L 8.078125 -14.96875 L 8.15625 -14.96875 C 8.195312 -15.0625 8.269531 -15.175781 8.375 -15.3125 C 8.476562 -15.445312 8.695312 -15.6875 9.03125 -16.03125 C 9.375 -16.375 9.738281 -16.679688 10.125 -16.953125 C 10.507812 -17.222656 11.007812 -17.46875 11.625 -17.6875 C 12.238281 -17.90625 12.863281 -18.015625 13.5 -18.015625 C 14.164062 -18.015625 14.816406 -17.921875 15.453125 -17.734375 C 16.085938 -17.554688 16.550781 -17.375 16.84375 -17.1875 L 17.328125 -16.921875 L 14.796875 -11.796875 C 14.046875 -12.429688 13.003906 -12.75 11.671875 -12.75 C 10.941406 -12.75 10.3125 -12.585938 9.78125 -12.265625 C 9.257812 -11.953125 8.890625 -11.566406 8.671875 -11.109375 C 8.460938 -10.660156 8.3125 -10.273438 8.21875 -9.953125 C 8.125 -9.640625 8.078125 -9.390625 8.078125 -9.203125 L 8.078125 0 Z M 2.046875 0 "/></g></g></g></svg>