<svg xmlns="http://www.w3.org/2000/svg" xmlns:xlink="http://www.w3.org/1999/xlink" width="50" zoomAndPan="magnify" viewBox="0 0 37.5 37.499999" height="50" preserveAspectRatio="xMidYMid meet" version="1.0"><defs><g/><clipPath id="1582101cd0"><path d="M 4.078125 4 L 32.945312 4 L 32.945312 35.324219 L 4.078125 35.324219 Z M 4.078125 4 " clip-rule="nonzero"/></clipPath><clipPath id="e92c57ae35"><path d="M 4.078125 2.019531 L 11 2.019531 L 11 11 L 4.078125 11 Z M 4.078125 2.019531 " clip-rule="nonzero"/></clipPath><clipPath id="a36c4c85b4"><path d="M 4.078125 14 L 11 14 L 11 23 L 4.078125 23 Z M 4.078125 14 " clip-rule="nonzero"/></clipPath><clipPath id="3d48ba73fc"><path d="M 26 2.019531 L 32.945312 2.019531 L 32.945312 11 L 26 11 Z M 26 2.019531 " clip-rule="nonzero"/></clipPath><clipPath id="7a36a4e1c8"><path d="M 26 14 L 32.945312 14 L 32.945312 23 L 26 23 Z M 26 14 " clip-rule="nonzero"/></clipPath></defs><g clip-path="url(#1582101cd0)"><path stroke-linecap="round" transform="matrix(2.061795, 0, 0, 2.081098, 2.016538, 2.021797)" fill="none" stroke-linejoin="round" d="M 6.499885 9.500354 C 6.219486 9.224433 5.842463 8.222108 5.584799 7.970588 C 5.219144 7.612079 4.823176 7.174734 4.711395 6.626646 C 4.559828 5.896488 4.866751 5.804514 4.866751 5.552995 C 4.866751 5.025554 4.802335 4.021352 4.969059 3.561483 C 5.416181 2.322654 6.776495 1.545571 8.000398 1.500522 C 8.502463 1.513661 8.95148 1.616897 9.428916 1.883433 C 9.737734 2.054241 10.33074 1.9923 10.571352 2.253205 C 10.825227 2.531003 10.948375 2.853849 10.957848 3.595269 C 11.122677 4.158373 11.126466 5.025554 11.126466 5.552995 C 11.126466 5.804514 11.433389 5.896488 11.281822 6.626646 C 11.170042 7.174734 10.774073 7.613956 10.408418 7.970588 C 10.152649 8.222108 9.781309 9.224433 9.500911 9.500354 L 9.500911 10.179833 C 9.500911 10.656595 9.836253 11.067661 10.304215 11.161511 L 12.490569 11.598855 C 13.659529 11.831605 14.500726 12.858332 14.500726 14.048358 L 14.500726 15.000004 C 14.500726 15.275925 14.27527 15.49929 14.000555 15.49929 L 2.000241 15.49929 C 1.723631 15.49929 1.50007 15.275925 1.50007 15.000004 L 1.50007 14.050235 C 1.50007 12.858332 2.341267 11.831605 3.510227 11.598855 L 5.69658 11.161511 C 6.164543 11.067661 6.499885 10.656595 6.499885 10.179833 Z M 6.499885 9.500354 " stroke="#000000" stroke-width="1" stroke-opacity="1" stroke-miterlimit="10"/></g><g clip-path="url(#e92c57ae35)"><path stroke-linecap="round" transform="matrix(2.061795, 0, 0, 2.081098, 2.016538, 2.021797)" fill="none" stroke-linejoin="round" d="M 3.500754 0.500074 L 1.50007 0.500074 L 1.50007 3.499542 " stroke="#000000" stroke-width="1" stroke-opacity="1" stroke-miterlimit="10"/></g><g clip-path="url(#a36c4c85b4)"><path stroke-linecap="round" transform="matrix(2.061795, 0, 0, 2.081098, 2.016538, 2.021797)" fill="none" stroke-linejoin="round" d="M 3.500754 9.500354 L 1.50007 9.500354 L 1.50007 6.500886 " stroke="#000000" stroke-width="1" stroke-opacity="1" stroke-miterlimit="10"/></g><g clip-path="url(#3d48ba73fc)"><path stroke-linecap="round" transform="matrix(2.061795, 0, 0, 2.081098, 2.016538, 2.021797)" fill="none" stroke-linejoin="round" d="M 12.500042 0.500074 L 14.500726 0.500074 L 14.500726 3.499542 " stroke="#000000" stroke-width="1" stroke-opacity="1" stroke-miterlimit="10"/></g><g clip-path="url(#7a36a4e1c8)"><path stroke-linecap="round" transform="matrix(2.061795, 0, 0, 2.081098, 2.016538, 2.021797)" fill="none" stroke-linejoin="round" d="M 12.500042 9.500354 L 14.500726 9.500354 L 14.500726 6.500886 " stroke="#000000" stroke-width="1" stroke-opacity="1" stroke-miterlimit="10"/></g><g fill="#ffffff" fill-opacity="1"><g transform="translate(1.332237, 36.494446)"><g><path d="M 0.59375 -0.96875 C 0.6875 -0.96875 0.769531 -0.945312 0.84375 -0.90625 C 0.914062 -0.863281 0.972656 -0.800781 1.015625 -0.71875 C 1.054688 -0.644531 1.078125 -0.566406 1.078125 -0.484375 L 1.078125 -0.0625 C 1.078125 -0.0390625 1.070312 -0.0234375 1.0625 -0.015625 C 1.050781 -0.00390625 1.035156 0 1.015625 0 C 0.992188 0 0.972656 -0.00390625 0.953125 -0.015625 C 0.941406 -0.0234375 0.9375 -0.0390625 0.9375 -0.0625 L 0.9375 -0.171875 C 0.894531 -0.117188 0.84375 -0.0703125 0.78125 -0.03125 C 0.71875 0 0.648438 0.015625 0.578125 0.015625 C 0.492188 0.015625 0.414062 -0.00390625 0.34375 -0.046875 C 0.269531 -0.0976562 0.210938 -0.160156 0.171875 -0.234375 C 0.128906 -0.304688 0.109375 -0.390625 0.109375 -0.484375 C 0.109375 -0.566406 0.128906 -0.644531 0.171875 -0.71875 C 0.210938 -0.800781 0.269531 -0.863281 0.34375 -0.90625 C 0.414062 -0.945312 0.5 -0.96875 0.59375 -0.96875 Z M 0.59375 -0.109375 C 0.65625 -0.109375 0.710938 -0.125 0.765625 -0.15625 C 0.828125 -0.1875 0.875 -0.226562 0.90625 -0.28125 C 0.9375 -0.34375 0.953125 -0.410156 0.953125 -0.484375 C 0.953125 -0.546875 0.9375 -0.601562 0.90625 -0.65625 C 0.875 -0.71875 0.828125 -0.765625 0.765625 -0.796875 C 0.710938 -0.828125 0.65625 -0.84375 0.59375 -0.84375 C 0.53125 -0.84375 0.46875 -0.828125 0.40625 -0.796875 C 0.351562 -0.765625 0.3125 -0.71875 0.28125 -0.65625 C 0.25 -0.601562 0.234375 -0.546875 0.234375 -0.484375 C 0.234375 -0.410156 0.25 -0.34375 0.28125 -0.28125 C 0.3125 -0.226562 0.351562 -0.1875 0.40625 -0.15625 C 0.46875 -0.125 0.53125 -0.109375 0.59375 -0.109375 Z M 0.59375 -0.109375 "/></g></g></g></svg>