<svg xmlns="http://www.w3.org/2000/svg" xmlns:xlink="http://www.w3.org/1999/xlink" width="112" zoomAndPan="magnify" viewBox="0 0 84 37.5" height="50" preserveAspectRatio="xMidYMid meet" version="1.0"><defs><g/></defs><g fill="#ff914d" fill-opacity="0.4"><g transform="translate(1.631376, 22.829094)"><g><path d="M 3.34375 -11.125 L 3.34375 0 L 0.8125 0 L 0.8125 -11.125 Z M 3.34375 -11.125 "/></g></g></g><g fill="#ff914d" fill-opacity="0.4"><g transform="translate(6.321758, 22.829094)"><g><path d="M 0.8125 0 L 0.8125 -6.921875 L 3.203125 -6.921875 L 3.203125 -6.1875 L 3.21875 -6.1875 C 3.84375 -6.8125 4.503906 -7.125 5.203125 -7.125 C 5.546875 -7.125 5.882812 -7.078125 6.21875 -6.984375 C 6.5625 -6.890625 6.882812 -6.75 7.1875 -6.5625 C 7.5 -6.375 7.75 -6.109375 7.9375 -5.765625 C 8.132812 -5.421875 8.234375 -5.019531 8.234375 -4.5625 L 8.234375 0 L 5.859375 0 L 5.859375 -3.90625 C 5.859375 -4.269531 5.742188 -4.585938 5.515625 -4.859375 C 5.285156 -5.128906 4.984375 -5.265625 4.609375 -5.265625 C 4.253906 -5.265625 3.929688 -5.125 3.640625 -4.84375 C 3.347656 -4.5625 3.203125 -4.25 3.203125 -3.90625 L 3.203125 0 Z M 0.8125 0 "/></g></g></g><g fill="#ff914d" fill-opacity="0.4"><g transform="translate(15.769876, 22.829094)"><g><path d="M 3.8125 -7.125 C 4.207031 -7.125 4.597656 -7.078125 4.984375 -6.984375 C 5.367188 -6.890625 5.660156 -6.800781 5.859375 -6.71875 L 6.140625 -6.578125 L 5.359375 -5.015625 C 4.816406 -5.304688 4.300781 -5.453125 3.8125 -5.453125 C 3.539062 -5.453125 3.347656 -5.421875 3.234375 -5.359375 C 3.128906 -5.296875 3.078125 -5.1875 3.078125 -5.03125 C 3.078125 -4.988281 3.078125 -4.953125 3.078125 -4.921875 C 3.085938 -4.890625 3.109375 -4.859375 3.140625 -4.828125 C 3.171875 -4.796875 3.195312 -4.765625 3.21875 -4.734375 C 3.238281 -4.710938 3.273438 -4.6875 3.328125 -4.65625 C 3.378906 -4.632812 3.421875 -4.613281 3.453125 -4.59375 C 3.484375 -4.582031 3.535156 -4.5625 3.609375 -4.53125 C 3.679688 -4.507812 3.734375 -4.492188 3.765625 -4.484375 C 3.804688 -4.472656 3.867188 -4.453125 3.953125 -4.421875 C 4.035156 -4.390625 4.101562 -4.375 4.15625 -4.375 C 4.4375 -4.289062 4.675781 -4.195312 4.875 -4.09375 C 5.082031 -4 5.300781 -3.863281 5.53125 -3.6875 C 5.757812 -3.519531 5.9375 -3.304688 6.0625 -3.046875 C 6.1875 -2.785156 6.25 -2.488281 6.25 -2.15625 C 6.25 -0.582031 5.160156 0.203125 2.984375 0.203125 C 2.484375 0.203125 2.007812 0.128906 1.5625 -0.015625 C 1.125 -0.171875 0.804688 -0.328125 0.609375 -0.484375 L 0.3125 -0.734375 L 1.28125 -2.359375 C 1.351562 -2.296875 1.445312 -2.222656 1.5625 -2.140625 C 1.675781 -2.054688 1.882812 -1.9375 2.1875 -1.78125 C 2.5 -1.632812 2.769531 -1.5625 3 -1.5625 C 3.488281 -1.5625 3.734375 -1.726562 3.734375 -2.0625 C 3.734375 -2.21875 3.671875 -2.335938 3.546875 -2.421875 C 3.421875 -2.503906 3.207031 -2.597656 2.90625 -2.703125 C 2.601562 -2.816406 2.367188 -2.914062 2.203125 -3 C 1.765625 -3.226562 1.421875 -3.484375 1.171875 -3.765625 C 0.921875 -4.046875 0.796875 -4.421875 0.796875 -4.890625 C 0.796875 -5.597656 1.066406 -6.144531 1.609375 -6.53125 C 2.148438 -6.925781 2.882812 -7.125 3.8125 -7.125 Z M 3.8125 -7.125 "/></g></g></g><g fill="#ff914d" fill-opacity="0.4"><g transform="translate(22.940214, 22.829094)"><g><path d="M 1.21875 -6.921875 L 1.21875 -9.5 L 3.59375 -9.5 L 3.59375 -6.921875 L 5.0625 -6.921875 L 5.0625 -5.09375 L 3.59375 -5.09375 L 3.59375 -2.90625 C 3.59375 -2.257812 3.773438 -1.9375 4.140625 -1.9375 C 4.234375 -1.9375 4.328125 -1.953125 4.421875 -1.984375 C 4.523438 -2.023438 4.601562 -2.066406 4.65625 -2.109375 L 4.734375 -2.15625 L 5.328125 -0.234375 C 4.816406 0.0546875 4.234375 0.203125 3.578125 0.203125 C 3.128906 0.203125 2.738281 0.125 2.40625 -0.03125 C 2.082031 -0.1875 1.835938 -0.394531 1.671875 -0.65625 C 1.503906 -0.925781 1.382812 -1.207031 1.3125 -1.5 C 1.25 -1.789062 1.21875 -2.101562 1.21875 -2.4375 L 1.21875 -5.09375 L 0.21875 -5.09375 L 0.21875 -6.921875 Z M 1.21875 -6.921875 "/></g></g></g><g fill="#ff914d" fill-opacity="0.4"><g transform="translate(28.803185, 22.829094)"><g><path d="M 1.28125 -0.859375 C 0.632812 -1.566406 0.3125 -2.429688 0.3125 -3.453125 C 0.3125 -4.472656 0.632812 -5.335938 1.28125 -6.046875 C 1.925781 -6.765625 2.75 -7.125 3.75 -7.125 C 4.664062 -7.125 5.421875 -6.832031 6.015625 -6.25 L 6.015625 -6.921875 L 8.40625 -6.921875 L 8.40625 0 L 6.046875 0 L 6.046875 -0.78125 L 6.015625 -0.78125 C 5.421875 -0.125 4.664062 0.203125 3.75 0.203125 C 2.75 0.203125 1.925781 -0.148438 1.28125 -0.859375 Z M 3.3125 -4.625 C 3 -4.320312 2.84375 -3.929688 2.84375 -3.453125 C 2.84375 -2.972656 2.988281 -2.582031 3.28125 -2.28125 C 3.582031 -1.976562 3.976562 -1.828125 4.46875 -1.828125 C 4.9375 -1.828125 5.316406 -1.976562 5.609375 -2.28125 C 5.910156 -2.59375 6.0625 -2.984375 6.0625 -3.453125 C 6.0625 -3.929688 5.90625 -4.320312 5.59375 -4.625 C 5.289062 -4.925781 4.914062 -5.078125 4.46875 -5.078125 C 4.007812 -5.078125 3.625 -4.925781 3.3125 -4.625 Z M 3.3125 -4.625 "/></g></g></g><g fill="#ff914d" fill-opacity="1"><g transform="translate(2.013368, 22.47288)"><g><path d="M 3.34375 -11.125 L 3.34375 0 L 0.8125 0 L 0.8125 -11.125 Z M 3.34375 -11.125 "/></g></g></g><g fill="#ff914d" fill-opacity="1"><g transform="translate(6.70375, 22.47288)"><g><path d="M 0.8125 0 L 0.8125 -6.921875 L 3.203125 -6.921875 L 3.203125 -6.1875 L 3.21875 -6.1875 C 3.84375 -6.8125 4.503906 -7.125 5.203125 -7.125 C 5.546875 -7.125 5.882812 -7.078125 6.21875 -6.984375 C 6.5625 -6.890625 6.882812 -6.75 7.1875 -6.5625 C 7.5 -6.375 7.75 -6.109375 7.9375 -5.765625 C 8.132812 -5.421875 8.234375 -5.019531 8.234375 -4.5625 L 8.234375 0 L 5.859375 0 L 5.859375 -3.90625 C 5.859375 -4.269531 5.742188 -4.585938 5.515625 -4.859375 C 5.285156 -5.128906 4.984375 -5.265625 4.609375 -5.265625 C 4.253906 -5.265625 3.929688 -5.125 3.640625 -4.84375 C 3.347656 -4.5625 3.203125 -4.25 3.203125 -3.90625 L 3.203125 0 Z M 0.8125 0 "/></g></g></g><g fill="#ff914d" fill-opacity="1"><g transform="translate(16.151869, 22.47288)"><g><path d="M 3.8125 -7.125 C 4.207031 -7.125 4.597656 -7.078125 4.984375 -6.984375 C 5.367188 -6.890625 5.660156 -6.800781 5.859375 -6.71875 L 6.140625 -6.578125 L 5.359375 -5.015625 C 4.816406 -5.304688 4.300781 -5.453125 3.8125 -5.453125 C 3.539062 -5.453125 3.347656 -5.421875 3.234375 -5.359375 C 3.128906 -5.296875 3.078125 -5.1875 3.078125 -5.03125 C 3.078125 -4.988281 3.078125 -4.953125 3.078125 -4.921875 C 3.085938 -4.890625 3.109375 -4.859375 3.140625 -4.828125 C 3.171875 -4.796875 3.195312 -4.765625 3.21875 -4.734375 C 3.238281 -4.710938 3.273438 -4.6875 3.328125 -4.65625 C 3.378906 -4.632812 3.421875 -4.613281 3.453125 -4.59375 C 3.484375 -4.582031 3.535156 -4.5625 3.609375 -4.53125 C 3.679688 -4.507812 3.734375 -4.492188 3.765625 -4.484375 C 3.804688 -4.472656 3.867188 -4.453125 3.953125 -4.421875 C 4.035156 -4.390625 4.101562 -4.375 4.15625 -4.375 C 4.4375 -4.289062 4.675781 -4.195312 4.875 -4.09375 C 5.082031 -4 5.300781 -3.863281 5.53125 -3.6875 C 5.757812 -3.519531 5.9375 -3.304688 6.0625 -3.046875 C 6.1875 -2.785156 6.25 -2.488281 6.25 -2.15625 C 6.25 -0.582031 5.160156 0.203125 2.984375 0.203125 C 2.484375 0.203125 2.007812 0.128906 1.5625 -0.015625 C 1.125 -0.171875 0.804688 -0.328125 0.609375 -0.484375 L 0.3125 -0.734375 L 1.28125 -2.359375 C 1.351562 -2.296875 1.445312 -2.222656 1.5625 -2.140625 C 1.675781 -2.054688 1.882812 -1.9375 2.1875 -1.78125 C 2.5 -1.632812 2.769531 -1.5625 3 -1.5625 C 3.488281 -1.5625 3.734375 -1.726562 3.734375 -2.0625 C 3.734375 -2.21875 3.671875 -2.335938 3.546875 -2.421875 C 3.421875 -2.503906 3.207031 -2.597656 2.90625 -2.703125 C 2.601562 -2.816406 2.367188 -2.914062 2.203125 -3 C 1.765625 -3.226562 1.421875 -3.484375 1.171875 -3.765625 C 0.921875 -4.046875 0.796875 -4.421875 0.796875 -4.890625 C 0.796875 -5.597656 1.066406 -6.144531 1.609375 -6.53125 C 2.148438 -6.925781 2.882812 -7.125 3.8125 -7.125 Z M 3.8125 -7.125 "/></g></g></g><g fill="#ff914d" fill-opacity="1"><g transform="translate(23.322206, 22.47288)"><g><path d="M 1.21875 -6.921875 L 1.21875 -9.5 L 3.59375 -9.5 L 3.59375 -6.921875 L 5.0625 -6.921875 L 5.0625 -5.09375 L 3.59375 -5.09375 L 3.59375 -2.90625 C 3.59375 -2.257812 3.773438 -1.9375 4.140625 -1.9375 C 4.234375 -1.9375 4.328125 -1.953125 4.421875 -1.984375 C 4.523438 -2.023438 4.601562 -2.066406 4.65625 -2.109375 L 4.734375 -2.15625 L 5.328125 -0.234375 C 4.816406 0.0546875 4.234375 0.203125 3.578125 0.203125 C 3.128906 0.203125 2.738281 0.125 2.40625 -0.03125 C 2.082031 -0.1875 1.835938 -0.394531 1.671875 -0.65625 C 1.503906 -0.925781 1.382812 -1.207031 1.3125 -1.5 C 1.25 -1.789062 1.21875 -2.101562 1.21875 -2.4375 L 1.21875 -5.09375 L 0.21875 -5.09375 L 0.21875 -6.921875 Z M 1.21875 -6.921875 "/></g></g></g><g fill="#ff914d" fill-opacity="1"><g transform="translate(29.185177, 22.47288)"><g><path d="M 1.28125 -0.859375 C 0.632812 -1.566406 0.3125 -2.429688 0.3125 -3.453125 C 0.3125 -4.472656 0.632812 -5.335938 1.28125 -6.046875 C 1.925781 -6.765625 2.75 -7.125 3.75 -7.125 C 4.664062 -7.125 5.421875 -6.832031 6.015625 -6.25 L 6.015625 -6.921875 L 8.40625 -6.921875 L 8.40625 0 L 6.046875 0 L 6.046875 -0.78125 L 6.015625 -0.78125 C 5.421875 -0.125 4.664062 0.203125 3.75 0.203125 C 2.75 0.203125 1.925781 -0.148438 1.28125 -0.859375 Z M 3.3125 -4.625 C 3 -4.320312 2.84375 -3.929688 2.84375 -3.453125 C 2.84375 -2.972656 2.988281 -2.582031 3.28125 -2.28125 C 3.582031 -1.976562 3.976562 -1.828125 4.46875 -1.828125 C 4.9375 -1.828125 5.316406 -1.976562 5.609375 -2.28125 C 5.910156 -2.59375 6.0625 -2.984375 6.0625 -3.453125 C 6.0625 -3.929688 5.90625 -4.320312 5.59375 -4.625 C 5.289062 -4.925781 4.914062 -5.078125 4.46875 -5.078125 C 4.007812 -5.078125 3.625 -4.925781 3.3125 -4.625 Z M 3.3125 -4.625 "/></g></g></g><g fill="#004aad" fill-opacity="0.4"><g transform="translate(39.314936, 22.829094)"><g><path d="M 7.171875 -11.125 L 7.171875 -8.90625 L 3.34375 -8.90625 L 3.34375 -6.6875 L 7.015625 -6.6875 L 7.015625 -4.46875 L 3.34375 -4.46875 L 3.34375 -2.21875 L 7.171875 -2.21875 L 7.171875 0 L 0.8125 0 L 0.8125 -11.125 Z M 7.171875 -11.125 "/></g></g></g><g fill="#004aad" fill-opacity="0.4"><g transform="translate(47.671338, 22.829094)"><g><path d="M 0.8125 0 L 0.8125 -6.921875 L 3.203125 -6.921875 L 3.203125 -6.1875 L 3.21875 -6.1875 C 3.84375 -6.8125 4.503906 -7.125 5.203125 -7.125 C 5.546875 -7.125 5.882812 -7.078125 6.21875 -6.984375 C 6.5625 -6.890625 6.882812 -6.75 7.1875 -6.5625 C 7.5 -6.375 7.75 -6.109375 7.9375 -5.765625 C 8.132812 -5.421875 8.234375 -5.019531 8.234375 -4.5625 L 8.234375 0 L 5.859375 0 L 5.859375 -3.90625 C 5.859375 -4.269531 5.742188 -4.585938 5.515625 -4.859375 C 5.285156 -5.128906 4.984375 -5.265625 4.609375 -5.265625 C 4.253906 -5.265625 3.929688 -5.125 3.640625 -4.84375 C 3.347656 -4.5625 3.203125 -4.25 3.203125 -3.90625 L 3.203125 0 Z M 0.8125 0 "/></g></g></g><g fill="#004aad" fill-opacity="0.4"><g transform="translate(57.119456, 22.829094)"><g><path d="M 0.8125 0 L 0.8125 -6.921875 L 3.203125 -6.921875 L 3.203125 -5.921875 L 3.21875 -5.921875 C 3.238281 -5.953125 3.269531 -5.992188 3.3125 -6.046875 C 3.351562 -6.109375 3.441406 -6.207031 3.578125 -6.34375 C 3.710938 -6.476562 3.851562 -6.597656 4 -6.703125 C 4.15625 -6.804688 4.351562 -6.898438 4.59375 -6.984375 C 4.84375 -7.078125 5.09375 -7.125 5.34375 -7.125 C 5.601562 -7.125 5.859375 -7.085938 6.109375 -7.015625 C 6.359375 -6.941406 6.539062 -6.867188 6.65625 -6.796875 L 6.84375 -6.6875 L 5.859375 -4.671875 C 5.554688 -4.921875 5.140625 -5.046875 4.609375 -5.046875 C 4.328125 -5.046875 4.082031 -4.984375 3.875 -4.859375 C 3.664062 -4.734375 3.515625 -4.578125 3.421875 -4.390625 C 3.335938 -4.210938 3.28125 -4.0625 3.25 -3.9375 C 3.21875 -3.8125 3.203125 -3.710938 3.203125 -3.640625 L 3.203125 0 Z M 0.8125 0 "/></g></g></g><g fill="#004aad" fill-opacity="0.4"><g transform="translate(64.370659, 22.829094)"><g><path d="M 1.453125 -0.8125 C 0.691406 -1.5 0.3125 -2.378906 0.3125 -3.453125 C 0.3125 -4.523438 0.707031 -5.40625 1.5 -6.09375 C 2.300781 -6.78125 3.296875 -7.125 4.484375 -7.125 C 5.640625 -7.125 6.613281 -6.773438 7.40625 -6.078125 C 8.207031 -5.390625 8.609375 -4.515625 8.609375 -3.453125 C 8.609375 -2.390625 8.21875 -1.515625 7.4375 -0.828125 C 6.65625 -0.140625 5.671875 0.203125 4.484375 0.203125 C 3.234375 0.203125 2.222656 -0.132812 1.453125 -0.8125 Z M 3.3125 -4.625 C 3 -4.320312 2.84375 -3.929688 2.84375 -3.453125 C 2.84375 -2.972656 2.988281 -2.582031 3.28125 -2.28125 C 3.582031 -1.976562 3.976562 -1.828125 4.46875 -1.828125 C 4.9375 -1.828125 5.316406 -1.976562 5.609375 -2.28125 C 5.910156 -2.59375 6.0625 -2.984375 6.0625 -3.453125 C 6.0625 -3.929688 5.90625 -4.320312 5.59375 -4.625 C 5.289062 -4.925781 4.914062 -5.078125 4.46875 -5.078125 C 4.007812 -5.078125 3.625 -4.925781 3.3125 -4.625 Z M 3.3125 -4.625 "/></g></g></g><g fill="#004aad" fill-opacity="0.4"><g transform="translate(73.818777, 22.829094)"><g><path d="M 0.8125 0 L 0.8125 -11.59375 L 3.203125 -11.59375 L 3.203125 0 Z M 0.8125 0 "/></g></g></g><g fill="#004aad" fill-opacity="0.4"><g transform="translate(78.360904, 22.829094)"><g><path d="M 0.8125 0 L 0.8125 -11.59375 L 3.203125 -11.59375 L 3.203125 0 Z M 0.8125 0 "/></g></g></g><g fill="#004aad" fill-opacity="1"><g transform="translate(38.932945, 22.47288)"><g><path d="M 7.171875 -11.125 L 7.171875 -8.90625 L 3.34375 -8.90625 L 3.34375 -6.6875 L 7.015625 -6.6875 L 7.015625 -4.46875 L 3.34375 -4.46875 L 3.34375 -2.21875 L 7.171875 -2.21875 L 7.171875 0 L 0.8125 0 L 0.8125 -11.125 Z M 7.171875 -11.125 "/></g></g></g><g fill="#004aad" fill-opacity="1"><g transform="translate(47.289346, 22.47288)"><g><path d="M 0.8125 0 L 0.8125 -6.921875 L 3.203125 -6.921875 L 3.203125 -6.1875 L 3.21875 -6.1875 C 3.84375 -6.8125 4.503906 -7.125 5.203125 -7.125 C 5.546875 -7.125 5.882812 -7.078125 6.21875 -6.984375 C 6.5625 -6.890625 6.882812 -6.75 7.1875 -6.5625 C 7.5 -6.375 7.75 -6.109375 7.9375 -5.765625 C 8.132812 -5.421875 8.234375 -5.019531 8.234375 -4.5625 L 8.234375 0 L 5.859375 0 L 5.859375 -3.90625 C 5.859375 -4.269531 5.742188 -4.585938 5.515625 -4.859375 C 5.285156 -5.128906 4.984375 -5.265625 4.609375 -5.265625 C 4.253906 -5.265625 3.929688 -5.125 3.640625 -4.84375 C 3.347656 -4.5625 3.203125 -4.25 3.203125 -3.90625 L 3.203125 0 Z M 0.8125 0 "/></g></g></g><g fill="#004aad" fill-opacity="1"><g transform="translate(56.737464, 22.47288)"><g><path d="M 0.8125 0 L 0.8125 -6.921875 L 3.203125 -6.921875 L 3.203125 -5.921875 L 3.21875 -5.921875 C 3.238281 -5.953125 3.269531 -5.992188 3.3125 -6.046875 C 3.351562 -6.109375 3.441406 -6.207031 3.578125 -6.34375 C 3.710938 -6.476562 3.851562 -6.597656 4 -6.703125 C 4.15625 -6.804688 4.351562 -6.898438 4.59375 -6.984375 C 4.84375 -7.078125 5.09375 -7.125 5.34375 -7.125 C 5.601562 -7.125 5.859375 -7.085938 6.109375 -7.015625 C 6.359375 -6.941406 6.539062 -6.867188 6.65625 -6.796875 L 6.84375 -6.6875 L 5.859375 -4.671875 C 5.554688 -4.921875 5.140625 -5.046875 4.609375 -5.046875 C 4.328125 -5.046875 4.082031 -4.984375 3.875 -4.859375 C 3.664062 -4.734375 3.515625 -4.578125 3.421875 -4.390625 C 3.335938 -4.210938 3.28125 -4.0625 3.25 -3.9375 C 3.21875 -3.8125 3.203125 -3.710938 3.203125 -3.640625 L 3.203125 0 Z M 0.8125 0 "/></g></g></g><g fill="#004aad" fill-opacity="1"><g transform="translate(63.988667, 22.47288)"><g><path d="M 1.453125 -0.8125 C 0.691406 -1.5 0.3125 -2.378906 0.3125 -3.453125 C 0.3125 -4.523438 0.707031 -5.40625 1.5 -6.09375 C 2.300781 -6.78125 3.296875 -7.125 4.484375 -7.125 C 5.640625 -7.125 6.613281 -6.773438 7.40625 -6.078125 C 8.207031 -5.390625 8.609375 -4.515625 8.609375 -3.453125 C 8.609375 -2.390625 8.21875 -1.515625 7.4375 -0.828125 C 6.65625 -0.140625 5.671875 0.203125 4.484375 0.203125 C 3.234375 0.203125 2.222656 -0.132812 1.453125 -0.8125 Z M 3.3125 -4.625 C 3 -4.320312 2.84375 -3.929688 2.84375 -3.453125 C 2.84375 -2.972656 2.988281 -2.582031 3.28125 -2.28125 C 3.582031 -1.976562 3.976562 -1.828125 4.46875 -1.828125 C 4.9375 -1.828125 5.316406 -1.976562 5.609375 -2.28125 C 5.910156 -2.59375 6.0625 -2.984375 6.0625 -3.453125 C 6.0625 -3.929688 5.90625 -4.320312 5.59375 -4.625 C 5.289062 -4.925781 4.914062 -5.078125 4.46875 -5.078125 C 4.007812 -5.078125 3.625 -4.925781 3.3125 -4.625 Z M 3.3125 -4.625 "/></g></g></g><g fill="#004aad" fill-opacity="1"><g transform="translate(73.436786, 22.47288)"><g><path d="M 0.8125 0 L 0.8125 -11.59375 L 3.203125 -11.59375 L 3.203125 0 Z M 0.8125 0 "/></g></g></g><g fill="#004aad" fill-opacity="1"><g transform="translate(77.978912, 22.47288)"><g><path d="M 0.8125 0 L 0.8125 -11.59375 L 3.203125 -11.59375 L 3.203125 0 Z M 0.8125 0 "/></g></g></g></svg>