<svg xmlns="http://www.w3.org/2000/svg" xmlns:xlink="http://www.w3.org/1999/xlink" width="100" zoomAndPan="magnify" viewBox="0 0 75 74.999997" height="100" preserveAspectRatio="xMidYMid meet" version="1.0"><defs><g/><clipPath id="d24fb085f6"><path d="M 4.179688 4.179688 L 70.929688 4.179688 L 70.929688 70.929688 L 4.179688 70.929688 Z M 4.179688 4.179688 " clip-rule="nonzero"/></clipPath></defs><g clip-path="url(#d24fb085f6)"><path fill="#ffffff" d="M 37.496094 4.179688 C 19.097656 4.179688 4.179688 19.097656 4.179688 37.496094 C 4.179688 55.898438 19.097656 70.8125 37.496094 70.8125 C 55.898438 70.8125 70.8125 55.898438 70.8125 37.496094 C 70.8125 19.097656 55.898438 4.179688 37.496094 4.179688 Z M 50.472656 30.964844 C 50.660156 31.179688 50.941406 31.277344 51.320312 31.253906 C 52.242188 31.199219 52.949219 30.910156 53.355469 30.417969 C 53.523438 30.214844 53.640625 29.980469 53.695312 29.722656 C 53.886719 30.179688 54.085938 30.4375 54.449219 30.4375 C 54.574219 30.4375 54.882812 30.4375 55.484375 29.78125 C 55.753906 30.460938 56.238281 31.210938 57.046875 31.257812 C 57.671875 31.289062 58.429688 31.285156 58.925781 31.273438 L 58.925781 32.695312 C 57.542969 32.828125 56.019531 32.867188 55.683594 32.699219 C 54.683594 32.199219 53.597656 32.859375 53.59375 32.863281 C 53.101562 33.105469 51.910156 33.539062 51.378906 33.328125 C 51.28125 33.289062 51.222656 33.234375 51.1875 33.140625 C 51.085938 32.878906 51 32.621094 50.921875 32.378906 C 50.640625 31.523438 50.296875 30.484375 49.339844 30.484375 C 49.222656 30.484375 49.09375 30.5 48.953125 30.535156 C 48.691406 30.601562 48.179688 30.652344 47.644531 30.707031 C 47.242188 30.75 46.863281 30.792969 46.507812 30.835938 C 46.683594 30.730469 46.863281 30.597656 47.050781 30.429688 C 48.257812 29.355469 49.523438 28.636719 50.109375 28.675781 C 50.230469 28.683594 50.277344 28.722656 50.308594 28.757812 C 50.484375 28.960938 50.433594 29.296875 50.34375 29.75 C 50.265625 30.15625 50.171875 30.617188 50.472656 30.964844 Z M 50.667969 21.523438 C 51.035156 21.550781 51.386719 21.496094 51.6875 21.289062 C 52.085938 21.007812 52.300781 20.53125 52.34375 19.824219 C 52.433594 18.398438 52.632812 17.578125 52.78125 17.160156 C 52.898438 17.582031 53.011719 18.230469 53.078125 18.855469 C 53.105469 19.125 53.320312 19.34375 53.585938 19.324219 C 53.589844 19.324219 53.628906 19.324219 53.648438 19.347656 C 53.679688 19.390625 53.710938 19.511719 53.683594 19.726562 C 53.566406 20.667969 52.773438 22.402344 51.953125 22.402344 C 51.582031 22.402344 51.242188 22.074219 50.914062 21.753906 C 50.832031 21.675781 50.753906 21.597656 50.667969 21.523438 Z M 35.515625 6.332031 C 35.71875 6.320312 35.917969 6.304688 36.121094 6.296875 C 35.667969 6.566406 35.238281 6.839844 34.859375 7.113281 C 35.128906 6.8125 35.347656 6.558594 35.515625 6.332031 Z M 68.617188 34.921875 C 68.644531 35.25 68.671875 35.574219 68.691406 35.902344 C 68.628906 35.871094 68.566406 35.84375 68.492188 35.816406 C 68.214844 35.71875 67.847656 35.613281 67.453125 35.5 C 66.921875 35.351562 65.9375 35.070312 65.453125 34.816406 C 66.070312 34.726562 67.359375 34.765625 68.617188 34.921875 Z M 63.269531 40.476562 C 66.0625 40.078125 67.667969 39.5 68.035156 38.765625 C 68.117188 38.601562 68.308594 38.371094 68.496094 38.148438 C 68.570312 38.058594 68.648438 37.964844 68.722656 37.871094 C 68.519531 54.921875 54.59375 68.730469 37.496094 68.730469 C 20.726562 68.730469 7.007812 55.445312 6.296875 38.847656 C 6.726562 38.945312 7.207031 38.90625 7.707031 38.867188 C 8.460938 38.804688 9.3125 38.734375 10.320312 39.03125 C 12.261719 39.605469 12.320312 39.882812 12.464844 40.550781 C 12.554688 40.976562 12.679688 41.554688 13.152344 42.304688 C 13.566406 42.96875 14.183594 43.390625 14.929688 43.515625 C 15.101562 43.546875 15.277344 43.558594 15.453125 43.558594 C 16.808594 43.558594 18.140625 42.757812 18.539062 42.4375 C 18.890625 42.15625 18.871094 41.859375 18.828125 41.707031 C 18.691406 41.222656 18.164062 41.152344 17.359375 41.050781 C 17.074219 41.011719 16.742188 40.96875 16.476562 40.902344 C 16.710938 40.679688 16.988281 40.378906 16.988281 39.960938 C 16.988281 39.394531 16.574219 39.128906 16.242188 38.914062 C 15.96875 38.738281 15.660156 38.539062 15.40625 38.132812 C 15.222656 37.835938 15.253906 37.769531 15.394531 37.484375 C 15.535156 37.1875 15.753906 36.738281 15.601562 36.046875 C 15.511719 35.65625 15.273438 35.503906 15.136719 35.449219 C 14.695312 35.269531 14.269531 35.550781 13.773438 35.871094 C 13.421875 36.101562 12.890625 36.445312 12.636719 36.367188 C 12.492188 36.320312 12.378906 36.09375 12.324219 35.960938 C 12.164062 35.570312 12.257812 35.355469 12.34375 35.230469 C 12.835938 34.488281 14.785156 34.183594 15.714844 34.183594 C 15.910156 34.183594 16.332031 34.535156 16.640625 34.792969 C 17.269531 35.316406 18.050781 35.964844 18.898438 35.648438 C 19.5625 35.398438 20.046875 34.375 20.917969 32.429688 C 21.574219 30.960938 22.320312 29.296875 23.082031 28.535156 C 24.046875 27.570312 25.042969 27.640625 26.003906 27.707031 C 26.46875 27.738281 26.910156 27.769531 27.324219 27.675781 C 27.675781 27.597656 28.101562 27.460938 28.300781 27.070312 C 28.539062 26.609375 28.332031 26.128906 28.023438 25.398438 C 27.96875 25.273438 27.910156 25.136719 27.847656 24.988281 C 28.074219 25.015625 28.332031 25.003906 28.609375 24.921875 C 28.652344 24.90625 28.675781 24.90625 28.679688 24.902344 C 28.753906 24.964844 28.867188 25.257812 28.9375 25.433594 C 29.183594 26.078125 29.59375 27.160156 30.996094 27.0625 C 31.535156 27.027344 31.921875 26.84375 32.152344 26.511719 C 32.574219 25.902344 32.320312 25.0625 31.996094 24 C 31.792969 23.316406 31.558594 22.542969 31.476562 21.742188 C 31.382812 20.785156 31.085938 20.167969 30.578125 19.863281 C 29.898438 19.457031 29.136719 19.773438 28.679688 19.960938 C 28.679688 19.960938 28.679688 19.960938 28.675781 19.960938 C 28.597656 19.796875 28.503906 19.539062 28.425781 19.335938 C 28.15625 18.609375 27.851562 17.785156 27.277344 17.351562 C 27.066406 17.191406 26.816406 17.132812 26.574219 17.183594 C 26.015625 17.304688 25.660156 17.949219 25.25 18.695312 C 25.035156 19.082031 24.589844 19.890625 24.378906 19.933594 C 23.363281 19.59375 22.757812 20.535156 22.449219 21.0625 C 22.292969 20.859375 22.179688 20.597656 22.109375 19.75 C 22.058594 19.164062 24.136719 17.796875 25.253906 17.0625 C 26.480469 16.257812 27.542969 15.5625 27.90625 14.949219 C 28.058594 14.699219 28.335938 14.238281 28.023438 13.871094 C 27.714844 13.507812 27.289062 13.675781 26.792969 13.871094 C 26.433594 14.011719 25.90625 14.214844 25.523438 14.179688 C 25.585938 13.976562 25.792969 13.640625 25.871094 13.515625 C 26.015625 13.285156 26.253906 12.898438 25.910156 12.59375 C 25.566406 12.28125 25.195312 12.570312 25.015625 12.710938 C 24.179688 13.367188 22.046875 14.160156 21.339844 14.160156 C 21.210938 14.160156 21.132812 14.15625 21.078125 14.152344 C 21.054688 14.023438 21.039062 13.78125 21.023438 13.546875 C 21.011719 13.390625 21 13.214844 20.984375 13.015625 C 20.945312 12.566406 20.742188 12.1875 20.394531 11.914062 C 20.265625 11.8125 20.117188 11.730469 19.960938 11.664062 C 20.980469 10.96875 22.046875 10.339844 23.148438 9.769531 C 23.539062 10.152344 24.53125 10.726562 27.355469 11.320312 C 28.117188 11.480469 28.636719 11.71875 29.054688 11.914062 C 29.4375 12.089844 29.777344 12.222656 30.09375 12.222656 C 30.5625 12.222656 30.980469 11.929688 31.425781 11.042969 C 31.699219 10.496094 32.457031 9.652344 33.238281 8.824219 C 33.183594 8.988281 33.167969 9.148438 33.199219 9.300781 C 33.347656 9.96875 33.648438 10.550781 33.886719 11.019531 C 33.980469 11.203125 34.097656 11.4375 34.152344 11.585938 C 34.089844 11.628906 34.011719 11.679688 33.945312 11.722656 C 33.511719 11.992188 32.921875 12.359375 32.816406 13.03125 C 32.746094 13.464844 32.910156 13.925781 33.300781 14.390625 C 33.980469 15.199219 33.796875 15.785156 33.5625 16.527344 C 33.441406 16.917969 33.3125 17.320312 33.3125 17.765625 C 33.3125 17.984375 33.28125 18.339844 33.246094 18.714844 C 33.082031 20.5 33.023438 21.804688 33.75 22.289062 C 33.875 22.371094 34.050781 22.445312 34.277344 22.445312 C 34.46875 22.445312 34.691406 22.394531 34.953125 22.253906 C 35.800781 21.800781 36.054688 21.324219 36.34375 20.773438 C 36.703125 20.089844 37.199219 19.160156 39.171875 17.453125 C 42.679688 14.425781 45.347656 8.71875 45.46875 7.296875 C 50.398438 8.601562 54.855469 11.078125 58.515625 14.414062 C 58.082031 15.183594 57.507812 15.875 57.042969 15.792969 C 56.871094 15.761719 56.863281 15.761719 56.84375 15.304688 C 56.8125 14.636719 56.761719 13.523438 54.925781 13.164062 C 52.304688 12.648438 48.585938 13.835938 47.714844 16.136719 C 47.117188 17.722656 47.058594 19.273438 47.5625 20.1875 C 47.824219 20.660156 48.226562 20.960938 48.726562 21.0625 C 48.9375 21.101562 49.164062 21.167969 49.40625 21.242188 C 49.257812 21.328125 49.125 21.464844 49.011719 21.648438 C 47.957031 23.332031 46.707031 24.644531 46.328125 24.648438 C 45.675781 24.648438 45.152344 25.230469 44.929688 26.203125 C 44.84375 26.589844 44.789062 27.046875 44.902344 27.378906 C 44.894531 27.386719 44.890625 27.390625 44.882812 27.398438 C 44.484375 27.195312 43.847656 26.957031 43.339844 27.15625 C 43.019531 27.277344 42.792969 27.550781 42.699219 27.917969 C 42.472656 28.828125 42.679688 30.074219 43.167969 30.699219 C 43.480469 31.101562 43.835938 31.1875 44.078125 31.1875 C 44.21875 31.1875 44.359375 31.203125 44.5 31.214844 C 44.554688 31.222656 44.605469 31.226562 44.664062 31.234375 C 44.234375 31.394531 43.921875 31.609375 43.753906 31.90625 L 43.527344 32.304688 C 43.125 33.023438 42.707031 33.769531 42.253906 34.128906 L 42.160156 34.207031 C 41.539062 34.699219 40.59375 35.449219 40.199219 37.167969 C 39.773438 39.003906 40.699219 42.960938 43.082031 43.542969 C 44.632812 43.925781 46.535156 43.757812 47.925781 43.636719 C 48.398438 43.597656 48.804688 43.5625 49.082031 43.558594 C 49.636719 43.558594 49.914062 43.84375 50.058594 45.449219 C 50.132812 46.285156 50.484375 46.808594 50.792969 47.269531 C 51.054688 47.660156 51.261719 47.972656 51.308594 48.449219 C 51.359375 48.960938 51.316406 49.3125 51.261719 49.757812 C 51.195312 50.324219 51.109375 51.027344 51.183594 52.296875 C 51.210938 52.816406 51.199219 53.378906 51.183594 53.976562 C 51.140625 55.9375 51.089844 58.15625 52.746094 58.867188 C 52.992188 58.972656 53.199219 59.082031 53.386719 59.175781 C 53.863281 59.421875 54.25 59.578125 54.628906 59.578125 C 55.453125 59.578125 56.242188 58.839844 57.863281 56.703125 C 60.757812 52.890625 61.351562 51.039062 61.828125 49.015625 C 62.320312 46.933594 63.816406 45.058594 65.003906 44.199219 C 66.179688 43.34375 67.019531 42 66.800781 41.328125 C 66.710938 41.058594 66.472656 40.882812 66.195312 40.882812 C 66.140625 40.882812 66.027344 40.894531 65.867188 40.914062 C 65.039062 41.011719 62.515625 41.308594 61.796875 39.742188 C 61.742188 39.625 61.6875 39.507812 61.628906 39.390625 C 62.144531 40.101562 62.679688 40.558594 63.269531 40.476562 Z M 63.269531 40.476562 " fill-opacity="1" fill-rule="nonzero"/></g><path fill="#ffffff" d="M 34.480469 46.027344 C 33.125 45.625 31.734375 44.617188 30.507812 43.726562 C 29.914062 43.292969 29.351562 42.886719 28.851562 42.589844 C 27.441406 41.757812 25.179688 41.363281 24.648438 41.28125 C 24.265625 41.039062 23.902344 40.773438 23.554688 40.511719 C 22.765625 39.929688 22.144531 39.472656 21.527344 39.472656 C 21.234375 39.472656 20.820312 39.578125 20.515625 40.085938 C 19.933594 41.070312 19.3125 42.046875 18.15625 43.152344 C 17.898438 43.398438 17.535156 43.632812 17.183594 43.863281 C 16.386719 44.382812 15.566406 44.917969 15.472656 45.804688 C 15.414062 46.390625 15.699219 46.992188 16.347656 47.640625 C 17.0625 48.355469 17.90625 48.808594 18.722656 49.25 C 20.316406 50.105469 21.695312 50.847656 22.074219 53.347656 C 22.78125 58.011719 25.785156 62.484375 27.042969 64.191406 C 27.964844 65.441406 28.945312 66.128906 29.808594 66.128906 C 30.175781 66.128906 30.507812 66 30.742188 65.765625 C 30.976562 65.539062 31.105469 65.222656 31.105469 64.882812 C 31.105469 64.628906 31.128906 64.367188 31.152344 64.089844 C 31.214844 63.425781 31.28125 62.679688 31.097656 61.667969 C 30.847656 60.300781 30.859375 59.652344 31.144531 59.179688 C 31.191406 59.097656 31.300781 59.066406 31.523438 59.015625 C 31.773438 58.960938 32.113281 58.886719 32.304688 58.5625 C 32.4375 58.339844 32.449219 58.070312 32.347656 57.738281 C 32.289062 57.539062 32.214844 57.351562 32.140625 57.167969 C 31.898438 56.574219 31.777344 56.277344 32.246094 55.730469 C 33.136719 54.691406 34.578125 52.34375 34.847656 50.601562 C 34.914062 50.167969 35.132812 49.691406 35.339844 49.226562 C 35.691406 48.453125 36.054688 47.65625 35.730469 46.949219 C 35.53125 46.515625 35.121094 46.214844 34.480469 46.027344 Z M 34.480469 46.027344 " fill-opacity="1" fill-rule="nonzero"/><path fill="#ffffff" d="M 31.789062 12.304688 C 31.65625 12.0625 31.351562 11.96875 31.101562 12.09375 C 31.050781 12.117188 29.816406 12.75 29.816406 14.058594 C 29.816406 14.316406 29.4375 14.789062 29.160156 15.132812 C 28.675781 15.738281 27.945312 16.65625 28.753906 17.328125 C 28.949219 17.492188 29.222656 17.582031 29.539062 17.582031 C 30.308594 17.582031 31.398438 17.050781 31.992188 16.039062 C 32.433594 15.292969 32.753906 14.039062 31.789062 12.304688 Z M 31.789062 12.304688 " fill-opacity="1" fill-rule="nonzero"/><path fill="#ffffff" d="M 41.6875 21.390625 C 43.730469 20.371094 43.484375 17.152344 43.472656 17.015625 C 43.460938 16.863281 43.382812 16.726562 43.257812 16.636719 C 43.136719 16.546875 42.976562 16.519531 42.832031 16.554688 C 42.375 16.667969 40.070312 17.289062 39.492188 18.445312 C 39.152344 19.121094 39.070312 20.253906 39.519531 20.980469 C 39.789062 21.414062 40.210938 21.652344 40.710938 21.652344 C 41.011719 21.652344 41.339844 21.5625 41.6875 21.390625 Z M 41.6875 21.390625 " fill-opacity="1" fill-rule="nonzero"/><g fill="#ffffff" fill-opacity="1"><g transform="translate(19.37278, 58.762212)"><g><path d="M 0.703125 -1.15625 C 0.816406 -1.15625 0.914062 -1.128906 1 -1.078125 C 1.09375 -1.023438 1.164062 -0.953125 1.21875 -0.859375 C 1.269531 -0.773438 1.296875 -0.679688 1.296875 -0.578125 L 1.296875 -0.078125 C 1.296875 -0.0546875 1.285156 -0.0351562 1.265625 -0.015625 C 1.253906 -0.00390625 1.234375 0 1.203125 0 C 1.179688 0 1.160156 -0.00390625 1.140625 -0.015625 C 1.128906 -0.0351562 1.125 -0.0546875 1.125 -0.078125 L 1.125 -0.203125 C 1.082031 -0.140625 1.019531 -0.0859375 0.9375 -0.046875 C 0.863281 -0.00390625 0.78125 0.015625 0.6875 0.015625 C 0.582031 0.015625 0.488281 -0.0078125 0.40625 -0.0625 C 0.320312 -0.113281 0.253906 -0.179688 0.203125 -0.265625 C 0.148438 -0.359375 0.125 -0.460938 0.125 -0.578125 C 0.125 -0.679688 0.148438 -0.773438 0.203125 -0.859375 C 0.253906 -0.953125 0.320312 -1.023438 0.40625 -1.078125 C 0.5 -1.128906 0.597656 -1.15625 0.703125 -1.15625 Z M 0.703125 -0.140625 C 0.785156 -0.140625 0.859375 -0.15625 0.921875 -0.1875 C 0.984375 -0.226562 1.03125 -0.28125 1.0625 -0.34375 C 1.101562 -0.414062 1.125 -0.492188 1.125 -0.578125 C 1.125 -0.648438 1.101562 -0.71875 1.0625 -0.78125 C 1.03125 -0.851562 0.984375 -0.910156 0.921875 -0.953125 C 0.859375 -0.992188 0.785156 -1.015625 0.703125 -1.015625 C 0.628906 -1.015625 0.554688 -0.992188 0.484375 -0.953125 C 0.421875 -0.910156 0.367188 -0.851562 0.328125 -0.78125 C 0.296875 -0.71875 0.28125 -0.648438 0.28125 -0.578125 C 0.28125 -0.492188 0.296875 -0.414062 0.328125 -0.34375 C 0.367188 -0.28125 0.421875 -0.226562 0.484375 -0.1875 C 0.554688 -0.15625 0.628906 -0.140625 0.703125 -0.140625 Z M 0.703125 -0.140625 "/></g></g></g></svg>