<svg xmlns="http://www.w3.org/2000/svg" xmlns:xlink="http://www.w3.org/1999/xlink" width="50" zoomAndPan="magnify" viewBox="0 0 37.5 37.499999" height="50" preserveAspectRatio="xMidYMid meet" version="1.0"><defs><g/><clipPath id="d0331b5c13"><path d="M 3.285156 15 L 13 15 L 13 33.898438 L 3.285156 33.898438 Z M 3.285156 15 " clip-rule="nonzero"/></clipPath><clipPath id="2ed68dedee"><path d="M 22 22 L 33.628906 22 L 33.628906 33.898438 L 22 33.898438 Z M 22 22 " clip-rule="nonzero"/></clipPath></defs><g clip-path="url(#d0331b5c13)"><path fill="#000000" d="M 5.652344 23.5625 L 5.652344 31.761719 C 5.652344 32.9375 6.601562 33.882812 7.789062 33.882812 C 8.972656 33.882812 9.921875 32.9375 9.921875 31.761719 L 9.921875 23.5625 C 11.367188 22.785156 12.292969 21.300781 12.292969 19.652344 C 12.292969 17.953125 11.34375 16.445312 9.804688 15.691406 C 9.660156 15.621094 9.472656 15.621094 9.351562 15.714844 C 9.210938 15.8125 9.140625 15.953125 9.140625 16.117188 L 9.140625 18.828125 L 7.953125 19.507812 L 6.769531 18.828125 L 6.769531 15.976562 C 6.769531 15.8125 6.695312 15.667969 6.554688 15.574219 C 6.414062 15.480469 6.246094 15.480469 6.105469 15.527344 C 4.375 16.234375 3.285156 17.835938 3.285156 19.652344 C 3.285156 21.277344 4.207031 22.785156 5.652344 23.5625 Z M 5.796875 16.753906 L 5.796875 19.085938 C 5.796875 19.25 5.890625 19.414062 6.035156 19.484375 L 7.691406 20.429688 C 7.835938 20.523438 8.023438 20.523438 8.167969 20.429688 L 9.828125 19.484375 C 9.96875 19.390625 10.0625 19.25 10.0625 19.085938 L 10.0625 16.964844 C 10.871094 17.625 11.34375 18.589844 11.34375 19.652344 C 11.34375 21.019531 10.515625 22.265625 9.257812 22.832031 C 9.089844 22.902344 8.972656 23.066406 8.972656 23.253906 L 8.972656 31.761719 C 8.972656 32.421875 8.453125 32.9375 7.789062 32.9375 C 7.125 32.9375 6.601562 32.421875 6.601562 31.761719 L 6.601562 23.253906 C 6.601562 23.066406 6.484375 22.902344 6.316406 22.832031 C 5.0625 22.265625 4.230469 21.019531 4.230469 19.652344 C 4.230469 18.472656 4.824219 17.390625 5.796875 16.753906 Z M 5.796875 16.753906 " fill-opacity="1" fill-rule="nonzero"/></g><g clip-path="url(#2ed68dedee)"><path fill="#000000" d="M 32.941406 26.882812 C 32.824219 26.460938 32.65625 26.035156 32.417969 25.660156 C 32.492188 25.519531 32.539062 25.351562 32.539062 25.210938 C 32.539062 24.953125 32.441406 24.691406 32.253906 24.503906 L 31.707031 23.960938 C 31.398438 23.65625 30.925781 23.585938 30.546875 23.773438 C 30.167969 23.539062 29.742188 23.375 29.3125 23.253906 C 29.195312 22.855469 28.816406 22.574219 28.367188 22.574219 L 27.582031 22.574219 C 27.132812 22.574219 26.753906 22.855469 26.636719 23.253906 C 26.207031 23.375 25.78125 23.539062 25.402344 23.773438 C 25.023438 23.585938 24.546875 23.632812 24.242188 23.960938 L 23.695312 24.503906 C 23.503906 24.691406 23.410156 24.929688 23.410156 25.210938 C 23.410156 25.375 23.457031 25.542969 23.527344 25.660156 C 23.292969 26.035156 23.125 26.460938 23.007812 26.882812 C 22.605469 27.003906 22.320312 27.378906 22.320312 27.828125 L 22.320312 28.605469 C 22.320312 29.050781 22.605469 29.429688 23.007812 29.546875 C 23.125 29.96875 23.292969 30.394531 23.527344 30.773438 C 23.457031 30.914062 23.410156 31.078125 23.410156 31.21875 C 23.410156 31.476562 23.503906 31.738281 23.695312 31.925781 L 24.242188 32.46875 C 24.546875 32.773438 25.023438 32.84375 25.402344 32.65625 C 25.78125 32.890625 26.207031 33.058594 26.636719 33.175781 C 26.753906 33.574219 27.132812 33.859375 27.582031 33.859375 L 28.367188 33.859375 C 28.816406 33.859375 29.195312 33.574219 29.3125 33.175781 C 29.742188 33.058594 30.167969 32.890625 30.546875 32.65625 C 30.925781 32.84375 31.398438 32.796875 31.707031 32.46875 L 32.253906 31.925781 C 32.441406 31.738281 32.539062 31.503906 32.539062 31.21875 C 32.539062 31.054688 32.492188 30.890625 32.417969 30.773438 C 32.65625 30.394531 32.824219 29.96875 32.941406 29.546875 C 33.34375 29.429688 33.628906 29.050781 33.628906 28.605469 L 33.628906 27.828125 C 33.628906 27.402344 33.34375 27.027344 32.941406 26.882812 Z M 32.679688 28.628906 C 32.679688 28.652344 32.65625 28.675781 32.632812 28.675781 L 32.539062 28.675781 C 32.300781 28.675781 32.113281 28.839844 32.0625 29.050781 C 31.945312 29.59375 31.730469 30.113281 31.425781 30.558594 C 31.304688 30.75 31.328125 31.007812 31.472656 31.148438 L 31.542969 31.21875 C 31.566406 31.242188 31.566406 31.265625 31.542969 31.289062 L 30.996094 31.832031 C 30.972656 31.855469 30.949219 31.855469 30.925781 31.832031 L 30.855469 31.761719 C 30.6875 31.597656 30.453125 31.574219 30.261719 31.714844 C 29.789062 32.019531 29.289062 32.230469 28.746094 32.351562 C 28.53125 32.398438 28.367188 32.585938 28.367188 32.820312 L 28.367188 32.914062 C 28.367188 32.9375 28.34375 32.960938 28.316406 32.960938 L 27.535156 32.960938 C 27.511719 32.960938 27.488281 32.9375 27.488281 32.914062 L 27.488281 32.820312 C 27.488281 32.585938 27.324219 32.398438 27.109375 32.351562 C 26.5625 32.230469 26.042969 32.019531 25.59375 31.714844 C 25.519531 31.667969 25.425781 31.644531 25.332031 31.644531 C 25.210938 31.644531 25.09375 31.691406 25 31.785156 L 24.929688 31.855469 C 24.90625 31.878906 24.878906 31.878906 24.855469 31.855469 L 24.3125 31.3125 C 24.289062 31.289062 24.289062 31.265625 24.3125 31.242188 L 24.382812 31.171875 C 24.546875 31.007812 24.574219 30.773438 24.429688 30.582031 C 24.121094 30.113281 23.910156 29.617188 23.789062 29.074219 C 23.742188 28.863281 23.554688 28.699219 23.316406 28.699219 L 23.222656 28.699219 C 23.199219 28.699219 23.171875 28.675781 23.171875 28.652344 L 23.171875 27.875 C 23.171875 27.851562 23.199219 27.828125 23.222656 27.828125 L 23.316406 27.828125 C 23.554688 27.828125 23.742188 27.660156 23.789062 27.449219 C 23.910156 26.90625 24.121094 26.390625 24.429688 25.941406 C 24.546875 25.753906 24.523438 25.492188 24.382812 25.351562 L 24.3125 25.28125 C 24.289062 25.257812 24.289062 25.234375 24.3125 25.210938 L 24.855469 24.667969 C 24.878906 24.644531 24.90625 24.644531 24.929688 24.667969 L 25 24.738281 C 25.164062 24.90625 25.402344 24.929688 25.59375 24.789062 C 26.066406 24.480469 26.5625 24.269531 27.109375 24.152344 C 27.324219 24.105469 27.488281 23.914062 27.488281 23.679688 L 27.488281 23.585938 C 27.488281 23.5625 27.511719 23.539062 27.535156 23.539062 L 28.316406 23.539062 C 28.34375 23.539062 28.367188 23.5625 28.367188 23.585938 L 28.367188 23.679688 C 28.367188 23.914062 28.53125 24.105469 28.746094 24.152344 C 29.289062 24.269531 29.8125 24.480469 30.261719 24.789062 C 30.453125 24.90625 30.710938 24.882812 30.855469 24.738281 L 30.925781 24.667969 C 30.949219 24.644531 30.972656 24.644531 30.996094 24.667969 L 31.542969 25.210938 C 31.566406 25.234375 31.566406 25.257812 31.542969 25.28125 L 31.472656 25.351562 C 31.304688 25.519531 31.28125 25.753906 31.425781 25.941406 C 31.730469 26.414062 31.945312 26.90625 32.0625 27.449219 C 32.113281 27.660156 32.300781 27.828125 32.539062 27.828125 L 32.632812 27.828125 C 32.65625 27.828125 32.679688 27.851562 32.679688 27.875 Z M 32.679688 28.628906 " fill-opacity="1" fill-rule="nonzero"/></g><path fill="#000000" d="M 27.9375 25.636719 C 26.492188 25.636719 25.332031 26.789062 25.332031 28.226562 C 25.332031 29.664062 26.492188 30.820312 27.9375 30.820312 C 29.386719 30.820312 30.546875 29.664062 30.546875 28.226562 C 30.546875 26.789062 29.386719 25.636719 27.9375 25.636719 Z M 27.9375 29.875 C 27.015625 29.875 26.28125 29.144531 26.28125 28.226562 C 26.28125 27.308594 27.015625 26.578125 27.9375 26.578125 C 28.863281 26.578125 29.597656 27.308594 29.597656 28.226562 C 29.597656 29.144531 28.863281 29.875 27.9375 29.875 Z M 27.9375 29.875 " fill-opacity="1" fill-rule="nonzero"/><path fill="#000000" d="M 7.789062 31.996094 C 8.046875 31.996094 8.261719 31.785156 8.261719 31.527344 L 8.261719 31.054688 C 8.261719 30.796875 8.046875 30.582031 7.789062 30.582031 C 7.527344 30.582031 7.3125 30.796875 7.3125 31.054688 L 7.3125 31.527344 C 7.3125 31.785156 7.527344 31.996094 7.789062 31.996094 Z M 7.789062 31.996094 " fill-opacity="1" fill-rule="nonzero"/><path fill="#000000" d="M 10.871094 31.289062 L 10.871094 31.761719 C 10.871094 31.925781 10.847656 32.066406 10.820312 32.230469 L 22.652344 32.230469 C 22.484375 31.949219 22.390625 31.621094 22.390625 31.289062 Z M 10.871094 31.289062 " fill-opacity="1" fill-rule="nonzero"/><path fill="#000000" d="M 22.890625 18.96875 L 22.273438 17.035156 C 23.457031 15.480469 24.121094 13.785156 24.335938 11.921875 C 24.335938 11.898438 24.359375 11.898438 24.359375 11.875 C 24.644531 10.699219 24.808594 9.589844 24.855469 8.578125 C 24.929688 6.738281 24.027344 5.089844 22.582031 4.476562 C 18.644531 2.828125 16.226562 4.40625 15.539062 4.972656 C 14.664062 4.785156 14.070312 5.089844 13.714844 5.398438 C 12.101562 6.785156 12.480469 10.652344 12.527344 11.097656 C 12.527344 11.121094 12.527344 11.144531 12.527344 11.167969 C 12.625 13.335938 13.3125 15.246094 14.640625 17.011719 L 14.023438 18.992188 C 13.976562 19.132812 13.878906 19.226562 13.761719 19.273438 L 13.242188 19.460938 C 13.242188 19.535156 13.242188 19.582031 13.242188 19.652344 C 13.242188 19.957031 13.214844 20.238281 13.167969 20.523438 L 13.3125 20.453125 L 17.980469 24.433594 L 17.980469 27.332031 C 17.980469 27.589844 18.195312 27.804688 18.457031 27.804688 C 18.714844 27.804688 18.929688 27.589844 18.929688 27.332031 L 18.929688 24.433594 L 23.601562 20.453125 L 26.753906 21.796875 C 26.992188 21.675781 27.273438 21.628906 27.558594 21.628906 L 28.34375 21.628906 C 28.980469 21.628906 29.597656 21.960938 29.953125 22.476562 C 30.191406 22.550781 30.40625 22.644531 30.617188 22.761719 C 30.710938 22.738281 30.832031 22.738281 30.925781 22.738281 C 30.808594 22.597656 30.640625 22.453125 30.476562 22.382812 C 30.476562 22.382812 30.453125 22.382812 30.453125 22.382812 L 23.148438 19.25 C 23.03125 19.203125 22.9375 19.085938 22.890625 18.96875 Z M 14.332031 6.105469 C 14.640625 5.84375 15.042969 5.773438 15.5625 5.914062 C 15.730469 5.960938 15.917969 5.914062 16.039062 5.796875 C 16.132812 5.703125 18.21875 3.652344 22.226562 5.328125 C 23.269531 5.773438 23.957031 7.070312 23.910156 8.507812 C 23.886719 8.976562 23.835938 9.472656 23.765625 9.96875 L 23.339844 9.238281 C 23.269531 9.121094 23.171875 9.050781 23.03125 9.023438 C 22.914062 9 22.769531 9.023438 22.675781 9.097656 C 22.582031 9.167969 20.066406 10.746094 17.484375 8.105469 C 17.367188 7.988281 17.222656 7.941406 17.082031 7.964844 C 16.9375 7.988281 16.796875 8.082031 16.726562 8.222656 C 16.703125 8.269531 16.109375 9.449219 16.394531 10.699219 C 16.371094 10.675781 16.347656 10.675781 16.347656 10.652344 C 16.296875 10.628906 16.25 10.605469 16.203125 10.558594 C 16.109375 10.484375 16.015625 10.390625 15.917969 10.320312 C 15.445312 9.875 15.066406 9.285156 14.828125 8.554688 C 14.757812 8.390625 14.617188 8.269531 14.425781 8.246094 C 14.234375 8.222656 14.070312 8.320312 13.976562 8.460938 L 13.453125 9.308594 C 13.453125 8.082031 13.644531 6.667969 14.332031 6.105469 Z M 13.476562 10.980469 L 14.257812 9.707031 C 14.519531 10.203125 14.851562 10.628906 15.230469 10.980469 C 15.351562 11.097656 15.46875 11.191406 15.585938 11.289062 C 15.660156 11.335938 15.707031 11.382812 15.777344 11.429688 C 16.558594 11.96875 17.246094 12.042969 17.316406 12.042969 C 17.507812 12.066406 17.699219 11.945312 17.792969 11.78125 C 17.886719 11.617188 17.839844 11.40625 17.722656 11.261719 C 17.625 11.144531 17.53125 11.027344 17.460938 10.886719 C 17.4375 10.839844 17.414062 10.816406 17.390625 10.746094 C 17.367188 10.675781 17.316406 10.605469 17.292969 10.507812 C 17.175781 10.0625 17.222656 9.613281 17.316406 9.261719 C 19.59375 11.144531 21.824219 10.507812 22.722656 10.085938 L 23.316406 11.050781 C 23.386719 11.191406 23.433594 11.335938 23.410156 11.476562 C 23.410156 11.476562 23.410156 11.476562 23.410156 11.5 C 23.222656 13.691406 22.34375 15.597656 20.707031 17.34375 C 20.140625 17.953125 19.332031 18.285156 18.433594 18.285156 C 17.554688 18.285156 16.726562 17.929688 16.15625 17.34375 C 14.449219 15.480469 13.546875 13.382812 13.476562 10.980469 Z M 18.457031 23.609375 L 14.285156 20.050781 C 14.589844 19.886719 14.828125 19.582031 14.921875 19.25 L 15.375 17.859375 C 15.421875 17.90625 15.46875 17.976562 15.515625 18.027344 C 16.25 18.828125 17.339844 19.273438 18.480469 19.273438 C 19.617188 19.273438 20.707031 18.828125 21.441406 18.027344 C 21.492188 17.976562 21.515625 17.929688 21.5625 17.882812 L 21.988281 19.25 C 22.105469 19.582031 22.320312 19.886719 22.628906 20.050781 Z M 18.457031 23.609375 " fill-opacity="1" fill-rule="nonzero"/><g fill="#ffffff" fill-opacity="1"><g transform="translate(0.0000005, 36.494446)"><g><path d="M 0.59375 -0.96875 C 0.6875 -0.96875 0.769531 -0.945312 0.84375 -0.90625 C 0.914062 -0.863281 0.972656 -0.800781 1.015625 -0.71875 C 1.054688 -0.644531 1.078125 -0.566406 1.078125 -0.484375 L 1.078125 -0.0625 C 1.078125 -0.0390625 1.070312 -0.0234375 1.0625 -0.015625 C 1.050781 -0.00390625 1.035156 0 1.015625 0 C 0.992188 0 0.972656 -0.00390625 0.953125 -0.015625 C 0.941406 -0.0234375 0.9375 -0.0390625 0.9375 -0.0625 L 0.9375 -0.171875 C 0.894531 -0.117188 0.84375 -0.0703125 0.78125 -0.03125 C 0.71875 0 0.648438 0.015625 0.578125 0.015625 C 0.492188 0.015625 0.414062 -0.00390625 0.34375 -0.046875 C 0.269531 -0.0976562 0.210938 -0.160156 0.171875 -0.234375 C 0.128906 -0.304688 0.109375 -0.390625 0.109375 -0.484375 C 0.109375 -0.566406 0.128906 -0.644531 0.171875 -0.71875 C 0.210938 -0.800781 0.269531 -0.863281 0.34375 -0.90625 C 0.414062 -0.945312 0.5 -0.96875 0.59375 -0.96875 Z M 0.59375 -0.109375 C 0.65625 -0.109375 0.710938 -0.125 0.765625 -0.15625 C 0.828125 -0.1875 0.875 -0.226562 0.90625 -0.28125 C 0.9375 -0.34375 0.953125 -0.410156 0.953125 -0.484375 C 0.953125 -0.546875 0.9375 -0.601562 0.90625 -0.65625 C 0.875 -0.71875 0.828125 -0.765625 0.765625 -0.796875 C 0.710938 -0.828125 0.65625 -0.84375 0.59375 -0.84375 C 0.53125 -0.84375 0.46875 -0.828125 0.40625 -0.796875 C 0.351562 -0.765625 0.3125 -0.71875 0.28125 -0.65625 C 0.25 -0.601562 0.234375 -0.546875 0.234375 -0.484375 C 0.234375 -0.410156 0.25 -0.34375 0.28125 -0.28125 C 0.3125 -0.226562 0.351562 -0.1875 0.40625 -0.15625 C 0.46875 -0.125 0.53125 -0.109375 0.59375 -0.109375 Z M 0.59375 -0.109375 "/></g></g></g></svg>