<svg xmlns="http://www.w3.org/2000/svg" xmlns:xlink="http://www.w3.org/1999/xlink" width="50" zoomAndPan="magnify" viewBox="0 0 37.5 37.499999" height="50" preserveAspectRatio="xMidYMid meet" version="1.0"><defs><g/><clipPath id="3b36b758ca"><path d="M 9 6 L 27 6 L 27 35.894531 L 9 35.894531 Z M 9 6 " clip-rule="nonzero"/></clipPath><clipPath id="09ef66fb67"><path d="M 17 1.109375 L 20 1.109375 L 20 7 L 17 7 Z M 17 1.109375 " clip-rule="nonzero"/></clipPath><clipPath id="46a08ef57c"><path d="M 3.929688 15 L 10 15 L 10 17 L 3.929688 17 Z M 3.929688 15 " clip-rule="nonzero"/></clipPath><clipPath id="0a2f454ad1"><path d="M 27 15 L 32.792969 15 L 32.792969 17 L 27 17 Z M 27 15 " clip-rule="nonzero"/></clipPath></defs><g clip-path="url(#3b36b758ca)"><path fill="#000000" d="M 26.945312 15.644531 C 26.945312 15.074219 26.890625 14.511719 26.78125 13.953125 C 26.671875 13.394531 26.507812 12.855469 26.292969 12.328125 C 26.078125 11.800781 25.8125 11.304688 25.5 10.828125 C 25.1875 10.355469 24.832031 9.917969 24.433594 9.515625 C 24.035156 9.113281 23.601562 8.753906 23.132812 8.4375 C 22.664062 8.121094 22.167969 7.855469 21.648438 7.636719 C 21.125 7.417969 20.589844 7.253906 20.035156 7.144531 C 19.484375 7.03125 18.925781 6.976562 18.363281 6.976562 C 17.796875 6.976562 17.238281 7.03125 16.6875 7.144531 C 16.132812 7.253906 15.597656 7.417969 15.078125 7.636719 C 14.554688 7.855469 14.0625 8.121094 13.59375 8.4375 C 13.125 8.753906 12.691406 9.113281 12.292969 9.515625 C 11.890625 9.917969 11.535156 10.355469 11.222656 10.828125 C 10.910156 11.304688 10.644531 11.800781 10.429688 12.328125 C 10.214844 12.855469 10.050781 13.394531 9.941406 13.953125 C 9.832031 14.511719 9.777344 15.074219 9.777344 15.644531 C 9.777344 18.1875 11.191406 20.722656 12.441406 22.960938 C 13.167969 24.144531 13.769531 25.394531 14.234375 26.707031 L 13.957031 26.707031 C 13.828125 26.710938 13.722656 26.761719 13.632812 26.855469 C 13.546875 26.949219 13.503906 27.0625 13.511719 27.191406 C 13.515625 27.320312 13.5625 27.429688 13.65625 27.519531 C 13.75 27.605469 13.863281 27.648438 13.992188 27.644531 L 14.023438 27.644531 L 14.398438 27.617188 C 14.398438 27.675781 14.398438 27.742188 14.398438 27.804688 L 14.398438 28.085938 L 14.042969 28.113281 C 13.914062 28.117188 13.804688 28.167969 13.71875 28.261719 C 13.632812 28.355469 13.589844 28.46875 13.59375 28.597656 C 13.597656 28.726562 13.648438 28.835938 13.742188 28.925781 C 13.835938 29.011719 13.945312 29.054688 14.074219 29.050781 L 14.398438 29.050781 L 14.398438 29.519531 L 14.144531 29.519531 C 14.015625 29.523438 13.90625 29.574219 13.820312 29.667969 C 13.734375 29.761719 13.691406 29.875 13.695312 30.003906 C 13.699219 30.132812 13.75 30.242188 13.84375 30.328125 C 13.9375 30.417969 14.046875 30.460938 14.175781 30.457031 L 14.398438 30.457031 L 14.398438 30.925781 L 14.242188 30.925781 C 14.113281 30.929688 14.003906 30.980469 13.917969 31.074219 C 13.832031 31.167969 13.789062 31.28125 13.792969 31.410156 C 13.796875 31.539062 13.847656 31.648438 13.941406 31.734375 C 14.035156 31.824219 14.144531 31.867188 14.273438 31.859375 L 14.394531 31.859375 L 14.394531 32.152344 C 14.578125 33.335938 15.5 34.082031 16.613281 34.441406 C 16.726562 34.835938 16.945312 35.160156 17.269531 35.40625 C 17.589844 35.65625 17.957031 35.785156 18.363281 35.792969 C 18.761719 35.777344 19.121094 35.648438 19.4375 35.398438 C 19.75 35.152344 19.964844 34.835938 20.078125 34.449219 C 20.53125 34.328125 20.941406 34.117188 21.300781 33.816406 C 21.660156 33.511719 21.941406 33.148438 22.140625 32.71875 L 22.757812 32.671875 C 22.882812 32.660156 22.988281 32.609375 23.074219 32.511719 C 23.15625 32.414062 23.191406 32.300781 23.183594 32.171875 C 23.175781 32.039062 23.121094 31.933594 23.023438 31.847656 C 22.929688 31.761719 22.816406 31.726562 22.6875 31.734375 L 22.292969 31.761719 L 22.292969 31.292969 L 22.65625 31.265625 C 22.78125 31.257812 22.886719 31.203125 22.96875 31.105469 C 23.054688 31.007812 23.089844 30.894531 23.082031 30.765625 C 23.074219 30.636719 23.019531 30.527344 22.921875 30.441406 C 22.824219 30.359375 22.714844 30.320312 22.585938 30.328125 L 22.292969 30.328125 L 22.292969 29.859375 L 22.550781 29.859375 C 22.683594 29.855469 22.792969 29.804688 22.882812 29.707031 C 22.96875 29.609375 23.011719 29.496094 23.003906 29.363281 C 22.992188 29.234375 22.941406 29.128906 22.84375 29.042969 C 22.746094 28.957031 22.632812 28.917969 22.507812 28.929688 L 22.316406 28.929688 L 22.316406 28.460938 L 22.46875 28.460938 C 22.597656 28.449219 22.703125 28.394531 22.785156 28.296875 C 22.867188 28.199219 22.90625 28.085938 22.894531 27.957031 C 22.886719 27.828125 22.835938 27.722656 22.738281 27.636719 C 22.640625 27.550781 22.527344 27.511719 22.398438 27.523438 L 22.339844 27.523438 C 22.464844 26.195312 23.386719 24.472656 24.375 22.65625 C 25.632812 20.332031 26.945312 17.902344 26.945312 15.644531 Z M 18.363281 34.855469 C 18.1875 34.855469 18.035156 34.800781 17.898438 34.691406 C 18.046875 34.691406 18.195312 34.691406 18.363281 34.691406 C 18.515625 34.691406 18.664062 34.691406 18.824219 34.691406 C 18.691406 34.800781 18.535156 34.855469 18.363281 34.855469 Z M 20.914062 31.871094 L 18.527344 32.042969 C 18.402344 32.046875 18.292969 32.097656 18.207031 32.191406 C 18.117188 32.289062 18.078125 32.398438 18.082031 32.527344 C 18.085938 32.65625 18.132812 32.765625 18.230469 32.855469 C 18.324219 32.945312 18.433594 32.984375 18.5625 32.980469 L 18.59375 32.980469 L 20.21875 32.855469 C 19.636719 33.164062 19.019531 33.3125 18.363281 33.300781 C 17.253906 33.300781 16 32.882812 15.820312 31.976562 L 15.820312 31.765625 L 20.921875 31.394531 Z M 20.914062 30.464844 L 15.808594 30.839844 L 15.808594 30.371094 L 20.914062 29.996094 Z M 20.914062 29.058594 L 15.808594 29.433594 L 15.808594 28.964844 L 20.914062 28.589844 Z M 20.914062 27.652344 L 15.808594 28.027344 L 15.808594 27.828125 C 15.808594 27.734375 15.808594 27.636719 15.808594 27.542969 L 18.195312 27.359375 C 18.320312 27.347656 18.425781 27.292969 18.511719 27.195312 C 18.59375 27.097656 18.632812 26.984375 18.621094 26.855469 C 18.613281 26.726562 18.558594 26.621094 18.464844 26.535156 C 18.367188 26.449219 18.253906 26.410156 18.125 26.421875 L 15.648438 26.605469 C 15.3125 25.234375 14.503906 23.792969 13.652344 22.261719 C 12.429688 20.082031 11.167969 17.820312 11.167969 15.644531 C 11.167969 15.167969 11.214844 14.695312 11.308594 14.226562 C 11.398438 13.761719 11.535156 13.308594 11.714844 12.867188 C 11.898438 12.425781 12.117188 12.007812 12.382812 11.609375 C 12.644531 11.214844 12.941406 10.847656 13.277344 10.511719 C 13.609375 10.171875 13.972656 9.871094 14.367188 9.605469 C 14.757812 9.34375 15.171875 9.117188 15.609375 8.9375 C 16.046875 8.753906 16.496094 8.617188 16.957031 8.523438 C 17.421875 8.429688 17.890625 8.382812 18.363281 8.382812 C 18.835938 8.382812 19.300781 8.429688 19.765625 8.523438 C 20.226562 8.617188 20.679688 8.753906 21.113281 8.9375 C 21.550781 9.117188 21.964844 9.34375 22.359375 9.605469 C 22.75 9.871094 23.113281 10.171875 23.449219 10.511719 C 23.78125 10.847656 24.082031 11.214844 24.34375 11.609375 C 24.605469 12.007812 24.828125 12.425781 25.007812 12.867188 C 25.1875 13.308594 25.324219 13.761719 25.417969 14.226562 C 25.507812 14.695312 25.554688 15.167969 25.554688 15.644531 C 25.554688 17.519531 24.328125 19.800781 23.144531 21.988281 C 22.042969 24.027344 21.003906 25.953125 20.929688 27.636719 Z M 20.914062 27.652344 " fill-opacity="1" fill-rule="nonzero"/></g><g clip-path="url(#09ef66fb67)"><path fill="#000000" d="M 19.058594 5.726562 L 19.058594 1.902344 C 19.058594 1.710938 18.988281 1.542969 18.855469 1.40625 C 18.71875 1.269531 18.554688 1.199219 18.363281 1.199219 C 18.167969 1.199219 18.003906 1.269531 17.871094 1.40625 C 17.734375 1.542969 17.664062 1.710938 17.664062 1.902344 L 17.664062 5.730469 C 17.664062 5.925781 17.734375 6.089844 17.871094 6.226562 C 18.003906 6.367188 18.167969 6.433594 18.363281 6.433594 C 18.554688 6.433594 18.71875 6.367188 18.855469 6.226562 C 18.988281 6.089844 19.058594 5.925781 19.058594 5.730469 Z M 19.058594 5.726562 " fill-opacity="1" fill-rule="nonzero"/></g><path fill="#000000" d="M 13.394531 7.789062 C 13.519531 7.785156 13.632812 7.753906 13.742188 7.691406 C 13.847656 7.632812 13.929688 7.546875 13.992188 7.4375 C 14.054688 7.332031 14.085938 7.214844 14.085938 7.09375 C 14.089844 6.96875 14.058594 6.851562 14 6.742188 L 12.105469 3.421875 C 12.011719 3.253906 11.871094 3.144531 11.683594 3.09375 C 11.496094 3.042969 11.320312 3.066406 11.15625 3.164062 C 10.988281 3.261719 10.878906 3.402344 10.832031 3.589844 C 10.78125 3.777344 10.804688 3.957031 10.898438 4.125 L 12.792969 7.4375 C 12.925781 7.671875 13.128906 7.789062 13.394531 7.789062 Z M 13.394531 7.789062 " fill-opacity="1" fill-rule="nonzero"/><path fill="#000000" d="M 10.371094 11.125 C 10.460938 10.957031 10.480469 10.785156 10.429688 10.605469 C 10.378906 10.421875 10.273438 10.285156 10.117188 10.1875 L 6.835938 8.273438 C 6.667969 8.179688 6.492188 8.15625 6.304688 8.207031 C 6.121094 8.253906 5.980469 8.363281 5.882812 8.53125 C 5.785156 8.699219 5.765625 8.878906 5.8125 9.066406 C 5.863281 9.253906 5.972656 9.394531 6.136719 9.492188 L 9.417969 11.40625 C 9.582031 11.496094 9.753906 11.515625 9.933594 11.464844 C 10.113281 11.414062 10.25 11.308594 10.347656 11.148438 Z M 10.371094 11.125 " fill-opacity="1" fill-rule="nonzero"/><g clip-path="url(#46a08ef57c)"><path fill="#000000" d="M 4.664062 16.492188 L 8.453125 16.492188 C 8.644531 16.492188 8.808594 16.425781 8.945312 16.289062 C 9.082031 16.148438 9.148438 15.984375 9.148438 15.789062 C 9.148438 15.597656 9.082031 15.429688 8.945312 15.292969 C 8.808594 15.15625 8.644531 15.085938 8.453125 15.085938 L 4.664062 15.085938 C 4.46875 15.085938 4.304688 15.15625 4.171875 15.292969 C 4.035156 15.429688 3.964844 15.597656 3.964844 15.789062 C 3.964844 15.984375 4.035156 16.148438 4.171875 16.289062 C 4.304688 16.425781 4.46875 16.492188 4.664062 16.492188 Z M 4.664062 16.492188 " fill-opacity="1" fill-rule="nonzero"/></g><path fill="#000000" d="M 5.910156 23.070312 C 6.007812 23.234375 6.144531 23.339844 6.324219 23.386719 C 6.503906 23.4375 6.675781 23.417969 6.839844 23.328125 L 10.121094 21.417969 C 10.285156 21.320312 10.394531 21.179688 10.445312 20.992188 C 10.496094 20.804688 10.472656 20.625 10.375 20.457031 C 10.277344 20.289062 10.136719 20.179688 9.953125 20.128906 C 9.765625 20.078125 9.589844 20.101562 9.425781 20.199219 L 6.167969 22.109375 C 6 22.207031 5.890625 22.351562 5.839844 22.539062 C 5.792969 22.726562 5.816406 22.902344 5.910156 23.070312 Z M 5.910156 23.070312 " fill-opacity="1" fill-rule="nonzero"/><path fill="#000000" d="M 26.664062 21.363281 L 29.964844 23.277344 C 30.128906 23.375 30.304688 23.398438 30.492188 23.347656 C 30.675781 23.296875 30.816406 23.1875 30.914062 23.019531 C 31.011719 22.851562 31.03125 22.671875 30.984375 22.484375 C 30.933594 22.300781 30.824219 22.15625 30.660156 22.058594 L 27.378906 20.148438 C 27.210938 20.050781 27.035156 20.027344 26.851562 20.078125 C 26.664062 20.128906 26.523438 20.238281 26.425781 20.40625 C 26.332031 20.574219 26.308594 20.75 26.359375 20.9375 C 26.40625 21.125 26.515625 21.269531 26.683594 21.367188 Z M 26.664062 21.363281 " fill-opacity="1" fill-rule="nonzero"/><g clip-path="url(#0a2f454ad1)"><path fill="#000000" d="M 32.816406 15.734375 C 32.816406 15.539062 32.75 15.375 32.613281 15.238281 C 32.476562 15.101562 32.3125 15.03125 32.121094 15.03125 L 28.332031 15.03125 C 28.136719 15.03125 27.972656 15.101562 27.835938 15.238281 C 27.703125 15.375 27.632812 15.539062 27.632812 15.734375 C 27.632812 15.929688 27.703125 16.09375 27.835938 16.230469 C 27.972656 16.367188 28.136719 16.4375 28.332031 16.4375 L 32.121094 16.4375 C 32.3125 16.4375 32.476562 16.367188 32.613281 16.230469 C 32.75 16.09375 32.816406 15.929688 32.816406 15.734375 Z M 32.816406 15.734375 " fill-opacity="1" fill-rule="nonzero"/></g><path fill="#000000" d="M 26.984375 11.429688 C 27.109375 11.429688 27.226562 11.398438 27.332031 11.335938 L 30.613281 9.414062 C 30.78125 9.316406 30.886719 9.175781 30.9375 8.988281 C 30.988281 8.800781 30.964844 8.621094 30.867188 8.453125 C 30.773438 8.285156 30.632812 8.175781 30.445312 8.125 C 30.261719 8.074219 30.082031 8.097656 29.917969 8.195312 L 26.636719 10.105469 C 26.5 10.1875 26.402344 10.300781 26.339844 10.445312 C 26.28125 10.59375 26.269531 10.746094 26.3125 10.898438 C 26.351562 11.050781 26.433594 11.175781 26.558594 11.273438 C 26.683594 11.371094 26.828125 11.417969 26.984375 11.417969 Z M 26.984375 11.429688 " fill-opacity="1" fill-rule="nonzero"/><path fill="#000000" d="M 23.335938 7.761719 C 23.605469 7.761719 23.804688 7.644531 23.941406 7.410156 L 25.832031 4.097656 C 25.929688 3.929688 25.953125 3.75 25.902344 3.5625 C 25.851562 3.375 25.746094 3.234375 25.578125 3.136719 C 25.410156 3.039062 25.234375 3.015625 25.050781 3.066406 C 24.863281 3.117188 24.722656 3.226562 24.625 3.394531 L 22.734375 6.707031 C 22.597656 6.941406 22.597656 7.175781 22.734375 7.410156 C 22.867188 7.644531 23.070312 7.761719 23.335938 7.761719 Z M 23.335938 7.761719 " fill-opacity="1" fill-rule="nonzero"/><path fill="#000000" d="M 18.363281 13.933594 C 18.136719 13.9375 17.921875 13.980469 17.714844 14.070312 C 17.507812 14.15625 17.324219 14.28125 17.167969 14.441406 C 17.011719 14.601562 16.886719 14.789062 16.804688 14.996094 C 16.71875 15.207031 16.675781 15.425781 16.675781 15.652344 C 16.679688 15.878906 16.722656 16.097656 16.808594 16.304688 C 16.894531 16.515625 17.019531 16.699219 17.175781 16.859375 C 17.335938 17.015625 17.519531 17.140625 17.726562 17.226562 C 17.933594 17.3125 18.148438 17.355469 18.375 17.355469 C 18.597656 17.355469 18.8125 17.3125 19.023438 17.222656 C 19.230469 17.136719 19.410156 17.015625 19.570312 16.851562 C 19.726562 16.691406 19.851562 16.507812 19.9375 16.300781 C 20.023438 16.089844 20.066406 15.871094 20.066406 15.644531 C 20.066406 15.417969 20.023438 15.199219 19.933594 14.988281 C 19.847656 14.777344 19.726562 14.59375 19.566406 14.433594 C 19.40625 14.273438 19.222656 14.148438 19.011719 14.0625 C 18.804688 13.976562 18.585938 13.933594 18.363281 13.933594 Z M 18.363281 16.414062 C 18.152344 16.410156 17.972656 16.332031 17.824219 16.179688 C 17.675781 16.027344 17.601562 15.847656 17.605469 15.632812 C 17.609375 15.417969 17.683594 15.238281 17.835938 15.089844 C 17.984375 14.941406 18.167969 14.867188 18.378906 14.867188 C 18.589844 14.871094 18.769531 14.945312 18.917969 15.097656 C 19.066406 15.25 19.136719 15.433594 19.136719 15.644531 C 19.136719 15.859375 19.0625 16.042969 18.910156 16.195312 C 18.757812 16.347656 18.574219 16.421875 18.363281 16.417969 Z M 18.363281 16.414062 " fill-opacity="1" fill-rule="nonzero"/><path fill="#000000" d="M 22.539062 14.460938 L 21.726562 14.460938 C 21.683594 14.332031 21.632812 14.203125 21.574219 14.082031 L 22.148438 13.5 C 22.238281 13.40625 22.285156 13.296875 22.285156 13.167969 C 22.285156 13.039062 22.238281 12.929688 22.148438 12.839844 L 21.144531 11.828125 C 21.054688 11.734375 20.945312 11.691406 20.820312 11.691406 C 20.691406 11.691406 20.582031 11.734375 20.492188 11.828125 L 19.917969 12.40625 C 19.792969 12.347656 19.667969 12.296875 19.539062 12.253906 L 19.539062 11.429688 C 19.539062 11.300781 19.496094 11.1875 19.40625 11.097656 C 19.3125 11.003906 19.203125 10.960938 19.078125 10.960938 L 17.652344 10.960938 C 17.523438 10.960938 17.414062 11.003906 17.324219 11.097656 C 17.234375 11.1875 17.1875 11.300781 17.1875 11.429688 L 17.1875 12.253906 C 17.0625 12.296875 16.9375 12.347656 16.816406 12.40625 L 16.238281 11.820312 C 16.144531 11.730469 16.035156 11.6875 15.910156 11.6875 C 15.78125 11.6875 15.671875 11.730469 15.582031 11.820312 L 14.578125 12.835938 C 14.488281 12.925781 14.445312 13.035156 14.445312 13.164062 C 14.445312 13.292969 14.488281 13.402344 14.578125 13.496094 L 15.164062 14.085938 C 15.105469 14.207031 15.054688 14.328125 15.011719 14.457031 L 14.183594 14.457031 C 14.058594 14.457031 13.949219 14.5 13.855469 14.59375 C 13.765625 14.683594 13.722656 14.792969 13.722656 14.921875 L 13.722656 16.355469 C 13.722656 16.488281 13.765625 16.597656 13.855469 16.6875 C 13.949219 16.78125 14.058594 16.824219 14.183594 16.824219 L 15.015625 16.824219 C 15.058594 16.949219 15.109375 17.074219 15.164062 17.191406 L 14.574219 17.785156 C 14.484375 17.878906 14.441406 17.988281 14.441406 18.117188 C 14.441406 18.246094 14.484375 18.355469 14.574219 18.445312 L 15.578125 19.464844 C 15.667969 19.554688 15.777344 19.601562 15.90625 19.601562 C 16.03125 19.601562 16.140625 19.554688 16.230469 19.464844 L 16.820312 18.867188 C 16.9375 18.925781 17.058594 18.976562 17.183594 19.019531 L 17.183594 19.863281 C 17.183594 19.992188 17.226562 20.101562 17.320312 20.191406 C 17.410156 20.285156 17.519531 20.332031 17.648438 20.332031 L 19.066406 20.332031 C 19.195312 20.332031 19.304688 20.285156 19.394531 20.191406 C 19.484375 20.101562 19.53125 19.992188 19.53125 19.863281 L 19.53125 19.027344 C 19.65625 18.984375 19.777344 18.933594 19.898438 18.875 L 20.484375 19.464844 C 20.574219 19.554688 20.683594 19.601562 20.808594 19.601562 C 20.9375 19.601562 21.046875 19.554688 21.136719 19.464844 L 22.144531 18.457031 C 22.234375 18.363281 22.277344 18.253906 22.277344 18.125 C 22.277344 17.996094 22.234375 17.886719 22.144531 17.796875 L 21.5625 17.210938 C 21.621094 17.089844 21.671875 16.964844 21.71875 16.835938 L 22.539062 16.835938 C 22.667969 16.835938 22.777344 16.789062 22.867188 16.699219 C 22.957031 16.605469 23.003906 16.496094 23.003906 16.367188 L 23.003906 14.929688 C 23.003906 14.800781 22.957031 14.6875 22.867188 14.597656 C 22.777344 14.503906 22.667969 14.460938 22.539062 14.460938 Z M 22.074219 15.894531 L 21.375 15.894531 C 21.265625 15.890625 21.164062 15.921875 21.078125 15.992188 C 20.992188 16.058594 20.933594 16.144531 20.910156 16.253906 C 20.84375 16.535156 20.734375 16.796875 20.585938 17.042969 C 20.464844 17.257812 20.496094 17.453125 20.683594 17.617188 L 21.144531 18.117188 L 20.796875 18.46875 L 20.316406 17.988281 C 20.152344 17.8125 19.964844 17.78125 19.753906 17.898438 C 19.511719 18.050781 19.253906 18.15625 18.980469 18.222656 C 18.871094 18.246094 18.785156 18.304688 18.71875 18.390625 C 18.652344 18.480469 18.617188 18.578125 18.621094 18.691406 L 18.621094 19.394531 L 18.117188 19.394531 L 18.117188 18.671875 C 18.117188 18.5625 18.085938 18.460938 18.019531 18.375 C 17.953125 18.285156 17.867188 18.230469 17.757812 18.203125 C 17.480469 18.144531 17.214844 18.039062 16.96875 17.894531 C 16.761719 17.765625 16.570312 17.785156 16.398438 17.960938 L 15.910156 18.457031 L 15.578125 18.117188 L 16.082031 17.609375 C 16.238281 17.433594 16.253906 17.25 16.132812 17.050781 C 15.984375 16.808594 15.878906 16.550781 15.8125 16.273438 C 15.789062 16.164062 15.734375 16.078125 15.644531 16.007812 C 15.558594 15.941406 15.460938 15.910156 15.351562 15.914062 L 14.648438 15.914062 L 14.648438 15.398438 L 15.359375 15.398438 C 15.46875 15.398438 15.566406 15.367188 15.65625 15.300781 C 15.742188 15.230469 15.796875 15.144531 15.824219 15.035156 C 15.882812 14.753906 15.984375 14.488281 16.128906 14.238281 C 16.246094 14.027344 16.214844 13.839844 16.042969 13.671875 L 15.578125 13.171875 L 15.925781 12.820312 L 16.40625 13.300781 C 16.582031 13.480469 16.773438 13.5 16.984375 13.367188 C 17.226562 13.214844 17.484375 13.105469 17.761719 13.039062 C 17.871094 13.015625 17.957031 12.957031 18.023438 12.871094 C 18.089844 12.78125 18.125 12.683594 18.121094 12.570312 L 18.121094 11.898438 L 18.613281 11.898438 L 18.613281 12.601562 C 18.609375 12.710938 18.640625 12.808594 18.707031 12.898438 C 18.777344 12.984375 18.863281 13.042969 18.96875 13.066406 C 19.25 13.132812 19.511719 13.242188 19.753906 13.394531 C 19.96875 13.515625 20.15625 13.484375 20.320312 13.300781 L 20.8125 12.835938 L 21.160156 13.183594 L 20.683594 13.664062 C 20.503906 13.835938 20.480469 14.027344 20.601562 14.238281 C 20.753906 14.484375 20.863281 14.75 20.929688 15.03125 C 20.953125 15.140625 21.007812 15.226562 21.097656 15.296875 C 21.183594 15.363281 21.28125 15.394531 21.390625 15.390625 L 22.074219 15.390625 Z M 22.074219 15.894531 " fill-opacity="1" fill-rule="nonzero"/><g fill="#ffffff" fill-opacity="1"><g transform="translate(1.332237, 36.494446)"><g><path d="M 0.59375 -0.96875 C 0.6875 -0.96875 0.769531 -0.945312 0.84375 -0.90625 C 0.914062 -0.863281 0.972656 -0.800781 1.015625 -0.71875 C 1.054688 -0.644531 1.078125 -0.566406 1.078125 -0.484375 L 1.078125 -0.0625 C 1.078125 -0.0390625 1.070312 -0.0234375 1.0625 -0.015625 C 1.050781 -0.00390625 1.035156 0 1.015625 0 C 0.992188 0 0.972656 -0.00390625 0.953125 -0.015625 C 0.941406 -0.0234375 0.9375 -0.0390625 0.9375 -0.0625 L 0.9375 -0.171875 C 0.894531 -0.117188 0.84375 -0.0703125 0.78125 -0.03125 C 0.71875 0 0.648438 0.015625 0.578125 0.015625 C 0.492188 0.015625 0.414062 -0.00390625 0.34375 -0.046875 C 0.269531 -0.0976562 0.210938 -0.160156 0.171875 -0.234375 C 0.128906 -0.304688 0.109375 -0.390625 0.109375 -0.484375 C 0.109375 -0.566406 0.128906 -0.644531 0.171875 -0.71875 C 0.210938 -0.800781 0.269531 -0.863281 0.34375 -0.90625 C 0.414062 -0.945312 0.5 -0.96875 0.59375 -0.96875 Z M 0.59375 -0.109375 C 0.65625 -0.109375 0.710938 -0.125 0.765625 -0.15625 C 0.828125 -0.1875 0.875 -0.226562 0.90625 -0.28125 C 0.9375 -0.34375 0.953125 -0.410156 0.953125 -0.484375 C 0.953125 -0.546875 0.9375 -0.601562 0.90625 -0.65625 C 0.875 -0.71875 0.828125 -0.765625 0.765625 -0.796875 C 0.710938 -0.828125 0.65625 -0.84375 0.59375 -0.84375 C 0.53125 -0.84375 0.46875 -0.828125 0.40625 -0.796875 C 0.351562 -0.765625 0.3125 -0.71875 0.28125 -0.65625 C 0.25 -0.601562 0.234375 -0.546875 0.234375 -0.484375 C 0.234375 -0.410156 0.25 -0.34375 0.28125 -0.28125 C 0.3125 -0.226562 0.351562 -0.1875 0.40625 -0.15625 C 0.46875 -0.125 0.53125 -0.109375 0.59375 -0.109375 Z M 0.59375 -0.109375 "/></g></g></g></svg>