<svg xmlns="http://www.w3.org/2000/svg" xmlns:xlink="http://www.w3.org/1999/xlink" width="50" zoomAndPan="magnify" viewBox="0 0 37.5 37.499999" height="50" preserveAspectRatio="xMidYMid meet" version="1.0"><defs><g/><clipPath id="230c6ea184"><path d="M 3.292969 2.640625 L 33.640625 2.640625 L 33.640625 34.464844 L 3.292969 34.464844 Z M 3.292969 2.640625 " clip-rule="nonzero"/></clipPath></defs><g clip-path="url(#230c6ea184)"><path fill="#000000" d="M 33.390625 11.71875 L 31.339844 11.71875 C 31.199219 11.21875 31.003906 10.742188 30.75 10.289062 L 32.199219 8.832031 C 32.246094 8.785156 32.273438 8.71875 32.273438 8.652344 C 32.273438 8.585938 32.246094 8.523438 32.199219 8.476562 L 30.109375 6.375 C 30.0625 6.324219 30 6.300781 29.933594 6.300781 C 29.867188 6.300781 29.800781 6.324219 29.753906 6.375 L 28.304688 7.832031 C 27.855469 7.578125 27.378906 7.378906 26.882812 7.238281 L 26.882812 5.175781 C 26.882812 5.039062 26.773438 4.925781 26.632812 4.925781 L 23.675781 4.925781 C 23.539062 4.925781 23.425781 5.039062 23.425781 5.175781 L 23.425781 7.238281 C 22.929688 7.378906 22.453125 7.578125 22.003906 7.832031 L 20.554688 6.375 C 20.507812 6.324219 20.445312 6.300781 20.378906 6.300781 C 20.3125 6.300781 20.246094 6.324219 20.199219 6.375 L 18.109375 8.476562 C 18.0625 8.523438 18.035156 8.585938 18.035156 8.652344 C 18.035156 8.71875 18.0625 8.785156 18.109375 8.832031 L 19.558594 10.289062 C 19.464844 10.460938 19.378906 10.636719 19.296875 10.816406 C 18.609375 10.007812 17.605469 9.527344 16.511719 9.527344 L 13.542969 9.527344 C 12.152344 9.527344 10.898438 10.304688 10.269531 11.550781 L 9.554688 12.972656 C 9.214844 13.242188 8.996094 13.664062 8.996094 14.136719 L 8.996094 14.691406 L 7.085938 14.691406 C 6.351562 14.691406 5.722656 15.21875 5.589844 15.945312 L 3.972656 24.933594 C 3.890625 25.382812 4.011719 25.839844 4.300781 26.1875 C 4.535156 26.46875 4.859375 26.65625 5.214844 26.714844 L 5.214844 32.652344 C 5.214844 33.652344 6.023438 34.464844 7.019531 34.464844 L 23.203125 34.464844 C 24.195312 34.464844 25.003906 33.652344 25.003906 32.652344 L 25.003906 26.714844 C 25.359375 26.65625 25.683594 26.46875 25.917969 26.1875 C 26.207031 25.839844 26.328125 25.382812 26.25 24.933594 L 25.71875 21.992188 L 26.632812 21.992188 C 26.773438 21.992188 26.882812 21.878906 26.882812 21.738281 L 26.882812 19.675781 C 27.378906 19.535156 27.855469 19.339844 28.304688 19.082031 L 29.753906 20.542969 C 29.800781 20.589844 29.867188 20.617188 29.933594 20.617188 C 30 20.617188 30.0625 20.589844 30.109375 20.542969 L 32.199219 18.441406 C 32.246094 18.394531 32.273438 18.328125 32.273438 18.261719 C 32.273438 18.195312 32.246094 18.132812 32.199219 18.082031 L 30.75 16.625 C 31.003906 16.175781 31.199219 15.695312 31.339844 15.195312 L 33.390625 15.195312 C 33.527344 15.195312 33.640625 15.082031 33.640625 14.945312 L 33.640625 11.972656 C 33.640625 11.832031 33.527344 11.71875 33.390625 11.71875 Z M 10.71875 11.777344 C 11.261719 10.703125 12.34375 10.035156 13.542969 10.035156 L 16.511719 10.035156 C 17.710938 10.035156 18.792969 10.703125 19.335938 11.777344 L 19.78125 12.664062 C 19.714844 12.652344 19.648438 12.648438 19.582031 12.648438 C 19.101562 12.648438 18.671875 12.878906 18.402344 13.238281 L 18.007812 12.457031 C 17.722656 11.886719 17.148438 11.53125 16.511719 11.53125 L 13.542969 11.53125 C 12.90625 11.53125 12.335938 11.886719 12.046875 12.457031 L 11.652344 13.238281 C 11.382812 12.878906 10.953125 12.648438 10.472656 12.648438 C 10.40625 12.648438 10.339844 12.652344 10.273438 12.664062 Z M 20.558594 14.691406 L 18.605469 14.691406 L 18.605469 14.136719 C 18.605469 13.59375 19.042969 13.152344 19.582031 13.152344 C 20.121094 13.152344 20.558594 13.59375 20.558594 14.136719 Z M 11.921875 13.824219 L 12.496094 12.683594 C 12.695312 12.285156 13.097656 12.035156 13.542969 12.035156 L 16.511719 12.035156 C 16.957031 12.035156 17.359375 12.285156 17.558594 12.683594 L 18.136719 13.824219 C 18.113281 13.925781 18.101562 14.027344 18.101562 14.136719 L 18.101562 14.691406 L 11.953125 14.691406 L 11.953125 14.136719 C 11.953125 14.027344 11.941406 13.925781 11.921875 13.824219 Z M 9.496094 14.136719 C 9.496094 13.59375 9.933594 13.152344 10.472656 13.152344 C 11.011719 13.152344 11.449219 13.59375 11.449219 14.136719 L 11.449219 14.691406 L 9.496094 14.691406 Z M 23.203125 33.960938 L 7.019531 33.960938 C 6.300781 33.960938 5.71875 33.375 5.71875 32.652344 L 5.71875 26.734375 L 11.933594 26.734375 L 11.933594 27.488281 C 11.933594 28.386719 12.660156 29.121094 13.554688 29.121094 L 16.5 29.121094 C 17.394531 29.121094 18.125 28.386719 18.125 27.488281 L 18.125 26.734375 L 24.5 26.734375 L 24.5 32.652344 C 24.5 33.375 23.917969 33.960938 23.203125 33.960938 Z M 17.621094 26.230469 L 16.527344 26.230469 L 16.527344 24.847656 C 16.527344 24.378906 16.148438 24 15.683594 24 L 14.375 24 C 13.90625 24 13.527344 24.378906 13.527344 24.847656 L 13.527344 26.230469 L 12.433594 26.230469 L 12.433594 23.757812 C 12.433594 23.132812 12.9375 22.628906 13.554688 22.628906 L 16.5 22.628906 C 17.117188 22.628906 17.621094 23.132812 17.621094 23.757812 Z M 16.023438 26.230469 L 14.03125 26.230469 L 14.03125 24.847656 C 14.03125 24.660156 14.183594 24.503906 14.375 24.503906 L 15.683594 24.503906 C 15.871094 24.503906 16.023438 24.660156 16.023438 24.847656 Z M 17.621094 26.734375 L 17.621094 27.488281 C 17.621094 28.109375 17.117188 28.617188 16.5 28.617188 L 13.554688 28.617188 C 12.9375 28.617188 12.433594 28.109375 12.433594 27.488281 L 12.433594 26.734375 Z M 25.535156 25.863281 C 25.339844 26.097656 25.054688 26.230469 24.753906 26.230469 L 18.125 26.230469 L 18.125 23.757812 C 18.125 22.855469 17.394531 22.121094 16.5 22.121094 L 13.554688 22.121094 C 12.660156 22.121094 11.933594 22.855469 11.933594 23.757812 L 11.933594 26.230469 L 5.46875 26.230469 C 5.164062 26.230469 4.878906 26.097656 4.6875 25.863281 C 4.492188 25.628906 4.414062 25.324219 4.464844 25.027344 L 6.085938 16.035156 C 6.171875 15.550781 6.59375 15.195312 7.085938 15.195312 L 23.136719 15.195312 C 23.628906 15.195312 24.046875 15.550781 24.136719 16.035156 L 25.753906 25.027344 C 25.808594 25.324219 25.726562 25.628906 25.535156 25.863281 Z M 22.773438 13.457031 C 22.773438 12.136719 23.839844 11.0625 25.15625 11.0625 C 26.46875 11.0625 27.539062 12.136719 27.539062 13.457031 C 27.539062 14.777344 26.46875 15.855469 25.15625 15.855469 C 24.964844 15.855469 24.773438 15.832031 24.589844 15.785156 C 24.402344 15.144531 23.816406 14.691406 23.136719 14.691406 L 23.113281 14.691406 C 22.890625 14.320312 22.773438 13.894531 22.773438 13.457031 Z M 33.136719 14.691406 L 31.144531 14.691406 C 31.03125 14.691406 30.929688 14.769531 30.902344 14.882812 C 30.757812 15.464844 30.53125 16.023438 30.21875 16.535156 C 30.160156 16.632812 30.175781 16.761719 30.257812 16.84375 L 31.667969 18.261719 L 29.933594 20.007812 L 28.523438 18.589844 C 28.441406 18.507812 28.3125 18.492188 28.214844 18.550781 C 27.703125 18.863281 27.152344 19.09375 26.574219 19.234375 C 26.460938 19.261719 26.382812 19.363281 26.382812 19.480469 L 26.382812 21.484375 L 25.628906 21.484375 L 24.699219 16.324219 C 24.847656 16.347656 25 16.359375 25.15625 16.359375 C 26.746094 16.359375 28.039062 15.058594 28.039062 13.457031 C 28.039062 11.859375 26.746094 10.554688 25.15625 10.554688 C 23.5625 10.554688 22.269531 11.859375 22.269531 13.457031 C 22.269531 13.886719 22.363281 14.308594 22.542969 14.691406 L 21.058594 14.691406 L 21.058594 14.136719 C 21.058594 13.664062 20.839844 13.242188 20.5 12.972656 L 19.785156 11.550781 C 19.742188 11.464844 19.691406 11.378906 19.644531 11.292969 C 19.765625 10.976562 19.914062 10.671875 20.089844 10.378906 C 20.148438 10.28125 20.132812 10.152344 20.050781 10.070312 L 18.644531 8.652344 L 20.378906 6.910156 L 21.785156 8.328125 C 21.867188 8.410156 21.996094 8.425781 22.09375 8.363281 C 22.605469 8.054688 23.15625 7.824219 23.738281 7.679688 C 23.847656 7.652344 23.929688 7.550781 23.929688 7.433594 L 23.929688 5.429688 L 26.382812 5.429688 L 26.382812 7.433594 C 26.382812 7.550781 26.460938 7.652344 26.574219 7.679688 C 27.152344 7.824219 27.703125 8.054688 28.214844 8.363281 C 28.3125 8.425781 28.441406 8.410156 28.523438 8.328125 L 29.933594 6.910156 L 31.667969 8.652344 L 30.257812 10.070312 C 30.175781 10.152344 30.160156 10.28125 30.21875 10.378906 C 30.53125 10.894531 30.757812 11.449219 30.902344 12.03125 C 30.929688 12.144531 31.03125 12.222656 31.144531 12.222656 L 33.136719 12.222656 Z M 9.492188 8.65625 C 9.523438 8.667969 9.550781 8.671875 9.582031 8.671875 C 9.652344 8.671875 9.722656 8.640625 9.769531 8.585938 C 9.839844 8.503906 9.851562 8.390625 9.800781 8.296875 L 6.792969 2.773438 C 6.75 2.691406 6.664062 2.640625 6.574219 2.640625 C 6.480469 2.640625 6.398438 2.691406 6.355469 2.773438 L 3.34375 8.296875 C 3.296875 8.390625 3.308594 8.503906 3.375 8.585938 C 3.445312 8.664062 3.554688 8.691406 3.65625 8.65625 L 6.574219 7.542969 Z M 6.824219 7.101562 L 6.824219 3.878906 L 9.035156 7.941406 Z M 6.324219 3.878906 L 6.324219 7.101562 L 4.113281 7.941406 Z M 6.996094 11.8125 C 6.933594 11.691406 6.984375 11.539062 7.105469 11.472656 C 7.230469 11.410156 7.382812 11.457031 7.445312 11.582031 C 7.730469 12.140625 8.113281 12.613281 8.617188 13.03125 C 8.726562 13.117188 8.742188 13.277344 8.652344 13.386719 C 8.605469 13.445312 8.53125 13.476562 8.457031 13.476562 C 8.402344 13.476562 8.347656 13.457031 8.300781 13.421875 C 7.742188 12.960938 7.316406 12.433594 6.996094 11.8125 Z M 7.007812 10.347656 C 7.039062 10.484375 6.953125 10.617188 6.816406 10.648438 C 6.796875 10.652344 6.78125 10.65625 6.761719 10.65625 C 6.648438 10.65625 6.542969 10.574219 6.515625 10.457031 C 6.386719 9.878906 6.324219 9.242188 6.324219 8.511719 C 6.324219 8.375 6.433594 8.261719 6.574219 8.261719 C 6.710938 8.261719 6.824219 8.375 6.824219 8.511719 C 6.824219 9.203125 6.882812 9.804688 7.007812 10.347656 Z M 29.40625 21.78125 C 29.34375 21.78125 29.28125 21.757812 29.234375 21.710938 C 28.558594 21.066406 27.921875 20.730469 27.914062 20.726562 C 27.792969 20.660156 27.746094 20.507812 27.808594 20.386719 C 27.871094 20.261719 28.023438 20.214844 28.148438 20.277344 C 28.175781 20.292969 28.851562 20.648438 29.578125 21.34375 C 29.679688 21.441406 29.683594 21.601562 29.589844 21.703125 C 29.539062 21.753906 29.472656 21.78125 29.40625 21.78125 Z M 31.257812 24.195312 C 31.289062 24.332031 31.203125 24.46875 31.066406 24.496094 C 31.050781 24.5 31.03125 24.503906 31.015625 24.503906 C 30.898438 24.503906 30.792969 24.421875 30.769531 24.304688 C 30.640625 23.71875 30.386719 23.148438 30.015625 22.617188 C 29.9375 22.503906 29.964844 22.34375 30.078125 22.265625 C 30.191406 22.183594 30.347656 22.210938 30.425781 22.328125 C 30.835938 22.914062 31.117188 23.542969 31.257812 24.195312 Z M 31.195312 26.3125 C 30.964844 27.0625 30.492188 27.855469 29.796875 28.667969 C 29.75 28.726562 29.679688 28.757812 29.609375 28.757812 C 29.550781 28.757812 29.492188 28.738281 29.445312 28.695312 C 29.339844 28.605469 29.328125 28.445312 29.417969 28.339844 C 30.066406 27.578125 30.503906 26.847656 30.71875 26.164062 C 30.757812 26.03125 30.898438 25.957031 31.03125 25.996094 C 31.164062 26.039062 31.238281 26.179688 31.195312 26.3125 Z M 28.582031 29.566406 C 28.675781 29.667969 28.667969 29.828125 28.5625 29.921875 C 27.433594 30.941406 26.390625 31.589844 26.347656 31.617188 C 26.308594 31.644531 26.261719 31.65625 26.214844 31.65625 C 26.132812 31.65625 26.050781 31.613281 26.003906 31.539062 C 25.929688 31.417969 25.964844 31.261719 26.082031 31.191406 C 26.09375 31.183594 27.132812 30.53125 28.230469 29.546875 C 28.332031 29.453125 28.492188 29.460938 28.582031 29.566406 Z M 28.582031 29.566406 " fill-opacity="1" fill-rule="nonzero"/></g><g fill="#ffffff" fill-opacity="1"><g transform="translate(0.0000005, 36.494446)"><g><path d="M 0.59375 -0.96875 C 0.6875 -0.96875 0.769531 -0.945312 0.84375 -0.90625 C 0.914062 -0.863281 0.972656 -0.800781 1.015625 -0.71875 C 1.054688 -0.644531 1.078125 -0.566406 1.078125 -0.484375 L 1.078125 -0.0625 C 1.078125 -0.0390625 1.070312 -0.0234375 1.0625 -0.015625 C 1.050781 -0.00390625 1.035156 0 1.015625 0 C 0.992188 0 0.972656 -0.00390625 0.953125 -0.015625 C 0.941406 -0.0234375 0.9375 -0.0390625 0.9375 -0.0625 L 0.9375 -0.171875 C 0.894531 -0.117188 0.84375 -0.0703125 0.78125 -0.03125 C 0.71875 0 0.648438 0.015625 0.578125 0.015625 C 0.492188 0.015625 0.414062 -0.00390625 0.34375 -0.046875 C 0.269531 -0.0976562 0.210938 -0.160156 0.171875 -0.234375 C 0.128906 -0.304688 0.109375 -0.390625 0.109375 -0.484375 C 0.109375 -0.566406 0.128906 -0.644531 0.171875 -0.71875 C 0.210938 -0.800781 0.269531 -0.863281 0.34375 -0.90625 C 0.414062 -0.945312 0.5 -0.96875 0.59375 -0.96875 Z M 0.59375 -0.109375 C 0.65625 -0.109375 0.710938 -0.125 0.765625 -0.15625 C 0.828125 -0.1875 0.875 -0.226562 0.90625 -0.28125 C 0.9375 -0.34375 0.953125 -0.410156 0.953125 -0.484375 C 0.953125 -0.546875 0.9375 -0.601562 0.90625 -0.65625 C 0.875 -0.71875 0.828125 -0.765625 0.765625 -0.796875 C 0.710938 -0.828125 0.65625 -0.84375 0.59375 -0.84375 C 0.53125 -0.84375 0.46875 -0.828125 0.40625 -0.796875 C 0.351562 -0.765625 0.3125 -0.71875 0.28125 -0.65625 C 0.25 -0.601562 0.234375 -0.546875 0.234375 -0.484375 C 0.234375 -0.410156 0.25 -0.34375 0.28125 -0.28125 C 0.3125 -0.226562 0.351562 -0.1875 0.40625 -0.15625 C 0.46875 -0.125 0.53125 -0.109375 0.59375 -0.109375 Z M 0.59375 -0.109375 "/></g></g></g></svg>