<svg xmlns="http://www.w3.org/2000/svg" xmlns:xlink="http://www.w3.org/1999/xlink" width="50" zoomAndPan="magnify" viewBox="0 0 37.5 37.499999" height="50" preserveAspectRatio="xMidYMid meet" version="1.0"><defs><g/><clipPath id="0638d1187f"><path d="M 9 1.707031 L 26 1.707031 L 26 17 L 9 17 Z M 9 1.707031 " clip-rule="nonzero"/></clipPath><clipPath id="0a41c335cf"><path d="M 4.164062 30 L 33.027344 30 L 33.027344 35.011719 L 4.164062 35.011719 Z M 4.164062 30 " clip-rule="nonzero"/></clipPath></defs><path fill="#000000" d="M 21.46875 6.953125 C 21.46875 5.4375 20.183594 4.210938 18.597656 4.210938 C 17.011719 4.210938 15.726562 5.4375 15.726562 6.953125 C 15.726562 8.464844 17.011719 9.695312 18.597656 9.695312 C 20.183594 9.695312 21.46875 8.464844 21.46875 6.953125 Z M 16.972656 8.011719 L 20.222656 8.011719 C 19.886719 8.550781 19.285156 8.910156 18.597656 8.910156 C 17.910156 8.910156 17.308594 8.550781 16.972656 8.011719 Z M 16.972656 8.011719 " fill-opacity="1" fill-rule="nonzero"/><g clip-path="url(#0638d1187f)"><path fill="#000000" d="M 22.046875 16.890625 L 22.046875 12.902344 C 22.457031 13.460938 22.957031 14.597656 23.132812 16.890625 L 25.117188 16.890625 C 24.917969 14.132812 24.257812 12.222656 23.148438 11.1875 C 22.292969 10.394531 21.460938 10.378906 21.199219 10.398438 C 21.15625 10.390625 21.109375 10.386719 21.0625 10.386719 L 19.921875 10.386719 C 20.089844 11.316406 20.503906 14.097656 19.640625 14.648438 C 19.585938 14.679688 19.539062 14.710938 19.492188 14.742188 L 19.097656 11.875 C 18.9375 11.933594 18.765625 11.964844 18.597656 11.964844 C 18.429688 11.964844 18.261719 11.9375 18.097656 11.875 L 17.703125 14.742188 C 17.65625 14.710938 17.609375 14.679688 17.554688 14.648438 C 16.691406 14.097656 17.105469 11.316406 17.273438 10.386719 L 16.132812 10.386719 C 16.125 10.386719 16.117188 10.386719 16.113281 10.390625 L 12.199219 8.476562 L 11.058594 4.3125 L 10.496094 2.023438 C 10.445312 1.828125 10.238281 1.707031 10.035156 1.753906 C 9.828125 1.796875 9.703125 1.996094 9.75 2.191406 L 10.222656 4.113281 C 9.644531 4.199219 9 4.492188 9.082031 4.800781 L 10.339844 9.394531 C 10.410156 9.660156 10.601562 9.886719 10.859375 10.015625 L 15.148438 12.105469 L 15.148438 16.890625 Z M 22.046875 16.890625 " fill-opacity="1" fill-rule="nonzero"/></g><path fill="#000000" d="M 19.300781 11.304688 L 19.066406 10.394531 L 18.128906 10.394531 L 17.894531 11.304688 L 17.929688 11.363281 C 18.121094 11.519531 18.359375 11.601562 18.597656 11.601562 C 18.835938 11.601562 19.074219 11.519531 19.265625 11.363281 Z M 19.300781 11.304688 " fill-opacity="1" fill-rule="nonzero"/><path fill="#000000" d="M 12.257812 24.324219 C 12.820312 23.875 13.539062 23.605469 14.316406 23.605469 C 15.488281 23.605469 16.519531 24.21875 17.097656 25.132812 C 17.546875 24.902344 18.058594 24.773438 18.597656 24.773438 C 19.136719 24.773438 19.648438 24.902344 20.097656 25.132812 C 20.675781 24.21875 21.707031 23.605469 22.878906 23.605469 C 23.660156 23.605469 24.375 23.875 24.9375 24.324219 L 25.285156 18.78125 L 26.324219 18.78125 L 26.324219 17.378906 L 10.871094 17.378906 L 10.871094 18.78125 L 11.910156 18.78125 Z M 12.257812 24.324219 " fill-opacity="1" fill-rule="nonzero"/><path fill="#000000" d="M 13.046875 29.273438 C 13.425781 29.464844 13.859375 29.574219 14.316406 29.574219 C 14.773438 29.574219 15.203125 29.464844 15.585938 29.273438 C 15.414062 28.882812 15.320312 28.453125 15.320312 28 C 15.320312 26.925781 15.855469 25.972656 16.679688 25.386719 C 16.1875 24.609375 15.3125 24.09375 14.316406 24.09375 C 13.316406 24.09375 12.445312 24.609375 11.953125 25.386719 C 12.773438 25.972656 13.3125 26.925781 13.3125 28 C 13.3125 28.453125 13.214844 28.882812 13.046875 29.273438 Z M 13.046875 29.273438 " fill-opacity="1" fill-rule="nonzero"/><path fill="#000000" d="M 22.878906 24.09375 C 21.882812 24.09375 21.007812 24.609375 20.515625 25.386719 C 21.339844 25.972656 21.875 26.925781 21.875 28 C 21.875 28.453125 21.78125 28.882812 21.609375 29.273438 C 21.992188 29.464844 22.421875 29.574219 22.878906 29.574219 C 23.335938 29.574219 23.769531 29.464844 24.148438 29.273438 C 23.980469 28.882812 23.886719 28.453125 23.886719 28 C 23.886719 26.925781 24.421875 25.972656 25.242188 25.386719 C 24.75 24.609375 23.878906 24.09375 22.878906 24.09375 Z M 22.878906 24.09375 " fill-opacity="1" fill-rule="nonzero"/><path fill="#000000" d="M 8.34375 30.179688 L 11.722656 30.179688 C 12.386719 29.675781 12.816406 28.890625 12.816406 28 C 12.816406 26.488281 11.570312 25.261719 10.035156 25.261719 C 8.496094 25.261719 7.25 26.488281 7.25 28 C 7.25 28.890625 7.679688 29.675781 8.34375 30.179688 Z M 8.34375 30.179688 " fill-opacity="1" fill-rule="nonzero"/><path fill="#000000" d="M 21.378906 28 C 21.378906 26.488281 20.132812 25.261719 18.597656 25.261719 C 17.0625 25.261719 15.816406 26.488281 15.816406 28 C 15.816406 28.890625 16.242188 29.675781 16.90625 30.179688 L 20.289062 30.179688 C 20.953125 29.675781 21.378906 28.890625 21.378906 28 Z M 21.378906 28 " fill-opacity="1" fill-rule="nonzero"/><path fill="#000000" d="M 24.378906 28 C 24.378906 28.890625 24.808594 29.675781 25.472656 30.179688 L 28.851562 30.179688 C 29.515625 29.675781 29.945312 28.890625 29.945312 28 C 29.945312 26.488281 28.699219 25.261719 27.160156 25.261719 C 25.625 25.261719 24.378906 26.488281 24.378906 28 Z M 24.378906 28 " fill-opacity="1" fill-rule="nonzero"/><g clip-path="url(#0a41c335cf)"><path fill="#000000" d="M 31.332031 31.429688 C 30.636719 30.785156 29.957031 30.675781 29.609375 30.667969 C 29.589844 30.667969 29.570312 30.664062 29.550781 30.664062 L 24.773438 30.664062 C 24.753906 30.664062 24.734375 30.667969 24.710938 30.667969 C 24.363281 30.675781 23.6875 30.785156 22.992188 31.429688 C 22.953125 31.464844 22.917969 31.503906 22.878906 31.539062 C 22.84375 31.503906 22.804688 31.464844 22.765625 31.429688 C 22.070312 30.785156 21.390625 30.675781 21.042969 30.667969 C 21.023438 30.667969 21.007812 30.664062 20.988281 30.664062 L 16.207031 30.664062 C 16.1875 30.664062 16.167969 30.667969 16.148438 30.667969 C 15.800781 30.675781 15.121094 30.785156 14.429688 31.429688 C 14.390625 31.464844 14.351562 31.503906 14.316406 31.539062 C 14.277344 31.503906 14.242188 31.464844 14.203125 31.429688 C 13.507812 30.785156 12.828125 30.675781 12.480469 30.667969 C 12.460938 30.667969 12.441406 30.664062 12.421875 30.664062 L 7.644531 30.664062 C 7.625 30.664062 7.605469 30.667969 7.585938 30.667969 C 7.238281 30.675781 6.558594 30.785156 5.863281 31.429688 C 5.074219 32.164062 4.511719 33.359375 4.1875 35.011719 L 6.210938 35.011719 C 6.351562 34.414062 6.515625 33.953125 6.6875 33.601562 L 6.6875 35.011719 L 30.507812 35.011719 L 30.507812 33.601562 C 30.679688 33.953125 30.84375 34.414062 30.984375 35.011719 L 33.007812 35.011719 C 32.683594 33.359375 32.125 32.164062 31.332031 31.429688 Z M 31.332031 31.429688 " fill-opacity="1" fill-rule="nonzero"/></g><g fill="#ffffff" fill-opacity="1"><g transform="translate(0.0000005, 36.494446)"><g><path d="M 0.59375 -0.96875 C 0.6875 -0.96875 0.769531 -0.945312 0.84375 -0.90625 C 0.914062 -0.863281 0.972656 -0.800781 1.015625 -0.71875 C 1.054688 -0.644531 1.078125 -0.566406 1.078125 -0.484375 L 1.078125 -0.0625 C 1.078125 -0.0390625 1.070312 -0.0234375 1.0625 -0.015625 C 1.050781 -0.00390625 1.035156 0 1.015625 0 C 0.992188 0 0.972656 -0.00390625 0.953125 -0.015625 C 0.941406 -0.0234375 0.9375 -0.0390625 0.9375 -0.0625 L 0.9375 -0.171875 C 0.894531 -0.117188 0.84375 -0.0703125 0.78125 -0.03125 C 0.71875 0 0.648438 0.015625 0.578125 0.015625 C 0.492188 0.015625 0.414062 -0.00390625 0.34375 -0.046875 C 0.269531 -0.0976562 0.210938 -0.160156 0.171875 -0.234375 C 0.128906 -0.304688 0.109375 -0.390625 0.109375 -0.484375 C 0.109375 -0.566406 0.128906 -0.644531 0.171875 -0.71875 C 0.210938 -0.800781 0.269531 -0.863281 0.34375 -0.90625 C 0.414062 -0.945312 0.5 -0.96875 0.59375 -0.96875 Z M 0.59375 -0.109375 C 0.65625 -0.109375 0.710938 -0.125 0.765625 -0.15625 C 0.828125 -0.1875 0.875 -0.226562 0.90625 -0.28125 C 0.9375 -0.34375 0.953125 -0.410156 0.953125 -0.484375 C 0.953125 -0.546875 0.9375 -0.601562 0.90625 -0.65625 C 0.875 -0.71875 0.828125 -0.765625 0.765625 -0.796875 C 0.710938 -0.828125 0.65625 -0.84375 0.59375 -0.84375 C 0.53125 -0.84375 0.46875 -0.828125 0.40625 -0.796875 C 0.351562 -0.765625 0.3125 -0.71875 0.28125 -0.65625 C 0.25 -0.601562 0.234375 -0.546875 0.234375 -0.484375 C 0.234375 -0.410156 0.25 -0.34375 0.28125 -0.28125 C 0.3125 -0.226562 0.351562 -0.1875 0.40625 -0.15625 C 0.46875 -0.125 0.53125 -0.109375 0.59375 -0.109375 Z M 0.59375 -0.109375 "/></g></g></g></svg>