<svg xmlns="http://www.w3.org/2000/svg" xmlns:xlink="http://www.w3.org/1999/xlink" width="50" zoomAndPan="magnify" viewBox="0 0 37.5 37.499999" height="50" preserveAspectRatio="xMidYMid meet" version="1.0"><defs><g/><clipPath id="5c8cdecdff"><path d="M 3 26 L 34 26 L 34 34.710938 L 3 34.710938 Z M 3 26 " clip-rule="nonzero"/></clipPath><clipPath id="9592cd746f"><path d="M 2.144531 2.144531 L 34.710938 2.144531 L 34.710938 26 L 2.144531 26 Z M 2.144531 2.144531 " clip-rule="nonzero"/></clipPath></defs><path fill="#000000" d="M 18.429688 14.359375 C 17.4375 14.359375 16.648438 15.148438 16.648438 16.140625 L 16.648438 16.648438 C 16.648438 17.640625 17.4375 18.429688 18.429688 18.429688 C 19.421875 18.429688 20.210938 17.640625 20.210938 16.648438 L 20.210938 16.140625 C 20.210938 15.148438 19.421875 14.359375 18.429688 14.359375 Z M 19.191406 16.648438 C 19.191406 17.082031 18.863281 17.410156 18.429688 17.410156 C 17.996094 17.410156 17.664062 17.082031 17.664062 16.648438 L 17.664062 16.140625 C 17.664062 15.707031 17.996094 15.375 18.429688 15.375 C 18.863281 15.375 19.191406 15.707031 19.191406 16.140625 Z M 19.191406 16.648438 " fill-opacity="1" fill-rule="nonzero"/><g clip-path="url(#5c8cdecdff)"><path fill="#000000" d="M 3.671875 32.296875 L 3.671875 33.1875 C 3.671875 34.023438 4.359375 34.710938 5.199219 34.710938 L 10.289062 34.710938 C 10.667969 34.710938 11.027344 34.558594 11.304688 34.332031 C 11.585938 34.585938 11.941406 34.710938 12.324219 34.710938 L 17.410156 34.710938 C 17.792969 34.710938 18.148438 34.558594 18.429688 34.332031 C 18.710938 34.585938 19.066406 34.710938 19.445312 34.710938 L 24.535156 34.710938 C 24.917969 34.710938 25.273438 34.558594 25.554688 34.332031 C 25.832031 34.585938 26.1875 34.710938 26.570312 34.710938 L 31.660156 34.710938 C 32.5 34.710938 33.1875 34.023438 33.1875 33.1875 L 33.1875 32.296875 C 33.1875 30.84375 32.21875 29.777344 30.84375 29.625 C 31.023438 29.320312 31.097656 28.960938 31.097656 28.582031 L 31.097656 28.070312 C 31.097656 26.925781 30.261719 26.035156 29.164062 26.035156 L 29.039062 26.035156 C 27.945312 26.035156 27.105469 26.925781 27.105469 28.070312 L 27.105469 28.582031 C 27.105469 28.960938 27.207031 29.320312 27.359375 29.625 C 26.597656 29.699219 25.933594 30.082031 25.527344 30.640625 C 25.121094 30.082031 24.460938 29.699219 23.695312 29.625 C 23.875 29.320312 23.949219 28.960938 23.949219 28.582031 L 23.949219 28.070312 C 23.949219 26.925781 23.109375 26.035156 22.015625 26.035156 L 21.890625 26.035156 C 20.796875 26.035156 19.957031 26.925781 19.957031 28.070312 L 19.957031 28.582031 C 19.957031 28.960938 20.058594 29.320312 20.210938 29.625 C 19.445312 29.699219 18.785156 30.082031 18.378906 30.640625 C 17.972656 30.082031 17.308594 29.699219 16.546875 29.625 C 16.726562 29.320312 16.800781 28.960938 16.800781 28.582031 L 16.800781 28.070312 C 16.800781 26.925781 15.960938 26.035156 14.867188 26.035156 L 14.738281 26.035156 C 13.644531 26.035156 12.804688 26.925781 12.804688 28.070312 L 12.804688 28.582031 C 12.804688 28.960938 12.910156 29.320312 13.0625 29.625 C 12.296875 29.699219 11.636719 30.082031 11.230469 30.640625 C 10.820312 30.082031 10.160156 29.699219 9.398438 29.625 C 9.574219 29.320312 9.652344 28.960938 9.652344 28.582031 L 9.652344 28.070312 C 9.652344 26.925781 8.8125 26.035156 7.71875 26.035156 L 7.589844 26.035156 C 6.496094 26.035156 5.65625 26.925781 5.65625 28.070312 L 5.65625 28.582031 C 5.65625 28.960938 5.757812 29.320312 5.910156 29.625 C 4.640625 29.777344 3.671875 30.871094 3.671875 32.296875 Z M 28.148438 28.097656 C 28.148438 27.539062 28.554688 27.078125 29.0625 27.078125 L 29.191406 27.078125 C 29.699219 27.078125 30.105469 27.539062 30.105469 28.097656 L 30.105469 28.605469 C 30.105469 29.164062 29.699219 29.625 29.191406 29.625 L 29.0625 29.625 C 28.554688 29.625 28.148438 29.164062 28.148438 28.605469 Z M 26.0625 32.296875 C 26.0625 31.148438 26.875 30.640625 27.691406 30.640625 L 30.566406 30.640625 C 31.378906 30.640625 32.195312 31.148438 32.195312 32.296875 L 32.195312 33.1875 C 32.195312 33.464844 31.964844 33.695312 31.683594 33.695312 L 26.570312 33.695312 C 26.289062 33.695312 26.0625 33.464844 26.0625 33.1875 Z M 21.023438 28.097656 C 21.023438 27.539062 21.429688 27.078125 21.941406 27.078125 L 22.066406 27.078125 C 22.578125 27.078125 22.984375 27.539062 22.984375 28.097656 L 22.984375 28.605469 C 22.984375 29.164062 22.578125 29.625 22.066406 29.625 L 21.941406 29.625 C 21.429688 29.625 21.023438 29.164062 21.023438 28.605469 Z M 18.9375 32.296875 C 18.9375 31.148438 19.753906 30.640625 20.566406 30.640625 L 23.441406 30.640625 C 24.253906 30.640625 25.070312 31.148438 25.070312 32.296875 L 25.070312 33.1875 C 25.070312 33.464844 24.839844 33.695312 24.5625 33.695312 L 19.445312 33.695312 C 19.167969 33.695312 18.9375 33.464844 18.9375 33.1875 Z M 13.902344 28.097656 C 13.902344 27.539062 14.308594 27.078125 14.816406 27.078125 L 14.945312 27.078125 C 15.453125 27.078125 15.859375 27.539062 15.859375 28.097656 L 15.859375 28.605469 C 15.859375 29.164062 15.453125 29.625 14.945312 29.625 L 14.816406 29.625 C 14.308594 29.625 13.902344 29.164062 13.902344 28.605469 Z M 11.8125 32.296875 C 11.8125 31.148438 12.628906 30.640625 13.441406 30.640625 L 16.316406 30.640625 C 17.132812 30.640625 17.945312 31.148438 17.945312 32.296875 L 17.945312 33.1875 C 17.945312 33.464844 17.71875 33.695312 17.4375 33.695312 L 12.324219 33.695312 C 12.042969 33.695312 11.8125 33.464844 11.8125 33.1875 Z M 6.777344 28.097656 C 6.777344 27.539062 7.183594 27.078125 7.691406 27.078125 L 7.820312 27.078125 C 8.328125 27.078125 8.734375 27.539062 8.734375 28.097656 L 8.734375 28.605469 C 8.734375 29.164062 8.328125 29.625 7.820312 29.625 L 7.691406 29.625 C 7.183594 29.625 6.777344 29.164062 6.777344 28.605469 Z M 4.691406 32.296875 C 4.691406 31.148438 5.503906 30.640625 6.320312 30.640625 L 9.195312 30.640625 C 10.007812 30.640625 10.820312 31.148438 10.820312 32.296875 L 10.820312 33.1875 C 10.820312 33.464844 10.59375 33.695312 10.3125 33.695312 L 5.199219 33.695312 C 4.917969 33.695312 4.691406 33.464844 4.691406 33.1875 Z M 4.691406 32.296875 " fill-opacity="1" fill-rule="nonzero"/></g><g clip-path="url(#9592cd746f)"><path fill="#000000" d="M 34.203125 10.289062 L 25.554688 10.289062 L 25.554688 8.761719 C 25.554688 8.480469 25.324219 8.253906 25.042969 8.253906 L 23.976562 8.253906 C 23.621094 5.683594 21.53125 3.671875 18.9375 3.445312 L 18.9375 2.65625 C 18.9375 2.375 18.710938 2.144531 18.429688 2.144531 C 18.148438 2.144531 17.921875 2.375 17.921875 2.65625 L 17.921875 3.445312 C 15.324219 3.671875 13.238281 5.683594 12.882812 8.253906 L 11.8125 8.253906 C 11.535156 8.253906 11.304688 8.480469 11.304688 8.761719 L 11.304688 10.289062 L 2.65625 10.289062 C 2.375 10.289062 2.144531 10.515625 2.144531 10.796875 L 2.144531 12.832031 C 2.144531 13.113281 2.375 13.339844 2.65625 13.339844 L 3.671875 13.339844 L 3.671875 22.5 L 2.65625 22.5 C 2.375 22.5 2.144531 22.730469 2.144531 23.007812 L 2.144531 25.042969 C 2.144531 25.324219 2.375 25.554688 2.65625 25.554688 L 6.0625 25.554688 C 6.523438 25.222656 7.082031 25.042969 7.691406 25.042969 L 7.820312 25.042969 C 8.429688 25.042969 8.992188 25.222656 9.449219 25.554688 L 13.1875 25.554688 C 13.59375 25.273438 14.105469 25.09375 14.613281 25.042969 L 14.613281 21.992188 L 22.246094 21.992188 L 22.246094 25.042969 C 22.78125 25.070312 23.261719 25.246094 23.671875 25.554688 L 27.410156 25.554688 C 27.867188 25.222656 28.429688 25.042969 29.039062 25.042969 L 29.164062 25.042969 C 29.777344 25.042969 30.335938 25.222656 30.792969 25.554688 L 34.203125 25.554688 C 34.484375 25.554688 34.710938 25.324219 34.710938 25.042969 L 34.710938 23.007812 C 34.710938 22.730469 34.484375 22.5 34.203125 22.5 L 33.1875 22.5 L 33.1875 13.339844 L 34.203125 13.339844 C 34.484375 13.339844 34.710938 13.113281 34.710938 12.832031 L 34.710938 10.796875 C 34.710938 10.515625 34.484375 10.289062 34.203125 10.289062 Z M 18.429688 4.4375 C 20.695312 4.4375 22.578125 6.089844 22.933594 8.253906 L 13.925781 8.253906 C 14.28125 6.089844 16.164062 4.4375 18.429688 4.4375 Z M 12.324219 9.269531 L 24.535156 9.269531 L 24.535156 10.289062 L 12.324219 10.289062 Z M 13.59375 24.535156 L 3.164062 24.535156 L 3.164062 23.519531 L 13.59375 23.519531 Z M 4.691406 22.5 L 4.691406 13.339844 L 5.707031 13.339844 L 5.707031 22.5 Z M 6.726562 22.5 L 6.726562 13.339844 L 8.761719 13.339844 L 8.761719 22.5 Z M 9.777344 22.5 L 9.777344 13.339844 L 10.796875 13.339844 L 10.796875 22.5 Z M 22.753906 20.972656 L 21.992188 20.972656 L 21.992188 19.878906 C 21.992188 19.015625 21.585938 18.300781 20.921875 17.945312 C 20.769531 18.25 20.539062 18.53125 20.285156 18.761719 C 20.71875 18.914062 21 19.320312 21 19.878906 L 21 20.972656 L 20.488281 20.972656 L 20.488281 20.183594 C 20.488281 20.058594 20.4375 19.90625 20.335938 19.828125 L 19.828125 19.34375 C 19.625 19.140625 19.292969 19.167969 19.117188 19.34375 C 18.914062 19.546875 18.9375 19.878906 19.117188 20.058594 L 19.472656 20.386719 L 19.472656 20.972656 L 17.4375 20.972656 L 17.4375 20.414062 L 17.792969 20.082031 C 17.996094 19.878906 17.996094 19.574219 17.792969 19.371094 C 17.589844 19.167969 17.285156 19.167969 17.082031 19.371094 L 16.570312 19.855469 C 16.46875 19.957031 16.417969 20.082031 16.417969 20.210938 L 16.417969 20.972656 L 15.910156 20.972656 L 15.910156 19.878906 C 15.910156 19.320312 16.191406 18.914062 16.621094 18.761719 C 16.367188 18.53125 16.140625 18.25 15.988281 17.945312 C 15.324219 18.300781 14.917969 19.015625 14.917969 19.878906 L 14.917969 20.972656 L 14.15625 20.972656 C 13.875 20.972656 13.644531 21.203125 13.644531 21.480469 L 13.644531 22.5 L 11.867188 22.5 L 11.867188 13.339844 L 25.09375 13.339844 L 25.09375 22.5 L 23.3125 22.5 L 23.3125 21.480469 C 23.261719 21.203125 23.035156 20.972656 22.753906 20.972656 Z M 33.695312 23.519531 L 33.695312 24.535156 L 23.261719 24.535156 L 23.261719 23.519531 Z M 26.0625 22.5 L 26.0625 13.339844 L 27.078125 13.339844 L 27.078125 22.5 Z M 28.097656 22.5 L 28.097656 13.339844 L 30.132812 13.339844 L 30.132812 22.5 Z M 31.148438 22.5 L 31.148438 13.339844 L 32.167969 13.339844 L 32.167969 22.5 Z M 33.695312 12.324219 L 3.164062 12.324219 L 3.164062 11.304688 L 33.695312 11.304688 Z M 33.695312 12.324219 " fill-opacity="1" fill-rule="nonzero"/></g><g fill="#ffffff" fill-opacity="1"><g transform="translate(0.0000005, 36.494446)"><g><path d="M 0.59375 -0.96875 C 0.6875 -0.96875 0.769531 -0.945312 0.84375 -0.90625 C 0.914062 -0.863281 0.972656 -0.800781 1.015625 -0.71875 C 1.054688 -0.644531 1.078125 -0.566406 1.078125 -0.484375 L 1.078125 -0.0625 C 1.078125 -0.0390625 1.070312 -0.0234375 1.0625 -0.015625 C 1.050781 -0.00390625 1.035156 0 1.015625 0 C 0.992188 0 0.972656 -0.00390625 0.953125 -0.015625 C 0.941406 -0.0234375 0.9375 -0.0390625 0.9375 -0.0625 L 0.9375 -0.171875 C 0.894531 -0.117188 0.84375 -0.0703125 0.78125 -0.03125 C 0.71875 0 0.648438 0.015625 0.578125 0.015625 C 0.492188 0.015625 0.414062 -0.00390625 0.34375 -0.046875 C 0.269531 -0.0976562 0.210938 -0.160156 0.171875 -0.234375 C 0.128906 -0.304688 0.109375 -0.390625 0.109375 -0.484375 C 0.109375 -0.566406 0.128906 -0.644531 0.171875 -0.71875 C 0.210938 -0.800781 0.269531 -0.863281 0.34375 -0.90625 C 0.414062 -0.945312 0.5 -0.96875 0.59375 -0.96875 Z M 0.59375 -0.109375 C 0.65625 -0.109375 0.710938 -0.125 0.765625 -0.15625 C 0.828125 -0.1875 0.875 -0.226562 0.90625 -0.28125 C 0.9375 -0.34375 0.953125 -0.410156 0.953125 -0.484375 C 0.953125 -0.546875 0.9375 -0.601562 0.90625 -0.65625 C 0.875 -0.71875 0.828125 -0.765625 0.765625 -0.796875 C 0.710938 -0.828125 0.65625 -0.84375 0.59375 -0.84375 C 0.53125 -0.84375 0.46875 -0.828125 0.40625 -0.796875 C 0.351562 -0.765625 0.3125 -0.71875 0.28125 -0.65625 C 0.25 -0.601562 0.234375 -0.546875 0.234375 -0.484375 C 0.234375 -0.410156 0.25 -0.34375 0.28125 -0.28125 C 0.3125 -0.226562 0.351562 -0.1875 0.40625 -0.15625 C 0.46875 -0.125 0.53125 -0.109375 0.59375 -0.109375 Z M 0.59375 -0.109375 "/></g></g></g></svg>