<svg xmlns="http://www.w3.org/2000/svg" xmlns:xlink="http://www.w3.org/1999/xlink" width="50" zoomAndPan="magnify" viewBox="0 0 37.5 37.499999" height="50" preserveAspectRatio="xMidYMid meet" version="1.0"><defs><g/><clipPath id="d8b0938095"><path d="M 3.699219 2.367188 L 33.304688 2.367188 L 33.304688 34.933594 L 3.699219 34.933594 Z M 3.699219 2.367188 " clip-rule="nonzero"/></clipPath><clipPath id="3eb4345f85"><path d="M 12.261719 4.65625 L 24.835938 4.65625 L 24.835938 17.238281 L 12.261719 17.238281 Z M 12.261719 4.65625 " clip-rule="nonzero"/></clipPath></defs><g clip-path="url(#d8b0938095)"><path fill="#000000" d="M 33.304688 31.992188 L 33.304688 31.664062 C 33.304688 29.644531 32.914062 27.683594 32.140625 25.835938 C 31.394531 24.054688 30.328125 22.453125 28.96875 21.082031 C 27.609375 19.707031 26.027344 18.628906 24.265625 17.875 C 24.148438 17.824219 24.03125 17.777344 23.914062 17.730469 C 24.136719 17.546875 24.351562 17.351562 24.554688 17.144531 C 25.339844 16.351562 25.957031 15.425781 26.390625 14.394531 C 26.835938 13.324219 27.0625 12.191406 27.0625 11.023438 C 27.0625 9.855469 26.835938 8.722656 26.390625 7.652344 C 25.957031 6.625 25.339844 5.699219 24.554688 4.902344 C 23.769531 4.109375 22.855469 3.484375 21.835938 3.050781 C 20.78125 2.597656 19.660156 2.367188 18.503906 2.367188 C 17.347656 2.367188 16.226562 2.597656 15.171875 3.050781 C 14.152344 3.484375 13.238281 4.109375 12.453125 4.902344 C 11.667969 5.699219 11.050781 6.625 10.617188 7.652344 C 10.171875 8.722656 9.945312 9.855469 9.945312 11.023438 C 9.945312 12.191406 10.171875 13.324219 10.617188 14.394531 C 11.050781 15.425781 11.667969 16.347656 12.453125 17.144531 C 12.65625 17.351562 12.871094 17.546875 13.089844 17.730469 C 12.972656 17.777344 12.859375 17.824219 12.742188 17.875 C 10.980469 18.628906 9.394531 19.707031 8.039062 21.082031 C 6.679688 22.453125 5.613281 24.054688 4.867188 25.835938 C 4.09375 27.683594 3.703125 29.644531 3.703125 31.664062 L 3.703125 31.992188 C 3.703125 33.53125 4.867188 34.796875 6.351562 34.933594 L 30.855469 34.910156 L 30.867188 34.90625 C 31.121094 34.882812 31.367188 34.804688 31.59375 34.683594 C 32.601562 34.214844 33.304688 33.1875 33.304688 31.992188 Z M 12.195312 13.71875 C 11.839844 12.863281 11.65625 11.957031 11.65625 11.023438 C 11.65625 10.089844 11.839844 9.183594 12.195312 8.328125 C 12.539062 7.503906 13.035156 6.765625 13.664062 6.128906 C 14.292969 5.492188 15.023438 4.992188 15.839844 4.644531 C 16.683594 4.285156 17.578125 4.101562 18.503906 4.101562 C 19.429688 4.101562 20.324219 4.285156 21.167969 4.644531 C 21.984375 4.992188 22.714844 5.492188 23.34375 6.128906 C 23.972656 6.765625 24.46875 7.503906 24.8125 8.328125 C 25.167969 9.183594 25.351562 10.089844 25.351562 11.023438 C 25.351562 11.957031 25.167969 12.863281 24.8125 13.71875 C 24.46875 14.542969 23.972656 15.285156 23.34375 15.917969 C 22.714844 16.554688 21.984375 17.054688 21.167969 17.402344 C 20.324219 17.765625 19.429688 17.945312 18.503906 17.945312 C 17.578125 17.945312 16.683594 17.765625 15.839844 17.402344 C 15.023438 17.054688 14.292969 16.554688 13.664062 15.917969 C 13.035156 15.285156 12.539062 14.542969 12.195312 13.71875 Z M 31.59375 31.992188 C 31.59375 32.667969 31.050781 33.214844 30.382812 33.214844 L 6.625 33.214844 C 5.957031 33.214844 5.414062 32.667969 5.414062 31.992188 L 5.414062 31.664062 C 5.414062 29.878906 5.761719 28.144531 6.445312 26.511719 C 7.101562 24.9375 8.046875 23.519531 9.25 22.304688 C 10.449219 21.089844 11.851562 20.136719 13.410156 19.46875 C 13.753906 19.320312 14.105469 19.1875 14.457031 19.070312 C 14.582031 19.03125 14.707031 18.992188 14.828125 18.957031 C 14.875 18.941406 14.921875 18.925781 14.960938 18.90625 C 15.03125 18.9375 15.101562 18.96875 15.171875 18.996094 C 16.226562 19.449219 17.347656 19.679688 18.503906 19.679688 C 19.660156 19.679688 20.78125 19.449219 21.835938 18.996094 C 21.90625 18.96875 21.976562 18.9375 22.046875 18.90625 C 22.085938 18.925781 22.132812 18.941406 22.175781 18.957031 C 22.65625 19.097656 23.136719 19.269531 23.597656 19.46875 C 25.15625 20.136719 26.558594 21.089844 27.757812 22.304688 C 28.960938 23.519531 29.90625 24.9375 30.5625 26.511719 C 31.246094 28.144531 31.59375 29.878906 31.59375 31.664062 Z M 31.59375 31.992188 " fill-opacity="1" fill-rule="nonzero"/></g><g clip-path="url(#3eb4345f85)"><path fill="#100f0d" d="M 18.511719 8.554688 C 19.816406 8.53125 20.898438 9.570312 20.921875 10.878906 C 20.921875 10.902344 20.921875 10.925781 20.921875 10.949219 C 20.9375 12.257812 19.886719 13.328125 18.582031 13.34375 C 17.273438 13.359375 16.199219 12.308594 16.1875 11 C 16.1875 10.984375 16.1875 10.964844 16.1875 10.949219 C 16.171875 9.648438 17.207031 8.578125 18.511719 8.554688 Z M 18.765625 4.660156 C 18.410156 4.648438 18.058594 4.667969 17.707031 4.714844 C 17.582031 4.730469 17.480469 4.816406 17.445312 4.9375 L 17.097656 6.070312 C 17.066406 6.167969 16.992188 6.246094 16.898438 6.277344 C 16.734375 6.335938 16.570312 6.402344 16.414062 6.476562 C 16.324219 6.523438 16.214844 6.519531 16.125 6.472656 L 15.078125 5.917969 C 14.96875 5.859375 14.835938 5.867188 14.734375 5.945312 C 14.285156 6.285156 13.886719 6.6875 13.546875 7.132812 C 13.46875 7.234375 13.457031 7.367188 13.515625 7.476562 L 14.074219 8.527344 C 14.121094 8.613281 14.125 8.722656 14.085938 8.8125 C 14.007812 8.972656 13.941406 9.132812 13.882812 9.296875 C 13.851562 9.390625 13.773438 9.464844 13.675781 9.496094 L 12.542969 9.84375 C 12.421875 9.878906 12.335938 9.984375 12.320312 10.105469 C 12.242188 10.664062 12.242188 11.230469 12.320312 11.789062 C 12.335938 11.914062 12.421875 12.015625 12.542969 12.050781 L 13.675781 12.402344 C 13.773438 12.429688 13.851562 12.503906 13.882812 12.601562 C 13.941406 12.765625 14.007812 12.925781 14.085938 13.082031 C 14.125 13.175781 14.121094 13.28125 14.074219 13.371094 L 13.515625 14.417969 C 13.457031 14.527344 13.46875 14.664062 13.546875 14.761719 C 13.886719 15.210938 14.285156 15.609375 14.734375 15.953125 C 14.835938 16.027344 14.96875 16.039062 15.078125 15.980469 L 16.125 15.425781 C 16.214844 15.375 16.324219 15.375 16.414062 15.417969 C 16.570312 15.492188 16.734375 15.558594 16.898438 15.617188 C 16.992188 15.652344 17.066406 15.726562 17.097656 15.824219 L 17.445312 16.960938 C 17.480469 17.078125 17.582031 17.164062 17.707031 17.179688 C 18.265625 17.257812 18.832031 17.257812 19.390625 17.179688 C 19.511719 17.164062 19.617188 17.078125 19.652344 16.960938 L 20 15.824219 C 20.03125 15.726562 20.105469 15.652344 20.199219 15.617188 C 20.363281 15.558594 20.527344 15.492188 20.683594 15.417969 C 20.773438 15.375 20.878906 15.375 20.96875 15.425781 L 22.019531 15.980469 C 22.128906 16.039062 22.261719 16.027344 22.363281 15.953125 C 22.8125 15.609375 23.210938 15.210938 23.550781 14.761719 C 23.628906 14.664062 23.640625 14.527344 23.582031 14.417969 L 23.023438 13.371094 C 22.976562 13.28125 22.972656 13.175781 23.015625 13.082031 C 23.089844 12.925781 23.15625 12.765625 23.214844 12.601562 C 23.246094 12.503906 23.324219 12.429688 23.421875 12.402344 L 24.558594 12.050781 C 24.675781 12.015625 24.761719 11.914062 24.777344 11.789062 C 24.855469 11.230469 24.855469 10.664062 24.777344 10.105469 C 24.761719 9.984375 24.675781 9.878906 24.558594 9.84375 L 23.421875 9.496094 C 23.324219 9.464844 23.246094 9.390625 23.214844 9.296875 C 23.15625 9.132812 23.089844 8.972656 23.015625 8.8125 C 22.972656 8.722656 22.976562 8.613281 23.023438 8.527344 L 23.582031 7.476562 C 23.640625 7.367188 23.628906 7.234375 23.550781 7.132812 C 23.210938 6.6875 22.8125 6.285156 22.363281 5.945312 C 22.261719 5.867188 22.128906 5.859375 22.019531 5.917969 L 20.96875 6.472656 C 20.878906 6.519531 20.773438 6.523438 20.683594 6.480469 C 20.527344 6.402344 20.363281 6.335938 20.199219 6.277344 C 20.105469 6.246094 20.03125 6.167969 20 6.070312 L 19.652344 4.9375 C 19.617188 4.816406 19.511719 4.730469 19.390625 4.714844 C 19.183594 4.6875 18.972656 4.667969 18.765625 4.660156 " fill-opacity="1" fill-rule="nonzero"/></g><g fill="#ffffff" fill-opacity="1"><g transform="translate(1.332237, 36.494446)"><g><path d="M 0.59375 -0.96875 C 0.6875 -0.96875 0.769531 -0.945312 0.84375 -0.90625 C 0.914062 -0.863281 0.972656 -0.800781 1.015625 -0.71875 C 1.054688 -0.644531 1.078125 -0.566406 1.078125 -0.484375 L 1.078125 -0.0625 C 1.078125 -0.0390625 1.070312 -0.0234375 1.0625 -0.015625 C 1.050781 -0.00390625 1.035156 0 1.015625 0 C 0.992188 0 0.972656 -0.00390625 0.953125 -0.015625 C 0.941406 -0.0234375 0.9375 -0.0390625 0.9375 -0.0625 L 0.9375 -0.171875 C 0.894531 -0.117188 0.84375 -0.0703125 0.78125 -0.03125 C 0.71875 0 0.648438 0.015625 0.578125 0.015625 C 0.492188 0.015625 0.414062 -0.00390625 0.34375 -0.046875 C 0.269531 -0.0976562 0.210938 -0.160156 0.171875 -0.234375 C 0.128906 -0.304688 0.109375 -0.390625 0.109375 -0.484375 C 0.109375 -0.566406 0.128906 -0.644531 0.171875 -0.71875 C 0.210938 -0.800781 0.269531 -0.863281 0.34375 -0.90625 C 0.414062 -0.945312 0.5 -0.96875 0.59375 -0.96875 Z M 0.59375 -0.109375 C 0.65625 -0.109375 0.710938 -0.125 0.765625 -0.15625 C 0.828125 -0.1875 0.875 -0.226562 0.90625 -0.28125 C 0.9375 -0.34375 0.953125 -0.410156 0.953125 -0.484375 C 0.953125 -0.546875 0.9375 -0.601562 0.90625 -0.65625 C 0.875 -0.71875 0.828125 -0.765625 0.765625 -0.796875 C 0.710938 -0.828125 0.65625 -0.84375 0.59375 -0.84375 C 0.53125 -0.84375 0.46875 -0.828125 0.40625 -0.796875 C 0.351562 -0.765625 0.3125 -0.71875 0.28125 -0.65625 C 0.25 -0.601562 0.234375 -0.546875 0.234375 -0.484375 C 0.234375 -0.410156 0.25 -0.34375 0.28125 -0.28125 C 0.3125 -0.226562 0.351562 -0.1875 0.40625 -0.15625 C 0.46875 -0.125 0.53125 -0.109375 0.59375 -0.109375 Z M 0.59375 -0.109375 "/></g></g></g></svg>