<svg xmlns="http://www.w3.org/2000/svg" xmlns:xlink="http://www.w3.org/1999/xlink" width="50" zoomAndPan="magnify" viewBox="0 0 37.5 37.499999" height="50" preserveAspectRatio="xMidYMid meet" version="1.0"><defs><g/><clipPath id="364b2b2a60"><path d="M 1.609375 7.480469 L 35.652344 7.480469 L 35.652344 29.683594 L 1.609375 29.683594 Z M 1.609375 7.480469 " clip-rule="nonzero"/></clipPath></defs><g clip-path="url(#364b2b2a60)"><path fill="#231f20" d="M 31.078125 7.480469 L 6.183594 7.480469 C 3.667969 7.480469 1.621094 9.523438 1.621094 12.039062 L 1.621094 25.121094 C 1.621094 27.636719 3.664062 29.683594 6.183594 29.683594 L 31.078125 29.683594 C 33.59375 29.683594 35.640625 27.636719 35.640625 25.121094 L 35.640625 12.039062 C 35.640625 9.527344 33.59375 7.480469 31.078125 7.480469 Z M 34.320312 25.121094 C 34.320312 26.910156 32.867188 28.363281 31.078125 28.363281 L 6.183594 28.363281 C 4.394531 28.363281 2.941406 26.910156 2.941406 25.121094 L 2.941406 12.039062 C 2.941406 10.253906 4.394531 8.800781 6.183594 8.800781 L 31.078125 8.800781 C 32.867188 8.800781 34.320312 10.253906 34.320312 12.039062 Z M 34.320312 25.121094 " fill-opacity="1" fill-rule="nonzero"/></g><path fill="#231f20" d="M 12.875 18.882812 C 12.371094 19.144531 11.800781 19.292969 11.195312 19.292969 C 10.59375 19.292969 10.019531 19.144531 9.519531 18.882812 C 7.691406 19.5625 6.386719 21.324219 6.386719 23.390625 L 6.386719 24.105469 C 6.386719 24.664062 6.839844 25.117188 7.398438 25.117188 L 14.996094 25.117188 C 15.554688 25.117188 16.007812 24.664062 16.007812 24.105469 L 16.007812 23.390625 C 16.007812 21.324219 14.703125 19.5625 12.875 18.882812 Z M 12.875 18.882812 " fill-opacity="1" fill-rule="nonzero"/><path fill="#231f20" d="M 14.128906 15.652344 C 14.128906 16.039062 14.054688 16.414062 13.90625 16.773438 C 13.757812 17.132812 13.542969 17.449219 13.269531 17.722656 C 12.996094 17.996094 12.679688 18.210938 12.320312 18.359375 C 11.960938 18.507812 11.585938 18.582031 11.195312 18.582031 C 10.808594 18.582031 10.433594 18.507812 10.074219 18.359375 C 9.714844 18.210938 9.398438 17.996094 9.125 17.722656 C 8.847656 17.449219 8.636719 17.132812 8.488281 16.773438 C 8.339844 16.414062 8.265625 16.039062 8.265625 15.652344 C 8.265625 15.261719 8.339844 14.886719 8.488281 14.53125 C 8.636719 14.171875 8.847656 13.855469 9.125 13.578125 C 9.398438 13.304688 9.714844 13.09375 10.074219 12.945312 C 10.433594 12.796875 10.808594 12.722656 11.195312 12.722656 C 11.585938 12.722656 11.960938 12.796875 12.320312 12.945312 C 12.679688 13.09375 12.996094 13.304688 13.269531 13.578125 C 13.542969 13.855469 13.757812 14.171875 13.90625 14.53125 C 14.054688 14.886719 14.128906 15.261719 14.128906 15.652344 Z M 14.128906 15.652344 " fill-opacity="1" fill-rule="nonzero"/><path fill="#231f20" d="M 30.304688 14.234375 L 20.082031 14.234375 C 19.726562 14.234375 19.4375 14.519531 19.4375 14.875 C 19.4375 15.230469 19.726562 15.515625 20.082031 15.515625 L 30.304688 15.515625 C 30.660156 15.515625 30.949219 15.230469 30.949219 14.875 C 30.949219 14.519531 30.660156 14.234375 30.304688 14.234375 Z M 30.304688 14.234375 " fill-opacity="1" fill-rule="nonzero"/><path fill="#231f20" d="M 30.304688 17.828125 L 20.082031 17.828125 C 19.726562 17.828125 19.4375 18.113281 19.4375 18.46875 C 19.4375 18.824219 19.726562 19.113281 20.082031 19.113281 L 30.304688 19.113281 C 30.660156 19.113281 30.949219 18.824219 30.949219 18.46875 C 30.949219 18.113281 30.660156 17.828125 30.304688 17.828125 Z M 30.304688 17.828125 " fill-opacity="1" fill-rule="nonzero"/><path fill="#231f20" d="M 30.304688 21.421875 L 20.082031 21.421875 C 19.726562 21.421875 19.4375 21.710938 19.4375 22.066406 C 19.4375 22.421875 19.726562 22.707031 20.082031 22.707031 L 30.304688 22.707031 C 30.660156 22.707031 30.949219 22.421875 30.949219 22.066406 C 30.949219 21.710938 30.660156 21.421875 30.304688 21.421875 Z M 30.304688 21.421875 " fill-opacity="1" fill-rule="nonzero"/><g fill="#ffffff" fill-opacity="1"><g transform="translate(0.0000005, 36.494446)"><g><path d="M 0.59375 -0.96875 C 0.6875 -0.96875 0.769531 -0.945312 0.84375 -0.90625 C 0.914062 -0.863281 0.972656 -0.800781 1.015625 -0.71875 C 1.054688 -0.644531 1.078125 -0.566406 1.078125 -0.484375 L 1.078125 -0.0625 C 1.078125 -0.0390625 1.070312 -0.0234375 1.0625 -0.015625 C 1.050781 -0.00390625 1.035156 0 1.015625 0 C 0.992188 0 0.972656 -0.00390625 0.953125 -0.015625 C 0.941406 -0.0234375 0.9375 -0.0390625 0.9375 -0.0625 L 0.9375 -0.171875 C 0.894531 -0.117188 0.84375 -0.0703125 0.78125 -0.03125 C 0.71875 0 0.648438 0.015625 0.578125 0.015625 C 0.492188 0.015625 0.414062 -0.00390625 0.34375 -0.046875 C 0.269531 -0.0976562 0.210938 -0.160156 0.171875 -0.234375 C 0.128906 -0.304688 0.109375 -0.390625 0.109375 -0.484375 C 0.109375 -0.566406 0.128906 -0.644531 0.171875 -0.71875 C 0.210938 -0.800781 0.269531 -0.863281 0.34375 -0.90625 C 0.414062 -0.945312 0.5 -0.96875 0.59375 -0.96875 Z M 0.59375 -0.109375 C 0.65625 -0.109375 0.710938 -0.125 0.765625 -0.15625 C 0.828125 -0.1875 0.875 -0.226562 0.90625 -0.28125 C 0.9375 -0.34375 0.953125 -0.410156 0.953125 -0.484375 C 0.953125 -0.546875 0.9375 -0.601562 0.90625 -0.65625 C 0.875 -0.71875 0.828125 -0.765625 0.765625 -0.796875 C 0.710938 -0.828125 0.65625 -0.84375 0.59375 -0.84375 C 0.53125 -0.84375 0.46875 -0.828125 0.40625 -0.796875 C 0.351562 -0.765625 0.3125 -0.71875 0.28125 -0.65625 C 0.25 -0.601562 0.234375 -0.546875 0.234375 -0.484375 C 0.234375 -0.410156 0.25 -0.34375 0.28125 -0.28125 C 0.3125 -0.226562 0.351562 -0.1875 0.40625 -0.15625 C 0.46875 -0.125 0.53125 -0.109375 0.59375 -0.109375 Z M 0.59375 -0.109375 "/></g></g></g></svg>