<svg xmlns="http://www.w3.org/2000/svg" xmlns:xlink="http://www.w3.org/1999/xlink" width="50" zoomAndPan="magnify" viewBox="0 0 37.5 37.499999" height="50" preserveAspectRatio="xMidYMid meet" version="1.0"><defs><g/><clipPath id="d08a515546"><path d="M 2 5.480469 L 35.117188 5.480469 L 35.117188 23 L 2 23 Z M 2 5.480469 " clip-rule="nonzero"/></clipPath><clipPath id="84c04fb754"><path d="M 1.808594 25 L 8 25 L 8 31.386719 L 1.808594 31.386719 Z M 1.808594 25 " clip-rule="nonzero"/></clipPath></defs><path fill="#000000" d="M 18.164062 30.230469 C 16.875 30.21875 15.671875 29.902344 14.546875 29.277344 L 8.855469 26.207031 C 8.570312 26.046875 8.347656 25.824219 8.179688 25.546875 C 8.015625 25.265625 7.933594 24.960938 7.933594 24.636719 L 7.933594 16.894531 C 7.933594 16.710938 7.996094 16.554688 8.125 16.425781 C 8.257812 16.296875 8.414062 16.234375 8.597656 16.234375 C 8.78125 16.234375 8.9375 16.296875 9.066406 16.425781 C 9.195312 16.554688 9.261719 16.710938 9.261719 16.894531 L 9.261719 24.636719 C 9.261719 24.828125 9.347656 24.972656 9.515625 25.066406 L 15.183594 28.164062 C 16.039062 28.625 16.949219 28.878906 17.917969 28.921875 C 18.890625 28.964844 19.820312 28.789062 20.710938 28.402344 L 28.585938 24.933594 C 28.777344 24.847656 28.871094 24.699219 28.871094 24.488281 L 28.871094 16.675781 C 28.871094 16.492188 28.9375 16.335938 29.066406 16.207031 C 29.199219 16.078125 29.355469 16.015625 29.539062 16.015625 C 29.722656 16.015625 29.878906 16.078125 30.007812 16.207031 C 30.136719 16.335938 30.203125 16.492188 30.203125 16.675781 L 30.203125 24.46875 C 30.203125 24.828125 30.101562 25.15625 29.90625 25.457031 C 29.710938 25.757812 29.449219 25.980469 29.117188 26.125 L 21.242188 29.59375 C 20.261719 30.023438 19.234375 30.238281 18.164062 30.230469 Z M 18.164062 30.230469 " fill-opacity="1" fill-rule="nonzero"/><g clip-path="url(#d08a515546)"><path fill="#000000" d="M 18.683594 22.089844 C 17.84375 22.089844 17.050781 21.902344 16.300781 21.523438 L 3.179688 14.894531 C 2.742188 14.652344 2.527344 14.285156 2.535156 13.789062 C 2.542969 13.292969 2.765625 12.929688 3.207031 12.699219 L 16.761719 6.296875 C 17.488281 5.949219 18.257812 5.78125 19.070312 5.785156 C 19.878906 5.792969 20.644531 5.976562 21.367188 6.339844 L 34.46875 12.84375 C 34.683594 12.949219 34.851562 13.101562 34.972656 13.300781 C 35.097656 13.5 35.160156 13.71875 35.160156 13.953125 C 35.160156 14.191406 35.097656 14.40625 34.972656 14.609375 C 34.851562 14.808594 34.683594 14.960938 34.46875 15.066406 L 20.976562 21.5625 C 20.25 21.914062 19.488281 22.089844 18.683594 22.089844 Z M 3.941406 13.800781 L 16.898438 20.34375 C 17.453125 20.613281 18.035156 20.746094 18.648438 20.746094 C 19.261719 20.746094 19.84375 20.613281 20.398438 20.34375 L 33.691406 13.90625 L 20.777344 7.503906 C 20.234375 7.238281 19.664062 7.097656 19.058594 7.09375 C 18.453125 7.085938 17.878906 7.214844 17.332031 7.472656 Z M 3.941406 13.800781 " fill-opacity="1" fill-rule="nonzero"/></g><path fill="#000000" d="M 4.613281 23.605469 C 4.429688 23.605469 4.273438 23.542969 4.144531 23.414062 C 4.015625 23.28125 3.949219 23.125 3.949219 22.945312 L 3.738281 14.164062 L 18.789062 13.269531 C 18.972656 13.257812 19.132812 13.3125 19.269531 13.433594 C 19.40625 13.554688 19.480469 13.707031 19.492188 13.890625 C 19.503906 14.074219 19.449219 14.234375 19.328125 14.371094 C 19.203125 14.511719 19.050781 14.585938 18.867188 14.59375 L 5.101562 15.410156 L 5.28125 22.925781 C 5.28125 23.105469 5.214844 23.261719 5.085938 23.394531 C 4.953125 23.523438 4.796875 23.585938 4.613281 23.585938 Z M 4.613281 23.605469 " fill-opacity="1" fill-rule="nonzero"/><path fill="#000000" d="M 4.640625 27.234375 C 4.332031 27.234375 4.03125 27.175781 3.742188 27.054688 C 3.457031 26.9375 3.203125 26.769531 2.980469 26.546875 C 2.761719 26.328125 2.59375 26.074219 2.472656 25.789062 C 2.355469 25.503906 2.292969 25.203125 2.292969 24.894531 C 2.292969 24.582031 2.355469 24.285156 2.472656 23.996094 C 2.59375 23.710938 2.761719 23.457031 2.980469 23.238281 C 3.203125 23.019531 3.457031 22.847656 3.742188 22.730469 C 4.03125 22.613281 4.332031 22.550781 4.640625 22.550781 C 4.953125 22.550781 5.25 22.613281 5.539062 22.730469 C 5.828125 22.847656 6.082031 23.019531 6.300781 23.238281 C 6.519531 23.457031 6.691406 23.710938 6.808594 23.996094 C 6.929688 24.285156 6.988281 24.582031 6.988281 24.894531 C 6.988281 25.203125 6.929688 25.503906 6.808594 25.789062 C 6.691406 26.074219 6.519531 26.328125 6.300781 26.546875 C 6.082031 26.769531 5.828125 26.9375 5.539062 27.054688 C 5.25 27.175781 4.953125 27.234375 4.640625 27.234375 Z M 4.640625 23.878906 C 4.507812 23.878906 4.375 23.90625 4.253906 23.957031 C 4.128906 24.007812 4.015625 24.082031 3.921875 24.175781 C 3.828125 24.269531 3.753906 24.378906 3.703125 24.503906 C 3.648438 24.628906 3.625 24.757812 3.625 24.894531 C 3.625 25.027344 3.648438 25.15625 3.703125 25.28125 C 3.753906 25.40625 3.828125 25.515625 3.921875 25.609375 C 4.015625 25.707031 4.128906 25.777344 4.253906 25.832031 C 4.375 25.882812 4.507812 25.90625 4.640625 25.90625 C 4.777344 25.90625 4.90625 25.882812 5.03125 25.832031 C 5.15625 25.777344 5.265625 25.707031 5.359375 25.609375 C 5.457031 25.515625 5.53125 25.40625 5.582031 25.28125 C 5.632812 25.15625 5.660156 25.027344 5.660156 24.894531 C 5.65625 24.757812 5.632812 24.628906 5.578125 24.507812 C 5.527344 24.382812 5.453125 24.273438 5.359375 24.179688 C 5.261719 24.082031 5.152344 24.007812 5.03125 23.957031 C 4.90625 23.90625 4.777344 23.878906 4.640625 23.878906 Z M 4.640625 23.878906 " fill-opacity="1" fill-rule="nonzero"/><g clip-path="url(#84c04fb754)"><path fill="#000000" d="M 7.460938 31.265625 L 1.824219 31.265625 L 3.453125 26.246094 C 3.507812 26.070312 3.617188 25.941406 3.78125 25.855469 C 3.945312 25.773438 4.113281 25.757812 4.289062 25.816406 C 4.445312 25.867188 4.566406 25.964844 4.648438 26.105469 C 4.734375 25.960938 4.859375 25.867188 5.019531 25.816406 C 5.195312 25.761719 5.363281 25.777344 5.523438 25.859375 C 5.6875 25.945312 5.796875 26.074219 5.851562 26.246094 Z M 3.652344 29.941406 L 5.644531 29.941406 L 4.65625 26.851562 Z M 3.652344 29.941406 " fill-opacity="1" fill-rule="nonzero"/></g><g fill="#ffffff" fill-opacity="1"><g transform="translate(0.0000005, 36.494446)"><g><path d="M 0.59375 -0.96875 C 0.6875 -0.96875 0.769531 -0.945312 0.84375 -0.90625 C 0.914062 -0.863281 0.972656 -0.800781 1.015625 -0.71875 C 1.054688 -0.644531 1.078125 -0.566406 1.078125 -0.484375 L 1.078125 -0.0625 C 1.078125 -0.0390625 1.070312 -0.0234375 1.0625 -0.015625 C 1.050781 -0.00390625 1.035156 0 1.015625 0 C 0.992188 0 0.972656 -0.00390625 0.953125 -0.015625 C 0.941406 -0.0234375 0.9375 -0.0390625 0.9375 -0.0625 L 0.9375 -0.171875 C 0.894531 -0.117188 0.84375 -0.0703125 0.78125 -0.03125 C 0.71875 0 0.648438 0.015625 0.578125 0.015625 C 0.492188 0.015625 0.414062 -0.00390625 0.34375 -0.046875 C 0.269531 -0.0976562 0.210938 -0.160156 0.171875 -0.234375 C 0.128906 -0.304688 0.109375 -0.390625 0.109375 -0.484375 C 0.109375 -0.566406 0.128906 -0.644531 0.171875 -0.71875 C 0.210938 -0.800781 0.269531 -0.863281 0.34375 -0.90625 C 0.414062 -0.945312 0.5 -0.96875 0.59375 -0.96875 Z M 0.59375 -0.109375 C 0.65625 -0.109375 0.710938 -0.125 0.765625 -0.15625 C 0.828125 -0.1875 0.875 -0.226562 0.90625 -0.28125 C 0.9375 -0.34375 0.953125 -0.410156 0.953125 -0.484375 C 0.953125 -0.546875 0.9375 -0.601562 0.90625 -0.65625 C 0.875 -0.71875 0.828125 -0.765625 0.765625 -0.796875 C 0.710938 -0.828125 0.65625 -0.84375 0.59375 -0.84375 C 0.53125 -0.84375 0.46875 -0.828125 0.40625 -0.796875 C 0.351562 -0.765625 0.3125 -0.71875 0.28125 -0.65625 C 0.25 -0.601562 0.234375 -0.546875 0.234375 -0.484375 C 0.234375 -0.410156 0.25 -0.34375 0.28125 -0.28125 C 0.3125 -0.226562 0.351562 -0.1875 0.40625 -0.15625 C 0.46875 -0.125 0.53125 -0.109375 0.59375 -0.109375 Z M 0.59375 -0.109375 "/></g></g></g></svg>