<svg xmlns="http://www.w3.org/2000/svg" xmlns:xlink="http://www.w3.org/1999/xlink" width="50" zoomAndPan="magnify" viewBox="0 0 37.5 37.499999" height="50" preserveAspectRatio="xMidYMid meet" version="1.0"><defs><g/><clipPath id="74197943a4"><path d="M 3.332031 27 L 12 27 L 12 35.917969 L 3.332031 35.917969 Z M 3.332031 27 " clip-rule="nonzero"/></clipPath><clipPath id="ed97e0d707"><path d="M 6 32 L 9 32 L 9 35.917969 L 6 35.917969 Z M 6 32 " clip-rule="nonzero"/></clipPath><clipPath id="afaaf30ec6"><path d="M 25 2 L 33.675781 2 L 33.675781 11 L 25 11 Z M 25 2 " clip-rule="nonzero"/></clipPath></defs><path fill="#000000" d="M 10.664062 33.484375 C 10.261719 33.484375 10.113281 32.949219 10.460938 32.746094 L 10.507812 32.71875 C 12.425781 31.589844 13.589844 30.902344 15.589844 31.816406 C 18.722656 32.828125 20.910156 31.347656 23.441406 29.632812 L 23.492188 29.597656 C 26.925781 27.28125 27.640625 25.507812 27.792969 24.855469 C 27.992188 23.976562 26.9375 22.734375 25.898438 24.066406 C 24.886719 25.355469 23.136719 26.703125 22.046875 27.484375 C 22.1875 28.226562 21.601562 29.171875 20.019531 29.507812 C 16.925781 30.164062 14.652344 29.238281 14.558594 29.199219 C 14.359375 29.113281 14.261719 28.878906 14.347656 28.675781 C 14.433594 28.476562 14.664062 28.378906 14.867188 28.464844 C 14.886719 28.476562 17.015625 29.335938 19.851562 28.730469 C 21.464844 28.382812 21.75 27.304688 20.4375 27.105469 C 19.5625 26.964844 18.523438 26.691406 17.417969 26.394531 C 14.835938 25.703125 11.625 24.84375 10.78125 26.171875 C 10.132812 27.191406 9.292969 27.703125 7.988281 28.433594 C 7.796875 28.535156 7.554688 28.46875 7.449219 28.28125 C 7.339844 28.089844 7.410156 27.847656 7.601562 27.738281 C 8.90625 27.011719 9.578125 26.582031 10.109375 25.746094 C 10.644531 24.90625 11.691406 24.566406 13.3125 24.710938 C 14.636719 24.824219 16.15625 25.234375 17.625 25.628906 C 18.703125 25.917969 19.722656 26.191406 20.5625 26.320312 C 21.011719 26.390625 21.382812 26.554688 21.644531 26.792969 C 22.703125 26.03125 24.339844 24.765625 25.269531 23.582031 C 26.839844 21.570312 28.957031 23.332031 28.566406 25.03125 C 28.351562 25.960938 27.46875 27.867188 23.933594 30.253906 L 23.886719 30.289062 C 21.289062 32.046875 18.832031 33.707031 15.320312 32.566406 C 15.308594 32.558594 15.292969 32.554688 15.277344 32.546875 C 13.636719 31.792969 12.785156 32.296875 10.910156 33.402344 C 10.824219 33.449219 10.773438 33.484375 10.664062 33.484375 Z M 10.664062 33.484375 " fill-opacity="1" fill-rule="evenodd"/><g clip-path="url(#74197943a4)"><path fill="#000000" d="M 7.472656 35.90625 C 7.042969 35.90625 6.640625 35.679688 6.421875 35.300781 L 3.664062 30.535156 C 3.332031 29.957031 3.53125 29.21875 4.109375 28.882812 L 6.519531 27.496094 C 7.09375 27.160156 7.839844 27.359375 8.171875 27.9375 L 10.929688 32.703125 C 11.261719 33.285156 11.0625 34.019531 10.484375 34.355469 L 8.078125 35.746094 C 7.890625 35.847656 7.6875 35.90625 7.472656 35.90625 Z M 7.117188 28.128906 C 7.046875 28.128906 6.976562 28.148438 6.914062 28.179688 L 4.503906 29.570312 C 4.308594 29.683594 4.238281 29.941406 4.351562 30.136719 L 7.109375 34.902344 C 7.222656 35.101562 7.480469 35.167969 7.675781 35.054688 L 10.085938 33.667969 C 10.285156 33.554688 10.351562 33.296875 10.238281 33.097656 L 7.480469 28.332031 C 7.410156 28.203125 7.269531 28.128906 7.117188 28.128906 Z M 6.714844 27.835938 Z M 6.714844 27.835938 " fill-opacity="1" fill-rule="evenodd"/></g><g clip-path="url(#ed97e0d707)"><path fill="#000000" d="M 8.449219 35.46875 C 8.3125 35.46875 8.175781 35.398438 8.105469 35.269531 L 6.808594 33.027344 C 6.699219 32.839844 6.765625 32.597656 6.957031 32.484375 C 7.148438 32.378906 7.390625 32.441406 7.5 32.632812 L 8.792969 34.875 C 8.945312 35.136719 8.753906 35.46875 8.449219 35.46875 Z M 8.449219 35.46875 " fill-opacity="1" fill-rule="evenodd"/></g><path fill="#000000" d="M 9.652344 34.773438 C 9.511719 34.773438 9.378906 34.703125 9.304688 34.578125 L 8.011719 32.335938 C 7.902344 32.144531 7.96875 31.902344 8.152344 31.792969 C 8.34375 31.683594 8.585938 31.75 8.699219 31.941406 L 9.996094 34.179688 C 10.148438 34.445312 9.953125 34.773438 9.652344 34.773438 Z M 9.652344 34.773438 " fill-opacity="1" fill-rule="evenodd"/><path fill="#000000" d="M 10.167969 15.273438 C 9.039062 15.273438 8.1875 14.039062 8.445312 12.921875 C 8.664062 11.960938 9.570312 10.066406 13.121094 7.664062 C 15.722656 5.914062 18.179688 4.253906 21.6875 5.394531 C 21.703125 5.398438 21.714844 5.40625 21.730469 5.414062 C 23.394531 6.171875 24.238281 5.652344 26.148438 4.527344 C 26.339844 4.417969 26.582031 4.480469 26.691406 4.671875 C 26.800781 4.855469 26.738281 5.105469 26.546875 5.214844 L 26.503906 5.242188 C 24.582031 6.371094 23.417969 7.054688 21.421875 6.140625 C 18.289062 5.132812 16.105469 6.613281 13.570312 8.324219 C 10.117188 10.652344 9.378906 12.40625 9.21875 13.101562 C 9.015625 13.984375 10.070312 15.222656 11.109375 13.894531 C 12.121094 12.601562 13.871094 11.253906 14.964844 10.476562 C 14.820312 9.726562 15.402344 8.789062 16.992188 8.453125 C 20.085938 7.792969 22.351562 8.722656 22.445312 8.761719 C 22.652344 8.847656 22.746094 9.078125 22.660156 9.28125 C 22.574219 9.484375 22.339844 9.578125 22.140625 9.492188 C 22.121094 9.484375 19.996094 8.621094 17.15625 9.226562 C 15.539062 9.570312 15.257812 10.65625 16.566406 10.855469 C 17.449219 10.988281 18.488281 11.269531 19.589844 11.566406 C 22.167969 12.253906 25.382812 13.117188 26.226562 11.785156 C 26.875 10.765625 27.714844 10.25 29.023438 9.527344 C 29.214844 9.417969 29.457031 9.488281 29.5625 9.679688 C 29.667969 9.871094 29.601562 10.113281 29.410156 10.21875 C 28.101562 10.945312 27.425781 11.378906 26.902344 12.210938 C 26.367188 13.050781 25.316406 13.394531 23.695312 13.25 C 22.375 13.132812 20.855469 12.726562 19.382812 12.332031 C 18.300781 12.042969 17.285156 11.769531 16.445312 11.640625 C 16 11.570312 15.625 11.402344 15.363281 11.164062 C 14.304688 11.921875 12.671875 13.1875 11.738281 14.378906 C 11.277344 14.964844 10.722656 15.273438 10.167969 15.273438 Z M 10.167969 15.273438 " fill-opacity="1" fill-rule="evenodd"/><g clip-path="url(#afaaf30ec6)"><path fill="#000000" d="M 29.890625 10.628906 C 29.457031 10.628906 29.054688 10.398438 28.835938 10.023438 L 26.082031 5.257812 C 25.746094 4.679688 25.945312 3.9375 26.523438 3.605469 L 28.933594 2.214844 C 29.515625 1.882812 30.253906 2.082031 30.585938 2.65625 L 33.34375 7.421875 C 33.675781 8.003906 33.480469 8.742188 32.898438 9.074219 L 30.492188 10.464844 C 30.304688 10.574219 30.101562 10.628906 29.890625 10.628906 Z M 29.539062 2.847656 C 29.464844 2.847656 29.394531 2.867188 29.328125 2.90625 L 26.925781 4.289062 C 26.722656 4.40625 26.652344 4.660156 26.773438 4.855469 L 29.527344 9.628906 C 29.636719 9.824219 29.894531 9.894531 30.097656 9.78125 L 32.503906 8.390625 C 32.699219 8.273438 32.769531 8.019531 32.65625 7.824219 L 29.902344 3.058594 C 29.824219 2.925781 29.679688 2.847656 29.539062 2.847656 Z M 29.539062 2.847656 " fill-opacity="1" fill-rule="evenodd"/></g><path fill="#000000" d="M 29.859375 5.527344 C 29.71875 5.527344 29.585938 5.457031 29.515625 5.328125 L 28.21875 3.085938 C 28.105469 2.902344 28.167969 2.65625 28.359375 2.546875 C 28.550781 2.433594 28.792969 2.5 28.902344 2.691406 L 30.199219 4.933594 C 30.355469 5.199219 30.15625 5.527344 29.859375 5.527344 Z M 29.859375 5.527344 " fill-opacity="1" fill-rule="evenodd"/><path fill="#000000" d="M 28.65625 6.21875 C 28.515625 6.21875 28.382812 6.148438 28.3125 6.019531 L 27.015625 3.78125 C 26.90625 3.589844 26.972656 3.347656 27.164062 3.238281 C 27.355469 3.128906 27.597656 3.191406 27.707031 3.382812 L 29 5.625 C 29.15625 5.890625 28.960938 6.21875 28.65625 6.21875 Z M 28.65625 6.21875 " fill-opacity="1" fill-rule="evenodd"/><path fill="#000000" d="M 18.507812 25.007812 C 18.398438 25.007812 18.292969 24.964844 18.222656 24.890625 C 17.1875 23.824219 16.136719 23.035156 15.214844 22.328125 C 13.335938 20.90625 11.855469 19.777344 11.855469 17.453125 C 11.855469 15.46875 13.433594 13.851562 15.378906 13.851562 C 16.933594 13.851562 17.804688 14.605469 18.507812 15.808594 C 19.203125 14.605469 20.078125 13.851562 21.632812 13.851562 C 23.578125 13.851562 25.15625 15.46875 25.15625 17.453125 C 25.15625 19.777344 23.671875 20.90625 21.796875 22.328125 C 20.871094 23.035156 19.828125 23.824219 18.789062 24.890625 C 18.71875 24.964844 18.613281 25.007812 18.507812 25.007812 Z M 15.378906 14.644531 C 13.871094 14.644531 12.644531 15.90625 12.644531 17.453125 C 12.644531 19.386719 13.863281 20.304688 15.699219 21.699219 C 16.558594 22.351562 17.523438 23.085938 18.507812 24.046875 C 19.484375 23.085938 20.453125 22.351562 21.3125 21.699219 C 23.148438 20.304688 24.363281 19.386719 24.363281 17.453125 C 24.363281 15.90625 23.136719 14.644531 21.632812 14.644531 C 20.359375 14.644531 19.65625 15.191406 18.859375 16.824219 C 18.71875 17.125 18.292969 17.125 18.148438 16.824219 C 17.351562 15.191406 16.652344 14.644531 15.378906 14.644531 Z M 15.378906 14.644531 " fill-opacity="1" fill-rule="evenodd"/><path fill="#000000" d="M 13.734375 17.890625 C 13.515625 17.890625 13.335938 17.710938 13.335938 17.492188 C 13.335938 16.292969 14.386719 15.320312 15.675781 15.320312 C 15.894531 15.320312 16.070312 15.496094 16.070312 15.714844 C 16.070312 15.933594 15.894531 16.113281 15.675781 16.113281 C 14.824219 16.113281 14.132812 16.730469 14.132812 17.492188 C 14.132812 17.710938 13.953125 17.890625 13.734375 17.890625 Z M 13.734375 17.890625 " fill-opacity="1" fill-rule="evenodd"/><g fill="#ffffff" fill-opacity="1"><g transform="translate(0.0000005, 36.494446)"><g><path d="M 0.59375 -0.96875 C 0.6875 -0.96875 0.769531 -0.945312 0.84375 -0.90625 C 0.914062 -0.863281 0.972656 -0.800781 1.015625 -0.71875 C 1.054688 -0.644531 1.078125 -0.566406 1.078125 -0.484375 L 1.078125 -0.0625 C 1.078125 -0.0390625 1.070312 -0.0234375 1.0625 -0.015625 C 1.050781 -0.00390625 1.035156 0 1.015625 0 C 0.992188 0 0.972656 -0.00390625 0.953125 -0.015625 C 0.941406 -0.0234375 0.9375 -0.0390625 0.9375 -0.0625 L 0.9375 -0.171875 C 0.894531 -0.117188 0.84375 -0.0703125 0.78125 -0.03125 C 0.71875 0 0.648438 0.015625 0.578125 0.015625 C 0.492188 0.015625 0.414062 -0.00390625 0.34375 -0.046875 C 0.269531 -0.0976562 0.210938 -0.160156 0.171875 -0.234375 C 0.128906 -0.304688 0.109375 -0.390625 0.109375 -0.484375 C 0.109375 -0.566406 0.128906 -0.644531 0.171875 -0.71875 C 0.210938 -0.800781 0.269531 -0.863281 0.34375 -0.90625 C 0.414062 -0.945312 0.5 -0.96875 0.59375 -0.96875 Z M 0.59375 -0.109375 C 0.65625 -0.109375 0.710938 -0.125 0.765625 -0.15625 C 0.828125 -0.1875 0.875 -0.226562 0.90625 -0.28125 C 0.9375 -0.34375 0.953125 -0.410156 0.953125 -0.484375 C 0.953125 -0.546875 0.9375 -0.601562 0.90625 -0.65625 C 0.875 -0.71875 0.828125 -0.765625 0.765625 -0.796875 C 0.710938 -0.828125 0.65625 -0.84375 0.59375 -0.84375 C 0.53125 -0.84375 0.46875 -0.828125 0.40625 -0.796875 C 0.351562 -0.765625 0.3125 -0.71875 0.28125 -0.65625 C 0.25 -0.601562 0.234375 -0.546875 0.234375 -0.484375 C 0.234375 -0.410156 0.25 -0.34375 0.28125 -0.28125 C 0.3125 -0.226562 0.351562 -0.1875 0.40625 -0.15625 C 0.46875 -0.125 0.53125 -0.109375 0.59375 -0.109375 Z M 0.59375 -0.109375 "/></g></g></g></svg>