<svg xmlns="http://www.w3.org/2000/svg" xmlns:xlink="http://www.w3.org/1999/xlink" width="50" zoomAndPan="magnify" viewBox="0 0 37.5 37.499999" height="50" preserveAspectRatio="xMidYMid meet" version="1.0"><defs><g/><clipPath id="44b59501b7"><path d="M 3.699219 8 L 20 8 L 20 31 L 3.699219 31 Z M 3.699219 8 " clip-rule="nonzero"/></clipPath><clipPath id="c5ca0b0c55"><path d="M 17 24 L 31 24 L 31 35.96875 L 17 35.96875 Z M 17 24 " clip-rule="nonzero"/></clipPath><clipPath id="b485582697"><path d="M 19 2.664062 L 29 2.664062 L 29 17 L 19 17 Z M 19 2.664062 " clip-rule="nonzero"/></clipPath><clipPath id="75515d8f1d"><path d="M 22 2.664062 L 29 2.664062 L 29 17 L 22 17 Z M 22 2.664062 " clip-rule="nonzero"/></clipPath></defs><g clip-path="url(#44b59501b7)"><path fill="#000000" d="M 13.742188 30.476562 L 9.226562 30.476562 C 8.707031 30.476562 8.285156 30.050781 8.285156 29.527344 L 8.285156 19.859375 L 4.640625 19.859375 C 4.121094 19.859375 3.699219 19.433594 3.699219 18.914062 L 3.699219 14.355469 C 3.699219 13.835938 4.121094 13.410156 4.640625 13.410156 L 8.285156 13.410156 L 8.285156 9.878906 C 8.285156 9.359375 8.707031 8.933594 9.226562 8.933594 L 13.742188 8.933594 C 14.261719 8.933594 14.683594 9.359375 14.683594 9.878906 L 14.683594 13.410156 L 18.328125 13.410156 C 18.847656 13.410156 19.269531 13.835938 19.269531 14.355469 L 19.269531 18.914062 C 19.269531 19.433594 18.847656 19.859375 18.328125 19.859375 L 14.683594 19.859375 L 14.683594 29.527344 C 14.683594 30.050781 14.261719 30.476562 13.742188 30.476562 Z M 9.394531 29.355469 L 13.574219 29.355469 L 13.574219 19.691406 C 13.574219 19.167969 13.996094 18.742188 14.515625 18.742188 L 18.160156 18.742188 L 18.160156 14.527344 L 14.515625 14.527344 C 13.996094 14.527344 13.574219 14.101562 13.574219 13.578125 L 13.574219 10.050781 L 9.394531 10.050781 L 9.394531 13.578125 C 9.394531 14.101562 8.972656 14.527344 8.457031 14.527344 L 4.808594 14.527344 L 4.808594 18.742188 L 8.457031 18.742188 C 8.972656 18.742188 9.394531 19.167969 9.394531 19.691406 Z M 9.394531 29.355469 " fill-opacity="1" fill-rule="nonzero"/></g><path fill="#000000" d="M 29.808594 32.613281 L 18.285156 32.613281 C 18 32.613281 17.738281 32.460938 17.597656 32.214844 C 17.457031 31.964844 17.457031 31.660156 17.597656 31.410156 L 23.359375 21.347656 C 23.5 21.101562 23.765625 20.949219 24.046875 20.949219 C 24.332031 20.949219 24.59375 21.101562 24.734375 21.351562 L 30.5 31.410156 C 30.640625 31.660156 30.640625 31.96875 30.496094 32.214844 C 30.355469 32.460938 30.089844 32.613281 29.808594 32.613281 Z M 18.832031 31.496094 L 29.265625 31.496094 L 24.046875 22.382812 Z M 18.832031 31.496094 " fill-opacity="1" fill-rule="nonzero"/><g clip-path="url(#c5ca0b0c55)"><path fill="#000000" d="M 24.046875 35.96875 C 23.761719 35.96875 23.5 35.816406 23.359375 35.566406 L 17.597656 25.503906 C 17.453125 25.257812 17.453125 24.949219 17.597656 24.703125 C 17.738281 24.457031 18 24.300781 18.285156 24.300781 L 29.808594 24.300781 C 30.09375 24.300781 30.355469 24.457031 30.496094 24.703125 C 30.640625 24.949219 30.640625 25.257812 30.496094 25.503906 L 24.734375 35.566406 C 24.59375 35.816406 24.332031 35.96875 24.046875 35.96875 Z M 23.773438 35.007812 Z M 18.832031 25.421875 L 24.046875 34.53125 L 29.265625 25.421875 Z M 18.832031 25.421875 " fill-opacity="1" fill-rule="nonzero"/></g><g clip-path="url(#b485582697)"><path fill="#000000" d="M 26.289062 16.445312 C 22.519531 16.445312 19.457031 13.351562 19.457031 9.554688 C 19.457031 5.757812 22.519531 2.667969 26.289062 2.667969 C 26.953125 2.667969 27.609375 2.761719 28.242188 2.953125 C 28.535156 3.042969 28.703125 3.351562 28.613281 3.648438 C 28.527344 3.945312 28.21875 4.113281 27.925781 4.023438 C 27.394531 3.867188 26.84375 3.785156 26.289062 3.785156 C 23.132812 3.785156 20.566406 6.375 20.566406 9.554688 C 20.566406 12.738281 23.132812 15.324219 26.289062 15.324219 C 26.84375 15.324219 27.394531 15.246094 27.925781 15.085938 C 28.21875 14.996094 28.527344 15.167969 28.613281 15.460938 C 28.703125 15.757812 28.535156 16.070312 28.242188 16.15625 C 27.609375 16.347656 26.953125 16.445312 26.289062 16.445312 Z M 26.289062 16.445312 " fill-opacity="1" fill-rule="nonzero"/></g><g clip-path="url(#75515d8f1d)"><path fill="#000000" d="M 28.082031 16.179688 C 28.035156 16.179688 27.992188 16.175781 27.941406 16.164062 C 24.960938 15.382812 22.878906 12.664062 22.878906 9.554688 C 22.878906 6.445312 24.960938 3.730469 27.941406 2.949219 C 28.242188 2.871094 28.542969 3.050781 28.621094 3.347656 C 28.695312 3.648438 28.519531 3.953125 28.222656 4.03125 C 25.730469 4.683594 23.988281 6.953125 23.988281 9.554688 C 23.988281 12.15625 25.730469 14.425781 28.222656 15.082031 C 28.519531 15.160156 28.695312 15.464844 28.621094 15.761719 C 28.554688 16.015625 28.328125 16.179688 28.082031 16.179688 Z M 28.082031 16.179688 " fill-opacity="1" fill-rule="nonzero"/></g><path fill="#000000" d="M 29.578125 11.832031 C 29.441406 11.832031 29.308594 11.789062 29.191406 11.707031 C 28.988281 11.558594 28.886719 11.308594 28.929688 11.058594 L 29.144531 9.789062 L 28.230469 8.890625 C 28.050781 8.710938 27.988281 8.453125 28.066406 8.210938 C 28.144531 7.96875 28.347656 7.796875 28.597656 7.757812 L 29.859375 7.574219 L 30.425781 6.417969 C 30.535156 6.191406 30.761719 6.050781 31.015625 6.050781 C 31.269531 6.050781 31.492188 6.191406 31.605469 6.417969 L 32.167969 7.574219 L 33.433594 7.757812 C 33.683594 7.796875 33.886719 7.96875 33.964844 8.210938 C 34.042969 8.453125 33.980469 8.710938 33.796875 8.890625 L 32.882812 9.789062 L 33.101562 11.058594 C 33.140625 11.308594 33.042969 11.558594 32.839844 11.707031 C 32.632812 11.855469 32.367188 11.875 32.144531 11.757812 L 31.015625 11.160156 L 29.886719 11.757812 C 29.789062 11.808594 29.683594 11.832031 29.578125 11.832031 Z M 29.660156 8.734375 L 30.089844 9.15625 C 30.246094 9.304688 30.316406 9.527344 30.277344 9.746094 L 30.175781 10.339844 L 30.707031 10.058594 C 30.898438 9.957031 31.128906 9.953125 31.320312 10.058594 L 31.851562 10.335938 L 31.75 9.742188 C 31.710938 9.527344 31.78125 9.308594 31.9375 9.15625 L 32.367188 8.730469 L 31.773438 8.644531 C 31.5625 8.613281 31.375 8.480469 31.277344 8.28125 L 31.011719 7.738281 L 30.75 8.28125 C 30.652344 8.476562 30.464844 8.613281 30.25 8.644531 Z M 29.3125 9.953125 C 29.316406 9.957031 29.316406 9.957031 29.316406 9.957031 Z M 29.183594 9.554688 C 29.183594 9.554688 29.183594 9.554688 29.183594 9.558594 Z M 32.84375 9.550781 L 32.84375 9.554688 C 32.84375 9.554688 32.84375 9.550781 32.84375 9.550781 Z M 33.273438 8.863281 L 33.277344 8.863281 Z M 30.09375 7.539062 Z M 31.933594 7.539062 L 31.9375 7.539062 C 31.933594 7.539062 31.933594 7.539062 31.933594 7.539062 Z M 30.609375 6.914062 Z M 30.609375 6.914062 " fill-opacity="1" fill-rule="nonzero"/><g fill="#ffffff" fill-opacity="1"><g transform="translate(0.0000005, 36.494446)"><g><path d="M 0.59375 -0.96875 C 0.6875 -0.96875 0.769531 -0.945312 0.84375 -0.90625 C 0.914062 -0.863281 0.972656 -0.800781 1.015625 -0.71875 C 1.054688 -0.644531 1.078125 -0.566406 1.078125 -0.484375 L 1.078125 -0.0625 C 1.078125 -0.0390625 1.070312 -0.0234375 1.0625 -0.015625 C 1.050781 -0.00390625 1.035156 0 1.015625 0 C 0.992188 0 0.972656 -0.00390625 0.953125 -0.015625 C 0.941406 -0.0234375 0.9375 -0.0390625 0.9375 -0.0625 L 0.9375 -0.171875 C 0.894531 -0.117188 0.84375 -0.0703125 0.78125 -0.03125 C 0.71875 0 0.648438 0.015625 0.578125 0.015625 C 0.492188 0.015625 0.414062 -0.00390625 0.34375 -0.046875 C 0.269531 -0.0976562 0.210938 -0.160156 0.171875 -0.234375 C 0.128906 -0.304688 0.109375 -0.390625 0.109375 -0.484375 C 0.109375 -0.566406 0.128906 -0.644531 0.171875 -0.71875 C 0.210938 -0.800781 0.269531 -0.863281 0.34375 -0.90625 C 0.414062 -0.945312 0.5 -0.96875 0.59375 -0.96875 Z M 0.59375 -0.109375 C 0.65625 -0.109375 0.710938 -0.125 0.765625 -0.15625 C 0.828125 -0.1875 0.875 -0.226562 0.90625 -0.28125 C 0.9375 -0.34375 0.953125 -0.410156 0.953125 -0.484375 C 0.953125 -0.546875 0.9375 -0.601562 0.90625 -0.65625 C 0.875 -0.71875 0.828125 -0.765625 0.765625 -0.796875 C 0.710938 -0.828125 0.65625 -0.84375 0.59375 -0.84375 C 0.53125 -0.84375 0.46875 -0.828125 0.40625 -0.796875 C 0.351562 -0.765625 0.3125 -0.71875 0.28125 -0.65625 C 0.25 -0.601562 0.234375 -0.546875 0.234375 -0.484375 C 0.234375 -0.410156 0.25 -0.34375 0.28125 -0.28125 C 0.3125 -0.226562 0.351562 -0.1875 0.40625 -0.15625 C 0.46875 -0.125 0.53125 -0.109375 0.59375 -0.109375 Z M 0.59375 -0.109375 "/></g></g></g></svg>