<svg xmlns="http://www.w3.org/2000/svg" xmlns:xlink="http://www.w3.org/1999/xlink" width="50" zoomAndPan="magnify" viewBox="0 0 37.5 37.499999" height="50" preserveAspectRatio="xMidYMid meet" version="1.0"><defs><g/><clipPath id="21da1eb651"><path d="M 2.609375 1.226562 L 34.4375 1.226562 L 34.4375 36.015625 L 2.609375 36.015625 Z M 2.609375 1.226562 " clip-rule="nonzero"/></clipPath></defs><g clip-path="url(#21da1eb651)"><path fill="#000000" d="M 14.316406 30.375 L 8.347656 24.371094 C 10.695312 21.886719 14.460938 21.308594 17.453125 23.027344 C 17.511719 23.058594 17.582031 23.082031 17.65625 23.082031 L 23.964844 23.082031 C 24.632812 23.082031 25.171875 23.625 25.171875 24.289062 C 25.171875 24.957031 24.632812 25.5 23.964844 25.5 L 19.132812 25.5 C 18.910156 25.5 18.730469 25.683594 18.730469 25.90625 C 18.730469 26.128906 18.910156 26.3125 19.132812 26.3125 L 23.964844 26.3125 C 25.078125 26.3125 25.984375 25.402344 25.984375 24.289062 C 25.984375 24.132812 25.964844 23.984375 25.929688 23.839844 L 30.863281 19.179688 C 31.457031 18.617188 32.402344 18.636719 32.960938 19.234375 C 33.53125 19.832031 33.503906 20.785156 32.90625 21.347656 C 32.894531 21.363281 32.882812 21.367188 32.875 21.382812 L 26.917969 28.707031 C 26.566406 29.140625 26.105469 29.355469 25.550781 29.355469 L 15.890625 29.355469 C 15.527344 29.355469 15.203125 29.492188 14.945312 29.75 Z M 14.164062 32.121094 C 14.363281 31.917969 14.363281 31.585938 14.164062 31.375 L 7.367188 24.542969 C 7.265625 24.4375 7.136719 24.386719 6.996094 24.386719 C 6.851562 24.386719 6.726562 24.4375 6.625 24.542969 L 3.71875 27.460938 C 3.507812 27.664062 3.507812 28.003906 3.71875 28.210938 L 10.507812 35.042969 C 10.710938 35.246094 11.046875 35.246094 11.25 35.042969 Z M 15.886719 30.171875 L 25.546875 30.171875 C 26.34375 30.171875 27.03125 29.847656 27.539062 29.222656 L 33.488281 21.917969 C 34.386719 21.042969 34.421875 19.589844 33.550781 18.671875 C 32.679688 17.75 31.226562 17.707031 30.308594 18.582031 L 25.566406 23.058594 C 25.195312 22.570312 24.613281 22.257812 23.957031 22.257812 L 17.75 22.257812 C 14.445312 20.425781 10.324219 21.078125 7.75 23.808594 C 7.527344 23.652344 7.265625 23.570312 6.996094 23.570312 C 6.636719 23.570312 6.304688 23.707031 6.050781 23.964844 L 3.144531 26.882812 C 2.625 27.40625 2.625 28.257812 3.144531 28.785156 L 9.933594 35.621094 C 10.195312 35.886719 10.535156 36.015625 10.878906 36.015625 C 11.222656 36.015625 11.5625 35.886719 11.824219 35.621094 L 14.730469 32.699219 C 15.195312 32.230469 15.242188 31.488281 14.863281 30.96875 L 15.507812 30.328125 C 15.613281 30.21875 15.738281 30.171875 15.886719 30.171875 Z M 21.363281 18.53125 C 21.242188 18.53125 21.148438 18.433594 21.148438 18.3125 C 21.148438 18.191406 21.242188 18.09375 21.363281 18.09375 C 21.476562 18.09375 21.578125 18.191406 21.578125 18.3125 C 21.578125 18.433594 21.476562 18.53125 21.363281 18.53125 Z M 21.363281 17.285156 C 20.796875 17.285156 20.335938 17.75 20.335938 18.320312 C 20.335938 18.890625 20.796875 19.351562 21.363281 19.351562 C 21.929688 19.351562 22.390625 18.890625 22.390625 18.320312 C 22.390625 17.75 21.925781 17.285156 21.363281 17.285156 Z M 21.769531 11.730469 L 21.363281 16.238281 L 20.957031 11.730469 C 20.953125 11.667969 20.964844 11.628906 21.011719 11.582031 C 21.050781 11.53125 21.09375 11.519531 21.160156 11.519531 L 21.578125 11.519531 C 21.640625 11.519531 21.679688 11.539062 21.726562 11.582031 C 21.761719 11.628906 21.777344 11.667969 21.769531 11.730469 Z M 21.574219 10.703125 L 21.152344 10.703125 C 20.863281 10.703125 20.605469 10.820312 20.410156 11.035156 C 20.214844 11.253906 20.128906 11.519531 20.152344 11.8125 L 20.566406 16.371094 C 20.605469 16.789062 20.953125 17.109375 21.371094 17.109375 C 21.789062 17.109375 22.132812 16.789062 22.175781 16.371094 L 22.585938 11.8125 C 22.613281 11.519531 22.523438 11.253906 22.324219 11.035156 C 22.121094 10.8125 21.863281 10.703125 21.574219 10.703125 Z M 11.636719 8.09375 C 11.59375 8.257812 11.453125 8.382812 11.285156 8.402344 L 9.796875 8.558594 L 9.796875 10.601562 L 11.285156 10.757812 C 11.453125 10.777344 11.59375 10.894531 11.636719 11.0625 C 11.769531 11.585938 11.972656 12.082031 12.25 12.550781 C 12.332031 12.695312 12.316406 12.882812 12.21875 13.011719 L 11.269531 14.183594 L 12.710938 15.628906 L 13.871094 14.679688 C 14 14.570312 14.1875 14.554688 14.332031 14.644531 C 14.789062 14.914062 15.289062 15.125 15.804688 15.261719 C 15.972656 15.304688 16.085938 15.445312 16.109375 15.617188 L 16.15625 16.078125 L 17.40625 13.890625 C 17.363281 13.890625 17.324219 13.898438 17.277344 13.898438 C 14.914062 13.898438 12.988281 11.960938 12.988281 9.582031 C 12.988281 7.207031 14.914062 5.269531 17.277344 5.269531 C 19.203125 5.269531 20.890625 6.566406 21.402344 8.402344 C 21.882812 8.421875 22.296875 8.667969 22.539062 9.085938 L 23.492188 10.738281 L 24.769531 10.601562 L 24.769531 8.558594 L 23.28125 8.402344 C 23.113281 8.382812 22.972656 8.265625 22.929688 8.09375 C 22.796875 7.574219 22.59375 7.078125 22.316406 6.609375 C 22.226562 6.457031 22.242188 6.273438 22.351562 6.144531 L 23.296875 4.976562 L 21.855469 3.53125 L 20.695312 4.480469 C 20.566406 4.589844 20.378906 4.605469 20.234375 4.515625 C 19.777344 4.242188 19.277344 4.035156 18.761719 3.898438 C 18.59375 3.855469 18.480469 3.714844 18.457031 3.542969 L 18.304688 2.042969 L 16.269531 2.042969 L 16.113281 3.542969 C 16.09375 3.714844 15.980469 3.855469 15.8125 3.898438 C 15.296875 4.035156 14.796875 4.238281 14.339844 4.515625 C 14.1875 4.605469 14.007812 4.589844 13.878906 4.480469 L 12.714844 3.53125 L 11.277344 4.976562 L 12.222656 6.144531 C 12.332031 6.273438 12.339844 6.464844 12.257812 6.609375 C 11.980469 7.070312 11.769531 7.574219 11.636719 8.09375 Z M 17.910156 13.019531 C 17.703125 13.0625 17.492188 13.074219 17.285156 13.074219 C 15.363281 13.074219 13.804688 11.503906 13.804688 9.578125 C 13.804688 7.648438 15.363281 6.078125 17.285156 6.078125 C 18.84375 6.078125 20.203125 7.125 20.628906 8.605469 C 20.445312 8.71875 20.289062 8.882812 20.175781 9.085938 Z M 27.207031 19.386719 C 27.316406 19.203125 27.316406 19.003906 27.207031 18.820312 L 22.957031 11.425781 L 21.851562 9.488281 C 21.742188 9.304688 21.574219 9.210938 21.363281 9.210938 C 21.152344 9.210938 20.976562 9.3125 20.878906 9.488281 L 15.511719 18.828125 C 15.40625 19.011719 15.40625 19.207031 15.511719 19.390625 C 15.613281 19.574219 15.789062 19.671875 16 19.671875 L 26.71875 19.671875 C 26.929688 19.671875 27.105469 19.570312 27.207031 19.386719 Z M 9.347656 7.777344 C 9.144531 7.796875 8.980469 7.972656 8.980469 8.183594 L 8.980469 10.960938 C 8.980469 11.171875 9.144531 11.347656 9.347656 11.371094 L 10.925781 11.53125 C 11.046875 11.941406 11.210938 12.328125 11.414062 12.699219 L 10.414062 13.945312 C 10.285156 14.105469 10.292969 14.339844 10.441406 14.488281 L 12.398438 16.449219 C 12.546875 16.601562 12.777344 16.613281 12.941406 16.476562 L 14.175781 15.472656 C 14.546875 15.667969 14.9375 15.832031 15.335938 15.953125 L 15.472656 17.257812 L 14.816406 18.398438 C 14.566406 18.835938 14.566406 19.335938 14.816406 19.78125 C 15.066406 20.214844 15.5 20.464844 16.007812 20.464844 L 26.726562 20.464844 C 27.234375 20.464844 27.660156 20.214844 27.917969 19.78125 C 28.164062 19.34375 28.164062 18.84375 27.917969 18.398438 L 23.945312 11.503906 L 25.226562 11.371094 C 25.4375 11.347656 25.59375 11.171875 25.59375 10.960938 L 25.59375 8.183594 C 25.59375 7.972656 25.4375 7.796875 25.226562 7.777344 L 23.648438 7.613281 C 23.523438 7.207031 23.363281 6.820312 23.160156 6.445312 L 24.167969 5.203125 C 24.296875 5.039062 24.28125 4.808594 24.140625 4.660156 L 22.179688 2.695312 C 22.03125 2.546875 21.800781 2.539062 21.640625 2.667969 L 20.402344 3.671875 C 20.03125 3.476562 19.640625 3.3125 19.234375 3.191406 L 19.066406 1.601562 C 19.054688 1.382812 18.878906 1.226562 18.667969 1.226562 L 15.898438 1.226562 C 15.6875 1.226562 15.519531 1.382812 15.5 1.59375 L 15.332031 3.183594 C 14.933594 3.308594 14.539062 3.46875 14.167969 3.667969 L 12.933594 2.660156 C 12.769531 2.53125 12.535156 2.539062 12.390625 2.6875 L 10.433594 4.652344 C 10.285156 4.800781 10.277344 5.03125 10.40625 5.195312 L 11.40625 6.4375 C 11.210938 6.8125 11.046875 7.207031 10.917969 7.605469 Z M 17.957031 10.574219 C 17.957031 10.765625 17.851562 10.941406 17.6875 11.042969 L 17.6875 10.097656 C 17.851562 10.214844 17.957031 10.386719 17.957031 10.574219 Z M 16.613281 8.578125 C 16.613281 8.386719 16.722656 8.21875 16.882812 8.109375 L 16.882812 9.054688 C 16.722656 8.9375 16.613281 8.769531 16.613281 8.578125 Z M 17.957031 8.578125 C 17.957031 8.386719 17.851562 8.21875 17.6875 8.109375 L 17.6875 9.230469 C 18.308594 9.398438 18.761719 9.941406 18.761719 10.582031 C 18.761719 11.226562 18.308594 11.769531 17.6875 11.933594 L 17.6875 12.191406 C 17.6875 12.414062 17.507812 12.597656 17.285156 12.597656 C 17.058594 12.597656 16.878906 12.414062 16.878906 12.191406 L 16.878906 11.933594 C 16.257812 11.765625 15.804688 11.21875 15.804688 10.582031 C 15.804688 10.359375 15.984375 10.175781 16.210938 10.175781 C 16.433594 10.175781 16.613281 10.359375 16.613281 10.582031 C 16.613281 10.773438 16.722656 10.949219 16.882812 11.050781 L 16.882812 9.929688 C 16.261719 9.761719 15.8125 9.214844 15.8125 8.578125 C 15.8125 7.933594 16.261719 7.390625 16.882812 7.226562 L 16.882812 6.96875 C 16.882812 6.742188 17.066406 6.558594 17.289062 6.558594 C 17.511719 6.558594 17.695312 6.742188 17.695312 6.96875 L 17.695312 7.226562 C 18.316406 7.394531 18.769531 7.9375 18.769531 8.578125 C 18.769531 8.800781 18.585938 8.984375 18.363281 8.984375 C 18.140625 8.984375 17.957031 8.800781 17.957031 8.578125 Z M 17.957031 8.578125 " fill-opacity="1" fill-rule="evenodd"/></g><g fill="#ffffff" fill-opacity="1"><g transform="translate(1.332237, 36.494446)"><g><path d="M 0.59375 -0.96875 C 0.6875 -0.96875 0.769531 -0.945312 0.84375 -0.90625 C 0.914062 -0.863281 0.972656 -0.800781 1.015625 -0.71875 C 1.054688 -0.644531 1.078125 -0.566406 1.078125 -0.484375 L 1.078125 -0.0625 C 1.078125 -0.0390625 1.070312 -0.0234375 1.0625 -0.015625 C 1.050781 -0.00390625 1.035156 0 1.015625 0 C 0.992188 0 0.972656 -0.00390625 0.953125 -0.015625 C 0.941406 -0.0234375 0.9375 -0.0390625 0.9375 -0.0625 L 0.9375 -0.171875 C 0.894531 -0.117188 0.84375 -0.0703125 0.78125 -0.03125 C 0.71875 0 0.648438 0.015625 0.578125 0.015625 C 0.492188 0.015625 0.414062 -0.00390625 0.34375 -0.046875 C 0.269531 -0.0976562 0.210938 -0.160156 0.171875 -0.234375 C 0.128906 -0.304688 0.109375 -0.390625 0.109375 -0.484375 C 0.109375 -0.566406 0.128906 -0.644531 0.171875 -0.71875 C 0.210938 -0.800781 0.269531 -0.863281 0.34375 -0.90625 C 0.414062 -0.945312 0.5 -0.96875 0.59375 -0.96875 Z M 0.59375 -0.109375 C 0.65625 -0.109375 0.710938 -0.125 0.765625 -0.15625 C 0.828125 -0.1875 0.875 -0.226562 0.90625 -0.28125 C 0.9375 -0.34375 0.953125 -0.410156 0.953125 -0.484375 C 0.953125 -0.546875 0.9375 -0.601562 0.90625 -0.65625 C 0.875 -0.71875 0.828125 -0.765625 0.765625 -0.796875 C 0.710938 -0.828125 0.65625 -0.84375 0.59375 -0.84375 C 0.53125 -0.84375 0.46875 -0.828125 0.40625 -0.796875 C 0.351562 -0.765625 0.3125 -0.71875 0.28125 -0.65625 C 0.25 -0.601562 0.234375 -0.546875 0.234375 -0.484375 C 0.234375 -0.410156 0.25 -0.34375 0.28125 -0.28125 C 0.3125 -0.226562 0.351562 -0.1875 0.40625 -0.15625 C 0.46875 -0.125 0.53125 -0.109375 0.59375 -0.109375 Z M 0.59375 -0.109375 "/></g></g></g></svg>