<svg xmlns="http://www.w3.org/2000/svg" xmlns:xlink="http://www.w3.org/1999/xlink" width="50" zoomAndPan="magnify" viewBox="0 0 37.5 37.499999" height="50" preserveAspectRatio="xMidYMid meet" version="1.0"><defs><g/><clipPath id="7571f46c14"><path d="M 2.539062 2.539062 L 34.363281 2.539062 L 34.363281 34.363281 L 2.539062 34.363281 Z M 2.539062 2.539062 " clip-rule="nonzero"/></clipPath></defs><g clip-path="url(#7571f46c14)"><path fill="#000000" d="M 20.617188 34.363281 L 16.285156 34.363281 C 16.082031 34.363281 15.882812 34.324219 15.691406 34.246094 C 15.503906 34.164062 15.335938 34.054688 15.191406 33.910156 C 15.046875 33.761719 14.933594 33.597656 14.855469 33.40625 C 14.777344 33.21875 14.738281 33.019531 14.738281 32.8125 L 14.738281 29.792969 C 14.160156 29.601562 13.601562 29.371094 13.058594 29.09375 L 10.921875 31.238281 C 10.777344 31.382812 10.609375 31.492188 10.417969 31.570312 C 10.230469 31.652344 10.03125 31.691406 9.828125 31.691406 C 9.621094 31.691406 9.421875 31.652344 9.234375 31.570312 C 9.042969 31.492188 8.875 31.382812 8.730469 31.238281 L 5.664062 28.171875 C 5.519531 28.027344 5.410156 27.859375 5.332031 27.667969 C 5.25 27.480469 5.210938 27.28125 5.210938 27.074219 C 5.210938 26.871094 5.25 26.671875 5.332031 26.484375 C 5.410156 26.292969 5.519531 26.125 5.664062 25.980469 L 7.808594 23.84375 C 7.535156 23.300781 7.300781 22.742188 7.113281 22.164062 L 4.085938 22.164062 C 3.882812 22.164062 3.683594 22.125 3.496094 22.046875 C 3.304688 21.96875 3.136719 21.855469 2.992188 21.710938 C 2.847656 21.566406 2.738281 21.398438 2.65625 21.207031 C 2.578125 21.019531 2.539062 20.820312 2.539062 20.617188 L 2.539062 16.285156 C 2.539062 16.082031 2.578125 15.882812 2.65625 15.695312 C 2.738281 15.503906 2.847656 15.335938 2.992188 15.191406 C 3.136719 15.046875 3.304688 14.933594 3.496094 14.855469 C 3.683594 14.777344 3.882812 14.738281 4.085938 14.738281 L 7.109375 14.738281 C 7.296875 14.160156 7.53125 13.601562 7.804688 13.058594 L 5.664062 10.921875 C 5.519531 10.777344 5.410156 10.609375 5.332031 10.417969 C 5.25 10.230469 5.210938 10.03125 5.210938 9.828125 C 5.210938 9.621094 5.25 9.421875 5.332031 9.234375 C 5.410156 9.042969 5.519531 8.875 5.664062 8.730469 L 8.730469 5.664062 C 8.875 5.519531 9.042969 5.410156 9.234375 5.332031 C 9.421875 5.25 9.621094 5.210938 9.828125 5.210938 C 10.03125 5.210938 10.230469 5.25 10.417969 5.332031 C 10.609375 5.410156 10.777344 5.519531 10.921875 5.664062 L 13.058594 7.808594 C 13.601562 7.535156 14.160156 7.300781 14.738281 7.113281 L 14.738281 4.085938 C 14.738281 3.882812 14.777344 3.683594 14.855469 3.496094 C 14.933594 3.304688 15.046875 3.136719 15.191406 2.992188 C 15.335938 2.847656 15.503906 2.738281 15.695312 2.65625 C 15.882812 2.578125 16.082031 2.539062 16.285156 2.539062 L 20.617188 2.539062 C 20.824219 2.539062 21.019531 2.578125 21.210938 2.65625 C 21.398438 2.738281 21.566406 2.847656 21.710938 2.992188 C 21.855469 3.136719 21.96875 3.304688 22.046875 3.496094 C 22.125 3.683594 22.164062 3.882812 22.164062 4.085938 L 22.164062 7.109375 C 22.742188 7.296875 23.300781 7.53125 23.84375 7.804688 L 25.980469 5.664062 C 26.125 5.519531 26.292969 5.410156 26.484375 5.332031 C 26.671875 5.25 26.871094 5.210938 27.074219 5.210938 C 27.28125 5.210938 27.480469 5.25 27.667969 5.332031 C 27.859375 5.410156 28.027344 5.519531 28.171875 5.664062 L 31.238281 8.730469 C 31.382812 8.878906 31.492188 9.042969 31.570312 9.234375 C 31.648438 9.421875 31.6875 9.621094 31.6875 9.828125 C 31.6875 10.03125 31.648438 10.230469 31.570312 10.417969 C 31.492188 10.609375 31.382812 10.777344 31.238281 10.921875 L 29.09375 13.058594 C 29.371094 13.601562 29.601562 14.160156 29.792969 14.738281 L 32.8125 14.738281 C 33.019531 14.738281 33.21875 14.777344 33.40625 14.855469 C 33.597656 14.933594 33.761719 15.046875 33.910156 15.191406 C 34.054688 15.335938 34.164062 15.503906 34.246094 15.695312 C 34.324219 15.882812 34.363281 16.082031 34.363281 16.285156 L 34.363281 20.617188 C 34.363281 20.824219 34.324219 21.019531 34.246094 21.210938 C 34.164062 21.398438 34.054688 21.566406 33.910156 21.710938 C 33.761719 21.855469 33.597656 21.96875 33.40625 22.046875 C 33.21875 22.125 33.019531 22.164062 32.8125 22.164062 L 29.792969 22.164062 C 29.601562 22.742188 29.371094 23.300781 29.09375 23.84375 L 31.238281 25.980469 C 31.382812 26.128906 31.492188 26.292969 31.570312 26.484375 C 31.648438 26.671875 31.6875 26.871094 31.6875 27.074219 C 31.6875 27.28125 31.648438 27.480469 31.570312 27.667969 C 31.492188 27.859375 31.382812 28.023438 31.238281 28.171875 L 28.171875 31.238281 C 28.027344 31.382812 27.859375 31.492188 27.667969 31.570312 C 27.480469 31.652344 27.28125 31.691406 27.074219 31.691406 C 26.871094 31.691406 26.671875 31.652344 26.484375 31.570312 C 26.292969 31.492188 26.125 31.382812 25.980469 31.238281 L 23.84375 29.09375 C 23.300781 29.371094 22.742188 29.601562 22.164062 29.792969 L 22.164062 32.816406 C 22.164062 33.019531 22.125 33.21875 22.046875 33.40625 C 21.96875 33.597656 21.855469 33.761719 21.710938 33.910156 C 21.566406 34.054688 21.398438 34.164062 21.207031 34.242188 C 21.019531 34.324219 20.820312 34.363281 20.617188 34.363281 Z M 12.917969 27.375 C 13.058594 27.375 13.183594 27.40625 13.304688 27.476562 C 14.066406 27.914062 14.867188 28.246094 15.714844 28.476562 C 15.882812 28.523438 16.019531 28.617188 16.125 28.753906 C 16.230469 28.890625 16.28125 29.046875 16.28125 29.222656 L 16.28125 32.816406 C 16.28125 32.820312 16.28125 32.824219 16.289062 32.824219 L 20.621094 32.824219 C 20.625 32.824219 20.628906 32.820312 20.628906 32.816406 L 20.628906 29.21875 C 20.628906 29.046875 20.679688 28.890625 20.785156 28.75 C 20.890625 28.613281 21.027344 28.519531 21.195312 28.476562 C 22.039062 28.242188 22.84375 27.910156 23.601562 27.472656 C 23.753906 27.390625 23.914062 27.359375 24.085938 27.378906 C 24.257812 27.402344 24.40625 27.476562 24.527344 27.597656 L 27.070312 30.140625 C 27.074219 30.144531 27.078125 30.144531 27.078125 30.140625 L 30.140625 27.078125 C 30.144531 27.074219 30.144531 27.070312 30.140625 27.066406 L 27.601562 24.523438 C 27.476562 24.402344 27.40625 24.253906 27.382812 24.082031 C 27.359375 23.914062 27.390625 23.75 27.476562 23.601562 C 27.914062 22.839844 28.246094 22.039062 28.476562 21.191406 C 28.523438 21.023438 28.617188 20.886719 28.753906 20.78125 C 28.890625 20.675781 29.046875 20.625 29.222656 20.625 L 32.816406 20.625 C 32.820312 20.625 32.824219 20.621094 32.824219 20.617188 L 32.824219 16.285156 C 32.824219 16.28125 32.820312 16.277344 32.816406 16.277344 L 29.21875 16.277344 C 29.046875 16.277344 28.890625 16.226562 28.75 16.121094 C 28.613281 16.015625 28.519531 15.878906 28.476562 15.710938 C 28.242188 14.867188 27.910156 14.0625 27.472656 13.300781 C 27.390625 13.152344 27.359375 12.992188 27.378906 12.820312 C 27.402344 12.648438 27.476562 12.5 27.597656 12.378906 L 30.140625 9.835938 C 30.144531 9.832031 30.144531 9.828125 30.140625 9.828125 L 27.082031 6.757812 C 27.078125 6.753906 27.074219 6.753906 27.070312 6.757812 L 24.527344 9.300781 C 24.40625 9.421875 24.257812 9.496094 24.085938 9.519531 C 23.917969 9.539062 23.753906 9.507812 23.605469 9.425781 C 22.84375 8.988281 22.042969 8.65625 21.195312 8.421875 C 21.027344 8.378906 20.890625 8.285156 20.785156 8.148438 C 20.679688 8.007812 20.628906 7.851562 20.628906 7.679688 L 20.628906 4.085938 C 20.628906 4.082031 20.625 4.082031 20.621094 4.082031 L 16.285156 4.082031 C 16.28125 4.082031 16.277344 4.082031 16.277344 4.085938 L 16.277344 7.683594 C 16.277344 7.855469 16.226562 8.011719 16.121094 8.152344 C 16.015625 8.289062 15.878906 8.382812 15.710938 8.425781 C 14.867188 8.660156 14.0625 8.992188 13.300781 9.429688 C 13.152344 9.511719 12.988281 9.542969 12.820312 9.523438 C 12.648438 9.5 12.5 9.425781 12.378906 9.304688 L 9.835938 6.761719 C 9.832031 6.757812 9.828125 6.757812 9.824219 6.761719 L 6.757812 9.824219 C 6.753906 9.828125 6.753906 9.832031 6.757812 9.835938 L 9.300781 12.375 C 9.421875 12.5 9.496094 12.644531 9.519531 12.816406 C 9.539062 12.988281 9.507812 13.148438 9.425781 13.300781 C 8.988281 14.0625 8.65625 14.863281 8.421875 15.710938 C 8.378906 15.875 8.285156 16.011719 8.148438 16.117188 C 8.007812 16.222656 7.851562 16.277344 7.679688 16.277344 L 4.085938 16.277344 C 4.082031 16.277344 4.082031 16.277344 4.082031 16.285156 L 4.082031 20.617188 C 4.082031 20.621094 4.082031 20.621094 4.085938 20.621094 L 7.683594 20.621094 C 7.855469 20.621094 8.011719 20.675781 8.152344 20.78125 C 8.289062 20.886719 8.382812 21.023438 8.425781 21.191406 C 8.660156 22.035156 8.992188 22.839844 9.429688 23.597656 C 9.511719 23.75 9.542969 23.910156 9.523438 24.082031 C 9.5 24.253906 9.425781 24.398438 9.304688 24.523438 L 6.761719 27.066406 C 6.757812 27.066406 6.757812 27.070312 6.761719 27.074219 L 9.824219 30.144531 C 9.828125 30.148438 9.832031 30.148438 9.835938 30.144531 L 12.378906 27.601562 C 12.527344 27.453125 12.707031 27.375 12.917969 27.375 Z M 18.460938 26.652344 C 17.371094 26.65625 16.320312 26.453125 15.3125 26.035156 C 14.304688 25.621094 13.417969 25.027344 12.648438 24.253906 C 10.34375 21.949219 9.636719 18.550781 10.804688 15.378906 C 11.195312 14.320312 11.789062 13.386719 12.589844 12.589844 C 13.386719 11.789062 14.316406 11.195312 15.378906 10.804688 C 18.550781 9.636719 21.949219 10.34375 24.253906 12.648438 C 26.558594 14.953125 27.265625 18.351562 26.097656 21.523438 C 25.707031 22.585938 25.113281 23.515625 24.3125 24.3125 C 23.515625 25.113281 22.582031 25.707031 21.523438 26.097656 C 20.535156 26.464844 19.515625 26.648438 18.460938 26.652344 Z M 18.472656 11.78125 C 17.589844 11.785156 16.738281 11.941406 15.910156 12.25 C 15.0625 12.5625 14.320312 13.039062 13.679688 13.675781 C 13.039062 14.316406 12.5625 15.0625 12.25 15.910156 C 11.277344 18.546875 11.832031 21.261719 13.738281 23.164062 C 14.355469 23.789062 15.070312 24.273438 15.886719 24.613281 C 16.699219 24.953125 17.546875 25.121094 18.429688 25.117188 C 19.3125 25.113281 20.164062 24.957031 20.992188 24.648438 C 21.839844 24.335938 22.582031 23.863281 23.222656 23.222656 C 23.863281 22.585938 24.339844 21.839844 24.652344 20.992188 C 25.625 18.355469 25.070312 15.640625 23.164062 13.738281 C 22.546875 13.109375 21.832031 12.625 21.015625 12.285156 C 20.203125 11.945312 19.355469 11.777344 18.472656 11.78125 Z M 18.472656 11.78125 " fill-opacity="1" fill-rule="nonzero"/></g><g fill="#ffffff" fill-opacity="1"><g transform="translate(1.332237, 36.494446)"><g><path d="M 0.59375 -0.96875 C 0.6875 -0.96875 0.769531 -0.945312 0.84375 -0.90625 C 0.914062 -0.863281 0.972656 -0.800781 1.015625 -0.71875 C 1.054688 -0.644531 1.078125 -0.566406 1.078125 -0.484375 L 1.078125 -0.0625 C 1.078125 -0.0390625 1.070312 -0.0234375 1.0625 -0.015625 C 1.050781 -0.00390625 1.035156 0 1.015625 0 C 0.992188 0 0.972656 -0.00390625 0.953125 -0.015625 C 0.941406 -0.0234375 0.9375 -0.0390625 0.9375 -0.0625 L 0.9375 -0.171875 C 0.894531 -0.117188 0.84375 -0.0703125 0.78125 -0.03125 C 0.71875 0 0.648438 0.015625 0.578125 0.015625 C 0.492188 0.015625 0.414062 -0.00390625 0.34375 -0.046875 C 0.269531 -0.0976562 0.210938 -0.160156 0.171875 -0.234375 C 0.128906 -0.304688 0.109375 -0.390625 0.109375 -0.484375 C 0.109375 -0.566406 0.128906 -0.644531 0.171875 -0.71875 C 0.210938 -0.800781 0.269531 -0.863281 0.34375 -0.90625 C 0.414062 -0.945312 0.5 -0.96875 0.59375 -0.96875 Z M 0.59375 -0.109375 C 0.65625 -0.109375 0.710938 -0.125 0.765625 -0.15625 C 0.828125 -0.1875 0.875 -0.226562 0.90625 -0.28125 C 0.9375 -0.34375 0.953125 -0.410156 0.953125 -0.484375 C 0.953125 -0.546875 0.9375 -0.601562 0.90625 -0.65625 C 0.875 -0.71875 0.828125 -0.765625 0.765625 -0.796875 C 0.710938 -0.828125 0.65625 -0.84375 0.59375 -0.84375 C 0.53125 -0.84375 0.46875 -0.828125 0.40625 -0.796875 C 0.351562 -0.765625 0.3125 -0.71875 0.28125 -0.65625 C 0.25 -0.601562 0.234375 -0.546875 0.234375 -0.484375 C 0.234375 -0.410156 0.25 -0.34375 0.28125 -0.28125 C 0.3125 -0.226562 0.351562 -0.1875 0.40625 -0.15625 C 0.46875 -0.125 0.53125 -0.109375 0.59375 -0.109375 Z M 0.59375 -0.109375 "/></g></g></g></svg>