<svg xmlns="http://www.w3.org/2000/svg" xmlns:xlink="http://www.w3.org/1999/xlink" width="50" zoomAndPan="magnify" viewBox="0 0 37.5 37.499999" height="50" preserveAspectRatio="xMidYMid meet" version="1.0"><defs><g/><clipPath id="4150aa9ca4"><path d="M 2 1.671875 L 35 1.671875 L 35 34.976562 L 2 34.976562 Z M 2 1.671875 " clip-rule="nonzero"/></clipPath></defs><g clip-path="url(#4150aa9ca4)"><path fill="#000000" d="M 34.503906 22.230469 C 34.191406 21.714844 32.910156 20.1875 29.53125 22.136719 L 27.867188 23.09375 C 28.164062 22.363281 28.34375 21.59375 28.394531 20.8125 C 28.492188 19.269531 28.109375 17.738281 27.257812 16.253906 C 26.339844 14.65625 24.941406 12.855469 22.886719 10.621094 C 23.453125 10.316406 23.835938 9.722656 23.835938 9.042969 C 23.835938 8.136719 23.15625 7.386719 22.273438 7.265625 L 23.5 6.050781 C 24.21875 5.335938 24.21875 4.175781 23.5 3.460938 C 22.890625 2.859375 21.921875 2.753906 21.195312 3.214844 C 21.144531 3.246094 21.105469 3.25 21.050781 3.230469 C 21 3.207031 20.972656 3.175781 20.960938 3.121094 C 20.777344 2.285156 20.015625 1.679688 19.152344 1.679688 C 18.292969 1.679688 17.53125 2.285156 17.347656 3.121094 C 17.335938 3.175781 17.308594 3.207031 17.257812 3.230469 C 17.203125 3.25 17.164062 3.246094 17.113281 3.21875 C 16.386719 2.753906 15.417969 2.859375 14.808594 3.460938 C 14.460938 3.808594 14.269531 4.265625 14.269531 4.753906 C 14.269531 5.246094 14.460938 5.703125 14.808594 6.050781 L 16.035156 7.265625 C 15.152344 7.386719 14.472656 8.136719 14.472656 9.042969 C 14.472656 9.722656 14.855469 10.316406 15.421875 10.621094 C 13.367188 12.855469 11.96875 14.65625 11.050781 16.253906 C 9.941406 18.179688 9.625 20.210938 10.128906 22.152344 L 6.757812 24.085938 L 6.335938 23.351562 C 5.957031 22.683594 5.097656 22.449219 4.425781 22.828125 L 2.75 23.765625 C 2.078125 24.140625 1.839844 24.992188 2.222656 25.65625 L 7.140625 34.261719 C 7.398438 34.710938 7.875 34.964844 8.363281 34.964844 C 8.597656 34.964844 8.835938 34.910156 9.050781 34.785156 L 10.726562 33.847656 C 11.398438 33.472656 11.636719 32.621094 11.253906 31.957031 L 10.746094 31.066406 L 11.761719 30.484375 L 19.402344 32.511719 C 19.832031 32.625 20.253906 32.683594 20.667969 32.683594 C 21.496094 32.683594 22.285156 32.457031 23.027344 32.003906 L 33.847656 25.40625 C 34.832031 24.804688 35.144531 23.292969 34.503906 22.230469 Z M 15.320312 4.753906 C 15.320312 4.542969 15.402344 4.347656 15.550781 4.199219 C 15.8125 3.9375 16.234375 3.894531 16.546875 4.09375 C 16.882812 4.304688 17.289062 4.34375 17.660156 4.191406 C 18.027344 4.039062 18.289062 3.730469 18.375 3.34375 C 18.453125 2.980469 18.78125 2.71875 19.152344 2.71875 C 19.527344 2.71875 19.855469 2.980469 19.933594 3.34375 C 20.019531 3.730469 20.28125 4.039062 20.648438 4.191406 C 21.019531 4.34375 21.425781 4.304688 21.761719 4.09375 C 22.074219 3.894531 22.492188 3.9375 22.757812 4.199219 C 22.90625 4.347656 22.988281 4.542969 22.988281 4.753906 C 22.988281 4.96875 22.90625 5.164062 22.757812 5.3125 L 20.804688 7.246094 L 17.503906 7.246094 L 15.550781 5.3125 C 15.402344 5.164062 15.320312 4.96875 15.320312 4.753906 Z M 16.285156 8.289062 L 22.023438 8.289062 C 22.445312 8.289062 22.785156 8.625 22.785156 9.042969 C 22.785156 9.457031 22.445312 9.796875 22.023438 9.796875 L 16.285156 9.796875 C 15.863281 9.796875 15.523438 9.457031 15.523438 9.042969 C 15.523438 8.625 15.863281 8.289062 16.285156 8.289062 Z M 11.960938 16.769531 C 12.90625 15.128906 14.398438 13.238281 16.648438 10.835938 L 21.65625 10.835938 C 23.910156 13.238281 25.402344 15.128906 26.34375 16.769531 C 27.773438 19.253906 27.691406 21.917969 26.125 24.101562 L 23.570312 25.574219 C 23.265625 25.746094 22.960938 25.871094 22.640625 25.941406 C 22.757812 25.753906 22.851562 25.542969 22.917969 25.304688 C 23.222656 24.179688 22.546875 23.007812 21.378906 22.632812 C 21.355469 22.625 21.335938 22.617188 21.3125 22.613281 C 21.1875 22.59375 21.066406 22.570312 20.945312 22.546875 C 21.136719 22.425781 21.300781 22.289062 21.4375 22.132812 C 21.789062 21.730469 21.941406 21.222656 21.871094 20.667969 C 21.664062 18.976562 19.824219 18.679688 19.222656 18.582031 C 17.695312 18.332031 17.664062 17.707031 17.652344 17.472656 C 17.617188 16.789062 18.179688 16.417969 18.71875 16.296875 C 18.84375 16.269531 18.976562 16.253906 19.109375 16.25 C 19.125 16.25 19.144531 16.25 19.164062 16.25 C 19.773438 16.25 20.402344 16.53125 20.695312 17.226562 C 20.808594 17.492188 21.113281 17.613281 21.382812 17.503906 C 21.652344 17.390625 21.777344 17.085938 21.664062 16.824219 C 21.261719 15.875 20.46875 15.394531 19.65625 15.253906 L 19.65625 14.757812 C 19.65625 14.46875 19.417969 14.234375 19.128906 14.234375 C 18.839844 14.234375 18.605469 14.46875 18.605469 14.757812 L 18.605469 15.257812 C 18.5625 15.265625 18.523438 15.273438 18.484375 15.285156 C 17.308594 15.546875 16.550781 16.449219 16.601562 17.523438 C 16.640625 18.296875 17.097656 19.289062 19.050781 19.605469 C 20.527344 19.847656 20.777344 20.367188 20.828125 20.796875 C 20.863281 21.058594 20.800781 21.273438 20.644531 21.453125 C 20.105469 22.066406 19.003906 22.121094 18.289062 21.820312 C 17.960938 21.683594 17.546875 21.40625 17.40625 20.847656 C 17.335938 20.570312 17.050781 20.398438 16.769531 20.46875 C 16.488281 20.539062 16.316406 20.820312 16.386719 21.097656 C 16.390625 21.121094 16.398438 21.144531 16.402344 21.167969 C 15.984375 21.015625 15.589844 20.875 15.25 20.765625 C 13.722656 20.277344 12.34375 20.882812 11.195312 21.542969 L 11.078125 21.609375 C 10.75 20.015625 11.050781 18.359375 11.960938 16.769531 Z M 10.207031 32.945312 L 8.535156 33.882812 C 8.367188 33.972656 8.148438 33.914062 8.054688 33.75 L 3.136719 25.144531 C 3.039062 24.980469 3.101562 24.761719 3.269531 24.667969 C 3.269531 24.667969 4.941406 23.730469 4.941406 23.730469 C 5.105469 23.640625 5.328125 23.699219 5.421875 23.863281 L 10.339844 32.46875 C 10.433594 32.632812 10.375 32.851562 10.207031 32.945312 Z M 33.296875 24.519531 L 22.476562 31.117188 C 21.617188 31.640625 20.671875 31.773438 19.671875 31.507812 L 11.824219 29.425781 C 11.6875 29.386719 11.546875 29.40625 11.425781 29.476562 L 10.230469 30.160156 L 7.273438 24.992188 L 11.722656 22.441406 C 12.71875 21.871094 13.792969 21.394531 14.925781 21.753906 C 15.285156 21.871094 15.703125 22.023438 16.1875 22.195312 C 17.574219 22.691406 19.296875 23.308594 21.085938 23.632812 C 21.710938 23.847656 22.0625 24.445312 21.902344 25.035156 C 21.691406 25.8125 21.039062 25.90625 20.519531 25.847656 C 19.640625 25.667969 18.808594 25.433594 17.921875 25.183594 C 17.503906 25.066406 17.070312 24.941406 16.625 24.824219 C 16.347656 24.75 16.058594 24.914062 15.984375 25.191406 C 15.90625 25.46875 16.074219 25.753906 16.355469 25.828125 C 16.792969 25.945312 17.21875 26.066406 17.636719 26.183594 C 18.546875 26.441406 19.40625 26.683594 20.332031 26.871094 C 20.332031 26.871094 21.09375 26.996094 21.09375 26.996094 C 22.199219 27.171875 23.183594 27 24.097656 26.472656 L 30.0625 23.035156 C 31.78125 22.042969 33.101562 21.941406 33.601562 22.765625 C 33.945312 23.332031 33.789062 24.21875 33.296875 24.519531 Z M 5.429688 25.398438 C 5.476562 25.71875 5.25 26.019531 4.925781 26.066406 C 4.597656 26.113281 4.292969 25.890625 4.246094 25.566406 C 4.199219 25.246094 4.425781 24.945312 4.75 24.898438 C 5.078125 24.851562 5.382812 25.074219 5.429688 25.398438 Z M 5.429688 25.398438 " fill-opacity="1" fill-rule="evenodd"/></g><g fill="#ffffff" fill-opacity="1"><g transform="translate(0.0000005, 36.494446)"><g><path d="M 0.59375 -0.96875 C 0.6875 -0.96875 0.769531 -0.945312 0.84375 -0.90625 C 0.914062 -0.863281 0.972656 -0.800781 1.015625 -0.71875 C 1.054688 -0.644531 1.078125 -0.566406 1.078125 -0.484375 L 1.078125 -0.0625 C 1.078125 -0.0390625 1.070312 -0.0234375 1.0625 -0.015625 C 1.050781 -0.00390625 1.035156 0 1.015625 0 C 0.992188 0 0.972656 -0.00390625 0.953125 -0.015625 C 0.941406 -0.0234375 0.9375 -0.0390625 0.9375 -0.0625 L 0.9375 -0.171875 C 0.894531 -0.117188 0.84375 -0.0703125 0.78125 -0.03125 C 0.71875 0 0.648438 0.015625 0.578125 0.015625 C 0.492188 0.015625 0.414062 -0.00390625 0.34375 -0.046875 C 0.269531 -0.0976562 0.210938 -0.160156 0.171875 -0.234375 C 0.128906 -0.304688 0.109375 -0.390625 0.109375 -0.484375 C 0.109375 -0.566406 0.128906 -0.644531 0.171875 -0.71875 C 0.210938 -0.800781 0.269531 -0.863281 0.34375 -0.90625 C 0.414062 -0.945312 0.5 -0.96875 0.59375 -0.96875 Z M 0.59375 -0.109375 C 0.65625 -0.109375 0.710938 -0.125 0.765625 -0.15625 C 0.828125 -0.1875 0.875 -0.226562 0.90625 -0.28125 C 0.9375 -0.34375 0.953125 -0.410156 0.953125 -0.484375 C 0.953125 -0.546875 0.9375 -0.601562 0.90625 -0.65625 C 0.875 -0.71875 0.828125 -0.765625 0.765625 -0.796875 C 0.710938 -0.828125 0.65625 -0.84375 0.59375 -0.84375 C 0.53125 -0.84375 0.46875 -0.828125 0.40625 -0.796875 C 0.351562 -0.765625 0.3125 -0.71875 0.28125 -0.65625 C 0.25 -0.601562 0.234375 -0.546875 0.234375 -0.484375 C 0.234375 -0.410156 0.25 -0.34375 0.28125 -0.28125 C 0.3125 -0.226562 0.351562 -0.1875 0.40625 -0.15625 C 0.46875 -0.125 0.53125 -0.109375 0.59375 -0.109375 Z M 0.59375 -0.109375 "/></g></g></g></svg>