<svg xmlns="http://www.w3.org/2000/svg" xmlns:xlink="http://www.w3.org/1999/xlink" width="112" zoomAndPan="magnify" viewBox="0 0 84 83.999999" height="112" preserveAspectRatio="xMidYMid meet" version="1.0"><defs><g/></defs><g fill="#ff914d" fill-opacity="0.4"><g transform="translate(3.956712, 45.828081)"><g><path d="M 3.15625 -10.484375 L 3.15625 0 L 0.765625 0 L 0.765625 -10.484375 Z M 3.15625 -10.484375 "/></g></g></g><g fill="#ff914d" fill-opacity="0.4"><g transform="translate(8.376916, 45.828081)"><g><path d="M 0.765625 0 L 0.765625 -6.515625 L 3.015625 -6.515625 L 3.015625 -5.828125 L 3.03125 -5.828125 C 3.613281 -6.410156 4.238281 -6.703125 4.90625 -6.703125 C 5.226562 -6.703125 5.546875 -6.660156 5.859375 -6.578125 C 6.179688 -6.492188 6.488281 -6.363281 6.78125 -6.1875 C 7.070312 -6.007812 7.304688 -5.753906 7.484375 -5.421875 C 7.671875 -5.097656 7.765625 -4.722656 7.765625 -4.296875 L 7.765625 0 L 5.515625 0 L 5.515625 -3.6875 C 5.515625 -4.019531 5.40625 -4.3125 5.1875 -4.5625 C 4.96875 -4.820312 4.6875 -4.953125 4.34375 -4.953125 C 4.007812 -4.953125 3.703125 -4.820312 3.421875 -4.5625 C 3.148438 -4.300781 3.015625 -4.007812 3.015625 -3.6875 L 3.015625 0 Z M 0.765625 0 "/></g></g></g><g fill="#ff914d" fill-opacity="0.4"><g transform="translate(17.280798, 45.828081)"><g><path d="M 3.59375 -6.703125 C 3.96875 -6.703125 4.335938 -6.660156 4.703125 -6.578125 C 5.066406 -6.492188 5.335938 -6.410156 5.515625 -6.328125 L 5.78125 -6.203125 L 5.046875 -4.71875 C 4.535156 -4.988281 4.050781 -5.125 3.59375 -5.125 C 3.34375 -5.125 3.160156 -5.097656 3.046875 -5.046875 C 2.941406 -4.992188 2.890625 -4.890625 2.890625 -4.734375 C 2.890625 -4.703125 2.894531 -4.664062 2.90625 -4.625 C 2.914062 -4.59375 2.929688 -4.5625 2.953125 -4.53125 C 2.984375 -4.507812 3.007812 -4.488281 3.03125 -4.46875 C 3.050781 -4.445312 3.085938 -4.421875 3.140625 -4.390625 C 3.191406 -4.367188 3.226562 -4.347656 3.25 -4.328125 C 3.28125 -4.316406 3.328125 -4.300781 3.390625 -4.28125 C 3.460938 -4.257812 3.515625 -4.238281 3.546875 -4.21875 C 3.585938 -4.207031 3.644531 -4.1875 3.71875 -4.15625 C 3.800781 -4.132812 3.863281 -4.117188 3.90625 -4.109375 C 4.175781 -4.035156 4.40625 -3.953125 4.59375 -3.859375 C 4.789062 -3.765625 4.992188 -3.632812 5.203125 -3.46875 C 5.421875 -3.3125 5.585938 -3.109375 5.703125 -2.859375 C 5.828125 -2.617188 5.890625 -2.34375 5.890625 -2.03125 C 5.890625 -0.550781 4.863281 0.1875 2.8125 0.1875 C 2.34375 0.1875 1.894531 0.117188 1.46875 -0.015625 C 1.050781 -0.160156 0.753906 -0.304688 0.578125 -0.453125 L 0.296875 -0.6875 L 1.203125 -2.21875 C 1.273438 -2.164062 1.363281 -2.097656 1.46875 -2.015625 C 1.582031 -1.929688 1.78125 -1.816406 2.0625 -1.671875 C 2.351562 -1.535156 2.601562 -1.46875 2.8125 -1.46875 C 3.28125 -1.46875 3.515625 -1.625 3.515625 -1.9375 C 3.515625 -2.082031 3.453125 -2.195312 3.328125 -2.28125 C 3.210938 -2.363281 3.015625 -2.453125 2.734375 -2.546875 C 2.453125 -2.648438 2.234375 -2.742188 2.078125 -2.828125 C 1.660156 -3.046875 1.332031 -3.285156 1.09375 -3.546875 C 0.863281 -3.816406 0.75 -4.171875 0.75 -4.609375 C 0.75 -5.273438 1.003906 -5.789062 1.515625 -6.15625 C 2.023438 -6.519531 2.71875 -6.703125 3.59375 -6.703125 Z M 3.59375 -6.703125 "/></g></g></g><g fill="#ff914d" fill-opacity="0.4"><g transform="translate(24.038106, 45.828081)"><g><path d="M 1.140625 -6.515625 L 1.140625 -8.9375 L 3.390625 -8.9375 L 3.390625 -6.515625 L 4.765625 -6.515625 L 4.765625 -4.796875 L 3.390625 -4.796875 L 3.390625 -2.734375 C 3.390625 -2.128906 3.5625 -1.828125 3.90625 -1.828125 C 3.988281 -1.828125 4.078125 -1.84375 4.171875 -1.875 C 4.265625 -1.914062 4.332031 -1.953125 4.375 -1.984375 L 4.453125 -2.03125 L 5.015625 -0.21875 C 4.535156 0.0507812 3.984375 0.1875 3.359375 0.1875 C 2.941406 0.1875 2.578125 0.113281 2.265625 -0.03125 C 1.960938 -0.175781 1.734375 -0.375 1.578125 -0.625 C 1.421875 -0.875 1.304688 -1.132812 1.234375 -1.40625 C 1.171875 -1.6875 1.140625 -1.984375 1.140625 -2.296875 L 1.140625 -4.796875 L 0.203125 -4.796875 L 0.203125 -6.515625 Z M 1.140625 -6.515625 "/></g></g></g><g fill="#ff914d" fill-opacity="0.4"><g transform="translate(29.563354, 45.828081)"><g><path d="M 1.203125 -0.796875 C 0.597656 -1.460938 0.296875 -2.28125 0.296875 -3.25 C 0.296875 -4.21875 0.597656 -5.035156 1.203125 -5.703125 C 1.816406 -6.367188 2.59375 -6.703125 3.53125 -6.703125 C 4.394531 -6.703125 5.109375 -6.429688 5.671875 -5.890625 L 5.671875 -6.515625 L 7.921875 -6.515625 L 7.921875 0 L 5.6875 0 L 5.6875 -0.734375 L 5.671875 -0.734375 C 5.109375 -0.117188 4.394531 0.1875 3.53125 0.1875 C 2.59375 0.1875 1.816406 -0.140625 1.203125 -0.796875 Z M 3.125 -4.359375 C 2.832031 -4.066406 2.6875 -3.695312 2.6875 -3.25 C 2.6875 -2.800781 2.820312 -2.4375 3.09375 -2.15625 C 3.375 -1.875 3.742188 -1.734375 4.203125 -1.734375 C 4.640625 -1.734375 5 -1.875 5.28125 -2.15625 C 5.570312 -2.445312 5.71875 -2.8125 5.71875 -3.25 C 5.71875 -3.695312 5.570312 -4.066406 5.28125 -4.359375 C 4.988281 -4.648438 4.628906 -4.796875 4.203125 -4.796875 C 3.773438 -4.796875 3.414062 -4.648438 3.125 -4.359375 Z M 3.125 -4.359375 "/></g></g></g><g fill="#ff914d" fill-opacity="1"><g transform="translate(4.316701, 45.492387)"><g><path d="M 3.15625 -10.484375 L 3.15625 0 L 0.765625 0 L 0.765625 -10.484375 Z M 3.15625 -10.484375 "/></g></g></g><g fill="#ff914d" fill-opacity="1"><g transform="translate(8.736904, 45.492387)"><g><path d="M 0.765625 0 L 0.765625 -6.515625 L 3.015625 -6.515625 L 3.015625 -5.828125 L 3.03125 -5.828125 C 3.613281 -6.410156 4.238281 -6.703125 4.90625 -6.703125 C 5.226562 -6.703125 5.546875 -6.660156 5.859375 -6.578125 C 6.179688 -6.492188 6.488281 -6.363281 6.78125 -6.1875 C 7.070312 -6.007812 7.304688 -5.753906 7.484375 -5.421875 C 7.671875 -5.097656 7.765625 -4.722656 7.765625 -4.296875 L 7.765625 0 L 5.515625 0 L 5.515625 -3.6875 C 5.515625 -4.019531 5.40625 -4.3125 5.1875 -4.5625 C 4.96875 -4.820312 4.6875 -4.953125 4.34375 -4.953125 C 4.007812 -4.953125 3.703125 -4.820312 3.421875 -4.5625 C 3.148438 -4.300781 3.015625 -4.007812 3.015625 -3.6875 L 3.015625 0 Z M 0.765625 0 "/></g></g></g><g fill="#ff914d" fill-opacity="1"><g transform="translate(17.640787, 45.492387)"><g><path d="M 3.59375 -6.703125 C 3.96875 -6.703125 4.335938 -6.660156 4.703125 -6.578125 C 5.066406 -6.492188 5.335938 -6.410156 5.515625 -6.328125 L 5.78125 -6.203125 L 5.046875 -4.71875 C 4.535156 -4.988281 4.050781 -5.125 3.59375 -5.125 C 3.34375 -5.125 3.160156 -5.097656 3.046875 -5.046875 C 2.941406 -4.992188 2.890625 -4.890625 2.890625 -4.734375 C 2.890625 -4.703125 2.894531 -4.664062 2.90625 -4.625 C 2.914062 -4.59375 2.929688 -4.5625 2.953125 -4.53125 C 2.984375 -4.507812 3.007812 -4.488281 3.03125 -4.46875 C 3.050781 -4.445312 3.085938 -4.421875 3.140625 -4.390625 C 3.191406 -4.367188 3.226562 -4.347656 3.25 -4.328125 C 3.28125 -4.316406 3.328125 -4.300781 3.390625 -4.28125 C 3.460938 -4.257812 3.515625 -4.238281 3.546875 -4.21875 C 3.585938 -4.207031 3.644531 -4.1875 3.71875 -4.15625 C 3.800781 -4.132812 3.863281 -4.117188 3.90625 -4.109375 C 4.175781 -4.035156 4.40625 -3.953125 4.59375 -3.859375 C 4.789062 -3.765625 4.992188 -3.632812 5.203125 -3.46875 C 5.421875 -3.3125 5.585938 -3.109375 5.703125 -2.859375 C 5.828125 -2.617188 5.890625 -2.34375 5.890625 -2.03125 C 5.890625 -0.550781 4.863281 0.1875 2.8125 0.1875 C 2.34375 0.1875 1.894531 0.117188 1.46875 -0.015625 C 1.050781 -0.160156 0.753906 -0.304688 0.578125 -0.453125 L 0.296875 -0.6875 L 1.203125 -2.21875 C 1.273438 -2.164062 1.363281 -2.097656 1.46875 -2.015625 C 1.582031 -1.929688 1.78125 -1.816406 2.0625 -1.671875 C 2.351562 -1.535156 2.601562 -1.46875 2.8125 -1.46875 C 3.28125 -1.46875 3.515625 -1.625 3.515625 -1.9375 C 3.515625 -2.082031 3.453125 -2.195312 3.328125 -2.28125 C 3.210938 -2.363281 3.015625 -2.453125 2.734375 -2.546875 C 2.453125 -2.648438 2.234375 -2.742188 2.078125 -2.828125 C 1.660156 -3.046875 1.332031 -3.285156 1.09375 -3.546875 C 0.863281 -3.816406 0.75 -4.171875 0.75 -4.609375 C 0.75 -5.273438 1.003906 -5.789062 1.515625 -6.15625 C 2.023438 -6.519531 2.71875 -6.703125 3.59375 -6.703125 Z M 3.59375 -6.703125 "/></g></g></g><g fill="#ff914d" fill-opacity="1"><g transform="translate(24.398094, 45.492387)"><g><path d="M 1.140625 -6.515625 L 1.140625 -8.9375 L 3.390625 -8.9375 L 3.390625 -6.515625 L 4.765625 -6.515625 L 4.765625 -4.796875 L 3.390625 -4.796875 L 3.390625 -2.734375 C 3.390625 -2.128906 3.5625 -1.828125 3.90625 -1.828125 C 3.988281 -1.828125 4.078125 -1.84375 4.171875 -1.875 C 4.265625 -1.914062 4.332031 -1.953125 4.375 -1.984375 L 4.453125 -2.03125 L 5.015625 -0.21875 C 4.535156 0.0507812 3.984375 0.1875 3.359375 0.1875 C 2.941406 0.1875 2.578125 0.113281 2.265625 -0.03125 C 1.960938 -0.175781 1.734375 -0.375 1.578125 -0.625 C 1.421875 -0.875 1.304688 -1.132812 1.234375 -1.40625 C 1.171875 -1.6875 1.140625 -1.984375 1.140625 -2.296875 L 1.140625 -4.796875 L 0.203125 -4.796875 L 0.203125 -6.515625 Z M 1.140625 -6.515625 "/></g></g></g><g fill="#ff914d" fill-opacity="1"><g transform="translate(29.923343, 45.492387)"><g><path d="M 1.203125 -0.796875 C 0.597656 -1.460938 0.296875 -2.28125 0.296875 -3.25 C 0.296875 -4.21875 0.597656 -5.035156 1.203125 -5.703125 C 1.816406 -6.367188 2.59375 -6.703125 3.53125 -6.703125 C 4.394531 -6.703125 5.109375 -6.429688 5.671875 -5.890625 L 5.671875 -6.515625 L 7.921875 -6.515625 L 7.921875 0 L 5.6875 0 L 5.6875 -0.734375 L 5.671875 -0.734375 C 5.109375 -0.117188 4.394531 0.1875 3.53125 0.1875 C 2.59375 0.1875 1.816406 -0.140625 1.203125 -0.796875 Z M 3.125 -4.359375 C 2.832031 -4.066406 2.6875 -3.695312 2.6875 -3.25 C 2.6875 -2.800781 2.820312 -2.4375 3.09375 -2.15625 C 3.375 -1.875 3.742188 -1.734375 4.203125 -1.734375 C 4.640625 -1.734375 5 -1.875 5.28125 -2.15625 C 5.570312 -2.445312 5.71875 -2.8125 5.71875 -3.25 C 5.71875 -3.695312 5.570312 -4.066406 5.28125 -4.359375 C 4.988281 -4.648438 4.628906 -4.796875 4.203125 -4.796875 C 3.773438 -4.796875 3.414062 -4.648438 3.125 -4.359375 Z M 3.125 -4.359375 "/></g></g></g><g fill="#004aad" fill-opacity="0.4"><g transform="translate(39.469605, 45.828081)"><g><path d="M 6.765625 -10.484375 L 6.765625 -8.390625 L 3.15625 -8.390625 L 3.15625 -6.296875 L 6.609375 -6.296875 L 6.609375 -4.203125 L 3.15625 -4.203125 L 3.15625 -2.09375 L 6.765625 -2.09375 L 6.765625 0 L 0.765625 0 L 0.765625 -10.484375 Z M 6.765625 -10.484375 "/></g></g></g><g fill="#004aad" fill-opacity="0.4"><g transform="translate(47.344656, 45.828081)"><g><path d="M 0.765625 0 L 0.765625 -6.515625 L 3.015625 -6.515625 L 3.015625 -5.828125 L 3.03125 -5.828125 C 3.613281 -6.410156 4.238281 -6.703125 4.90625 -6.703125 C 5.226562 -6.703125 5.546875 -6.660156 5.859375 -6.578125 C 6.179688 -6.492188 6.488281 -6.363281 6.78125 -6.1875 C 7.070312 -6.007812 7.304688 -5.753906 7.484375 -5.421875 C 7.671875 -5.097656 7.765625 -4.722656 7.765625 -4.296875 L 7.765625 0 L 5.515625 0 L 5.515625 -3.6875 C 5.515625 -4.019531 5.40625 -4.3125 5.1875 -4.5625 C 4.96875 -4.820312 4.6875 -4.953125 4.34375 -4.953125 C 4.007812 -4.953125 3.703125 -4.820312 3.421875 -4.5625 C 3.148438 -4.300781 3.015625 -4.007812 3.015625 -3.6875 L 3.015625 0 Z M 0.765625 0 "/></g></g></g><g fill="#004aad" fill-opacity="0.4"><g transform="translate(56.248538, 45.828081)"><g><path d="M 0.765625 0 L 0.765625 -6.515625 L 3.015625 -6.515625 L 3.015625 -5.578125 L 3.03125 -5.578125 C 3.050781 -5.609375 3.078125 -5.648438 3.109375 -5.703125 C 3.148438 -5.753906 3.234375 -5.84375 3.359375 -5.96875 C 3.492188 -6.09375 3.628906 -6.207031 3.765625 -6.3125 C 3.910156 -6.414062 4.097656 -6.503906 4.328125 -6.578125 C 4.554688 -6.660156 4.789062 -6.703125 5.03125 -6.703125 C 5.28125 -6.703125 5.519531 -6.664062 5.75 -6.59375 C 5.988281 -6.53125 6.164062 -6.46875 6.28125 -6.40625 L 6.453125 -6.296875 L 5.515625 -4.390625 C 5.234375 -4.628906 4.84375 -4.75 4.34375 -4.75 C 4.070312 -4.75 3.835938 -4.6875 3.640625 -4.5625 C 3.453125 -4.445312 3.316406 -4.304688 3.234375 -4.140625 C 3.148438 -3.972656 3.09375 -3.828125 3.0625 -3.703125 C 3.03125 -3.585938 3.015625 -3.5 3.015625 -3.4375 L 3.015625 0 Z M 0.765625 0 "/></g></g></g><g fill="#004aad" fill-opacity="0.4"><g transform="translate(63.082053, 45.828081)"><g><path d="M 1.375 -0.765625 C 0.65625 -1.410156 0.296875 -2.238281 0.296875 -3.25 C 0.296875 -4.257812 0.671875 -5.085938 1.421875 -5.734375 C 2.171875 -6.378906 3.101562 -6.703125 4.21875 -6.703125 C 5.3125 -6.703125 6.234375 -6.375 6.984375 -5.71875 C 7.734375 -5.070312 8.109375 -4.25 8.109375 -3.25 C 8.109375 -2.25 7.738281 -1.425781 7 -0.78125 C 6.269531 -0.132812 5.34375 0.1875 4.21875 0.1875 C 3.050781 0.1875 2.101562 -0.128906 1.375 -0.765625 Z M 3.125 -4.359375 C 2.832031 -4.066406 2.6875 -3.695312 2.6875 -3.25 C 2.6875 -2.800781 2.820312 -2.4375 3.09375 -2.15625 C 3.375 -1.875 3.742188 -1.734375 4.203125 -1.734375 C 4.640625 -1.734375 5 -1.875 5.28125 -2.15625 C 5.570312 -2.445312 5.71875 -2.8125 5.71875 -3.25 C 5.71875 -3.695312 5.570312 -4.066406 5.28125 -4.359375 C 4.988281 -4.648438 4.628906 -4.796875 4.203125 -4.796875 C 3.773438 -4.796875 3.414062 -4.648438 3.125 -4.359375 Z M 3.125 -4.359375 "/></g></g></g><g fill="#004aad" fill-opacity="0.4"><g transform="translate(71.985935, 45.828081)"><g><path d="M 0.765625 0 L 0.765625 -10.921875 L 3.015625 -10.921875 L 3.015625 0 Z M 0.765625 0 "/></g></g></g><g fill="#004aad" fill-opacity="0.4"><g transform="translate(76.266423, 45.828081)"><g><path d="M 0.765625 0 L 0.765625 -10.921875 L 3.015625 -10.921875 L 3.015625 0 Z M 0.765625 0 "/></g></g></g><g fill="#004aad" fill-opacity="1"><g transform="translate(39.109616, 45.492387)"><g><path d="M 6.765625 -10.484375 L 6.765625 -8.390625 L 3.15625 -8.390625 L 3.15625 -6.296875 L 6.609375 -6.296875 L 6.609375 -4.203125 L 3.15625 -4.203125 L 3.15625 -2.09375 L 6.765625 -2.09375 L 6.765625 0 L 0.765625 0 L 0.765625 -10.484375 Z M 6.765625 -10.484375 "/></g></g></g><g fill="#004aad" fill-opacity="1"><g transform="translate(46.984667, 45.492387)"><g><path d="M 0.765625 0 L 0.765625 -6.515625 L 3.015625 -6.515625 L 3.015625 -5.828125 L 3.03125 -5.828125 C 3.613281 -6.410156 4.238281 -6.703125 4.90625 -6.703125 C 5.226562 -6.703125 5.546875 -6.660156 5.859375 -6.578125 C 6.179688 -6.492188 6.488281 -6.363281 6.78125 -6.1875 C 7.070312 -6.007812 7.304688 -5.753906 7.484375 -5.421875 C 7.671875 -5.097656 7.765625 -4.722656 7.765625 -4.296875 L 7.765625 0 L 5.515625 0 L 5.515625 -3.6875 C 5.515625 -4.019531 5.40625 -4.3125 5.1875 -4.5625 C 4.96875 -4.820312 4.6875 -4.953125 4.34375 -4.953125 C 4.007812 -4.953125 3.703125 -4.820312 3.421875 -4.5625 C 3.148438 -4.300781 3.015625 -4.007812 3.015625 -3.6875 L 3.015625 0 Z M 0.765625 0 "/></g></g></g><g fill="#004aad" fill-opacity="1"><g transform="translate(55.888549, 45.492387)"><g><path d="M 0.765625 0 L 0.765625 -6.515625 L 3.015625 -6.515625 L 3.015625 -5.578125 L 3.03125 -5.578125 C 3.050781 -5.609375 3.078125 -5.648438 3.109375 -5.703125 C 3.148438 -5.753906 3.234375 -5.84375 3.359375 -5.96875 C 3.492188 -6.09375 3.628906 -6.207031 3.765625 -6.3125 C 3.910156 -6.414062 4.097656 -6.503906 4.328125 -6.578125 C 4.554688 -6.660156 4.789062 -6.703125 5.03125 -6.703125 C 5.28125 -6.703125 5.519531 -6.664062 5.75 -6.59375 C 5.988281 -6.53125 6.164062 -6.46875 6.28125 -6.40625 L 6.453125 -6.296875 L 5.515625 -4.390625 C 5.234375 -4.628906 4.84375 -4.75 4.34375 -4.75 C 4.070312 -4.75 3.835938 -4.6875 3.640625 -4.5625 C 3.453125 -4.445312 3.316406 -4.304688 3.234375 -4.140625 C 3.148438 -3.972656 3.09375 -3.828125 3.0625 -3.703125 C 3.03125 -3.585938 3.015625 -3.5 3.015625 -3.4375 L 3.015625 0 Z M 0.765625 0 "/></g></g></g><g fill="#004aad" fill-opacity="1"><g transform="translate(62.722064, 45.492387)"><g><path d="M 1.375 -0.765625 C 0.65625 -1.410156 0.296875 -2.238281 0.296875 -3.25 C 0.296875 -4.257812 0.671875 -5.085938 1.421875 -5.734375 C 2.171875 -6.378906 3.101562 -6.703125 4.21875 -6.703125 C 5.3125 -6.703125 6.234375 -6.375 6.984375 -5.71875 C 7.734375 -5.070312 8.109375 -4.25 8.109375 -3.25 C 8.109375 -2.25 7.738281 -1.425781 7 -0.78125 C 6.269531 -0.132812 5.34375 0.1875 4.21875 0.1875 C 3.050781 0.1875 2.101562 -0.128906 1.375 -0.765625 Z M 3.125 -4.359375 C 2.832031 -4.066406 2.6875 -3.695312 2.6875 -3.25 C 2.6875 -2.800781 2.820312 -2.4375 3.09375 -2.15625 C 3.375 -1.875 3.742188 -1.734375 4.203125 -1.734375 C 4.640625 -1.734375 5 -1.875 5.28125 -2.15625 C 5.570312 -2.445312 5.71875 -2.8125 5.71875 -3.25 C 5.71875 -3.695312 5.570312 -4.066406 5.28125 -4.359375 C 4.988281 -4.648438 4.628906 -4.796875 4.203125 -4.796875 C 3.773438 -4.796875 3.414062 -4.648438 3.125 -4.359375 Z M 3.125 -4.359375 "/></g></g></g><g fill="#004aad" fill-opacity="1"><g transform="translate(71.625946, 45.492387)"><g><path d="M 0.765625 0 L 0.765625 -10.921875 L 3.015625 -10.921875 L 3.015625 0 Z M 0.765625 0 "/></g></g></g><g fill="#004aad" fill-opacity="1"><g transform="translate(75.906434, 45.492387)"><g><path d="M 0.765625 0 L 0.765625 -10.921875 L 3.015625 -10.921875 L 3.015625 0 Z M 0.765625 0 "/></g></g></g></svg>