<svg xmlns="http://www.w3.org/2000/svg" xmlns:xlink="http://www.w3.org/1999/xlink" width="100" zoomAndPan="magnify" viewBox="0 0 75 74.999997" height="100" preserveAspectRatio="xMidYMid meet" version="1.0"><defs><g/><clipPath id="b582c702f0"><path d="M 0.949219 5.859375 L 15 5.859375 L 15 20 L 0.949219 20 Z M 0.949219 5.859375 " clip-rule="nonzero"/></clipPath><clipPath id="551c795543"><path d="M 21 7 L 74.449219 7 L 74.449219 18 L 21 18 Z M 21 7 " clip-rule="nonzero"/></clipPath><clipPath id="6672e6e582"><path d="M 0.949219 28 L 15 28 L 15 42 L 0.949219 42 Z M 0.949219 28 " clip-rule="nonzero"/></clipPath><clipPath id="c0b15c375c"><path d="M 21 30 L 74.449219 30 L 74.449219 41 L 21 41 Z M 21 30 " clip-rule="nonzero"/></clipPath><clipPath id="4a54c653c4"><path d="M 0.949219 51 L 15 51 L 15 65 L 0.949219 65 Z M 0.949219 51 " clip-rule="nonzero"/></clipPath><clipPath id="e1fc902562"><path d="M 21 53 L 74.449219 53 L 74.449219 64 L 21 64 Z M 21 53 " clip-rule="nonzero"/></clipPath></defs><g clip-path="url(#b582c702f0)"><path fill="#ffffff" d="M 14.167969 12.492188 C 14.167969 12.925781 14.125 13.355469 14.039062 13.78125 C 13.957031 14.207031 13.832031 14.621094 13.664062 15.023438 C 13.496094 15.421875 13.292969 15.804688 13.054688 16.164062 C 12.8125 16.527344 12.539062 16.859375 12.230469 17.167969 C 11.925781 17.472656 11.589844 17.746094 11.230469 17.988281 C 10.867188 18.230469 10.488281 18.433594 10.085938 18.597656 C 9.6875 18.765625 9.273438 18.890625 8.847656 18.976562 C 8.421875 19.058594 7.992188 19.101562 7.558594 19.101562 C 7.125 19.101562 6.695312 19.058594 6.269531 18.976562 C 5.84375 18.890625 5.429688 18.765625 5.027344 18.597656 C 4.628906 18.433594 4.246094 18.230469 3.886719 17.988281 C 3.527344 17.746094 3.191406 17.472656 2.886719 17.167969 C 2.578125 16.859375 2.304688 16.527344 2.0625 16.164062 C 1.820312 15.804688 1.617188 15.421875 1.453125 15.023438 C 1.285156 14.621094 1.160156 14.207031 1.074219 13.78125 C 0.992188 13.355469 0.949219 12.925781 0.949219 12.492188 C 0.949219 12.058594 0.992188 11.628906 1.074219 11.203125 C 1.160156 10.777344 1.285156 10.363281 1.453125 9.964844 C 1.617188 9.5625 1.820312 9.183594 2.0625 8.820312 C 2.304688 8.460938 2.578125 8.125 2.886719 7.820312 C 3.191406 7.511719 3.527344 7.238281 3.886719 6.996094 C 4.246094 6.757812 4.628906 6.554688 5.027344 6.386719 C 5.429688 6.222656 5.84375 6.09375 6.269531 6.011719 C 6.695312 5.925781 7.125 5.882812 7.558594 5.882812 C 7.992188 5.882812 8.421875 5.925781 8.847656 6.011719 C 9.273438 6.09375 9.6875 6.222656 10.085938 6.386719 C 10.488281 6.554688 10.867188 6.757812 11.230469 6.996094 C 11.589844 7.238281 11.925781 7.511719 12.230469 7.820312 C 12.539062 8.125 12.8125 8.460938 13.054688 8.820312 C 13.292969 9.183594 13.496094 9.5625 13.664062 9.964844 C 13.832031 10.363281 13.957031 10.777344 14.039062 11.203125 C 14.125 11.628906 14.167969 12.058594 14.167969 12.492188 Z M 14.167969 12.492188 " fill-opacity="1" fill-rule="nonzero"/></g><g clip-path="url(#551c795543)"><path fill="#ffffff" d="M 21.910156 7.804688 L 74.082031 7.804688 L 74.082031 17.179688 L 21.910156 17.179688 Z M 21.910156 7.804688 " fill-opacity="1" fill-rule="nonzero"/></g><g clip-path="url(#6672e6e582)"><path fill="#ffffff" d="M 14.167969 35.359375 C 14.167969 35.792969 14.125 36.226562 14.039062 36.648438 C 13.957031 37.074219 13.832031 37.488281 13.664062 37.890625 C 13.496094 38.289062 13.292969 38.671875 13.054688 39.03125 C 12.8125 39.394531 12.539062 39.726562 12.230469 40.035156 C 11.925781 40.339844 11.589844 40.613281 11.230469 40.855469 C 10.867188 41.097656 10.488281 41.300781 10.085938 41.46875 C 9.6875 41.632812 9.273438 41.757812 8.847656 41.84375 C 8.421875 41.925781 7.992188 41.96875 7.558594 41.96875 C 7.125 41.96875 6.695312 41.925781 6.269531 41.84375 C 5.84375 41.757812 5.429688 41.632812 5.027344 41.46875 C 4.628906 41.300781 4.246094 41.097656 3.886719 40.855469 C 3.527344 40.613281 3.191406 40.339844 2.886719 40.035156 C 2.578125 39.726562 2.304688 39.394531 2.0625 39.03125 C 1.820312 38.671875 1.617188 38.289062 1.453125 37.890625 C 1.285156 37.488281 1.160156 37.074219 1.074219 36.648438 C 0.992188 36.226562 0.949219 35.792969 0.949219 35.359375 C 0.949219 34.925781 0.992188 34.496094 1.074219 34.070312 C 1.160156 33.644531 1.285156 33.234375 1.453125 32.832031 C 1.617188 32.429688 1.820312 32.050781 2.0625 31.6875 C 2.304688 31.328125 2.578125 30.996094 2.886719 30.6875 C 3.191406 30.378906 3.527344 30.105469 3.886719 29.867188 C 4.246094 29.625 4.628906 29.421875 5.027344 29.253906 C 5.429688 29.089844 5.84375 28.964844 6.269531 28.878906 C 6.695312 28.792969 7.125 28.75 7.558594 28.75 C 7.992188 28.75 8.421875 28.792969 8.847656 28.878906 C 9.273438 28.964844 9.6875 29.089844 10.085938 29.253906 C 10.488281 29.421875 10.867188 29.625 11.230469 29.867188 C 11.589844 30.105469 11.925781 30.378906 12.230469 30.6875 C 12.539062 30.996094 12.8125 31.328125 13.054688 31.6875 C 13.292969 32.050781 13.496094 32.429688 13.664062 32.832031 C 13.832031 33.234375 13.957031 33.644531 14.039062 34.070312 C 14.125 34.496094 14.167969 34.925781 14.167969 35.359375 Z M 14.167969 35.359375 " fill-opacity="1" fill-rule="nonzero"/></g><g clip-path="url(#c0b15c375c)"><path fill="#ffffff" d="M 21.910156 30.671875 L 74.082031 30.671875 L 74.082031 40.046875 L 21.910156 40.046875 Z M 21.910156 30.671875 " fill-opacity="1" fill-rule="nonzero"/></g><g clip-path="url(#4a54c653c4)"><path fill="#ffffff" d="M 14.167969 58.359375 C 14.167969 58.792969 14.125 59.222656 14.039062 59.648438 C 13.957031 60.074219 13.832031 60.488281 13.664062 60.886719 C 13.496094 61.289062 13.292969 61.667969 13.054688 62.03125 C 12.8125 62.390625 12.539062 62.726562 12.230469 63.03125 C 11.925781 63.339844 11.589844 63.613281 11.230469 63.855469 C 10.867188 64.09375 10.488281 64.296875 10.085938 64.464844 C 9.6875 64.628906 9.273438 64.757812 8.847656 64.839844 C 8.421875 64.925781 7.992188 64.96875 7.558594 64.96875 C 7.125 64.96875 6.695312 64.925781 6.269531 64.839844 C 5.84375 64.757812 5.429688 64.628906 5.027344 64.464844 C 4.628906 64.296875 4.246094 64.09375 3.886719 63.855469 C 3.527344 63.613281 3.191406 63.339844 2.886719 63.03125 C 2.578125 62.726562 2.304688 62.390625 2.0625 62.03125 C 1.820312 61.667969 1.617188 61.289062 1.453125 60.886719 C 1.285156 60.488281 1.160156 60.074219 1.074219 59.648438 C 0.992188 59.222656 0.949219 58.792969 0.949219 58.359375 C 0.949219 57.925781 0.992188 57.496094 1.074219 57.070312 C 1.160156 56.644531 1.285156 56.230469 1.453125 55.828125 C 1.617188 55.429688 1.820312 55.046875 2.0625 54.6875 C 2.304688 54.324219 2.578125 53.992188 2.886719 53.683594 C 3.191406 53.378906 3.527344 53.105469 3.886719 52.863281 C 4.246094 52.621094 4.628906 52.417969 5.027344 52.253906 C 5.429688 52.085938 5.84375 51.960938 6.269531 51.875 C 6.695312 51.792969 7.125 51.75 7.558594 51.75 C 7.992188 51.75 8.421875 51.792969 8.847656 51.875 C 9.273438 51.960938 9.6875 52.085938 10.085938 52.253906 C 10.488281 52.417969 10.867188 52.621094 11.230469 52.863281 C 11.589844 53.105469 11.925781 53.378906 12.230469 53.683594 C 12.539062 53.992188 12.8125 54.324219 13.054688 54.6875 C 13.292969 55.046875 13.496094 55.429688 13.664062 55.828125 C 13.832031 56.230469 13.957031 56.644531 14.039062 57.070312 C 14.125 57.496094 14.167969 57.925781 14.167969 58.359375 Z M 14.167969 58.359375 " fill-opacity="1" fill-rule="nonzero"/></g><g clip-path="url(#e1fc902562)"><path fill="#ffffff" d="M 21.910156 53.671875 L 74.082031 53.671875 L 74.082031 63.046875 L 21.910156 63.046875 Z M 21.910156 53.671875 " fill-opacity="1" fill-rule="nonzero"/></g><g fill="#ffffff" fill-opacity="1"><g transform="translate(32.00719, 60.500566)"><g><path d="M 0.703125 -1.15625 C 0.816406 -1.15625 0.914062 -1.128906 1 -1.078125 C 1.09375 -1.023438 1.164062 -0.953125 1.21875 -0.859375 C 1.269531 -0.773438 1.296875 -0.679688 1.296875 -0.578125 L 1.296875 -0.078125 C 1.296875 -0.0546875 1.285156 -0.0351562 1.265625 -0.015625 C 1.253906 -0.00390625 1.234375 0 1.203125 0 C 1.179688 0 1.160156 -0.00390625 1.140625 -0.015625 C 1.128906 -0.0351562 1.125 -0.0546875 1.125 -0.078125 L 1.125 -0.203125 C 1.082031 -0.140625 1.019531 -0.0859375 0.9375 -0.046875 C 0.863281 -0.00390625 0.78125 0.015625 0.6875 0.015625 C 0.582031 0.015625 0.488281 -0.0078125 0.40625 -0.0625 C 0.320312 -0.113281 0.253906 -0.179688 0.203125 -0.265625 C 0.148438 -0.359375 0.125 -0.460938 0.125 -0.578125 C 0.125 -0.679688 0.148438 -0.773438 0.203125 -0.859375 C 0.253906 -0.953125 0.320312 -1.023438 0.40625 -1.078125 C 0.5 -1.128906 0.597656 -1.15625 0.703125 -1.15625 Z M 0.703125 -0.140625 C 0.785156 -0.140625 0.859375 -0.15625 0.921875 -0.1875 C 0.984375 -0.226562 1.03125 -0.28125 1.0625 -0.34375 C 1.101562 -0.414062 1.125 -0.492188 1.125 -0.578125 C 1.125 -0.648438 1.101562 -0.71875 1.0625 -0.78125 C 1.03125 -0.851562 0.984375 -0.910156 0.921875 -0.953125 C 0.859375 -0.992188 0.785156 -1.015625 0.703125 -1.015625 C 0.628906 -1.015625 0.554688 -0.992188 0.484375 -0.953125 C 0.421875 -0.910156 0.367188 -0.851562 0.328125 -0.78125 C 0.296875 -0.71875 0.28125 -0.648438 0.28125 -0.578125 C 0.28125 -0.492188 0.296875 -0.414062 0.328125 -0.34375 C 0.367188 -0.28125 0.421875 -0.226562 0.484375 -0.1875 C 0.554688 -0.15625 0.628906 -0.140625 0.703125 -0.140625 Z M 0.703125 -0.140625 "/></g></g></g></svg>