<svg xmlns="http://www.w3.org/2000/svg" xmlns:xlink="http://www.w3.org/1999/xlink" width="50" zoomAndPan="magnify" viewBox="0 0 37.5 37.499999" height="50" preserveAspectRatio="xMidYMid meet" version="1.0"><defs><g/><clipPath id="4745dc6486"><path d="M 3.699219 3.699219 L 34.046875 3.699219 L 34.046875 34.046875 L 3.699219 34.046875 Z M 3.699219 3.699219 " clip-rule="nonzero"/></clipPath></defs><g clip-path="url(#4745dc6486)"><path fill="#040606" d="M 33.035156 32.027344 C 33.035156 32.582031 32.582031 33.035156 32.023438 33.035156 L 24.421875 33.035156 C 24.746094 32.613281 24.941406 32.089844 24.941406 31.515625 L 24.941406 27.472656 C 24.941406 25.40625 24.351562 23.441406 23.261719 21.75 C 24.140625 21.242188 25.125 20.953125 26.140625 20.90625 C 27.96875 20.816406 29.691406 21.460938 31.007812 22.714844 C 32.316406 23.960938 33.035156 25.644531 33.035156 27.445312 Z M 20.894531 33.035156 L 6.230469 33.035156 C 5.390625 33.035156 4.710938 32.355469 4.710938 31.515625 L 4.710938 27.714844 C 4.710938 22.46875 8.863281 18.050781 13.96875 17.867188 C 14.089844 17.863281 14.207031 17.863281 14.324219 17.863281 C 16.828125 17.863281 19.183594 18.808594 20.992188 20.554688 C 22.886719 22.382812 23.929688 24.839844 23.929688 27.472656 L 23.929688 31.515625 C 23.929688 32.355469 23.25 33.035156 22.414062 33.035156 Z M 8.253906 10.78125 C 8.253906 7.433594 10.976562 4.710938 14.320312 4.710938 C 17.667969 4.710938 20.390625 7.433594 20.390625 10.78125 C 20.390625 14.128906 17.667969 16.851562 14.320312 16.851562 C 10.976562 16.851562 8.253906 14.128906 8.253906 10.78125 Z M 22.414062 15.839844 C 22.414062 13.609375 24.230469 11.792969 26.460938 11.792969 C 28.691406 11.792969 30.503906 13.609375 30.503906 15.839844 C 30.503906 18.070312 28.691406 19.886719 26.460938 19.886719 C 24.230469 19.886719 22.414062 18.070312 22.414062 15.839844 Z M 28.875 20.28125 C 30.449219 19.421875 31.515625 17.753906 31.515625 15.839844 C 31.515625 13.050781 29.25 10.78125 26.460938 10.78125 C 23.671875 10.78125 21.402344 13.050781 21.402344 15.839844 C 21.402344 17.753906 22.476562 19.429688 24.050781 20.285156 C 23.574219 20.449219 23.109375 20.664062 22.671875 20.925781 C 22.371094 20.542969 22.050781 20.171875 21.695312 19.828125 C 20.410156 18.585938 18.871094 17.710938 17.199219 17.242188 C 19.671875 16.140625 21.402344 13.660156 21.402344 10.78125 C 21.402344 6.878906 18.226562 3.699219 14.320312 3.699219 C 10.417969 3.699219 7.242188 6.878906 7.242188 10.78125 C 7.242188 13.675781 8.988281 16.164062 11.480469 17.261719 C 7.019531 18.550781 3.699219 22.796875 3.699219 27.714844 L 3.699219 31.515625 C 3.699219 32.910156 4.835938 34.046875 6.230469 34.046875 L 32.023438 34.046875 C 33.140625 34.046875 34.046875 33.140625 34.046875 32.027344 L 34.046875 27.445312 C 34.046875 25.363281 33.214844 23.421875 31.703125 21.984375 C 30.882812 21.199219 29.917969 20.628906 28.875 20.28125 " fill-opacity="1" fill-rule="nonzero"/></g><g fill="#ffffff" fill-opacity="1"><g transform="translate(1.332237, 36.494446)"><g><path d="M 0.59375 -0.96875 C 0.6875 -0.96875 0.769531 -0.945312 0.84375 -0.90625 C 0.914062 -0.863281 0.972656 -0.800781 1.015625 -0.71875 C 1.054688 -0.644531 1.078125 -0.566406 1.078125 -0.484375 L 1.078125 -0.0625 C 1.078125 -0.0390625 1.070312 -0.0234375 1.0625 -0.015625 C 1.050781 -0.00390625 1.035156 0 1.015625 0 C 0.992188 0 0.972656 -0.00390625 0.953125 -0.015625 C 0.941406 -0.0234375 0.9375 -0.0390625 0.9375 -0.0625 L 0.9375 -0.171875 C 0.894531 -0.117188 0.84375 -0.0703125 0.78125 -0.03125 C 0.71875 0 0.648438 0.015625 0.578125 0.015625 C 0.492188 0.015625 0.414062 -0.00390625 0.34375 -0.046875 C 0.269531 -0.0976562 0.210938 -0.160156 0.171875 -0.234375 C 0.128906 -0.304688 0.109375 -0.390625 0.109375 -0.484375 C 0.109375 -0.566406 0.128906 -0.644531 0.171875 -0.71875 C 0.210938 -0.800781 0.269531 -0.863281 0.34375 -0.90625 C 0.414062 -0.945312 0.5 -0.96875 0.59375 -0.96875 Z M 0.59375 -0.109375 C 0.65625 -0.109375 0.710938 -0.125 0.765625 -0.15625 C 0.828125 -0.1875 0.875 -0.226562 0.90625 -0.28125 C 0.9375 -0.34375 0.953125 -0.410156 0.953125 -0.484375 C 0.953125 -0.546875 0.9375 -0.601562 0.90625 -0.65625 C 0.875 -0.71875 0.828125 -0.765625 0.765625 -0.796875 C 0.710938 -0.828125 0.65625 -0.84375 0.59375 -0.84375 C 0.53125 -0.84375 0.46875 -0.828125 0.40625 -0.796875 C 0.351562 -0.765625 0.3125 -0.71875 0.28125 -0.65625 C 0.25 -0.601562 0.234375 -0.546875 0.234375 -0.484375 C 0.234375 -0.410156 0.25 -0.34375 0.28125 -0.28125 C 0.3125 -0.226562 0.351562 -0.1875 0.40625 -0.15625 C 0.46875 -0.125 0.53125 -0.109375 0.59375 -0.109375 Z M 0.59375 -0.109375 "/></g></g></g></svg>