<svg xmlns="http://www.w3.org/2000/svg" xmlns:xlink="http://www.w3.org/1999/xlink" width="50" zoomAndPan="magnify" viewBox="0 0 37.5 37.499999" height="50" preserveAspectRatio="xMidYMid meet" version="1.0"><defs><g/><clipPath id="f3da2de1cf"><path d="M 3.699219 2.367188 L 33.304688 2.367188 L 33.304688 34.933594 L 3.699219 34.933594 Z M 3.699219 2.367188 " clip-rule="nonzero"/></clipPath></defs><g clip-path="url(#f3da2de1cf)"><path fill="#000000" d="M 33.304688 31.992188 L 33.304688 31.664062 C 33.304688 29.644531 32.914062 27.683594 32.140625 25.835938 C 31.394531 24.054688 30.328125 22.453125 28.96875 21.082031 C 27.609375 19.707031 26.027344 18.628906 24.265625 17.875 C 24.148438 17.824219 24.03125 17.777344 23.914062 17.730469 C 24.136719 17.546875 24.351562 17.351562 24.554688 17.144531 C 25.339844 16.351562 25.957031 15.425781 26.390625 14.394531 C 26.835938 13.324219 27.0625 12.191406 27.0625 11.023438 C 27.0625 9.855469 26.835938 8.722656 26.390625 7.652344 C 25.957031 6.625 25.339844 5.699219 24.554688 4.902344 C 23.769531 4.109375 22.855469 3.484375 21.835938 3.050781 C 20.78125 2.597656 19.660156 2.367188 18.503906 2.367188 C 17.347656 2.367188 16.226562 2.597656 15.171875 3.050781 C 14.152344 3.484375 13.238281 4.109375 12.453125 4.902344 C 11.667969 5.699219 11.050781 6.625 10.617188 7.652344 C 10.171875 8.722656 9.945312 9.855469 9.945312 11.023438 C 9.945312 12.191406 10.171875 13.324219 10.617188 14.394531 C 11.050781 15.425781 11.667969 16.347656 12.453125 17.144531 C 12.65625 17.351562 12.871094 17.546875 13.089844 17.730469 C 12.972656 17.777344 12.859375 17.824219 12.742188 17.875 C 10.980469 18.628906 9.394531 19.707031 8.039062 21.082031 C 6.679688 22.453125 5.613281 24.054688 4.867188 25.835938 C 4.09375 27.683594 3.703125 29.644531 3.703125 31.664062 L 3.703125 31.992188 C 3.703125 33.53125 4.867188 34.796875 6.351562 34.933594 L 30.855469 34.910156 L 30.867188 34.90625 C 31.121094 34.882812 31.367188 34.804688 31.59375 34.683594 C 32.601562 34.214844 33.304688 33.1875 33.304688 31.992188 Z M 12.195312 13.71875 C 11.839844 12.863281 11.65625 11.957031 11.65625 11.023438 C 11.65625 10.089844 11.839844 9.183594 12.195312 8.328125 C 12.539062 7.503906 13.035156 6.765625 13.664062 6.128906 C 14.292969 5.492188 15.023438 4.992188 15.839844 4.644531 C 16.683594 4.285156 17.578125 4.101562 18.503906 4.101562 C 19.429688 4.101562 20.324219 4.285156 21.167969 4.644531 C 21.984375 4.992188 22.714844 5.492188 23.34375 6.128906 C 23.972656 6.765625 24.46875 7.503906 24.8125 8.328125 C 25.167969 9.183594 25.351562 10.089844 25.351562 11.023438 C 25.351562 11.957031 25.167969 12.863281 24.8125 13.71875 C 24.46875 14.542969 23.972656 15.285156 23.34375 15.917969 C 22.714844 16.554688 21.984375 17.054688 21.167969 17.402344 C 20.324219 17.765625 19.429688 17.945312 18.503906 17.945312 C 17.578125 17.945312 16.683594 17.765625 15.839844 17.402344 C 15.023438 17.054688 14.292969 16.554688 13.664062 15.917969 C 13.035156 15.285156 12.539062 14.542969 12.195312 13.71875 Z M 31.59375 31.992188 C 31.59375 32.667969 31.050781 33.214844 30.382812 33.214844 L 6.625 33.214844 C 5.957031 33.214844 5.414062 32.667969 5.414062 31.992188 L 5.414062 31.664062 C 5.414062 29.878906 5.761719 28.144531 6.445312 26.511719 C 7.101562 24.9375 8.046875 23.519531 9.25 22.304688 C 10.449219 21.089844 11.851562 20.136719 13.410156 19.46875 C 13.753906 19.320312 14.105469 19.1875 14.457031 19.070312 C 14.582031 19.03125 14.707031 18.992188 14.828125 18.957031 C 14.875 18.941406 14.921875 18.925781 14.960938 18.90625 C 15.03125 18.9375 15.101562 18.96875 15.171875 18.996094 C 16.226562 19.449219 17.347656 19.679688 18.503906 19.679688 C 19.660156 19.679688 20.78125 19.449219 21.835938 18.996094 C 21.90625 18.96875 21.976562 18.9375 22.046875 18.90625 C 22.085938 18.925781 22.132812 18.941406 22.175781 18.957031 C 22.65625 19.097656 23.136719 19.269531 23.597656 19.46875 C 25.15625 20.136719 26.558594 21.089844 27.757812 22.304688 C 28.960938 23.519531 29.90625 24.9375 30.5625 26.511719 C 31.246094 28.144531 31.59375 29.878906 31.59375 31.664062 Z M 31.59375 31.992188 " fill-opacity="1" fill-rule="nonzero"/></g><g fill="#ffffff" fill-opacity="1"><g transform="translate(1.332237, 36.494446)"><g><path d="M 0.59375 -0.96875 C 0.6875 -0.96875 0.769531 -0.945312 0.84375 -0.90625 C 0.914062 -0.863281 0.972656 -0.800781 1.015625 -0.71875 C 1.054688 -0.644531 1.078125 -0.566406 1.078125 -0.484375 L 1.078125 -0.0625 C 1.078125 -0.0390625 1.070312 -0.0234375 1.0625 -0.015625 C 1.050781 -0.00390625 1.035156 0 1.015625 0 C 0.992188 0 0.972656 -0.00390625 0.953125 -0.015625 C 0.941406 -0.0234375 0.9375 -0.0390625 0.9375 -0.0625 L 0.9375 -0.171875 C 0.894531 -0.117188 0.84375 -0.0703125 0.78125 -0.03125 C 0.71875 0 0.648438 0.015625 0.578125 0.015625 C 0.492188 0.015625 0.414062 -0.00390625 0.34375 -0.046875 C 0.269531 -0.0976562 0.210938 -0.160156 0.171875 -0.234375 C 0.128906 -0.304688 0.109375 -0.390625 0.109375 -0.484375 C 0.109375 -0.566406 0.128906 -0.644531 0.171875 -0.71875 C 0.210938 -0.800781 0.269531 -0.863281 0.34375 -0.90625 C 0.414062 -0.945312 0.5 -0.96875 0.59375 -0.96875 Z M 0.59375 -0.109375 C 0.65625 -0.109375 0.710938 -0.125 0.765625 -0.15625 C 0.828125 -0.1875 0.875 -0.226562 0.90625 -0.28125 C 0.9375 -0.34375 0.953125 -0.410156 0.953125 -0.484375 C 0.953125 -0.546875 0.9375 -0.601562 0.90625 -0.65625 C 0.875 -0.71875 0.828125 -0.765625 0.765625 -0.796875 C 0.710938 -0.828125 0.65625 -0.84375 0.59375 -0.84375 C 0.53125 -0.84375 0.46875 -0.828125 0.40625 -0.796875 C 0.351562 -0.765625 0.3125 -0.71875 0.28125 -0.65625 C 0.25 -0.601562 0.234375 -0.546875 0.234375 -0.484375 C 0.234375 -0.410156 0.25 -0.34375 0.28125 -0.28125 C 0.3125 -0.226562 0.351562 -0.1875 0.40625 -0.15625 C 0.46875 -0.125 0.53125 -0.109375 0.59375 -0.109375 Z M 0.59375 -0.109375 "/></g></g></g></svg>